<svg width="24" height="12" viewBox="0 0 24 12" fill="none" xmlns="http://www.w3.org/2000/svg">
<g clip-path="url(#clip0_461_177)">
<path d="M12.5604 6C12.5604 7.18669 12.2038 8.34672 11.5357 9.33342C10.8676 10.3201 9.91808 11.0891 8.80711 11.5433C7.69613 11.9974 6.47365 12.1162 5.29424 11.8847C4.11484 11.6532 3.03149 11.0818 2.18118 10.2426C1.33088 9.40352 0.751817 8.33443 0.517219 7.17054C0.282621 6.00665 0.403025 4.80026 0.863206 3.7039C1.32339 2.60754 2.10268 1.67047 3.10253 1.01118C4.10238 0.351894 5.27788 0 6.48039 0C8.09237 0.00173705 9.63782 0.634436 10.7777 1.75928C11.9175 2.88412 12.5586 4.40923 12.5604 6ZM17.1204 0C16.5808 0 15.5624 0.25875 14.81 1.99219C14.3397 3.075 14.0804 4.5 14.0804 6C14.0804 7.5 14.3397 8.925 14.81 10.0078C15.5624 11.7412 16.5808 12 17.1204 12C17.66 12 18.6784 11.7412 19.4308 10.0078C19.901 8.925 20.1604 7.5 20.1604 6C20.1604 4.5 19.901 3.075 19.4308 1.99219C18.6784 0.25875 17.66 0 17.1204 0ZM22.4404 0C22.2388 0 22.0455 0.0790178 21.903 0.21967C21.7605 0.360322 21.6804 0.551087 21.6804 0.75V11.25C21.6804 11.4489 21.7605 11.6397 21.903 11.7803C22.0455 11.921 22.2388 12 22.4404 12C22.642 12 22.8353 11.921 22.9778 11.7803C23.1203 11.6397 23.2004 11.4489 23.2004 11.25V0.75C23.2004 0.551087 23.1203 0.360322 22.9778 0.21967C22.8353 0.0790178 22.642 0 22.4404 0Z" fill="black"/>
</g>
<defs>
<clipPath id="clip0_461_177">
<rect width="24" height="12" fill="white"/>
</clipPath>
</defs>
</svg>
