<svg width="24" height="15" viewBox="0 0 24 15" fill="none" xmlns="http://www.w3.org/2000/svg">
<g clip-path="url(#clip0_461_187)">
<path d="M21.63 2.1096H15.6288V0.6192H21.63V2.1096ZM11.634 8.2224C12.0204 8.8224 12.2136 9.5508 12.2136 10.4052C12.2136 11.2896 11.9952 12.0828 11.5524 12.7836C11.2793 13.2378 10.9211 13.635 10.4976 13.9536C10.0013 14.3283 9.4258 14.5845 8.8152 14.7024C8.12262 14.8405 7.41779 14.9076 6.7116 14.9028H0V0H7.1976C9.0108 0.03 10.296 0.5556 11.0568 1.5876C11.5128 2.2212 11.7384 2.9796 11.7384 3.864C11.7384 4.7748 11.5104 5.5032 11.0496 6.0576C10.794 6.3684 10.416 6.6504 9.9156 6.906C10.6728 7.1832 11.2488 7.62 11.634 8.2224ZM3.438 5.8764H6.5904C7.2384 5.8764 7.7628 5.7528 8.166 5.5068C8.5692 5.2608 8.7708 4.8228 8.7708 4.1964C8.7708 3.5028 8.5044 3.0432 7.9704 2.8212C7.5108 2.6676 6.924 2.5884 6.2112 2.5884H3.4368L3.438 5.8764ZM9.0744 10.1928C9.0744 9.4188 8.7576 8.8836 8.1264 8.5968C7.7724 8.4324 7.2744 8.3496 6.636 8.3436H3.4368V12.3156H6.588C7.2348 12.3156 7.7352 12.2304 8.0964 12.054C8.748 11.7288 9.0756 11.1108 9.0756 10.1928H9.0744ZM23.856 7.7688C23.928 8.256 23.9616 8.9628 23.9484 9.888H16.176C16.2192 10.9608 16.5888 11.7108 17.292 12.1404C17.7156 12.4092 18.228 12.5412 18.8304 12.5412C19.464 12.5412 19.9812 12.3804 20.3784 12.0504C20.5956 11.8764 20.7864 11.6304 20.952 11.3184H23.8008C23.7264 11.952 23.3832 12.5952 22.7676 13.248C21.8124 14.286 20.4732 14.8068 18.7524 14.8068C17.3316 14.8068 16.0788 14.3676 14.9916 13.4928C13.908 12.6144 13.3644 11.1912 13.3644 9.216C13.3644 7.3644 13.8528 5.9472 14.8332 4.9608C15.8172 3.972 17.0868 3.48 18.6516 3.48C19.5804 3.48 20.4156 3.6456 21.162 3.9792C21.906 4.3128 22.5204 4.8384 23.0052 5.5596C23.4432 6.1956 23.7252 6.93 23.8572 7.7676L23.856 7.7688ZM21.0516 8.046C21 7.3044 20.7516 6.7428 20.3064 6.3588C19.8636 5.9748 19.3104 5.7816 18.6516 5.7816C17.934 5.7816 17.3796 5.988 16.9872 6.3936C16.5912 6.798 16.344 7.3488 16.2432 8.046H21.0516Z" fill="black"/>
</g>
<defs>
<clipPath id="clip0_461_187">
<rect width="24" height="15" fill="white"/>
</clipPath>
</defs>
</svg>
