<svg width="17" height="16" viewBox="0 0 17 16" fill="none" xmlns="http://www.w3.org/2000/svg">
<g clip-path="url(#clip0_461_179)">
<path d="M5.74486 0.989216C5.69508 0.958516 5.65509 0.914335 5.62955 0.861829C5.60401 0.809323 5.59397 0.750656 5.6006 0.692675C5.60723 0.634693 5.63026 0.579788 5.66701 0.534365C5.70375 0.488942 5.75269 0.454875 5.80811 0.436138C6.93363 0.0494372 8.13138 -0.0825082 9.3144 0.0498805C10.4974 0.182269 11.6361 0.57567 12.6476 1.20152C12.6843 1.22457 12.7156 1.25506 12.7397 1.291C12.7638 1.32694 12.7799 1.36753 12.7872 1.41013C12.7945 1.45273 12.7927 1.49637 12.7819 1.53823C12.7712 1.58009 12.7517 1.61921 12.7248 1.65306C11.8316 2.7912 10.7362 3.75594 9.49323 4.49922C8.48918 3.09326 7.21507 1.90018 5.74486 0.989216ZM8.39163 5.07691C7.26495 3.54391 5.7827 2.3058 4.07162 1.46845C4.02263 1.44472 3.96814 1.43456 3.91385 1.43902C3.85957 1.44349 3.80749 1.46242 3.76305 1.49383C2.37786 2.48183 1.34239 3.88223 0.805392 5.49384C0.791901 5.53504 0.787294 5.57863 0.791874 5.62174C0.796454 5.66484 0.810116 5.7065 0.831966 5.74398C0.853816 5.78145 0.883361 5.8139 0.918664 5.83919C0.953967 5.86449 0.994232 5.88206 1.03682 5.89076C1.84201 6.06382 2.66321 6.152 3.48688 6.15384C5.18088 6.15475 6.85469 5.78724 8.39163 5.07691ZM16.3991 7.12999C16.2029 5.34578 15.4096 3.6795 14.1473 2.39999C14.1165 2.36881 14.0794 2.34453 14.0385 2.32878C13.9975 2.31303 13.9537 2.30616 13.9099 2.30864C13.8661 2.31111 13.8233 2.32287 13.7844 2.34314C13.7456 2.3634 13.7115 2.39169 13.6844 2.42614C12.7081 3.66643 11.5138 4.71945 10.1597 5.53384C10.5828 6.26458 10.9329 7.03493 11.205 7.83384C12.3102 7.53508 13.4504 7.38401 14.5955 7.38461C15.0852 7.38463 15.5745 7.41211 16.0612 7.46691C16.1065 7.47142 16.1522 7.46588 16.1951 7.45069C16.238 7.4355 16.277 7.41104 16.3093 7.37906C16.3416 7.34708 16.3664 7.30837 16.3819 7.26571C16.3974 7.22305 16.4033 7.17749 16.3991 7.1323V7.12999ZM11.546 9.01461C11.7747 9.98449 11.8899 10.9775 11.8893 11.9738C11.8888 12.9275 11.7825 13.8781 11.5722 14.8085C11.5588 14.8654 11.5619 14.9251 11.5813 14.9803C11.6006 15.0356 11.6354 15.0842 11.6815 15.1205C11.7275 15.1567 11.783 15.1791 11.8414 15.185C11.8998 15.191 11.9587 15.1801 12.0112 15.1538C13.1812 14.5686 14.1903 13.7074 14.9508 12.645C15.7113 11.5826 16.2002 10.3512 16.3752 9.05768C16.3804 9.01735 16.3777 8.97636 16.367 8.9371C16.3563 8.89785 16.3379 8.86109 16.3128 8.82897C16.2878 8.79685 16.2566 8.77 16.2211 8.74998C16.1856 8.72995 16.1464 8.71714 16.1059 8.7123C14.5804 8.51652 13.0312 8.62106 11.546 9.01999V9.01461ZM10.0309 8.21076C9.78219 7.4834 9.46203 6.7823 9.07512 6.11768C7.33139 6.95301 5.42139 7.38603 3.48688 7.38461C2.58261 7.38465 1.68081 7.29055 0.796135 7.10384C0.753451 7.09486 0.709343 7.09501 0.666721 7.10427C0.624099 7.11353 0.583931 7.1317 0.548867 7.15758C0.513803 7.18346 0.48464 7.21646 0.463302 7.2544C0.441964 7.29234 0.428936 7.33436 0.425077 7.37768C0.409134 7.58281 0.400905 7.79025 0.400391 7.99999C0.399986 9.09542 0.625805 10.1792 1.06378 11.1838C1.50176 12.1884 2.14251 13.0923 2.94611 13.8392C2.98001 13.8702 3.02042 13.8932 3.06439 13.9066C3.10836 13.92 3.15478 13.9235 3.20025 13.9167C3.24573 13.9099 3.28911 13.8931 3.32722 13.8674C3.36533 13.8418 3.39722 13.808 3.42054 13.7685C4.92622 11.2209 7.25795 9.26129 10.0309 8.21307V8.21076ZM4.38868 14.5577C4.3684 14.593 4.35535 14.632 4.35027 14.6723C4.34519 14.7127 4.34819 14.7537 4.3591 14.7929C4.37 14.8321 4.3886 14.8687 4.4138 14.9007C4.43901 14.9327 4.47032 14.9594 4.50594 14.9792C6.11925 15.8812 7.99578 16.1989 9.81723 15.8785C9.87142 15.869 9.92202 15.8451 9.96361 15.8092C10.0052 15.7733 10.0362 15.7268 10.0533 15.6746C10.4512 14.4819 10.6543 13.2331 10.655 11.9761C10.6552 11.1102 10.5584 10.2469 10.3665 9.4023C7.83875 10.3844 5.72763 12.205 4.38868 14.5577Z" fill="black"/>
</g>
<defs>
<clipPath id="clip0_461_179">
<rect width="17" height="16" fill="white"/>
</clipPath>
</defs>
</svg>
