<svg width="18" height="17" viewBox="0 0 18 17" fill="none" xmlns="http://www.w3.org/2000/svg">
<g clip-path="url(#clip0_461_175)">
<path d="M2.32706 0C1.81607 0 1.32602 0.197715 0.964698 0.54965C0.603378 0.901585 0.400391 1.37891 0.400391 1.87662C0.400391 2.37433 0.603378 2.85166 0.964698 3.2036C1.32602 3.55553 1.81607 3.75325 2.32706 3.75325C2.83804 3.75325 3.3281 3.55553 3.68942 3.2036C4.05074 2.85166 4.25372 2.37433 4.25372 1.87662C4.25372 1.37891 4.05074 0.901585 3.68942 0.54965C3.3281 0.197715 2.83804 0 2.32706 0ZM0.513724 5.2987C0.483666 5.2987 0.454839 5.31033 0.433585 5.33103C0.412331 5.35174 0.400391 5.37981 0.400391 5.40909V16.8896C0.400391 16.9505 0.451164 17 0.513724 17H4.14039C4.17045 17 4.19928 16.9884 4.22053 16.9677C4.24178 16.947 4.25372 16.9189 4.25372 16.8896V5.40909C4.25372 5.37981 4.24178 5.35174 4.22053 5.33103C4.19928 5.31033 4.17045 5.2987 4.14039 5.2987H0.513724ZM6.40706 5.2987C6.377 5.2987 6.34817 5.31033 6.32692 5.33103C6.30566 5.35174 6.29372 5.37981 6.29372 5.40909V16.8896C6.29372 16.9505 6.3445 17 6.40706 17H10.0337C10.0638 17 10.0926 16.9884 10.1139 16.9677C10.1351 16.947 10.1471 16.9189 10.1471 16.8896V10.7078C10.1471 10.2686 10.3262 9.84746 10.645 9.53693C10.9638 9.2264 11.3962 9.05195 11.8471 9.05195C12.2979 9.05195 12.7303 9.2264 13.0491 9.53693C13.368 9.84746 13.5471 10.2686 13.5471 10.7078V16.8896C13.5471 16.9505 13.5978 17 13.6604 17H17.2871C17.3171 17 17.3459 16.9884 17.3672 16.9677C17.3885 16.947 17.4004 16.9189 17.4004 16.8896V9.27714C17.4004 7.13382 15.4873 5.45766 13.2977 5.65107C12.6202 5.71113 11.9566 5.87444 11.3312 6.13501L10.1471 6.62956V5.40909C10.1471 5.37981 10.1351 5.35174 10.1139 5.33103C10.0926 5.31033 10.0638 5.2987 10.0337 5.2987H6.40706Z" fill="black"/>
</g>
<defs>
<clipPath id="clip0_461_175">
<rect width="18" height="17" fill="white"/>
</clipPath>
</defs>
</svg>
