<svg width="15" height="17" viewBox="0 0 15 17" fill="none" xmlns="http://www.w3.org/2000/svg">
<path d="M7.39984 16.0485C7.04784 16.0485 6.69584 15.8085 6.34384 15.3285C5.99184 14.8485 5.81584 14.2885 5.81584 13.6485C5.81584 13.6165 5.83184 13.5205 5.86384 13.3605C5.92784 13.2005 6.03984 12.8805 6.19984 12.4005C6.61584 11.1205 6.90384 10.1765 7.06384 9.56845C7.22384 8.96045 7.30384 8.49645 7.30384 8.17645C7.01584 8.36845 6.63184 8.70445 6.15184 9.18445C5.67184 9.63245 4.98384 10.3525 4.08784 11.3445C3.76784 11.6965 3.55984 11.9205 3.46384 12.0165C3.36784 12.1125 3.30384 12.1765 3.27184 12.2085C2.72784 12.5285 2.16784 12.6565 1.59184 12.5925C1.01584 12.5285 0.631844 12.3525 0.439844 12.0645C0.279844 11.7125 0.311844 11.2805 0.535844 10.7685C0.791844 10.2245 1.19184 9.80845 1.73584 9.52045C1.76784 9.48845 1.86384 9.45645 2.02384 9.42445C2.21584 9.39245 2.58384 9.31245 3.12784 9.18445C4.40784 8.89645 5.33584 8.67245 5.91184 8.51245C6.48784 8.35245 6.90384 8.19245 7.15984 8.03245C6.83984 7.87245 6.37584 7.71245 5.76784 7.55245C5.19184 7.36045 4.29584 7.13645 3.07984 6.88045C2.53584 6.75245 2.18384 6.67245 2.02384 6.64045C1.86384 6.60845 1.76784 6.57645 1.73584 6.54445C1.19184 6.25645 0.791844 5.85645 0.535844 5.34445C0.311844 4.80045 0.279844 4.36845 0.439844 4.04845C0.663844 3.72845 1.04784 3.55245 1.59184 3.52045C2.16784 3.45645 2.72784 3.58445 3.27184 3.90445C3.30384 3.93645 3.38384 4.01645 3.51184 4.14445C3.63984 4.24045 3.89584 4.49645 4.27984 4.91245C5.14384 5.90445 5.79984 6.60845 6.24784 7.02445C6.69584 7.44045 7.04784 7.71245 7.30384 7.84045C7.27184 7.48845 7.17584 7.02445 7.01584 6.44845C6.88784 5.84045 6.61584 4.94445 6.19984 3.76045C6.03984 3.24845 5.92784 2.91245 5.86384 2.75245C5.83184 2.59245 5.81584 2.48045 5.81584 2.41645C5.81584 1.77645 5.97584 1.23245 6.29584 0.784452C6.64784 0.304453 7.01584 0.0644531 7.39984 0.0644531C7.75184 0.0644531 8.08784 0.304453 8.40784 0.784452C8.75984 1.23245 8.93584 1.77645 8.93584 2.41645C8.93584 2.48045 8.90384 2.60845 8.83984 2.80045C8.80784 2.96045 8.69584 3.32845 8.50384 3.90445C8.11984 5.12045 7.84784 6.01645 7.68784 6.59245C7.55984 7.13645 7.49584 7.55245 7.49584 7.84045C7.78384 7.64845 8.16784 7.32845 8.64784 6.88045C9.12784 6.43245 9.79984 5.72845 10.6638 4.76845C10.9838 4.41645 11.1918 4.19245 11.2878 4.09645C11.3838 4.00045 11.4478 3.93645 11.4798 3.90445C12.0238 3.58445 12.5838 3.45645 13.1598 3.52045C13.7358 3.55245 14.1198 3.72845 14.3118 4.04845C14.5038 4.36845 14.4718 4.78445 14.2158 5.29645C13.9598 5.80845 13.5598 6.22445 13.0158 6.54445C12.9838 6.57645 12.8718 6.60845 12.6798 6.64045C12.5198 6.67245 12.1838 6.75245 11.6718 6.88045C10.4558 7.13645 9.54384 7.36045 8.93584 7.55245C8.35984 7.71245 7.91184 7.87245 7.59184 8.03245C7.91184 8.19245 8.35984 8.36845 8.93584 8.56045C9.51184 8.72045 10.4078 8.92845 11.6238 9.18445C12.1678 9.31245 12.5198 9.39245 12.6798 9.42445C12.8718 9.45645 12.9838 9.48845 13.0158 9.52045C13.5598 9.84045 13.9598 10.2725 14.2158 10.8165C14.4718 11.3285 14.5038 11.7445 14.3118 12.0645C14.1198 12.3525 13.7358 12.5285 13.1598 12.5925C12.6158 12.6565 12.0718 12.5285 11.5278 12.2085C11.4958 12.1765 11.4158 12.0965 11.2878 11.9685C11.1598 11.8405 10.8878 11.5685 10.4718 11.1525C9.60784 10.1605 8.95184 9.45645 8.50384 9.04045C8.08784 8.62445 7.75184 8.35245 7.49584 8.22445C7.52784 8.57645 7.60784 9.07245 7.73584 9.71245C7.89584 10.3205 8.16784 11.2165 8.55184 12.4005C8.71184 12.8805 8.80784 13.2005 8.83984 13.3605C8.90384 13.5205 8.93584 13.6165 8.93584 13.6485C8.93584 14.2885 8.75984 14.8485 8.40784 15.3285C8.08784 15.8085 7.75184 16.0485 7.39984 16.0485Z" fill="#D5CDC4"/>
</svg>
