<svg id="svg" version="1.1" xmlns="http://www.w3.org/2000/svg" xmlns:xlink="http://www.w3.org/1999/xlink" width="400" height="400" viewBox="0, 0, 400,400"><g id="svgg"><path id="path0" d="M71.713 26.864 C 65.773 28.195,65.038 37.050,70.673 39.405 C 72.412 40.131,81.186 40.240,82.526 39.551 C 88.630 36.415,87.764 28.348,81.160 26.825 C 79.011 26.330,74.004 26.350,71.713 26.864 M37.012 27.713 C 32.687 30.162,32.358 35.970,36.389 38.700 C 38.365 40.038,47.680 40.056,50.046 38.726 C 54.281 36.346,54.036 30.058,49.616 27.721 C 47.061 26.370,39.392 26.365,37.012 27.713 M71.303 180.444 C 65.423 182.153,65.642 191.748,71.588 192.938 C 75.299 193.680,234.568 193.197,236.238 192.438 C 240.601 190.457,241.038 184.633,237.063 181.436 L 235.526 180.200 154.063 180.134 C 104.020 180.093,72.100 180.213,71.303 180.444 M37.400 180.965 C 32.559 183.116,32.393 189.617,37.110 192.300 C 38.957 193.350,48.709 192.964,50.263 191.779 C 53.986 188.939,53.621 183.125,49.592 181.101 C 47.828 180.214,39.302 180.119,37.400 180.965 M253.301 186.600 C 253.305 187.480,253.387 187.793,253.483 187.295 C 253.579 186.798,253.575 186.078,253.475 185.695 C 253.375 185.313,253.296 185.720,253.301 186.600 M326.501 186.600 C 326.505 187.480,326.587 187.793,326.683 187.295 C 326.779 186.798,326.775 186.078,326.675 185.695 C 326.575 185.313,326.496 185.720,326.501 186.600 M254.998 191.137 C 255.434 191.652,256.153 192.259,256.596 192.486 C 257.445 192.921,257.321 192.787,255.403 191.194 C 254.248 190.235,254.234 190.233,254.998 191.137 M324.000 191.660 C 323.230 192.335,322.962 192.705,323.404 192.481 C 324.135 192.111,325.947 190.378,325.562 190.416 C 325.473 190.425,324.770 190.985,324.000 191.660 M274.700 193.500 C 283.115 193.560,296.885 193.560,305.300 193.500 C 313.715 193.440,306.830 193.390,290.000 193.390 C 273.170 193.390,266.285 193.440,274.700 193.500 M161.270 206.700 C 169.559 206.760,183.239 206.760,191.670 206.700 C 200.102 206.640,193.320 206.590,176.600 206.590 C 159.880 206.590,152.982 206.639,161.270 206.700 M49.692 208.240 C 46.013 211.139,46.396 216.853,50.408 218.916 C 52.533 220.008,61.857 219.764,63.448 218.575 C 67.505 215.541,67.233 210.133,62.901 207.700 C 61.020 206.643,51.209 207.044,49.692 208.240 M229.705 208.125 C 226.171 210.512,226.193 215.971,229.747 218.506 C 231.563 219.802,247.334 220.093,249.600 218.873 C 253.642 216.696,253.992 211.065,250.263 208.221 L 248.924 207.200 239.962 207.225 C 231.426 207.249,230.938 207.291,229.705 208.125 M161.130 233.500 C 169.781 233.560,183.821 233.560,192.330 233.500 C 200.838 233.440,193.760 233.390,176.600 233.390 C 159.440 233.390,152.478 233.440,161.130 233.500 M50.098 234.628 C 44.926 237.728,46.681 245.478,52.727 246.233 C 63.996 247.641,70.173 241.973,64.460 235.467 C 62.522 233.260,53.281 232.720,50.098 234.628 M141.923 235.100 C 141.218 235.921,140.690 236.800,140.901 236.800 C 140.983 236.800,141.449 236.260,141.937 235.600 C 142.901 234.296,142.892 233.972,141.923 235.100 M140.402 242.633 C 140.403 242.835,140.868 243.540,141.435 244.200 L 142.466 245.400 141.563 244.000 C 140.404 242.204,140.400 242.199,140.402 242.633 M210.800 244.860 C 210.030 245.535,209.762 245.905,210.204 245.681 C 210.935 245.311,212.747 243.578,212.362 243.616 C 212.273 243.625,211.570 244.185,210.800 244.860 M161.670 246.700 C 169.739 246.760,183.059 246.760,191.270 246.700 C 199.482 246.639,192.880 246.590,176.600 246.590 C 160.320 246.590,153.602 246.639,161.670 246.700 M71.303 260.444 C 65.877 262.022,65.367 270.090,70.538 272.544 C 72.661 273.551,187.339 273.551,189.462 272.544 C 193.949 270.415,194.351 263.775,190.151 261.164 L 188.600 260.200 130.600 260.133 C 95.219 260.093,72.094 260.214,71.303 260.444 M36.697 261.290 C 32.570 263.682,32.799 270.130,37.086 272.241 C 38.977 273.173,45.757 273.515,48.178 272.802 C 53.561 271.216,54.573 263.947,49.800 261.159 C 47.844 260.017,38.736 260.108,36.697 261.290 M162.700 286.699 C 166.055 286.766,171.545 286.766,174.900 286.699 C 178.255 286.632,175.510 286.578,168.800 286.578 C 162.090 286.578,159.345 286.632,162.700 286.699 M51.136 287.338 C 43.672 290.655,46.594 299.351,55.357 299.898 C 63.919 300.432,68.702 295.870,65.493 290.230 C 63.758 287.180,55.317 285.480,51.136 287.338 M139.714 293.000 C 139.717 294.100,139.795 294.503,139.887 293.895 C 139.979 293.286,139.977 292.386,139.882 291.895 C 139.787 291.403,139.711 291.900,139.714 293.000 M186.393 293.481 C 186.287 294.625,186.347 295.415,186.526 295.235 C 186.705 295.056,186.791 294.119,186.718 293.154 L 186.585 291.400 186.393 293.481 M145.111 299.672 C 145.490 299.821,150.390 299.922,156.000 299.896 C 161.610 299.870,165.210 299.796,164.000 299.731 C 159.048 299.465,144.472 299.419,145.111 299.672 M144.538 313.506 C 144.120 313.771,173.102 313.762,192.800 313.490 C 197.090 313.431,188.090 313.344,172.800 313.297 C 157.510 313.250,144.792 313.344,144.538 313.506 M50.600 314.398 C 46.983 316.201,45.900 321.557,48.605 324.262 C 51.537 327.194,61.967 327.372,64.460 324.533 C 67.395 321.191,66.726 316.630,62.992 314.515 C 60.748 313.244,53.061 313.172,50.600 314.398 M204.799 315.900 C 205.322 316.615,205.813 317.200,205.889 317.200 C 206.193 317.200,205.201 315.700,204.545 315.167 C 204.113 314.816,204.210 315.096,204.799 315.900 M153.927 326.700 C 158.837 326.763,166.757 326.763,171.527 326.700 C 176.297 326.636,172.280 326.584,162.600 326.584 C 152.920 326.584,149.017 326.636,153.927 326.700 " stroke="none" fill="#f5bf83" fill-rule="evenodd"></path><path id="path1" d="M274.470 179.900 C 282.759 179.960,296.439 179.960,304.870 179.900 C 313.302 179.840,306.520 179.790,289.800 179.790 C 273.080 179.790,266.182 179.839,274.470 179.900 M83.672 207.473 C 79.240 209.656,78.880 216.244,83.049 218.836 L 84.600 219.800 103.431 219.800 L 122.262 219.800 123.732 218.679 C 127.667 215.678,127.369 209.727,123.176 207.588 C 120.997 206.476,85.901 206.374,83.672 207.473 M161.270 220.300 C 169.559 220.360,183.239 220.360,191.670 220.300 C 200.102 220.240,193.320 220.190,176.600 220.190 C 159.880 220.190,152.982 220.239,161.270 220.300 M85.463 233.494 C 80.700 233.987,78.522 240.462,81.822 244.318 C 83.959 246.814,84.347 246.855,104.230 246.720 L 121.860 246.600 123.519 245.502 C 128.535 242.181,127.048 234.712,121.143 233.572 C 119.446 233.244,88.530 233.176,85.463 233.494 M274.963 233.500 C 291.847 233.575,299.084 233.738,299.463 234.052 C 299.858 234.380,300.142 234.380,300.537 234.052 C 300.916 233.738,308.153 233.575,325.037 233.500 C 338.217 233.441,326.950 233.394,300.000 233.394 C 273.050 233.394,261.783 233.441,274.963 233.500 M247.454 234.404 C 244.930 235.664,243.379 237.033,240.309 240.714 C 238.711 242.631,237.311 244.290,237.199 244.400 C 237.088 244.510,235.113 246.850,232.811 249.600 C 230.509 252.350,228.528 254.690,228.408 254.800 C 228.288 254.910,225.497 258.240,222.205 262.200 C 218.914 266.160,215.824 269.850,215.340 270.400 C 203.301 284.077,203.365 288.092,215.851 302.400 C 216.331 302.950,220.625 307.990,225.394 313.600 C 230.163 319.210,235.295 325.240,236.799 327.000 C 239.917 330.648,244.525 336.058,247.021 339.000 C 247.954 340.100,250.986 343.660,253.759 346.912 C 256.531 350.164,258.827 353.044,258.861 353.312 C 258.894 353.580,258.943 353.987,258.968 354.216 C 259.027 354.751,261.178 357.382,264.097 360.493 C 265.360 361.839,266.314 363.019,266.217 363.116 C 266.120 363.213,266.932 364.160,268.021 365.220 C 269.109 366.280,270.000 367.350,270.000 367.598 C 270.000 367.845,270.180 367.936,270.400 367.800 C 270.620 367.664,270.800 367.934,270.800 368.400 C 270.800 368.866,270.980 369.136,271.200 369.000 C 271.420 368.864,271.600 368.922,271.600 369.128 C 271.600 369.335,272.320 370.245,273.200 371.152 C 274.080 372.059,274.800 372.915,274.800 373.054 C 274.800 373.192,275.188 373.642,275.661 374.053 C 276.135 374.464,276.407 374.800,276.265 374.800 C 276.123 374.800,276.511 375.295,277.127 375.900 C 277.744 376.505,278.684 377.630,279.218 378.400 C 279.752 379.170,280.912 380.532,281.795 381.426 C 282.678 382.321,283.850 383.658,284.400 384.398 C 284.950 385.139,285.985 386.336,286.700 387.059 C 287.415 387.782,288.000 388.493,288.000 388.640 C 288.000 388.998,289.544 390.319,290.900 391.121 C 291.505 391.480,292.000 391.914,292.000 392.086 C 292.000 392.259,292.461 392.400,293.024 392.400 C 293.604 392.400,293.940 392.573,293.800 392.800 C 293.653 393.038,294.129 393.200,294.976 393.200 C 295.759 393.200,296.400 393.380,296.400 393.600 C 296.400 393.837,297.867 394.000,300.000 394.000 C 302.133 394.000,303.600 393.837,303.600 393.600 C 303.600 393.380,304.241 393.200,305.024 393.200 C 305.871 393.200,306.347 393.038,306.200 392.800 C 306.060 392.573,306.396 392.400,306.976 392.400 C 307.539 392.400,308.000 392.259,308.000 392.086 C 308.000 391.914,308.495 391.480,309.100 391.121 C 310.465 390.314,312.000 388.997,312.000 388.634 C 312.000 388.484,312.900 387.462,314.000 386.362 C 315.100 385.262,316.000 384.186,316.000 383.970 C 316.000 383.755,316.787 382.792,317.748 381.831 C 318.709 380.869,320.010 379.389,320.638 378.541 C 321.266 377.694,322.278 376.505,322.886 375.900 C 323.495 375.295,323.906 374.800,323.800 374.800 C 323.514 374.800,324.704 373.420,327.500 370.509 C 328.875 369.078,330.000 367.736,330.000 367.528 C 330.000 367.319,330.900 366.271,332.000 365.200 C 333.100 364.129,334.000 363.084,334.000 362.880 C 334.000 362.675,334.945 361.505,336.100 360.279 C 338.539 357.691,342.390 353.118,342.905 352.198 C 343.101 351.849,344.327 350.456,345.630 349.103 C 346.934 347.751,348.000 346.487,348.000 346.296 C 348.000 346.105,348.912 345.060,350.027 343.974 C 351.141 342.888,351.940 342.000,351.801 342.000 C 351.663 342.000,352.551 340.966,353.775 339.702 C 354.999 338.439,356.000 337.230,356.000 337.017 C 356.000 336.803,356.362 336.262,356.805 335.814 C 358.680 333.919,361.192 330.975,361.196 330.669 C 361.198 330.486,361.875 329.676,362.700 328.869 C 363.525 328.061,364.677 326.770,365.260 326.000 C 365.843 325.230,367.148 323.757,368.160 322.727 C 369.172 321.697,370.000 320.746,370.000 320.614 C 370.000 320.482,370.585 319.762,371.300 319.014 C 373.317 316.905,374.610 315.301,374.501 315.040 C 374.447 314.910,375.482 313.706,376.801 312.366 C 378.121 311.026,379.200 309.766,379.200 309.566 C 379.200 309.366,380.100 308.335,381.200 307.275 C 382.300 306.215,383.200 305.228,383.200 305.082 C 383.200 304.935,384.279 303.687,385.598 302.308 C 386.917 300.929,387.997 299.659,387.998 299.487 C 387.999 299.314,388.585 298.559,389.300 297.808 C 391.281 295.728,391.600 295.286,391.600 294.617 C 391.600 294.278,391.780 294.000,392.000 294.000 C 392.220 294.000,392.400 293.640,392.400 293.200 C 392.400 292.760,392.580 292.400,392.800 292.400 C 393.020 292.400,393.200 291.860,393.200 291.200 C 393.200 290.540,393.380 290.000,393.600 290.000 C 393.839 290.000,394.000 288.467,394.000 286.200 C 394.000 283.933,393.839 282.400,393.600 282.400 C 393.380 282.400,393.200 281.961,393.200 281.424 C 393.200 280.887,393.020 280.336,392.800 280.200 C 392.580 280.064,392.400 279.603,392.400 279.176 C 392.400 278.749,392.220 278.400,392.000 278.400 C 391.780 278.400,391.600 278.130,391.600 277.800 C 391.600 277.470,391.390 277.200,391.133 277.200 C 390.877 277.200,390.784 277.082,390.928 276.938 C 391.072 276.795,390.652 276.163,389.995 275.535 C 389.338 274.907,388.800 274.275,388.800 274.130 C 388.800 273.859,388.618 273.647,386.212 271.113 C 385.435 270.296,384.800 269.476,384.800 269.291 C 384.800 269.107,383.720 267.835,382.400 266.465 C 381.080 265.095,380.000 263.832,380.000 263.658 C 380.000 263.484,379.055 262.362,377.900 261.164 C 376.745 259.967,375.440 258.473,375.000 257.843 C 374.560 257.214,373.795 256.280,373.300 255.768 C 372.805 255.256,372.400 254.722,372.400 254.582 C 372.400 254.341,371.304 253.066,369.300 250.975 C 368.805 250.459,368.400 249.888,368.400 249.706 C 368.400 249.524,367.500 248.431,366.400 247.278 C 365.300 246.125,364.400 245.045,364.400 244.879 C 364.400 244.713,364.040 244.317,363.600 244.000 C 363.160 243.683,362.800 243.163,362.800 242.845 C 362.800 242.527,362.691 242.376,362.558 242.509 C 362.280 242.786,360.400 241.019,360.400 240.482 C 360.400 240.287,359.591 239.271,358.602 238.224 L 356.804 236.320 357.060 237.601 C 357.236 238.480,357.141 239.005,356.758 239.278 C 356.308 239.599,356.326 239.636,356.850 239.470 C 357.458 239.277,360.249 242.035,361.950 244.509 C 362.287 244.999,363.022 245.850,363.583 246.400 C 364.144 246.950,365.074 248.030,365.650 248.800 C 366.226 249.570,367.130 250.650,367.660 251.200 C 368.189 251.750,369.090 252.830,369.663 253.600 C 370.235 254.370,371.224 255.540,371.859 256.200 C 372.495 256.860,373.301 257.809,373.651 258.309 C 374.001 258.808,374.898 259.888,375.644 260.709 C 376.390 261.529,377.810 263.190,378.799 264.400 C 379.787 265.610,380.777 266.812,380.998 267.072 C 381.219 267.331,382.390 268.758,383.600 270.243 C 384.810 271.728,386.527 273.766,387.415 274.772 C 389.808 277.480,391.200 279.467,391.200 280.173 C 391.200 280.518,391.380 280.800,391.600 280.800 C 391.820 280.800,392.000 281.250,392.000 281.800 C 392.000 282.350,392.180 282.800,392.400 282.800 C 392.620 282.800,392.800 283.565,392.800 284.500 L 392.800 286.200 363.431 286.000 C 344.195 285.869,333.840 285.938,333.419 286.200 C 332.991 286.467,332.681 286.467,332.489 286.200 C 332.118 285.687,267.912 285.645,267.540 286.158 C 267.398 286.355,266.966 286.396,266.581 286.248 C 266.197 286.101,252.679 285.987,236.541 285.995 L 207.200 286.010 207.200 284.829 C 207.200 284.179,207.380 283.536,207.600 283.400 C 207.820 283.264,208.000 282.623,208.000 281.976 C 208.000 281.329,208.180 280.800,208.400 280.800 C 208.620 280.800,208.800 280.440,208.800 280.000 C 208.800 279.560,208.941 279.200,209.114 279.200 C 209.286 279.200,209.740 278.671,210.122 278.024 C 210.505 277.377,211.488 276.136,212.309 275.268 C 213.129 274.399,214.143 273.263,214.563 272.744 C 214.983 272.225,215.883 271.153,216.563 270.363 C 217.243 269.572,218.144 268.492,218.564 267.963 C 218.985 267.433,219.795 266.451,220.364 265.780 C 220.934 265.109,222.030 263.772,222.800 262.809 C 223.570 261.845,224.560 260.683,225.000 260.226 C 225.440 259.769,226.270 258.766,226.845 257.997 C 227.420 257.229,228.410 256.030,229.045 255.334 C 231.109 253.070,233.729 249.994,234.364 249.086 C 234.706 248.599,235.504 247.660,236.139 247.000 C 236.774 246.340,238.126 244.720,239.143 243.400 C 240.161 242.080,241.490 240.478,242.097 239.841 C 242.703 239.203,243.200 238.447,243.200 238.160 C 243.200 237.417,246.639 235.141,249.000 234.321 C 250.357 233.849,250.679 233.627,250.000 233.629 C 249.450 233.631,248.304 233.979,247.454 234.404 M351.394 234.407 C 352.711 234.828,353.923 235.037,354.087 234.873 C 354.252 234.708,353.930 234.536,353.372 234.489 C 352.814 234.443,352.019 234.224,351.605 234.003 C 351.191 233.781,350.436 233.610,349.926 233.622 C 349.417 233.633,350.077 233.987,351.394 234.407 M83.355 287.562 C 78.884 290.289,79.012 296.348,83.600 299.144 C 85.402 300.242,119.908 300.500,122.451 299.435 C 127.469 297.333,127.955 290.321,123.265 287.685 C 120.974 286.397,85.445 286.288,83.355 287.562 M84.600 313.681 C 79.163 315.573,78.620 323.111,83.721 325.900 C 85.826 327.052,121.186 326.962,123.158 325.800 C 127.853 323.035,127.661 316.683,122.806 314.116 L 121.074 313.200 103.437 313.232 C 92.302 313.252,85.358 313.417,84.600 313.681 M195.511 327.093 C 196.451 327.178,197.891 327.177,198.711 327.091 C 199.530 327.005,198.760 326.936,197.000 326.937 C 195.240 326.939,194.570 327.009,195.511 327.093 " stroke="none" fill="#2d7de6" fill-rule="evenodd"></path><path id="path2" d="M35.000 6.400 C 35.152 6.646,34.479 6.800,33.247 6.800 C 32.147 6.800,31.136 6.980,31.000 7.200 C 30.864 7.420,30.324 7.600,29.800 7.600 C 29.276 7.600,28.736 7.780,28.600 8.000 C 28.464 8.220,27.956 8.400,27.470 8.400 C 26.985 8.400,25.936 8.750,25.138 9.177 C 24.340 9.605,23.578 9.845,23.444 9.711 C 23.310 9.576,23.200 9.665,23.200 9.906 C 23.200 10.148,22.834 10.462,22.387 10.604 C 21.940 10.746,21.130 11.306,20.587 11.849 C 20.044 12.392,19.600 12.731,19.600 12.602 C 19.600 11.782,13.411 18.144,11.763 20.658 C 10.918 21.946,10.041 23.132,9.814 23.294 C 9.586 23.456,9.541 23.591,9.714 23.594 C 9.887 23.597,9.803 24.005,9.528 24.500 C 9.253 24.995,9.022 25.520,9.014 25.667 C 9.006 25.813,8.865 26.068,8.700 26.233 C 8.535 26.398,8.400 26.953,8.400 27.467 C 8.400 27.980,8.220 28.400,8.000 28.400 C 7.780 28.400,7.600 28.929,7.600 29.576 C 7.600 30.223,7.420 30.864,7.200 31.000 C 6.980 31.136,6.800 32.036,6.800 33.000 C 6.800 33.964,6.620 34.864,6.400 35.000 C 6.135 35.164,6.000 84.004,6.000 180.224 C 6.000 276.608,6.134 325.200,6.400 325.200 C 6.620 325.200,6.800 326.100,6.800 327.200 C 6.800 328.300,6.980 329.200,7.200 329.200 C 7.420 329.200,7.600 329.740,7.600 330.400 C 7.600 331.060,7.780 331.600,8.000 331.600 C 8.220 331.600,8.400 332.056,8.400 332.613 C 8.400 333.525,10.138 337.504,10.753 338.000 C 10.890 338.110,11.256 338.695,11.568 339.300 C 11.880 339.905,12.285 340.400,12.468 340.400 C 12.650 340.400,12.800 340.583,12.800 340.806 C 12.800 341.404,18.697 347.200,19.305 347.200 C 19.590 347.200,20.083 347.560,20.400 348.000 C 20.717 348.440,21.257 348.800,21.600 348.800 C 21.943 348.800,22.483 349.160,22.800 349.600 C 23.117 350.040,23.697 350.400,24.088 350.400 C 24.480 350.400,24.800 350.580,24.800 350.800 C 24.800 351.020,25.250 351.200,25.800 351.200 C 26.350 351.200,26.800 351.380,26.800 351.600 C 26.800 351.820,27.149 352.000,27.576 352.000 C 28.003 352.000,28.464 352.180,28.600 352.400 C 28.736 352.620,29.452 352.800,30.190 352.800 C 30.929 352.800,31.593 352.970,31.667 353.178 C 31.740 353.385,32.835 353.596,34.100 353.646 C 35.365 353.696,36.400 353.886,36.400 354.068 C 36.400 354.251,86.530 354.400,147.800 354.400 C 209.070 354.400,259.200 354.298,259.200 354.174 C 259.200 353.499,257.807 351.650,253.493 346.600 C 250.863 343.520,247.948 340.100,247.017 339.000 C 244.844 336.432,240.287 331.081,236.799 327.000 C 235.295 325.240,230.163 319.210,225.394 313.600 C 220.625 307.990,216.331 302.950,215.851 302.400 C 203.365 288.092,203.301 284.077,215.340 270.400 C 215.824 269.850,218.914 266.160,222.205 262.200 C 225.497 258.240,228.288 254.910,228.408 254.800 C 228.528 254.690,230.510 252.353,232.813 249.607 C 242.712 237.803,243.544 236.876,245.305 235.688 C 248.921 233.248,245.283 233.400,300.000 233.400 C 345.676 233.400,350.362 233.460,352.000 234.061 C 352.990 234.424,353.936 234.638,354.102 234.536 C 354.513 234.283,354.477 36.400,354.065 36.400 C 353.885 36.400,353.696 35.365,353.646 34.100 C 353.596 32.835,353.385 31.740,353.178 31.667 C 352.970 31.593,352.800 30.929,352.800 30.190 C 352.800 29.452,352.620 28.736,352.400 28.600 C 352.180 28.464,352.000 28.003,352.000 27.576 C 352.000 27.149,351.820 26.800,351.600 26.800 C 351.380 26.800,351.197 26.305,351.194 25.700 C 351.189 24.843,351.102 24.732,350.800 25.200 C 350.500 25.664,350.411 25.538,350.406 24.647 C 350.403 24.013,350.084 23.203,349.697 22.847 C 349.311 22.491,348.740 21.705,348.430 21.100 C 348.119 20.495,347.715 20.000,347.532 20.000 C 347.350 20.000,347.200 19.629,347.200 19.176 C 347.200 18.723,347.020 18.464,346.800 18.600 C 346.580 18.736,346.400 18.678,346.400 18.470 C 346.400 17.938,341.353 12.800,340.831 12.800 C 340.594 12.800,340.400 12.632,340.400 12.427 C 340.400 12.222,340.041 11.940,339.602 11.801 C 339.164 11.662,338.579 11.334,338.302 11.074 C 337.508 10.324,334.400 8.716,334.400 9.054 C 334.400 9.222,334.184 9.144,333.920 8.880 C 333.656 8.616,333.026 8.400,332.520 8.400 C 332.014 8.400,331.600 8.220,331.600 8.000 C 331.600 7.780,331.071 7.600,330.424 7.600 C 329.777 7.600,329.136 7.420,329.000 7.200 C 328.864 6.980,327.964 6.800,327.000 6.800 C 326.036 6.800,325.136 6.620,325.000 6.400 C 324.836 6.135,275.988 6.000,179.753 6.000 C 83.188 6.000,34.835 6.134,35.000 6.400 M81.160 26.825 C 86.684 28.099,88.553 34.321,84.533 38.051 C 81.133 41.206,70.794 40.859,68.263 37.505 C 63.117 30.685,70.693 24.412,81.160 26.825 M116.400 27.303 C 121.015 29.613,121.014 37.014,116.399 39.400 C 114.772 40.242,105.422 40.249,103.741 39.410 C 98.393 36.743,98.929 28.920,104.600 26.865 C 106.540 26.162,114.729 26.466,116.400 27.303 M49.616 27.721 C 54.036 30.058,54.281 36.346,50.046 38.726 C 47.680 40.056,38.365 40.038,36.389 38.700 C 32.358 35.970,32.687 30.162,37.012 27.713 C 39.392 26.365,47.061 26.370,49.616 27.721 M189.440 87.562 C 191.493 88.495,192.849 90.361,193.102 92.604 C 193.386 95.130,179.936 148.831,178.558 150.669 C 175.084 155.303,167.560 153.264,166.912 147.513 C 166.683 145.484,179.909 91.521,181.069 89.751 C 182.772 87.152,186.430 86.195,189.440 87.562 M143.265 94.245 C 145.457 95.354,147.083 98.574,146.638 100.926 C 146.153 103.493,144.804 104.785,134.818 112.242 C 129.308 116.357,124.800 119.850,124.800 120.004 C 124.800 120.159,129.318 123.666,134.839 127.798 C 144.838 135.280,146.161 136.548,146.647 139.117 C 147.471 143.478,142.393 147.854,138.242 146.362 C 137.332 146.034,130.197 140.979,122.388 135.127 C 101.272 119.304,101.275 120.760,122.307 104.934 C 138.686 92.608,139.354 92.268,143.265 94.245 M222.059 93.760 C 223.816 94.149,251.230 114.952,252.287 116.699 C 253.826 119.241,253.301 122.810,251.071 124.972 C 249.074 126.907,223.044 145.899,221.751 146.364 C 217.606 147.855,212.530 143.474,213.353 139.117 C 213.842 136.534,215.157 135.274,225.181 127.791 C 230.708 123.664,235.176 120.128,235.111 119.933 C 235.046 119.737,230.494 116.202,224.996 112.077 C 214.547 104.237,213.200 102.858,213.200 100.000 C 213.200 96.625,217.364 92.813,220.400 93.408 C 220.730 93.473,221.476 93.631,222.059 93.760 M321.123 180.061 C 327.792 181.698,328.820 189.539,322.800 192.850 C 321.524 193.552,260.965 193.891,258.439 193.210 C 251.600 191.369,251.583 182.030,258.415 180.070 C 260.489 179.474,318.701 179.466,321.123 180.061 M237.063 181.436 C 241.038 184.633,240.601 190.457,236.238 192.438 C 234.568 193.197,75.299 193.680,71.588 192.938 C 65.642 191.748,65.423 182.153,71.303 180.444 C 72.100 180.213,104.020 180.093,154.063 180.134 L 235.526 180.200 237.063 181.436 M49.592 181.101 C 53.621 183.125,53.986 188.939,50.263 191.779 C 48.709 192.964,38.957 193.350,37.110 192.300 C 32.393 189.617,32.559 183.116,37.400 180.965 C 39.302 180.119,47.828 180.214,49.592 181.101 M209.889 207.304 C 215.240 210.230,213.956 218.486,207.923 219.946 C 205.342 220.570,147.683 220.582,145.400 219.958 C 138.430 218.055,138.278 207.983,145.200 206.685 C 148.585 206.050,208.646 206.625,209.889 207.304 M123.176 207.588 C 127.369 209.727,127.667 215.678,123.732 218.679 L 122.262 219.800 103.431 219.800 L 84.600 219.800 83.049 218.836 C 78.880 216.244,79.240 209.656,83.672 207.473 C 85.901 206.374,120.997 206.476,123.176 207.588 M62.901 207.700 C 67.233 210.133,67.505 215.541,63.448 218.575 C 61.857 219.764,52.533 220.008,50.408 218.916 C 46.396 216.853,46.013 211.139,49.692 208.240 C 51.209 207.044,61.020 206.643,62.901 207.700 M250.263 208.221 C 253.992 211.065,253.642 216.696,249.600 218.873 C 247.334 220.093,231.563 219.802,229.747 218.506 C 226.193 215.971,226.171 210.512,229.705 208.125 C 230.938 207.291,231.426 207.249,239.962 207.225 L 248.924 207.200 250.263 208.221 M121.143 233.572 C 127.048 234.712,128.535 242.181,123.519 245.502 L 121.860 246.600 104.230 246.720 C 84.347 246.855,83.959 246.814,81.822 244.318 C 78.522 240.462,80.700 233.987,85.463 233.494 C 88.530 233.176,119.446 233.244,121.143 233.572 M210.532 234.521 C 214.787 237.767,214.169 243.696,209.320 246.152 C 207.212 247.219,146.128 247.113,143.760 246.038 C 138.534 243.664,138.820 235.705,144.200 233.794 C 145.539 233.318,150.954 233.240,177.431 233.313 L 209.063 233.400 210.532 234.521 M62.459 234.167 C 66.944 236.041,67.684 242.065,63.793 245.032 C 61.325 246.915,51.680 246.948,49.557 245.081 C 46.039 241.987,46.302 236.903,50.098 234.628 C 52.150 233.398,59.925 233.108,62.459 234.167 M190.151 261.164 C 194.351 263.775,193.949 270.415,189.462 272.544 C 187.339 273.551,72.661 273.551,70.538 272.544 C 65.367 270.090,65.877 262.022,71.303 260.444 C 72.094 260.214,95.219 260.093,130.600 260.133 L 188.600 260.200 190.151 261.164 M49.800 261.159 C 54.573 263.947,53.561 271.216,48.178 272.802 C 45.757 273.515,38.977 273.173,37.086 272.241 C 32.799 270.130,32.570 263.682,36.697 261.290 C 38.736 260.108,47.844 260.017,49.800 261.159 M175.231 286.502 C 181.975 286.596,182.320 286.640,183.704 287.590 C 187.908 290.473,187.684 296.632,183.285 299.104 C 181.192 300.281,147.587 300.524,144.362 299.386 C 137.752 297.054,138.157 287.923,144.933 286.509 C 146.274 286.230,155.537 286.227,175.231 286.502 M62.800 287.741 C 68.464 290.630,67.191 298.067,60.769 299.607 C 50.694 302.024,42.731 294.454,49.195 288.604 C 51.494 286.524,59.428 286.021,62.800 287.741 M123.265 287.685 C 127.955 290.321,127.469 297.333,122.451 299.435 C 119.908 300.500,85.402 300.242,83.600 299.144 C 79.012 296.348,78.884 290.289,83.355 287.562 C 85.445 286.288,120.974 286.397,123.265 287.685 M122.806 314.116 C 127.661 316.683,127.853 323.035,123.158 325.800 C 121.186 326.962,85.826 327.052,83.721 325.900 C 79.737 323.722,78.909 318.346,82.092 315.335 C 84.247 313.297,84.570 313.265,103.437 313.232 L 121.074 313.200 122.806 314.116 M202.923 314.156 C 207.872 316.615,207.964 323.718,203.079 326.269 C 201.915 326.877,199.258 326.929,173.400 326.848 L 145.000 326.760 143.242 325.680 C 138.894 323.008,138.852 317.071,143.162 314.338 L 144.981 313.184 173.191 313.292 C 199.931 313.394,201.479 313.439,202.923 314.156 M62.992 314.515 C 66.726 316.630,67.395 321.191,64.460 324.533 C 61.967 327.372,51.537 327.194,48.605 324.262 C 45.900 321.557,46.983 316.201,50.600 314.398 C 53.061 313.172,60.748 313.244,62.992 314.515 " stroke="none" fill="#2c2c4c" fill-rule="evenodd"></path><path id="path3" d="M104.600 26.865 C 98.929 28.920,98.393 36.743,103.741 39.410 C 105.422 40.249,114.772 40.242,116.399 39.400 C 121.014 37.014,121.015 29.613,116.400 27.303 C 114.729 26.466,106.540 26.162,104.600 26.865 M183.351 87.796 C 182.444 88.340,181.417 89.219,181.069 89.751 C 179.909 91.521,166.683 145.484,166.912 147.513 C 167.560 153.264,175.084 155.303,178.558 150.669 C 179.936 148.831,193.386 95.130,193.102 92.604 C 192.580 87.973,187.354 85.396,183.351 87.796 M137.928 93.761 C 135.347 94.682,108.266 115.354,107.479 117.004 C 106.608 118.830,106.614 121.183,107.495 123.030 C 108.326 124.773,135.457 145.360,138.242 146.362 C 142.393 147.854,147.471 143.478,146.647 139.117 C 146.161 136.548,144.838 135.280,134.839 127.798 C 129.318 123.666,124.800 120.159,124.800 120.004 C 124.800 119.850,129.308 116.357,134.818 112.242 C 140.694 107.854,145.158 104.232,145.616 103.481 C 148.841 98.194,143.705 91.701,137.928 93.761 M218.449 93.605 C 216.501 94.059,215.128 95.197,214.100 97.208 C 211.836 101.640,212.752 102.890,224.996 112.077 C 230.494 116.202,235.046 119.737,235.111 119.933 C 235.176 120.128,230.708 123.664,225.181 127.791 C 215.157 135.274,213.842 136.534,213.353 139.117 C 212.530 143.474,217.606 147.855,221.751 146.364 C 223.044 145.899,249.074 126.907,251.071 124.972 C 253.301 122.810,253.826 119.241,252.287 116.699 C 251.230 114.952,223.816 94.149,222.059 93.760 C 221.476 93.631,220.730 93.473,220.400 93.408 C 220.070 93.343,219.192 93.432,218.449 93.605 " stroke="none" fill="#24e173" fill-rule="evenodd"></path><path id="path4" d="M258.449 180.401 C 253.201 181.640,251.865 188.520,256.226 191.847 L 257.738 193.000 290.000 193.000 L 322.262 193.000 323.732 191.879 C 328.276 188.413,326.889 181.663,321.369 180.383 C 319.445 179.937,260.344 179.954,258.449 180.401 M144.587 207.225 C 139.880 208.594,138.674 214.918,142.497 218.190 C 144.698 220.075,144.534 220.067,178.830 219.924 L 208.659 219.800 210.108 218.807 C 214.766 215.614,213.647 208.109,208.356 207.051 C 206.410 206.662,145.956 206.827,144.587 207.225 M143.487 234.270 C 139.119 236.569,139.271 243.624,143.735 245.742 C 145.192 246.434,206.762 246.816,208.654 246.146 C 214.238 244.168,214.648 236.791,209.326 234.050 C 207.863 233.297,144.938 233.507,143.487 234.270 M249.000 234.321 C 246.639 235.141,243.200 237.417,243.200 238.160 C 243.200 238.447,242.703 239.203,242.097 239.841 C 241.490 240.478,240.161 242.080,239.143 243.400 C 238.126 244.720,236.774 246.340,236.139 247.000 C 235.504 247.660,234.706 248.599,234.364 249.086 C 233.729 249.994,231.109 253.070,229.045 255.334 C 228.410 256.030,227.420 257.229,226.845 257.997 C 226.270 258.766,225.440 259.769,225.000 260.226 C 224.560 260.683,223.570 261.845,222.800 262.809 C 222.030 263.772,220.934 265.109,220.364 265.780 C 219.795 266.451,218.985 267.433,218.564 267.963 C 218.144 268.492,217.243 269.572,216.563 270.363 C 215.883 271.153,214.983 272.225,214.563 272.744 C 214.143 273.263,213.129 274.399,212.309 275.268 C 211.488 276.136,210.505 277.377,210.122 278.024 C 209.740 278.671,209.286 279.200,209.114 279.200 C 208.941 279.200,208.800 279.560,208.800 280.000 C 208.800 280.440,208.620 280.800,208.400 280.800 C 208.180 280.800,208.000 281.329,208.000 281.976 C 208.000 282.623,207.820 283.264,207.600 283.400 C 207.380 283.536,207.200 284.179,207.200 284.829 L 207.200 286.010 236.541 285.995 C 252.679 285.987,266.197 286.101,266.581 286.248 C 266.966 286.396,267.398 286.355,267.540 286.158 C 267.912 285.645,332.118 285.687,332.489 286.200 C 332.681 286.467,332.991 286.467,333.419 286.200 C 333.840 285.938,344.195 285.869,363.431 286.000 L 392.800 286.200 392.800 284.500 C 392.800 283.565,392.620 282.800,392.400 282.800 C 392.180 282.800,392.000 282.350,392.000 281.800 C 392.000 281.250,391.820 280.800,391.600 280.800 C 391.380 280.800,391.200 280.518,391.200 280.173 C 391.200 279.467,389.808 277.480,387.415 274.772 C 386.527 273.766,384.810 271.728,383.600 270.243 C 382.390 268.758,381.219 267.331,380.998 267.072 C 380.777 266.812,379.787 265.610,378.799 264.400 C 377.810 263.190,376.390 261.529,375.644 260.709 C 374.898 259.888,374.001 258.808,373.651 258.309 C 373.301 257.809,372.495 256.860,371.859 256.200 C 371.224 255.540,370.235 254.370,369.663 253.600 C 369.090 252.830,368.189 251.750,367.660 251.200 C 367.130 250.650,366.226 249.570,365.650 248.800 C 365.074 248.030,364.144 246.950,363.583 246.400 C 363.022 245.850,362.287 244.999,361.950 244.509 C 360.249 242.035,357.458 239.277,356.850 239.470 C 356.444 239.598,356.364 239.548,356.637 239.338 C 356.878 239.152,357.192 238.370,357.337 237.600 C 357.521 236.617,357.482 236.379,357.206 236.800 C 356.891 237.280,356.805 237.201,356.775 236.400 C 356.754 235.850,356.648 235.620,356.539 235.888 C 356.383 236.273,356.229 236.273,355.813 235.888 C 355.522 235.620,355.356 235.281,355.444 235.135 C 355.532 234.989,355.139 234.921,354.571 234.983 C 354.003 235.046,352.456 234.760,351.133 234.348 C 348.140 233.417,301.391 233.169,300.480 234.080 C 300.107 234.453,299.893 234.453,299.520 234.080 C 298.652 233.212,251.546 233.436,249.000 234.321 M145.000 286.710 C 139.699 287.403,138.190 294.863,142.661 298.274 L 144.123 299.389 158.361 299.668 C 177.926 300.051,181.040 299.972,182.908 299.048 C 187.396 296.827,187.568 290.109,183.200 287.673 C 181.866 286.930,149.556 286.115,145.000 286.710 M143.660 314.273 C 140.058 316.063,139.073 320.897,141.646 324.167 C 143.390 326.384,142.650 326.331,173.629 326.471 L 202.258 326.600 203.771 325.447 C 207.503 322.605,207.125 316.713,203.068 314.494 C 201.149 313.444,145.743 313.238,143.660 314.273 " stroke="none" fill="#7bbcfc" fill-rule="evenodd"></path></g></svg>