<svg width="120" height="49" viewBox="0 0 120 49" fill="none" xmlns="http://www.w3.org/2000/svg">
<path d="M24.1088 0.0727539H29.8738L42.2776 12.4803L29.8738 24.8914H24.1088L36.5127 12.4803L24.1088 0.0727539ZM5.8672 12.4803L18.2711 24.8914H12.5061L0.0986328 12.4803L12.5061 0.0727539H18.2711L5.8672 12.4803Z" fill="white"/>
<path d="M81.8168 0.043457L79.9304 4.18415H70.6475V10.397H79.2858V14.5377H70.6475V20.7506H81.8168L79.9304 24.8913H66.5068V0.043457H81.8168Z" fill="white"/>
<path d="M98.8531 24.8913H93.4924C90.0618 24.8913 87.1339 23.6785 84.7084 21.2531C82.283 18.8277 81.0703 15.8997 81.0703 12.4692C81.0703 9.03863 82.283 6.11065 84.7084 3.68523C87.1339 1.25617 90.0618 0.043457 93.4924 0.043457H100.74L98.8531 4.18415H93.4924C91.2054 4.18415 89.2534 4.99262 87.6364 6.60957C86.0195 8.22652 85.211 10.1785 85.211 12.4655C85.211 14.7526 86.0195 16.7046 87.6364 18.3215C89.2534 19.9385 91.2054 20.7469 93.4924 20.7469H100.74L98.8531 24.8876V24.8913Z" fill="white"/>
<path d="M46.3062 24.8915L47.7337 21.7414H47.7592L49.6384 17.6007H49.6275L53.6225 8.79852L57.1841 16.6429H52.1257L50.2466 20.7836H59.0779L60.9388 24.8915H65.5711L53.6225 0L41.6738 24.8915H46.3062Z" fill="white"/>
<path d="M118.442 13.0337C117.983 12.5602 117.484 12.1596 116.956 11.8282C117.947 10.7648 118.442 9.2535 118.442 7.29058C118.442 5.32767 117.736 3.57597 116.323 2.16297C114.91 0.749961 113.202 0.043457 111.195 0.043457H102.396V24.8913H104.658L106.541 20.7469V14.5377H112.754C113.617 14.5377 114.349 14.84 114.953 15.4445C115.558 16.049 115.86 16.781 115.86 17.6441C115.86 18.5072 115.558 19.2392 114.953 19.8438C114.349 20.4483 113.617 20.7506 112.754 20.7506H108.573L106.694 24.8913H112.754C114.76 24.8913 116.468 24.1848 117.881 22.7717C119.294 21.3587 120.001 19.6508 120.001 17.6441C120.001 15.6375 119.484 14.1007 118.449 13.0337H118.442ZM106.537 4.18779H111.195C112.058 4.18779 112.79 4.49006 113.395 5.09459C113.999 5.69913 114.301 6.43112 114.301 7.29422C114.301 8.15732 113.999 8.88932 113.395 9.49385C112.79 10.0984 112.058 10.4007 111.195 10.4007H106.537V4.18779Z" fill="white"/>
<path d="M7.56055 41.1123H8.80967V47.3507H11.6175V48.5998H7.56419V41.1159H7.56055V41.1123Z" fill="white"/>
<path d="M25.7364 48.5961H24.4873V41.1123H25.7364V48.5961Z" fill="white"/>
<path d="M28.1183 45.4788V48.5961H26.8691V41.1123H28.1183V44.2297H31.2356V41.1123H32.4848V48.5961H31.2356V45.4788H28.1183Z" fill="white"/>
<path d="M40.4854 41.1123H43.2932C44.3274 41.1123 45.2087 41.4765 45.9407 42.2085C46.6727 42.9405 47.0369 43.8218 47.0369 44.856C47.0369 45.8903 46.6727 46.7716 45.9407 47.5036C45.2087 48.2356 44.3274 48.5998 43.2932 48.5998H40.4854V41.1159V41.1123ZM41.7345 42.3578V47.347H43.2932C43.9815 47.347 44.5714 47.103 45.0558 46.615C45.5438 46.127 45.7878 45.5407 45.7878 44.8524C45.7878 44.1641 45.5438 43.5741 45.0558 43.0898C44.5678 42.6018 43.9815 42.3578 43.2932 42.3578H41.7345Z" fill="white"/>
<path d="M54.7067 48.5959H53.0933C52.0591 48.5959 51.1778 48.2317 50.4458 47.4997C49.7138 46.7677 49.3496 45.8864 49.3496 44.8521C49.3496 43.8179 49.7138 42.9366 50.4458 42.2046C51.1778 41.4726 52.0591 41.1084 53.0933 41.1084H55.2748L54.7067 42.3575H53.0933C52.4051 42.3575 51.8151 42.6015 51.3307 43.0895C50.8427 43.5775 50.5987 44.1638 50.5987 44.8521C50.5987 45.5404 50.8427 46.1304 51.3307 46.6148C51.8187 47.1028 52.4051 47.3468 53.0933 47.3468H55.2748L54.7067 48.5959Z" fill="white"/>
<path d="M55.7812 48.5961V41.1123H58.8986C59.5869 41.1123 60.1769 41.3563 60.6612 41.8443C61.1492 42.3323 61.3932 42.9186 61.3932 43.6069C61.3932 44.2952 61.1492 44.8852 60.6612 45.3695C60.3371 45.6937 59.9693 45.9122 59.5541 46.0178L61.7028 48.5961H60.1441L58.0646 46.1015H57.0267V48.5961H55.7812ZM58.8986 42.3578H57.0267V44.8524H58.8986C59.2446 44.8524 59.5359 44.7322 59.7799 44.4882C60.0239 44.2442 60.1441 43.9492 60.1441 43.6069C60.1441 43.2646 60.0239 42.9696 59.7799 42.7256C59.5359 42.4816 59.2409 42.3614 58.8986 42.3614V42.3578Z" fill="white"/>
<path d="M67.4053 41.1123H70.2131C71.2473 41.1123 72.1287 41.4765 72.8607 42.2085C73.5926 42.9405 73.9568 43.8218 73.9568 44.856C73.9568 45.8903 73.5926 46.7716 72.8607 47.5036C72.1287 48.2356 71.2473 48.5998 70.2131 48.5998H67.4053V41.1159V41.1123ZM68.6544 42.3578V47.347H70.2131C70.9014 47.347 71.4913 47.103 71.9757 46.615C72.4637 46.127 72.7077 45.5407 72.7077 44.8524C72.7077 44.1641 72.4637 43.5741 71.9757 43.0898C71.4877 42.6018 70.9014 42.3578 70.2131 42.3578H68.6544Z" fill="white"/>
<path d="M75.7853 48.5961H74.5361V41.1123H75.7853V48.5961Z" fill="white"/>
<path d="M89.5039 45.7881V41.1084H90.753V45.7881C90.753 46.2214 90.906 46.5893 91.2083 46.8915C91.5105 47.1938 91.8783 47.3468 92.3117 47.3468C92.7451 47.3468 93.1129 47.1938 93.4152 46.8915C93.7174 46.5893 93.8704 46.2214 93.8704 45.7881V41.1084H95.1195V45.7881C95.1195 46.5638 94.8464 47.2266 94.3001 47.7728C93.7539 48.3191 93.0911 48.5922 92.3154 48.5922C91.5397 48.5922 90.8768 48.3191 90.3306 47.7728C89.7843 47.2266 89.5112 46.5638 89.5112 45.7881H89.5039Z" fill="white"/>
<path d="M95.7969 48.5961V41.1123H98.9142C99.6025 41.1123 100.193 41.3563 100.677 41.8443C101.165 42.3323 101.409 42.9186 101.409 43.6069C101.409 44.2952 101.165 44.8852 100.677 45.3695C100.353 45.6937 99.9849 45.9122 99.5698 46.0178L101.718 48.5961H100.16L98.0803 46.1015H97.0424V48.5961H95.7969ZM98.9142 42.3578H97.0424V44.8524H98.9142C99.2602 44.8524 99.5515 44.7322 99.7955 44.4882C100.04 44.2442 100.16 43.9492 100.16 43.6069C100.16 43.2646 100.04 42.9696 99.7955 42.7256C99.5515 42.4816 99.2566 42.3614 98.9142 42.3614V42.3578Z" fill="white"/>
<path d="M114.385 45.7881V41.1084H115.634V45.7881C115.634 46.2214 115.787 46.5893 116.089 46.8915C116.391 47.1938 116.759 47.3468 117.193 47.3468C117.626 47.3468 117.994 47.1938 118.296 46.8915C118.598 46.5893 118.751 46.2214 118.751 45.7881V41.1084H120V45.7881C120 46.5638 119.727 47.2266 119.181 47.7728C118.635 48.3191 117.972 48.5922 117.196 48.5922C116.421 48.5922 115.758 48.3191 115.211 47.7728C114.665 47.2266 114.392 46.5638 114.392 45.7881H114.385Z" fill="white"/>
<path d="M22.1063 42.3575V48.5959H20.8572V42.3575H18.9854V41.1084H23.9746L23.4065 42.3575H22.1063Z" fill="white"/>
<path d="M79.6308 42.3575V48.5959H78.3816V42.3575H76.5098V41.1084H81.499L80.9309 42.3575H79.6308Z" fill="white"/>
<path d="M34.2473 48.5961L34.6771 47.6492H34.6843L35.2488 46.4001L36.4506 43.7489L37.5249 46.1124H35.999L35.4346 47.3579H38.093L38.6539 48.5961H40.0487L36.4506 41.0977L32.8525 48.5961H34.2473Z" fill="white"/>
<path d="M1.3948 48.5961L1.82453 47.6492H1.83181L2.39993 46.4001H2.39629L3.59807 43.7489L4.67239 46.1124H3.15013L2.58202 47.3579H5.24051L5.80134 48.5961H7.19614L3.59807 41.0977L0 48.5961H1.3948Z" fill="white"/>
<path d="M108.765 48.5961L109.195 47.6492H109.202L109.766 46.4001L110.968 43.7489L112.043 46.1124H110.517L109.952 47.3579H112.611L113.171 48.5961H114.566L110.968 41.0977L107.37 48.5961H108.765Z" fill="white"/>
<path d="M66.8407 41.1123L66.2726 42.3614H63.4757V44.2333H66.0796V45.4824H63.4757V47.3543H66.8407L66.2726 48.6034H62.2266V41.1159H66.8407V41.1123Z" fill="white"/>
<path d="M107.05 41.1123L106.482 42.3614H103.685V44.2333H106.289V45.4824H103.685V47.3543H107.05L106.482 48.6034H102.436V41.1159H107.05V41.1123Z" fill="white"/>
<path d="M18.5399 41.1123L17.9718 42.3614H15.1749V44.2333H17.7788V45.4824H15.1749V47.3543H18.5399L17.9718 48.6034H13.9258V41.1159H18.5399V41.1123Z" fill="white"/>
<path d="M88.6363 45.0236C88.498 44.8815 88.3486 44.7614 88.1884 44.6594C88.487 44.3389 88.6363 43.8837 88.6363 43.2937C88.6363 42.7038 88.4251 42.1757 87.999 41.7496C87.5729 41.3235 87.0595 41.1123 86.4549 41.1123H83.8037V48.5998H84.4847L85.0528 47.3507V45.4788H86.9247C87.1833 45.4788 87.4054 45.5698 87.5875 45.7519C87.7696 45.934 87.8606 46.1562 87.8606 46.4147C87.8606 46.6733 87.7696 46.8954 87.5875 47.0775C87.4054 47.2596 87.1833 47.3507 86.9247 47.3507H85.6647L85.0965 48.5998H86.9211C87.5256 48.5998 88.0391 48.3886 88.4652 47.9625C88.8913 47.5364 89.1025 47.0229 89.1025 46.4184C89.1025 45.8138 88.9459 45.3513 88.6363 45.0309V45.0236ZM85.0492 42.3578H86.4513C86.7098 42.3578 86.932 42.4488 87.1141 42.6309C87.2962 42.813 87.3872 43.0352 87.3872 43.2937C87.3872 43.5523 87.2962 43.7744 87.1141 43.9565C86.932 44.1386 86.7098 44.2297 86.4513 44.2297H85.0492V42.3578Z" fill="white"/>
<path d="M4.49276 29.1196H3.37109V30.3942H4.49276V29.1196Z" fill="white"/>
<path d="M2.86971 29.1196H1.74805V30.3942H2.86971V29.1196Z" fill="white"/>
<path d="M9.00155 37.605H7.87988V38.8796H9.00155V37.605Z" fill="white"/>
<path d="M7.37362 37.605H6.25195V38.8796H7.37362V37.605Z" fill="white"/>
<path d="M11.4709 34.7682C11.4709 35.3545 11.3945 35.6203 11.3253 35.7442C11.2014 35.9881 10.9465 36.1083 10.5496 36.1083H10.2072V36.0974H8.86342C8.94718 35.8243 8.99088 35.4929 8.99088 35.1068V31.8912H7.88014V34.7682C7.88014 35.2379 7.8328 35.5693 7.73447 35.7514C7.61065 35.9918 7.35573 36.1083 6.95513 36.1083H6.03376C5.25078 36.1083 4.80284 35.5366 4.80284 34.5387V30.8496H2.31187C0.986269 30.8496 0.0576172 32.0113 0.0576172 33.672C0.0576172 35.3326 0.96806 36.4507 2.17713 36.4507C2.88363 36.4507 3.4299 36.2321 3.80136 35.8024C4.18374 36.7347 4.90117 37.2045 5.94636 37.2045H10.7972C11.6093 37.2045 12.578 36.8403 12.578 35.1068V31.8912H11.4673V34.7682H11.4709ZM3.6739 31.7637V33.53C3.64476 35.5074 2.73068 35.5074 2.43205 35.5074C1.71098 35.5074 1.16836 34.7026 1.16836 33.6319C1.16836 32.5612 1.70734 31.7673 2.4539 31.7673H3.6739V31.7637Z" fill="white"/>
<path d="M12.5816 30.1685H11.46V31.4431H12.5816V30.1685Z" fill="white"/>
<path d="M28.1502 34.7681C28.1502 35.3544 28.0737 35.6203 28.0045 35.7441C27.8807 35.9881 27.6258 36.1083 27.2288 36.1083H26.8209V36.0974H25.4771C25.5609 35.8242 25.6046 35.4928 25.6046 35.1068V31.8911H24.4938V34.7681C24.4938 35.2379 24.4465 35.5693 24.3482 35.7514C24.2243 35.9918 23.9694 36.1083 23.5688 36.1083H23.2702V36.0974H21.9774C22.0138 35.908 22.032 35.7113 22.032 35.5038C22.032 34.7426 21.8244 34.1126 21.4093 33.6282C20.9686 33.1148 20.3568 32.8562 19.592 32.8562C18.8272 32.8562 18.2118 33.1111 17.7638 33.6173C17.3305 34.1235 17.1083 34.7608 17.1083 35.5147C17.1083 35.7113 17.1265 35.908 17.1557 36.0974H16.2816C15.7754 36.0974 15.6698 36.0974 15.6043 36.0901C15.353 36.0537 15.1891 35.9663 15.0981 35.8279C15.0107 35.6931 14.9051 35.4127 14.9051 34.8373V30.4271L13.7725 29.6187V35.2962C13.7725 35.9298 13.9436 36.4033 14.2932 36.742C14.6028 37.0515 14.9779 37.2081 15.4113 37.2081H17.5963C18.0333 37.8418 18.6998 38.1622 19.5702 38.1622C20.4405 38.1622 21.0524 37.8418 21.5003 37.2081H27.4655C28.2776 37.2081 29.2463 36.8439 29.2463 35.1104V31.8948H28.1356V34.7718H28.1502V34.7681ZM19.5847 37.1207C19.1659 37.1207 18.86 36.9677 18.6415 36.6582C18.4594 36.3887 18.3647 36.0136 18.3647 35.5511C18.3647 35.0449 18.4558 34.6625 18.6415 34.3748C18.86 34.0398 19.1914 33.8722 19.6248 33.8722C20.0582 33.8722 20.3204 34.0179 20.5207 34.3311C20.6991 34.597 20.7865 34.9611 20.7865 35.42C20.7865 36.9459 20.0982 37.1207 19.5774 37.1207H19.5847Z" fill="white"/>
<path d="M28.6091 29.6915C28.7439 29.6915 28.9041 29.7315 28.9551 30.0302L28.9842 30.1904L29.8692 30.0812L29.8291 29.8991C29.6907 29.2581 29.2646 28.9194 28.5982 28.9194C28.1903 28.9194 27.8553 29.0615 27.6185 29.3346C27.4255 29.5786 27.3309 29.8881 27.3309 30.2632C27.3309 30.3652 27.3418 30.4672 27.3636 30.5619H27.0322V31.4432H29.8109V30.5619H28.2923C28.2559 30.4818 28.234 30.3798 28.234 30.2632C28.234 29.6915 28.4962 29.6915 28.6091 29.6915Z" fill="white"/>
<path d="M24.7086 30.1685H23.5869V31.4431H24.7086V30.1685Z" fill="white"/>
<path d="M26.3336 30.1685H25.2119V31.4431H26.3336V30.1685Z" fill="white"/>
<path d="M34.1414 34.7683C34.1414 35.3546 34.0649 35.6205 33.9958 35.737C33.861 35.9846 33.6061 36.1048 33.2164 36.1048H33.0198L31.6577 31.2467L30.3977 30.3945L31.869 36.1048H30.1318V37.2046H33.4677C34.2798 37.2046 35.2485 36.8405 35.2485 35.107V30.4237L34.1378 29.6079V34.7647L34.1414 34.7683Z" fill="white"/>
<path d="M36.374 37.2046H37.4848V30.4237L36.374 29.6079V37.2046Z" fill="white"/>
<path d="M43.9517 30.9478H42.8301V32.2224H43.9517V30.9478Z" fill="white"/>
<path d="M47.3784 34.7681C47.3784 35.9116 47.1089 36.0974 46.4643 36.0974H43.2887C41.821 36.0974 41.14 35.3836 41.14 33.8504V32.5284L40.0293 31.7163V33.8504C40.0293 36.0792 41.1473 37.2081 43.3542 37.2081H46.7156C47.5241 37.2081 48.4855 36.8439 48.4855 35.1104V32.5393L47.3747 31.7272V34.7718H47.3784V34.7681Z" fill="white"/>
<path d="M45.5758 30.9478H44.4541V32.2224H45.5758V30.9478Z" fill="white"/>
<path d="M55.9407 32.8525C55.1759 32.8525 54.5605 33.1074 54.1162 33.61C53.6719 34.1089 53.4497 34.7499 53.4497 35.5074C53.4497 35.7113 53.4679 35.908 53.5043 36.09H52.2006C51.6944 36.09 51.5888 36.09 51.5232 36.0828C51.2719 36.0463 51.1081 35.9589 51.017 35.8205C50.9296 35.6858 50.824 35.4054 50.824 34.83V30.4198L49.6914 29.6113V35.2889C49.6914 35.9225 49.8626 36.3959 50.2122 36.7346C50.5217 37.0442 50.8968 37.2008 51.3302 37.2008H53.945C54.3929 37.8344 55.0594 38.1549 55.9298 38.1549C56.6836 38.1549 57.2918 37.8891 57.7361 37.361C58.1549 36.873 58.3697 36.243 58.3697 35.4964C58.3697 34.7499 58.1658 34.098 57.7579 33.6209C57.3173 33.1074 56.7055 32.8489 55.9407 32.8489V32.8525ZM57.1388 35.4272C57.1388 36.5708 56.7419 37.1279 55.9298 37.1279C55.511 37.1279 55.2051 36.975 54.9865 36.6654C54.7972 36.385 54.6988 36.0099 54.6988 35.5583C54.6988 35.0631 54.7935 34.6807 54.9902 34.3821C55.2123 34.0434 55.5328 33.8795 55.9735 33.8795C56.3777 33.8795 56.6763 34.0288 56.8803 34.3347C57.0514 34.6078 57.1388 34.972 57.1388 35.4272Z" fill="white"/>
<path d="M87.996 34.7682C87.996 35.3545 87.9195 35.6204 87.8503 35.7442C87.7265 35.9882 87.4715 36.1084 87.0746 36.1084H86.7323V36.0975H85.3885C85.4759 35.8243 85.5159 35.4929 85.5159 35.1069V30.4236L84.4052 29.6078V34.7646C84.4052 35.2344 84.3578 35.5658 84.2595 35.7479C84.1357 35.9882 83.8808 36.1047 83.4802 36.1047H83.1815V36.0938H81.8887C81.9251 35.9044 81.9433 35.7078 81.9433 35.5002C81.9433 34.7391 81.7358 34.1091 81.3206 33.6247C80.8799 33.1112 80.2681 32.8526 79.5034 32.8526C78.7386 32.8526 78.1231 33.1076 77.6752 33.6138C77.2418 34.12 77.0197 34.7573 77.0197 35.5111C77.0197 35.7078 77.0379 35.9044 77.067 36.0938H74.7253C74.1099 36.0938 73.9242 36.0574 73.8805 36.0428C73.6911 35.9955 73.4981 35.8717 73.3087 35.6714C73.8258 35.2489 74.2774 34.7755 74.6452 34.2584C74.8346 33.9962 75.0531 33.6174 75.359 33.0311L75.4246 32.9073L75.3153 32.8199C74.4231 32.0952 73.418 31.731 72.3254 31.731C71.3749 31.731 70.4208 32.0369 69.4958 32.6341L69.4156 32.6851L69.4302 33.7594L69.5395 33.8031C70.4062 34.1382 71.1346 34.7172 71.7063 35.5257C71.4004 35.7296 71.1346 35.8753 70.9124 35.9554C70.6684 36.0428 70.3479 36.0865 69.9619 36.0865H67.3216C67.409 35.8134 67.4491 35.482 67.4491 35.096V30.4127L66.3384 29.5969V34.7537C66.3384 35.2234 66.291 35.5548 66.1927 35.7369C66.0689 35.9773 65.8139 36.0938 65.4133 36.0938H63.6799V34.2292C63.6799 32.7288 62.9005 31.8657 61.5385 31.8657C60.8648 31.8657 60.293 32.1279 59.8305 32.6487C59.3898 33.1586 59.1641 33.7995 59.1641 34.5461C59.1641 35.2926 59.3753 35.9299 59.7941 36.4289C60.2165 36.9351 60.7701 37.19 61.4365 37.19H62.3943C62.2013 37.6744 61.8408 37.9074 61.2945 37.9074H61.025V38.9963L61.2071 38.9854C62.4999 38.9053 63.2902 38.3044 63.5597 37.19H69.9801C70.927 37.19 71.7464 36.9278 72.4165 36.407C72.8498 36.9278 73.407 37.19 74.0771 37.19H77.5113C77.9483 37.8237 78.6148 38.1441 79.4851 38.1441C80.3555 38.1441 80.9673 37.8237 81.4153 37.19H87.3149C88.1271 37.19 89.0958 36.8258 89.0958 35.0923V30.409L87.985 29.5933V34.75L87.996 34.7682ZM80.7015 35.4237C80.7015 36.5673 80.3045 37.1244 79.4924 37.1244C79.0736 37.1244 78.7677 36.9715 78.5492 36.6619C78.3671 36.3924 78.2724 36.0173 78.2724 35.5548C78.2724 35.0486 78.3635 34.6662 78.5492 34.3785C78.7677 34.0435 79.0991 33.876 79.5325 33.876C79.9659 33.876 80.2281 34.0217 80.4284 34.3348C80.6068 34.6007 80.6942 34.9649 80.6942 35.4237H80.7015ZM74.0844 33.2751C73.7202 33.8687 73.2249 34.3895 72.5803 34.8483C72.2271 34.3785 71.9321 34.0508 71.6553 33.825C71.364 33.581 71.0399 33.3734 70.6903 33.2059C71.2984 32.9109 71.8556 32.7689 72.38 32.7689C72.7406 32.7689 73.0938 32.8344 73.4289 32.9619C73.4981 32.991 73.7275 33.0966 74.088 33.2714H74.0844V33.2751ZM62.5582 33.9597V36.1011L61.4584 36.112C61.0942 36.112 60.8065 35.9336 60.588 35.5694C60.4023 35.2635 60.3076 34.8993 60.3076 34.4878C60.3076 34.1091 60.4168 33.7594 60.6281 33.4463C60.8611 33.1039 61.1488 32.94 61.5057 32.94C61.8626 32.94 62.1175 33.0457 62.3106 33.2678C62.4781 33.4535 62.5618 33.6866 62.5618 33.9634H62.5582V33.9597Z" fill="white"/>
<path d="M93.1198 31.8804H92.9487V32.9474H93.4075C94.2743 32.9984 94.8934 33.3444 95.2976 34.0035C95.6144 34.5243 95.7856 35.2272 95.8075 36.0975H91.7578V37.2083H96.9619V37.0371C96.9619 35.6278 96.7907 34.5789 96.4411 33.8214C95.8548 32.5359 94.7368 31.8804 93.1198 31.8804Z" fill="white"/>
<path d="M110.13 30.1685H109.009V31.4431H110.13V30.1685Z" fill="white"/>
<path d="M110.643 34.7683C110.643 35.3547 110.566 35.6205 110.497 35.7443C110.373 35.9883 110.118 36.1085 109.722 36.1085H109.368V36.0976H108.163V35.9301C108.163 33.5629 106.677 32.0334 104.379 32.0334C103.141 32.0334 102.183 32.4449 101.528 33.257L101.437 33.3808L101.546 33.4901C101.877 33.8215 102.096 34.04 102.201 34.1565L102.354 34.3277L102.474 34.131C102.882 33.4573 103.509 33.1295 104.386 33.1295C106.014 33.1295 106.91 34.1019 106.91 35.8718C106.91 35.941 106.906 36.0138 106.899 36.0939H100.664C100.158 36.0939 100.053 36.0939 99.9871 36.0867C99.7358 36.0502 99.5719 35.9628 99.4809 35.8245C99.3935 35.6897 99.2879 35.4093 99.2879 34.8339V30.4237L98.1553 29.6152V35.2928C98.1553 35.9264 98.3264 36.3999 98.676 36.7385C98.9856 37.0481 99.3607 37.2047 99.7941 37.2047H109.969C110.781 37.2047 111.75 36.8405 111.75 35.107V31.8913H110.639V34.7683H110.643Z" fill="white"/>
<path d="M111.754 30.1685H110.633V31.4431H111.754V30.1685Z" fill="white"/>
<path d="M116.635 34.7683C116.635 35.3546 116.558 35.6205 116.489 35.737C116.354 35.9846 116.099 36.1048 115.71 36.1048H115.513L114.151 31.2467L112.891 30.3945L114.362 36.1048H112.625V37.2046H115.961C116.773 37.2046 117.742 36.8405 117.742 35.107V30.4237L116.631 29.6079V34.7647L116.635 34.7683Z" fill="white"/>
<path d="M118.867 29.6079V37.2046H119.978V30.4237L118.867 29.6079Z" fill="white"/>
</svg>
