<svg width="160" height="32" viewBox="0 0 160 32" fill="none" xmlns="http://www.w3.org/2000/svg">
<path d="M34.0009 29.1569C34.0654 29.2793 34.1566 29.3855 34.2678 29.4679C34.3851 29.5513 34.5171 29.6117 34.6569 29.6459C34.8086 29.684 34.9645 29.7028 35.1209 29.7019C35.2364 29.7021 35.3517 29.6934 35.4658 29.6759C35.5862 29.6616 35.7034 29.6278 35.8129 29.5759C35.9186 29.5284 36.0113 29.456 36.0828 29.3649C36.1568 29.2666 36.1943 29.1457 36.1889 29.0229C36.192 28.9559 36.181 28.889 36.1568 28.8265C36.1325 28.764 36.0954 28.7072 36.0479 28.6599C35.9394 28.5586 35.8119 28.4798 35.6729 28.4279C35.5026 28.3616 35.3278 28.3074 35.1499 28.2659C34.9499 28.2219 34.7568 28.1659 34.5548 28.1119C34.3511 28.0618 34.1507 27.9991 33.9549 27.9239C33.7671 27.8537 33.5908 27.7559 33.4318 27.6339C33.2761 27.5153 33.1481 27.3641 33.0568 27.1909C32.9559 26.9916 32.9067 26.7701 32.9138 26.5469C32.9075 26.2898 32.97 26.0357 33.0949 25.8109C33.2136 25.6049 33.3753 25.4269 33.5689 25.2889C33.7699 25.1479 33.9943 25.044 34.2318 24.9819C34.4732 24.9152 34.7225 24.8816 34.9729 24.8819C35.2516 24.8809 35.5294 24.9145 35.7999 24.9819C36.0528 25.0407 36.2925 25.1462 36.5069 25.2929C36.7104 25.4372 36.8781 25.6264 36.9968 25.8459C37.1228 26.0979 37.1847 26.3772 37.1768 26.6589H36.0048C36.0024 26.5171 35.9683 26.3777 35.9049 26.2509C35.8501 26.1471 35.7686 26.0597 35.6688 25.9979C35.5668 25.9322 35.4531 25.8868 35.3339 25.8639C35.1974 25.8381 35.0588 25.8254 34.9199 25.8259C34.8213 25.8265 34.7231 25.8376 34.6269 25.8589C34.532 25.8773 34.4415 25.9133 34.3599 25.9649C34.2825 26.0145 34.2163 26.08 34.1659 26.1569C34.1102 26.2441 34.0829 26.3465 34.0879 26.4499C34.085 26.5414 34.106 26.632 34.1489 26.7129C34.2116 26.7958 34.296 26.8598 34.3928 26.8979C34.5544 26.9683 34.7217 27.0248 34.8928 27.0669C35.1058 27.1229 35.3848 27.1959 35.7288 27.2829C35.8288 27.3039 35.9748 27.3409 36.1558 27.3949C36.3491 27.453 36.5325 27.54 36.6999 27.6529C36.886 27.7772 37.0447 27.9386 37.1659 28.1269C37.3067 28.3543 37.3764 28.6186 37.3659 28.8859C37.3667 29.1269 37.3165 29.3655 37.2188 29.5859C37.1186 29.8037 36.9694 29.9953 36.7829 30.1459C36.5696 30.3126 36.3262 30.4365 36.0659 30.5109C35.7434 30.6048 35.4086 30.6497 35.0728 30.6439C34.7749 30.6447 34.4781 30.6071 34.1898 30.5319C33.9188 30.4631 33.663 30.344 33.4359 30.1809C33.2169 30.0204 33.0382 29.8112 32.9138 29.5699C32.781 29.2965 32.7174 28.9946 32.7288 28.6909H33.8999C33.895 28.8543 33.9292 29.0164 33.9998 29.1639" fill="white"/>
<path d="M40.7075 26.5262V27.2592H39.9074V29.2322C39.891 29.3633 39.9238 29.4958 39.9995 29.6042C40.1082 29.6788 40.2405 29.7111 40.3715 29.6952C40.4305 29.6952 40.4904 29.6952 40.5464 29.6882C40.6009 29.6844 40.6551 29.6767 40.7084 29.6652V30.5112C40.6063 30.5294 40.5031 30.5405 40.3994 30.5442C40.2864 30.5492 40.1765 30.5512 40.0695 30.5512C39.9078 30.5515 39.7463 30.5398 39.5864 30.5162C39.4461 30.496 39.3106 30.4506 39.1865 30.3822C39.0704 30.315 38.9754 30.2166 38.9124 30.0982C38.8398 29.9464 38.8055 29.7792 38.8124 29.6112V27.2592H38.1494V26.5262H38.8124V25.3262H39.9124V26.5262H40.7075Z" fill="white"/>
<path d="M41.8819 27.112C41.9922 26.9446 42.1397 26.8049 42.3129 26.7039C42.4961 26.5979 42.6959 26.5235 42.9039 26.4839C43.1205 26.4403 43.3409 26.4182 43.5619 26.418C43.7657 26.4189 43.9691 26.4336 44.1709 26.4619C44.3665 26.487 44.5569 26.543 44.7349 26.628C44.8997 26.7064 45.0428 26.8238 45.1519 26.97C45.2665 27.1421 45.3233 27.3463 45.3139 27.5529V29.627C45.3131 29.7994 45.3231 29.9717 45.3439 30.1429C45.353 30.2719 45.3899 30.3975 45.4519 30.511H44.3409C44.3198 30.45 44.3034 30.3874 44.2919 30.3239C44.2788 30.2579 44.2695 30.1911 44.2639 30.124C44.0941 30.3016 43.8812 30.4321 43.6459 30.503C43.4114 30.5749 43.1672 30.6107 42.9219 30.6089C42.743 30.6105 42.5647 30.5876 42.3919 30.541C42.2344 30.4991 42.0871 30.4256 41.9589 30.325C41.8345 30.2261 41.7352 30.0994 41.6689 29.955C41.5975 29.7862 41.5634 29.6041 41.5689 29.421C41.5635 29.2288 41.6043 29.0381 41.6879 28.865C41.7619 28.7253 41.8678 28.6051 41.9969 28.5139C42.1283 28.4223 42.2749 28.3546 42.4299 28.314C42.5918 28.2711 42.7561 28.2377 42.9219 28.214C43.0839 28.186 43.2469 28.167 43.4049 28.151C43.5484 28.1374 43.6907 28.114 43.8309 28.081C43.9365 28.057 44.0358 28.0106 44.1219 27.9449C44.1585 27.9135 44.1869 27.8735 44.2043 27.8285C44.2218 27.7835 44.2278 27.7349 44.2219 27.687C44.2268 27.5898 44.2065 27.493 44.1629 27.4059C44.1275 27.3394 44.075 27.2835 44.0109 27.244C43.9416 27.2039 43.8652 27.1777 43.7859 27.167C43.6951 27.1548 43.6035 27.1491 43.5119 27.15C43.3315 27.1397 43.1526 27.1881 43.0019 27.288C42.9354 27.345 42.8819 27.4155 42.8448 27.4948C42.8077 27.5741 42.788 27.6604 42.7869 27.748H41.6869C41.6938 27.5215 41.7608 27.301 41.8809 27.1089M44.0419 28.655C43.9691 28.6797 43.8946 28.699 43.8189 28.713C43.7389 28.729 43.6549 28.741 43.5699 28.753C43.4849 28.765 43.3959 28.774 43.3069 28.791C43.225 28.8062 43.1442 28.8265 43.0649 28.852C42.9904 28.874 42.9199 28.9078 42.8559 28.952C42.7973 28.9963 42.7492 29.0529 42.7149 29.118C42.6758 29.1963 42.6572 29.2834 42.6609 29.371C42.6573 29.4569 42.6759 29.5423 42.7149 29.619C42.7487 29.6839 42.7991 29.7388 42.8609 29.778C42.9266 29.8186 42.9996 29.8458 43.0759 29.858C43.1608 29.8728 43.2467 29.8805 43.3329 29.881C43.506 29.8909 43.6787 29.8543 43.8329 29.775C43.9408 29.7125 44.0305 29.6229 44.0929 29.515C44.1483 29.4231 44.1847 29.3211 44.1999 29.215C44.2116 29.1335 44.218 29.0513 44.2189 28.969V28.559C44.1681 28.6035 44.109 28.6375 44.0449 28.659" fill="white"/>
<path d="M49.0023 26.5262V27.2592H48.2023V29.2322C48.1823 29.2964 48.1802 29.3649 48.1964 29.4302C48.2125 29.4956 48.2461 29.5552 48.2937 29.6028C48.3413 29.6504 48.4009 29.684 48.4662 29.7001C48.5316 29.7162 48.6001 29.7142 48.6643 29.6942C48.7253 29.6942 48.7843 29.6942 48.8403 29.6872C48.8948 29.6834 48.9489 29.6758 49.0023 29.6642V30.5102C48.9002 30.5284 48.7969 30.5394 48.6933 30.5432C48.5813 30.5482 48.4703 30.5502 48.3623 30.5502C48.201 30.5505 48.0399 30.5388 47.8803 30.5152C47.74 30.4948 47.6045 30.4494 47.4803 30.3812C47.3648 30.3139 47.2706 30.2155 47.2083 30.0972C47.1349 29.9457 47.1005 29.7783 47.1083 29.6102V27.2582H46.4453V26.5252H47.1083V25.3252H48.2083V26.5252L49.0023 26.5262Z" fill="white"/>
<path d="M51.2674 29.5579C51.4633 29.728 51.7185 29.814 51.9774 29.7969C52.18 29.8031 52.3793 29.7447 52.5464 29.6299C52.6818 29.5514 52.7855 29.4279 52.8394 29.2809H53.8044C53.6947 29.6947 53.4435 30.0571 53.0944 30.3049C52.7479 30.5185 52.3463 30.6259 51.9394 30.6139C51.6488 30.6178 51.3601 30.5669 51.0884 30.4639C50.8471 30.3692 50.6292 30.2236 50.4494 30.0369C50.273 29.8449 50.1369 29.6195 50.0494 29.3739C49.9512 29.1014 49.9028 28.8135 49.9064 28.5239C49.904 28.2399 49.9538 27.9579 50.0534 27.6919C50.1445 27.4437 50.2858 27.217 50.4684 27.0259C50.652 26.8375 50.8708 26.687 51.1124 26.5829C51.375 26.4724 51.6575 26.4172 51.9424 26.4209C52.2496 26.414 52.5539 26.4827 52.8284 26.6209C53.073 26.7459 53.285 26.9264 53.4474 27.1479C53.6122 27.3752 53.7315 27.6322 53.7984 27.9049C53.8721 28.1941 53.8985 28.4933 53.8764 28.7909H50.9994C50.9888 29.0729 51.0856 29.3485 51.2704 29.5619M52.5074 27.4619C52.4288 27.3849 52.3345 27.3256 52.231 27.2884C52.1274 27.2511 52.0171 27.2366 51.9074 27.2459C51.7569 27.2414 51.6075 27.2726 51.4714 27.3369C51.3638 27.3886 51.2692 27.4638 51.1944 27.5569C51.1269 27.6382 51.0769 27.7324 51.0474 27.8339C51.0204 27.919 51.0033 28.0069 50.9964 28.0959H52.7774C52.7463 27.8636 52.6515 27.6445 52.5034 27.4629" fill="white"/>
<path d="M56.7002 27.6571C56.789 27.4092 56.9298 27.1831 57.1132 26.9941C57.2981 26.8102 57.519 26.6665 57.7622 26.5721C58.0323 26.4669 58.3202 26.4146 58.6102 26.4181C58.9017 26.4149 59.1912 26.4672 59.4632 26.5721C59.7074 26.6656 59.9292 26.8094 60.1142 26.9941C60.2977 27.1838 60.4397 27.4096 60.5312 27.6571C60.7264 28.2179 60.7264 28.8283 60.5312 29.3891C60.4393 29.635 60.2973 29.8591 60.1142 30.0471C59.9296 30.2324 59.7077 30.3763 59.4632 30.4691C59.1899 30.5685 58.9009 30.6176 58.6102 30.6141C58.321 30.6179 58.0336 30.5688 57.7622 30.4691C57.5187 30.3753 57.2977 30.2316 57.1132 30.0471C56.9302 29.8597 56.7894 29.6354 56.7002 29.3891C56.5049 28.8283 56.5049 28.2179 56.7002 27.6571ZM57.6942 28.9921C57.7208 29.136 57.7741 29.2737 57.8512 29.3981C57.9243 29.5195 58.0277 29.6198 58.1512 29.6891C58.2929 29.7654 58.4523 29.8026 58.6132 29.7971C58.7756 29.8023 58.9366 29.7651 59.0802 29.6891C59.2034 29.6193 59.3067 29.5191 59.3802 29.3981C59.4573 29.2735 59.5111 29.1359 59.5392 28.9921C59.5692 28.8383 59.5843 28.6819 59.5842 28.5251C59.584 28.3677 59.569 28.2107 59.5392 28.0561C59.5115 27.9116 59.4576 27.7733 59.3802 27.6481C59.3052 27.5286 59.2022 27.4291 59.0802 27.3581C58.9373 27.2797 58.7761 27.2407 58.6132 27.2451C58.4518 27.2403 58.2921 27.2794 58.1512 27.3581C58.0288 27.4286 57.9258 27.5282 57.8512 27.6481C57.7738 27.7731 57.7205 27.9115 57.6942 28.0561C57.6619 28.2104 57.6462 28.3676 57.6472 28.5251C57.646 28.682 57.6617 28.8386 57.6942 28.9921Z" fill="white"/>
<path d="M61.1182 27.2548V26.5218H61.7742V26.2128C61.7682 26.0528 61.7943 25.8932 61.851 25.7435C61.9077 25.5937 61.9938 25.4568 62.1042 25.3408C62.2397 25.2203 62.398 25.1283 62.5698 25.0703C62.7416 25.0122 62.9234 24.9893 63.1042 25.0028C63.2042 25.0028 63.3042 25.0028 63.3972 25.0148C63.4902 25.0268 63.5892 25.0308 63.6812 25.0338V25.8498C63.5483 25.8357 63.4148 25.8287 63.2812 25.8288C63.2243 25.8225 63.1667 25.8281 63.1121 25.8453C63.0575 25.8626 63.0071 25.891 62.9642 25.9288C62.8878 26.029 62.8521 26.1544 62.8642 26.2798V26.5188H63.6212V27.2518H62.8642V30.5038H61.7701V27.2548H61.1182Z" fill="white"/>
<path d="M69.5793 30.3211C69.1698 30.5429 68.7087 30.6519 68.2433 30.6371C67.8535 30.6431 67.4667 30.5682 67.1073 30.4171C66.7825 30.2796 66.4914 30.0732 66.2543 29.8121C66.0187 29.549 65.8385 29.2413 65.7243 28.9071C65.5969 28.5469 65.5336 28.1672 65.5373 27.7851C65.5333 27.3959 65.5965 27.0088 65.7243 26.6411C65.8382 26.302 66.0183 25.989 66.2543 25.7201C66.4898 25.454 66.781 25.2429 67.1073 25.1021C67.8366 24.8019 68.655 24.8019 69.3843 25.1021C69.7098 25.2428 70.0001 25.4539 70.2343 25.7201C70.4695 25.9898 70.6502 26.3026 70.7663 26.6411C70.8925 27.0092 70.9551 27.396 70.9513 27.7851C70.955 28.1657 70.8924 28.544 70.7663 28.9031C70.6481 29.237 70.4675 29.5455 70.2343 29.8121L70.9203 30.4371L70.3573 31.0231L69.5793 30.3211ZM69.3993 29.0491C69.5117 28.8924 69.5957 28.717 69.6473 28.5311C69.7138 28.2878 69.7451 28.0363 69.7403 27.7841C69.7413 27.5483 69.7137 27.3133 69.6583 27.0841C69.609 26.8687 69.5217 26.6638 69.4003 26.4791C69.2832 26.3022 69.1246 26.1566 68.9383 26.0551C68.7217 25.9507 68.4842 25.8965 68.2438 25.8965C68.0033 25.8965 67.7659 25.9507 67.5493 26.0551C67.3636 26.1571 67.2054 26.3026 67.0883 26.4791C66.9662 26.6637 66.8782 26.8686 66.8283 27.0841C66.7744 27.3135 66.7475 27.5485 66.7483 27.7841C66.7475 28.0109 66.7744 28.2369 66.8283 28.4571C66.8789 28.6681 66.9669 28.8683 67.0883 29.0481C67.2061 29.2228 67.3642 29.3665 67.5493 29.4671C67.7632 29.5785 68.0022 29.6332 68.2433 29.6261C68.3323 29.6261 68.4233 29.6261 68.5203 29.6191C68.5962 29.6223 68.6706 29.5974 68.7292 29.5491L68.2113 29.0801L68.7763 28.4801L69.3993 29.0491Z" fill="white"/>
<path d="M72.3468 27.112C72.4571 26.9446 72.6046 26.8049 72.7778 26.7039C72.9606 26.5978 73.1602 26.5234 73.3678 26.4839C73.5848 26.4402 73.8055 26.4181 74.0268 26.418C74.2306 26.4189 74.4341 26.4336 74.6358 26.4619C74.831 26.4876 75.021 26.5436 75.1988 26.628C75.3633 26.7059 75.5059 26.8234 75.6138 26.97C75.7284 27.1421 75.7851 27.3463 75.7758 27.5529V29.627C75.7753 29.7994 75.7857 29.9718 75.8068 30.1429C75.8159 30.2719 75.8528 30.3975 75.9148 30.511H74.8038C74.7827 30.45 74.7663 30.3874 74.7548 30.3239C74.7409 30.258 74.7315 30.1912 74.7268 30.124C74.5568 30.3012 74.3439 30.4317 74.1088 30.503C73.8742 30.5748 73.6301 30.6105 73.3848 30.6089C73.2052 30.6104 73.0263 30.5875 72.8528 30.541C72.696 30.4989 72.5494 30.4254 72.4218 30.325C72.2973 30.2265 72.1982 30.0996 72.1328 29.955C72.0614 29.7862 72.0273 29.6041 72.0328 29.421C72.0274 29.2288 72.0682 29.0381 72.1518 28.865C72.2256 28.7252 72.3316 28.6049 72.4608 28.5139C72.5921 28.4219 72.7387 28.3542 72.8938 28.314C73.0551 28.2712 73.2187 28.2378 73.3838 28.214C73.5458 28.186 73.7098 28.167 73.8688 28.151C74.0116 28.1376 74.1533 28.1142 74.2928 28.081C74.3992 28.0575 74.4992 28.011 74.5858 27.9449C74.6225 27.9135 74.6507 27.8735 74.6682 27.8285C74.6856 27.7835 74.6917 27.7349 74.6858 27.687C74.6906 27.5898 74.6703 27.493 74.6268 27.4059C74.5912 27.3389 74.5379 27.2829 74.4728 27.244C74.4041 27.2042 74.3284 27.1781 74.2498 27.167C74.159 27.1548 74.0674 27.1491 73.9758 27.15C73.7957 27.1399 73.6172 27.1883 73.4668 27.288C73.4008 27.3454 73.3475 27.416 73.3103 27.4952C73.2731 27.5744 73.2529 27.6605 73.2508 27.748H72.1558C72.1618 27.5214 72.2289 27.3006 72.3498 27.1089M74.5108 28.655C74.4381 28.6799 74.3635 28.6993 74.2878 28.713C74.2078 28.729 74.1238 28.741 74.0378 28.753C73.9518 28.765 73.8618 28.774 73.7748 28.791C73.6923 28.8061 73.6108 28.8265 73.5308 28.852C73.4567 28.8744 73.3866 28.9081 73.3228 28.952C73.2642 28.9968 73.2155 29.0533 73.1798 29.118C73.1431 29.1971 73.1253 29.2837 73.1278 29.371C73.1256 29.4566 73.1434 29.5415 73.1798 29.619C73.215 29.6833 73.2654 29.7379 73.3268 29.778C73.393 29.8183 73.4663 29.8455 73.5428 29.858C73.6277 29.8729 73.7137 29.8806 73.7998 29.881C73.973 29.8907 74.1455 29.8541 74.2998 29.775C74.4081 29.713 74.4979 29.6232 74.5598 29.515C74.6149 29.4231 74.6509 29.3211 74.6658 29.215C74.6767 29.1334 74.6831 29.0513 74.6848 28.969V28.559C74.6337 28.6036 74.5742 28.6376 74.5098 28.659" fill="white"/>
<path d="M79.3334 26.5262V27.2592H78.5334V29.2322C78.5165 29.3636 78.5501 29.4966 78.6274 29.6042C78.7346 29.6789 78.8657 29.7113 78.9954 29.6952C79.0564 29.6952 79.1154 29.6952 79.1734 29.6882C79.2279 29.6842 79.282 29.6765 79.3354 29.6652V30.5112C79.2329 30.5293 79.1294 30.5403 79.0254 30.5442C78.9134 30.5492 78.8024 30.5512 78.6954 30.5512C78.5337 30.5515 78.3723 30.5398 78.2124 30.5162C78.072 30.4963 77.9364 30.4509 77.8124 30.3822C77.6963 30.315 77.6014 30.2166 77.5384 30.0982C77.4658 29.9465 77.4314 29.7792 77.4384 29.6112V27.2592H76.7754V26.5262H77.4384V25.3262H78.5384V26.5262H79.3334Z" fill="white"/>
<path d="M80.4368 27.112C80.5471 26.9446 80.6946 26.8049 80.8678 26.7039C81.0509 26.5976 81.2508 26.5232 81.4588 26.4839C81.6754 26.4402 81.8958 26.4181 82.1168 26.418C82.3205 26.4189 82.524 26.4336 82.7258 26.4619C82.921 26.4876 83.111 26.5436 83.2888 26.628C83.4533 26.7059 83.5959 26.8234 83.7038 26.97C83.8199 27.1415 83.8774 27.346 83.8678 27.5529V29.627C83.8672 29.7993 83.8766 29.9716 83.8958 30.1429C83.9062 30.272 83.9437 30.3974 84.0058 30.511H82.8948C82.873 30.4502 82.8566 30.3876 82.8458 30.3239C82.8319 30.258 82.8226 30.1912 82.8178 30.124C82.6484 30.3015 82.4358 30.4321 82.2008 30.503C81.9656 30.575 81.7208 30.6107 81.4748 30.6089C81.2959 30.6102 81.1176 30.5874 80.9448 30.541C80.7881 30.4986 80.6415 30.4252 80.5138 30.325C80.389 30.2266 80.2895 30.0997 80.2238 29.955C80.1516 29.7865 80.1174 29.6042 80.1238 29.421C80.1174 29.2287 80.1582 29.0378 80.2428 28.865C80.3169 28.7254 80.4228 28.6051 80.5518 28.5139C80.6831 28.422 80.8297 28.3543 80.9848 28.314C81.1461 28.2712 81.3097 28.2378 81.4748 28.214C81.6388 28.186 81.8008 28.167 81.9598 28.151C82.1026 28.1374 82.2443 28.114 82.3838 28.081C82.4902 28.0574 82.5902 28.011 82.6768 27.9449C82.7135 27.9135 82.7417 27.8735 82.7592 27.8285C82.7766 27.7835 82.7827 27.7349 82.7768 27.687C82.7817 27.5898 82.7613 27.493 82.7178 27.4059C82.682 27.3394 82.6293 27.2835 82.5648 27.244C82.4963 27.204 82.4205 27.1778 82.3418 27.167C82.2504 27.1547 82.1581 27.149 82.0658 27.15C81.886 27.14 81.7079 27.1884 81.5578 27.288C81.4912 27.3449 81.4374 27.4153 81.4002 27.4947C81.3629 27.574 81.343 27.6603 81.3418 27.748H80.2478C80.2539 27.5214 80.3209 27.3007 80.4418 27.1089M82.6038 28.655C82.531 28.6797 82.4565 28.699 82.3808 28.713C82.3008 28.729 82.2168 28.741 82.1318 28.753C82.0468 28.765 81.9568 28.774 81.8688 28.791C81.7863 28.8061 81.7048 28.8265 81.6248 28.852C81.5508 28.8744 81.4806 28.9081 81.4168 28.952C81.3576 28.9962 81.3088 29.0529 81.2738 29.118C81.2371 29.1971 81.2193 29.2837 81.2218 29.371C81.2196 29.4566 81.2374 29.5415 81.2738 29.619C81.309 29.6833 81.3594 29.7379 81.4208 29.778C81.4869 29.8185 81.5603 29.8457 81.6368 29.858C81.721 29.8728 81.8063 29.8805 81.8918 29.881C82.0649 29.8906 82.2375 29.854 82.3918 29.775C82.4997 29.7125 82.5893 29.6228 82.6518 29.515C82.7061 29.4227 82.7421 29.3209 82.7578 29.215C82.7688 29.1334 82.7751 29.0513 82.7768 28.969V28.559C82.7261 28.6036 82.6669 28.6376 82.6028 28.659" fill="white"/>
<path d="M86.6154 26.526V27.267H86.6313C86.7368 27.0164 86.9134 26.8022 87.1393 26.651C87.252 26.5777 87.3741 26.5201 87.5024 26.48C87.6315 26.4379 87.7665 26.4167 87.9023 26.417C87.9834 26.4182 88.0639 26.431 88.1414 26.455V27.472C88.0894 27.462 88.0284 27.453 87.9564 27.446C87.887 27.4378 87.8172 27.4338 87.7474 27.434C87.5723 27.4282 87.3982 27.4624 87.2383 27.534C87.1063 27.5962 86.9913 27.6895 86.9034 27.806C86.8151 27.9278 86.7534 28.0668 86.7224 28.214C86.6856 28.3781 86.6675 28.5458 86.6683 28.714V30.514H85.5684V26.529L86.6154 26.526Z" fill="white"/>
<path d="M117.096 26.4841C116.825 26.4636 116.554 26.5018 116.3 26.5962C116.046 26.6906 115.816 26.8388 115.624 27.0308C115.433 27.2227 115.286 27.4538 115.193 27.7082C115.099 27.9625 115.062 28.234 115.084 28.5041C115.079 28.7862 115.128 29.0667 115.227 29.3311H109.632C109.499 27.5081 108.66 26.4731 107.19 26.4731C106.711 26.4902 106.242 26.6085 105.812 26.8202C105.383 27.0319 105.003 27.3321 104.699 27.7011L104.816 24.7891H103.579V29.3301H97.5456V26.4901H96.2876V29.8121C96.2876 30.5954 95.8782 30.9868 95.0596 30.9861V31.9931C96.4746 31.9931 97.2766 31.5051 97.4816 30.5241H117.147C117.418 30.5405 117.69 30.4992 117.944 30.403C118.198 30.3069 118.429 30.158 118.622 29.9661C118.814 29.7743 118.964 29.5438 119.061 29.2899C119.159 29.0361 119.201 28.7645 119.186 28.4931C119.201 28.2195 119.158 27.9458 119.058 27.6907C118.958 27.4356 118.804 27.2051 118.607 27.0151C118.19 26.648 117.647 26.4572 117.093 26.4831M108.321 29.3301H104.67C104.876 28.8442 105.21 28.4231 105.636 28.1114C106.062 27.7997 106.565 27.6088 107.091 27.5591C107.866 27.5591 108.33 28.2291 108.33 29.1521C108.331 29.2115 108.328 29.271 108.321 29.3301ZM117.752 29.2151C117.682 29.312 117.59 29.3901 117.482 29.4424C117.375 29.4948 117.257 29.5198 117.138 29.5151C117.012 29.5204 116.887 29.4938 116.775 29.4376C116.663 29.3815 116.567 29.2976 116.496 29.1941C116.355 28.9839 116.285 28.7346 116.296 28.4821C116.292 28.2441 116.354 28.0099 116.476 27.8051C116.535 27.7029 116.621 27.6185 116.724 27.5608C116.827 27.5031 116.943 27.4742 117.062 27.4771H117.151C117.676 27.4771 117.943 27.8241 117.943 28.5271C117.952 28.7714 117.882 29.0121 117.743 29.2131" fill="white"/>
<path d="M118.466 24.79H117.362V25.816H118.466V24.79Z" fill="white"/>
<path d="M116.783 24.79H115.679V25.816H116.783V24.79Z" fill="white"/>
<path d="M123.685 23.7588H122.581V24.7918H123.685V23.7588Z" fill="white"/>
<path d="M125.359 23.7588H124.256V24.7918H125.359V23.7588Z" fill="white"/>
<path d="M131.985 28.4619C131.985 29.0389 131.772 29.3339 131.354 29.3339H126.713C126.59 29.3502 126.464 29.3379 126.347 29.2979C126.229 29.258 126.122 29.1915 126.034 29.1036C125.946 29.0158 125.88 28.9088 125.84 28.7911C125.8 28.6734 125.788 28.5481 125.804 28.4249V25.6249C124.22 25.6249 123.426 25.6249 123.426 25.6339C122.25 25.6339 121.584 26.4889 121.584 27.8149C121.584 29.0429 122.27 29.9699 123.337 29.9699C123.576 29.9971 123.818 29.9622 124.039 29.8687C124.261 29.7751 124.455 29.6261 124.602 29.4359C124.696 29.7586 124.894 30.0412 125.165 30.2392C125.437 30.4372 125.766 30.5394 126.102 30.5299H131.617C131.85 30.5424 132.083 30.4999 132.296 30.4059C132.51 30.312 132.699 30.1691 132.847 29.9889C133.114 29.6553 133.253 29.2378 133.24 28.8109V24.7949H131.991L131.985 28.4619ZM124.522 27.7139C124.522 28.4449 124.201 28.9329 123.678 28.9329C123.178 28.9329 122.82 28.4169 122.82 27.7919C122.82 27.0979 123.195 26.5379 123.703 26.5379H124.523L124.522 27.7139Z" fill="white"/>
<path d="M136.074 26.476C135.806 26.4657 135.538 26.5117 135.288 26.6109C135.038 26.7102 134.812 26.8606 134.624 27.0525C134.435 27.2444 134.289 27.4735 134.195 27.7252C134.1 27.9769 134.059 28.2456 134.074 28.514C134.062 28.783 134.105 29.0517 134.2 29.3036C134.296 29.5554 134.441 29.7851 134.629 29.9786C134.816 30.1721 135.041 30.3252 135.289 30.4286C135.538 30.5321 135.805 30.5836 136.074 30.58C136.244 30.5981 136.416 30.5697 136.571 30.4978C136.726 30.426 136.859 30.3134 136.955 30.172C136.929 30.4108 136.812 30.6302 136.628 30.7847C136.444 30.9391 136.208 31.0166 135.968 31.001H135.888V32.001H136.012C137.375 32.001 138.051 31.448 138.051 30.354V28.538C138.065 28.2711 138.023 28.0043 137.93 27.754C137.836 27.5037 137.692 27.2751 137.507 27.0825C137.322 26.8898 137.099 26.737 136.853 26.6336C136.607 26.5302 136.342 26.4782 136.074 26.481M136.091 29.428C135.979 29.4225 135.869 29.3939 135.768 29.3441C135.668 29.2942 135.578 29.2241 135.506 29.1382C135.433 29.0523 135.379 28.9523 135.347 28.8446C135.315 28.7369 135.305 28.6237 135.318 28.512C135.318 27.987 135.609 27.612 136.047 27.612C136.485 27.612 136.802 27.996 136.802 28.538C136.802 29.08 136.535 29.428 136.09 29.428" fill="white"/>
<path d="M141.534 26.6618C140.99 26.5228 140.429 26.4659 139.87 26.4928V27.5338C141.454 27.5338 142.13 28.0848 142.13 29.3338H138.896V30.5268H143.376V29.3268C143.417 28.7396 143.256 28.1558 142.921 27.6719C142.586 27.188 142.096 26.8328 141.531 26.6648" fill="white"/>
<path d="M5.71726 2.74585C5.60776 2.57033 5.46987 2.4142 5.30924 2.28384C5.14195 2.15123 4.95369 2.04746 4.75223 1.97684C4.54423 1.90129 4.32454 1.86303 4.10324 1.86383C3.73838 1.85286 3.37682 1.93585 3.05326 2.10483C2.77152 2.25919 2.53134 2.47946 2.35325 2.74683C2.17078 3.02717 2.03848 3.33714 1.96225 3.66284C1.88103 4.01235 1.84009 4.37 1.84024 4.72882C1.84018 5.07312 1.88115 5.41621 1.96225 5.75082C2.03989 6.06889 2.17218 6.37105 2.35325 6.64383C2.53204 6.90929 2.77216 7.12778 3.05326 7.28082C3.37729 7.44835 3.73863 7.53062 4.10324 7.51984C4.34661 7.53391 4.59013 7.49518 4.81711 7.40628C5.0441 7.31739 5.24917 7.18042 5.41825 7.00482C5.74959 6.62609 5.95229 6.15206 5.99723 5.65085H7.77323C7.73395 6.13979 7.6112 6.61836 7.41025 7.06583C7.22611 7.47118 6.96416 7.83644 6.63926 8.14084C6.31552 8.43989 5.93452 8.6702 5.51926 8.81784C5.06415 8.97772 4.58456 9.05692 4.10221 9.05185C3.51067 9.06157 2.92358 8.94816 2.37821 8.71884C1.88705 8.50994 1.44722 8.1967 1.08921 7.80084C0.730537 7.40198 0.455771 6.93504 0.281223 6.42783C0.0906094 5.88151 -0.00445365 5.30644 0.000217629 4.72784C-0.00517955 4.13743 0.0898468 3.55038 0.281223 2.99182C0.455976 2.47661 0.730523 2.00089 1.08921 1.59183C1.44592 1.1903 1.88577 0.871247 2.37821 0.65683C2.92296 0.424982 3.51024 0.309859 4.10221 0.318848C4.54343 0.315864 4.98234 0.383363 5.40226 0.51883C5.80079 0.644024 6.17342 0.840183 6.50223 1.09784C6.8288 1.35481 7.10077 1.67439 7.30222 2.03784C7.51947 2.43505 7.65547 2.87153 7.70224 3.32184H5.92423C5.89524 3.11711 5.82409 2.92064 5.71524 2.74484" fill="white"/>
<path d="M8.31516 4.53406C8.44981 4.15964 8.66347 3.81859 8.94162 3.53406C9.21977 3.24953 9.55588 3.02819 9.92715 2.88507C10.3377 2.72898 10.774 2.65194 11.2132 2.65805C11.6539 2.65262 12.0918 2.72963 12.5042 2.88507C12.8776 3.02583 13.2159 3.24626 13.4955 3.53104C13.7751 3.81582 13.9893 4.15809 14.1231 4.53406C14.4209 5.38339 14.4209 6.30872 14.1231 7.15805C13.9846 7.53137 13.77 7.87187 13.4931 8.15805C13.2117 8.43678 12.8748 8.65315 12.5042 8.79306C12.0909 8.94474 11.6534 9.01965 11.2132 9.01407C10.7745 9.02031 10.3385 8.94537 9.92715 8.79306C9.55908 8.65344 9.22501 8.43695 8.94717 8.15805C8.66846 7.87293 8.45308 7.53216 8.31516 7.15805C8.01734 6.30874 8.01734 5.38338 8.31516 4.53406ZM9.82217 6.55606C9.86389 6.7748 9.94488 6.98418 10.0612 7.17407C10.1718 7.35571 10.3266 7.50638 10.5111 7.61206C10.7256 7.72835 10.9674 7.78498 11.2112 7.77606C11.4572 7.78483 11.7011 7.72824 11.9182 7.61206C12.1049 7.50752 12.2616 7.3567 12.3731 7.17407C12.4894 6.98396 12.571 6.7747 12.6142 6.55606C12.6604 6.32289 12.6839 6.08577 12.6842 5.84805C12.6838 5.60902 12.6604 5.37061 12.6142 5.13608C12.5722 4.91617 12.4905 4.70573 12.3731 4.51508C12.2586 4.33484 12.1027 4.18463 11.9182 4.07706C11.7019 3.95832 11.4577 3.89994 11.2112 3.90805C10.9825 3.89677 10.755 3.94717 10.5525 4.05396C10.35 4.16074 10.18 4.32002 10.0602 4.51508C9.94275 4.70551 9.8617 4.91608 9.82114 5.13608C9.77383 5.37046 9.75006 5.60895 9.75015 5.84805C9.74999 6.08584 9.77376 6.32304 9.82114 6.55606" fill="white"/>
<path d="M16.4604 2.82308V3.64107H16.4834C16.6876 3.34174 16.9579 3.09337 17.2734 2.91509C17.597 2.73993 17.9604 2.65138 18.3284 2.65807C18.6895 2.65403 19.047 2.72986 19.3754 2.88008C19.7042 3.04193 19.9606 3.32086 20.0944 3.6621C20.2899 3.38323 20.5383 3.1454 20.8254 2.96208C21.1516 2.75598 21.5317 2.65157 21.9174 2.6621C22.218 2.66017 22.5175 2.69952 22.8074 2.77907C23.0655 2.84981 23.3047 2.97725 23.5074 3.15209C23.7107 3.33682 23.8673 3.56712 23.9644 3.82408C24.0806 4.14436 24.1362 4.48346 24.1284 4.82408V8.86608H22.4714V5.44109C22.4714 5.24109 22.4624 5.0481 22.4484 4.8691C22.4375 4.70573 22.3929 4.54636 22.3174 4.40108C22.2473 4.2686 22.1408 4.15894 22.0104 4.08507C21.8381 3.99891 21.6468 3.95798 21.4544 3.96608C21.2565 3.95821 21.0602 4.00527 20.8874 4.10207C20.747 4.18885 20.631 4.31002 20.5504 4.45409C20.4641 4.60524 20.4077 4.7716 20.3844 4.94408C20.3576 5.12783 20.3448 5.31337 20.3464 5.49907V8.86409H18.6834V5.47609C18.6834 5.29609 18.6834 5.11808 18.6734 4.94408C18.6682 4.77721 18.6344 4.61248 18.5734 4.45708C18.5149 4.31154 18.4134 4.18735 18.2824 4.10109C18.0992 4.00023 17.8912 3.95308 17.6824 3.96507C17.5775 3.97111 17.4738 3.98991 17.3734 4.02107C17.2358 4.05929 17.1083 4.12761 17.0004 4.22109C16.8656 4.33478 16.7592 4.47822 16.6894 4.64009C16.5958 4.86783 16.5525 5.11307 16.5624 5.35909V8.86608H14.9014V2.82408L16.4604 2.82308Z" fill="white"/>
<path d="M26.7105 2.82309V3.64108H26.7335C26.9373 3.34175 27.2073 3.09336 27.5225 2.9151C27.8476 2.73982 28.2123 2.65129 28.5815 2.65808C28.9419 2.65447 29.2987 2.73028 29.6265 2.88009C29.9549 3.04249 30.2112 3.32124 30.3455 3.66211C30.541 3.38314 30.7894 3.14529 31.0765 2.96209C31.4026 2.75577 31.7828 2.65134 32.1685 2.66211C32.4691 2.66008 32.7686 2.69943 33.0585 2.77908C33.3166 2.85016 33.5556 2.97757 33.7585 3.1521C33.9612 3.3373 34.1178 3.56746 34.2155 3.82409C34.3317 4.14437 34.3873 4.48347 34.3795 4.82409V8.86609H32.7185V5.4411C32.7185 5.2411 32.7095 5.04811 32.6955 4.86911C32.6847 4.70573 32.6401 4.54635 32.5645 4.40109C32.4945 4.26858 32.3879 4.1589 32.2575 4.08508C32.0853 3.99892 31.894 3.95799 31.7015 3.96609C31.5036 3.95796 31.3072 4.00503 31.1345 4.10208C30.9935 4.1888 30.8769 4.30994 30.7955 4.4541C30.7107 4.60573 30.655 4.77193 30.6315 4.94409C30.6041 5.1278 30.5907 5.31333 30.5915 5.49908V8.8641H28.9305V5.4761C28.9305 5.2961 28.9305 5.11809 28.9205 4.94409C28.9145 4.77732 28.8807 4.61273 28.8205 4.45709C28.7619 4.31105 28.6596 4.18671 28.5275 4.1011C28.3445 3.99962 28.1364 3.95243 27.9275 3.96508C27.8226 3.97094 27.7188 3.98975 27.6185 4.02108C27.4804 4.05958 27.3524 4.12786 27.2435 4.2211C27.1105 4.33592 27.0049 4.47911 26.9345 4.6401C26.841 4.86786 26.7977 5.11309 26.8075 5.3591V8.86609H25.1465V2.82409L26.7105 2.82309Z" fill="white"/>
<path d="M39.4348 8.86191V8.0209H39.3998C39.2119 8.35179 38.9266 8.6168 38.5828 8.77991C38.2611 8.93253 37.9099 9.01277 37.5538 9.01492C37.1817 9.02713 36.8108 8.96666 36.4618 8.83691C36.1965 8.73407 35.9639 8.56129 35.7888 8.33691C35.6178 8.10468 35.501 7.83716 35.4468 7.55392C35.3776 7.21773 35.3441 6.87516 35.3468 6.53192V2.81592H37.0058V6.22791C36.9808 6.61459 37.0617 7.00079 37.2398 7.34491C37.3337 7.47369 37.4598 7.57551 37.6055 7.64011C37.7512 7.7047 37.9113 7.72982 38.0698 7.71292C38.2536 7.73019 38.4389 7.70285 38.6098 7.63321C38.7808 7.56357 38.9324 7.4537 39.0518 7.31293C39.2867 6.9134 39.3916 6.45069 39.3518 5.98892V2.82092H41.0108V8.86191H39.4348Z" fill="white"/>
<path d="M43.5134 2.82304V3.66206H43.5504C43.7412 3.33218 44.0255 3.06629 44.3674 2.89805C44.6883 2.74257 45.0399 2.66089 45.3964 2.65904C45.7689 2.64559 46.1403 2.70714 46.4885 2.84004C46.7531 2.94422 46.9853 3.11676 47.1614 3.34004C47.3332 3.5718 47.4511 3.83897 47.5065 4.12205C47.575 4.45903 47.6085 4.80217 47.6064 5.14604V8.86204H45.9474V5.45005C45.9728 5.06311 45.8911 4.67666 45.7114 4.33305C45.6178 4.20382 45.4919 4.10156 45.3461 4.0366C45.2004 3.97164 45.0401 3.94627 44.8815 3.96305C44.6975 3.9464 44.5121 3.97464 44.3414 4.04536C44.1707 4.11607 44.0198 4.22716 43.9014 4.36906C43.6657 4.76827 43.5608 5.23121 43.6014 5.69303V8.86103H41.9404V2.81904L43.5134 2.82304Z" fill="white"/>
<path d="M48.5752 0.518066H50.2342V1.88406H48.5752V0.518066ZM50.2342 8.86206H48.5752V2.82108H50.2342V8.86206Z" fill="white"/>
<path d="M53.8585 3.90972C53.6233 3.90134 53.3911 3.96445 53.1925 4.09072C53.0142 4.21213 52.8647 4.37121 52.7545 4.55672C52.6404 4.75289 52.559 4.96635 52.5135 5.18871C52.468 5.4139 52.4446 5.643 52.4435 5.87273C52.4447 6.0965 52.4682 6.31959 52.5135 6.53872C52.5573 6.75345 52.6346 6.95996 52.7425 7.15072C52.847 7.33276 52.993 7.48761 53.1685 7.60271C53.3655 7.72354 53.5936 7.78404 53.8245 7.77672C53.9923 7.78755 54.1604 7.76357 54.3184 7.70626C54.4764 7.64895 54.6207 7.55955 54.7425 7.44372C54.9673 7.19611 55.1075 6.88331 55.1425 6.55071H56.7425C56.6815 7.26045 56.3461 7.91843 55.8075 8.38473C55.2444 8.82328 54.5436 9.04728 53.8305 9.01671C53.4051 9.02155 52.9828 8.94449 52.5865 8.78972C52.2245 8.64705 51.8964 8.43005 51.6235 8.15273C51.3533 7.87219 51.1428 7.53982 51.0045 7.17571C50.8524 6.77813 50.7767 6.35538 50.7815 5.92971C50.7765 5.48834 50.8441 5.04917 50.9815 4.62972C51.108 4.24496 51.3122 3.8903 51.5815 3.58773C51.8513 3.29244 52.1824 3.05967 52.5515 2.90572C52.9665 2.73531 53.4119 2.65159 53.8605 2.65972C54.2099 2.65907 54.5579 2.70619 54.8945 2.79973C55.2134 2.88801 55.5141 3.03225 55.7825 3.22573C56.0578 3.42343 56.2837 3.68189 56.4429 3.98104C56.6022 4.28019 56.6903 4.61201 56.7005 4.95074H55.0895C55.0803 4.80066 55.0409 4.65398 54.9735 4.51955C54.9062 4.38513 54.8123 4.26574 54.6975 4.16857C54.5828 4.0714 54.4496 3.99844 54.3059 3.95412C54.1622 3.90981 54.0111 3.89506 53.8615 3.91073" fill="white"/>
<path d="M57.5632 3.70925C57.7318 3.45627 57.9553 3.24464 58.2172 3.09023C58.4947 2.92975 58.7973 2.8172 59.1122 2.75725C59.4414 2.69085 59.7764 2.65735 60.1122 2.65725C60.421 2.65649 60.7295 2.67822 61.0352 2.72225C61.3317 2.75878 61.6205 2.84285 61.8902 2.97124C62.1394 3.09079 62.3556 3.26927 62.5202 3.49123C62.6955 3.75125 62.7818 4.06104 62.7662 4.37423V7.51723C62.7655 7.77896 62.7812 8.04049 62.8132 8.30025C62.827 8.49653 62.8829 8.68754 62.9772 8.86025H61.2932C61.2618 8.76671 61.2368 8.67115 61.2182 8.57424C61.1968 8.47542 61.1828 8.37515 61.1762 8.27425C60.919 8.54366 60.5961 8.74145 60.2392 8.84822C59.8827 8.95687 59.5119 9.01214 59.1392 9.01223C58.8673 9.01495 58.5962 8.98134 58.3332 8.91225C58.0958 8.8469 57.8736 8.73544 57.6792 8.58425C57.4907 8.43432 57.3406 8.24167 57.2412 8.02224C57.1301 7.76838 57.0758 7.49328 57.0822 7.21624C57.0715 6.92295 57.1337 6.63159 57.2632 6.36824C57.3748 6.15681 57.5352 5.9751 57.7312 5.83825C57.93 5.70069 58.1513 5.59913 58.3852 5.53823C58.6312 5.47156 58.8789 5.41924 59.1282 5.38124C59.3762 5.34324 59.6282 5.31123 59.8632 5.28923C60.0801 5.26954 60.2954 5.23412 60.5072 5.18325C60.6682 5.15114 60.8197 5.08273 60.9502 4.98323C61.0063 4.93556 61.0495 4.87465 61.0761 4.80602C61.1026 4.73739 61.1116 4.66321 61.1022 4.59023C61.1096 4.44316 61.0797 4.29662 61.0152 4.16423C60.9601 4.0638 60.8803 3.97912 60.7832 3.91823C60.6786 3.8578 60.563 3.81873 60.4432 3.80324C60.3059 3.78178 60.1672 3.7714 60.0282 3.77224C59.7548 3.75627 59.4837 3.83117 59.2572 3.98525C59.1558 4.0718 59.0741 4.17903 59.0175 4.29976C58.9609 4.42049 58.9308 4.55191 58.9292 4.68523H57.2702C57.2797 4.34156 57.3808 4.00668 57.5632 3.71523M60.8412 6.06023C60.7304 6.09594 60.6175 6.125 60.5032 6.14724C60.3812 6.17024 60.2552 6.18925 60.1232 6.20525C59.9912 6.22125 59.8602 6.24223 59.7232 6.26323C59.5983 6.28796 59.4748 6.31933 59.3532 6.35723C59.2407 6.39303 59.1347 6.44671 59.0392 6.51622C58.9502 6.58246 58.8767 6.66749 58.8242 6.76525C58.7649 6.88535 58.7367 7.01841 58.7422 7.15224C58.7374 7.28152 58.7656 7.40987 58.8242 7.52523C58.8757 7.62334 58.9519 7.70638 59.0452 7.76622C59.1456 7.82619 59.2561 7.86753 59.3712 7.88823C59.4986 7.91071 59.6278 7.92175 59.7572 7.92122C60.0202 7.93614 60.2823 7.88021 60.5162 7.75924C60.681 7.66555 60.8188 7.53087 60.9162 7.36824C60.9979 7.22513 61.0512 7.06756 61.0732 6.90422C61.0908 6.78099 61.1002 6.65673 61.1012 6.53225V5.91323C61.0243 5.97889 60.9353 6.02884 60.8392 6.06023" fill="white"/>
<path d="M67.0284 2.82318V3.93317H65.8144V6.92517C65.7848 7.02244 65.7822 7.12592 65.8068 7.22455C65.8315 7.32318 65.8825 7.41328 65.9544 7.48517C66.0263 7.55706 66.1164 7.60806 66.215 7.63272C66.3137 7.65738 66.4171 7.65478 66.5144 7.62518C66.6042 7.6258 66.694 7.6218 66.7834 7.61319C66.866 7.60639 66.9481 7.5947 67.0294 7.57819V8.86417C66.8741 8.88916 66.7175 8.90486 66.5604 8.91116C66.391 8.91783 66.2244 8.92117 66.0604 8.92117C65.8165 8.92153 65.5728 8.90449 65.3314 8.87018C65.1181 8.83934 64.9123 8.76951 64.7244 8.66418C64.5479 8.56201 64.404 8.41185 64.3094 8.23117C64.1997 8.00189 64.1481 7.74911 64.1594 7.49518V3.93118H63.1514V2.82117H64.1594V1.01318H65.8184V2.82617L67.0284 2.82318Z" fill="white"/>
<path d="M67.5361 0.518066H69.1951V1.88406H67.5361V0.518066ZM69.1951 8.86206H67.5361V2.82108H69.1951V8.86206Z" fill="white"/>
<path d="M69.9619 4.53394C70.0989 4.15984 70.3136 3.81903 70.5919 3.53394C70.8697 3.25194 71.2045 3.03241 71.5739 2.88996C71.9844 2.73386 72.4207 2.65682 72.8599 2.66293C73.3006 2.65767 73.7384 2.73467 74.1509 2.88996C74.5226 3.03192 74.8597 3.25144 75.1399 3.53394C75.4175 3.81951 75.6321 4.16019 75.7699 4.53394C76.0649 5.38372 76.0649 6.30815 75.7699 7.15793C75.6307 7.53098 75.4163 7.87138 75.1399 8.15793C74.8587 8.43704 74.5217 8.65346 74.1509 8.79294C73.7376 8.94447 73.3001 9.01937 72.8599 9.01395C72.4213 9.02019 71.9853 8.94525 71.5739 8.79294C71.2054 8.65299 70.8707 8.43657 70.5919 8.15793C70.3149 7.87181 70.1004 7.53128 69.9619 7.15793C69.6664 6.30822 69.6664 5.38364 69.9619 4.53394ZM71.4689 6.55594C71.5106 6.77468 71.5916 6.98406 71.7079 7.17395C71.8181 7.35598 71.9729 7.50675 72.1579 7.61194C72.3723 7.72822 72.6141 7.78486 72.8579 7.77594C73.1039 7.78466 73.3479 7.72807 73.5649 7.61194C73.7519 7.50699 73.9091 7.35629 74.0219 7.17395C74.1359 6.98297 74.2168 6.77398 74.2609 6.55594C74.3071 6.32277 74.3306 6.08564 74.3309 5.84793C74.3305 5.6089 74.3071 5.37049 74.2609 5.13596C74.2179 4.91664 74.137 4.70649 74.0219 4.51496C73.9061 4.33502 73.7496 4.18493 73.5649 4.07694C73.3486 3.95825 73.1044 3.89987 72.8579 3.90793C72.6292 3.89665 72.4017 3.94705 72.1992 4.05383C71.9967 4.16062 71.8267 4.3199 71.7069 4.51496C71.5895 4.70539 71.5084 4.91595 71.4679 5.13596C71.4205 5.37033 71.3967 5.60883 71.3969 5.84793C71.3967 6.08572 71.4205 6.32293 71.4679 6.55594" fill="white"/>
<path d="M78.0721 2.82298V3.662H78.1071C78.2966 3.3315 78.5808 3.06538 78.923 2.89799C79.2436 2.74262 79.5948 2.66094 79.951 2.65898C80.3241 2.64578 80.6961 2.70732 81.045 2.83998C81.3094 2.94458 81.5416 3.11704 81.7181 3.33998C81.8895 3.57183 82.007 3.83899 82.0621 4.12199C82.1305 4.45898 82.164 4.80211 82.162 5.14598V8.86198H80.5031V5.44999C80.5281 5.06331 80.4472 4.67711 80.269 4.33299C80.1751 4.20391 80.0489 4.10178 79.903 4.03685C79.7572 3.97191 79.5968 3.94644 79.438 3.96299C79.2538 3.9467 79.0683 3.97508 78.8973 4.04576C78.7264 4.11644 78.575 4.22733 78.4561 4.369C78.2211 4.76853 78.1163 5.23121 78.1561 5.69297V8.86097H76.4971V2.81898L78.0721 2.82298Z" fill="white"/>
<path d="M84.4821 7.36209C84.5534 7.48687 84.651 7.59469 84.7681 7.6781C84.889 7.76251 85.0246 7.82355 85.168 7.85809C85.3218 7.89813 85.4802 7.91765 85.639 7.91611C85.7635 7.91695 85.8876 7.90352 86.009 7.8761C86.1311 7.85154 86.2487 7.80871 86.358 7.74909C86.4622 7.69183 86.5521 7.61187 86.621 7.51511C86.6932 7.40643 86.7283 7.27734 86.7211 7.1471C86.7211 6.8981 86.5551 6.7111 86.2211 6.5871C85.7687 6.42765 85.3051 6.3023 84.834 6.2121C84.593 6.1581 84.3581 6.0921 84.1281 6.0181C83.9115 5.95016 83.7055 5.85219 83.5161 5.72708C83.3399 5.60925 83.192 5.45388 83.0831 5.2721C82.969 5.06656 82.9123 4.83408 82.9191 4.59909C82.9052 4.26471 82.9845 3.93305 83.1481 3.64108C83.2943 3.39634 83.5009 3.19321 83.748 3.05109C84.0094 2.90433 84.2938 2.80291 84.5891 2.7511C84.9049 2.69209 85.2257 2.66296 85.5471 2.66409C85.8674 2.66298 86.187 2.69416 86.501 2.75711C86.7921 2.81352 87.071 2.92045 87.3251 3.07309C87.5671 3.22181 87.7723 3.42355 87.925 3.66309C88.0968 3.94348 88.1952 4.26265 88.2111 4.5911H86.649C86.6516 4.46048 86.6191 4.33156 86.5549 4.21777C86.4907 4.10399 86.3972 4.00948 86.2841 3.94409C86.0448 3.82621 85.7807 3.76757 85.514 3.7731C85.4138 3.77391 85.3136 3.78024 85.2141 3.79209C85.1106 3.80184 85.0094 3.82785 84.9141 3.86911C84.8259 3.90677 84.7477 3.96464 84.686 4.03809C84.6188 4.1231 84.5854 4.22994 84.592 4.33811C84.5906 4.40652 84.6044 4.47437 84.6324 4.53681C84.6605 4.59924 84.702 4.65468 84.754 4.6991C84.8822 4.80049 85.0275 4.87806 85.183 4.9281C85.3797 4.99249 85.58 5.0449 85.783 5.08508C86.0084 5.13242 86.2387 5.18309 86.4741 5.23709C86.7131 5.29309 86.9501 5.3571 87.1801 5.4371C87.3973 5.50992 87.6028 5.614 87.79 5.7461C87.9689 5.87202 88.1169 6.0368 88.223 6.22809C88.339 6.44273 88.3963 6.68422 88.389 6.9281C88.4003 7.27682 88.3178 7.62217 88.15 7.9281C87.9971 8.1915 87.7823 8.4136 87.524 8.57511C87.2543 8.74566 86.9547 8.8634 86.6411 8.92209C85.9676 9.05413 85.2748 9.05243 84.6021 8.91709C84.2859 8.85349 83.9835 8.73432 83.709 8.5651C83.4465 8.40214 83.226 8.17986 83.0651 7.91611C82.8872 7.60832 82.7924 7.25956 82.79 6.90408H84.3701C84.3643 7.06583 84.4023 7.22614 84.48 7.3681" fill="white"/>
<path d="M4.04285 12.3519C4.32652 12.3466 4.60851 12.3969 4.87286 12.4999C5.11019 12.5911 5.32632 12.73 5.50787 12.9079C5.68144 13.078 5.81763 13.2823 5.90784 13.5079C6.0017 13.7426 6.04925 13.9932 6.04785 14.2459C6.05739 14.6115 5.96902 14.973 5.79187 15.2929C5.60132 15.6069 5.30755 15.8448 4.96088 15.9659V15.9869C5.13016 16.0301 5.28786 16.11 5.42285 16.2209C5.54408 16.3274 5.64561 16.4543 5.72284 16.5959C5.80206 16.746 5.8584 16.9072 5.88989 17.0739C5.92546 17.2455 5.94984 17.4192 5.96289 17.5939C5.96989 17.7019 5.97687 17.8289 5.98187 17.9779C5.98687 18.1269 5.99889 18.2779 6.01489 18.4319C6.02976 18.5796 6.05546 18.726 6.09186 18.8699C6.12191 18.9962 6.17628 19.1154 6.25189 19.2209H4.74084C4.65085 18.97 4.59864 18.7072 4.58588 18.4409C4.56688 18.1409 4.53885 17.8509 4.50085 17.5769C4.47818 17.2858 4.36409 17.0093 4.17487 16.7869C3.94544 16.5982 3.65062 16.5079 3.35486 16.5359H1.84888V19.2209H0.337891V12.3519H4.04285ZM3.50189 15.4569C3.78126 15.4781 4.05868 15.3963 4.28186 15.2269C4.37617 15.1277 4.44814 15.0094 4.49298 14.8801C4.53782 14.7507 4.55452 14.6133 4.54187 14.4769C4.55386 14.3442 4.53684 14.2104 4.49194 14.0848C4.44705 13.9593 4.37534 13.845 4.28186 13.7499C4.05725 13.5838 3.78046 13.504 3.50189 13.5249H1.84888V15.4519L3.50189 15.4569Z" fill="white"/>
<path d="M8.13093 18.022C8.35614 18.1992 8.63032 18.3031 8.91646 18.3196C9.20259 18.336 9.48686 18.2643 9.73091 18.114C9.89948 18.0142 10.0287 17.8596 10.0969 17.676H11.2969C11.16 18.1922 10.8465 18.644 10.411 18.953C9.97866 19.2215 9.47655 19.3561 8.96791 19.34C8.60608 19.3464 8.24648 19.2825 7.90895 19.152C7.60625 19.0359 7.33305 18.8543 7.10896 18.62C6.88653 18.3803 6.71443 18.0984 6.60292 17.791C6.48243 17.4511 6.42288 17.0926 6.42695 16.732C6.42303 16.3776 6.48507 16.0256 6.60994 15.694C6.72329 15.3833 6.89965 15.0993 7.12794 14.86C7.35584 14.6251 7.62763 14.4372 7.92793 14.307C8.2555 14.1698 8.60788 14.1018 8.96296 14.107C9.34607 14.0987 9.72546 14.1831 10.0689 14.353C10.3747 14.5095 10.6397 14.7351 10.8429 15.012C11.0482 15.2949 11.1969 15.6147 11.281 15.954C11.3732 16.3149 11.407 16.6884 11.3809 17.06H7.79194C7.77672 17.4123 7.89733 17.757 8.12892 18.023M9.67292 15.406C9.57467 15.3108 9.45716 15.2377 9.32832 15.1916C9.19948 15.1456 9.06227 15.1276 8.92592 15.139C8.73895 15.1319 8.55297 15.1689 8.38295 15.247C8.2505 15.313 8.13302 15.4056 8.03792 15.519C7.95556 15.6231 7.89288 15.7414 7.85292 15.868C7.82135 15.9743 7.80093 16.0835 7.79194 16.194H10.013C9.97503 15.9045 9.85728 15.6323 9.67292 15.406Z" fill="white"/>
<path d="M16.6119 19.5809C16.5545 19.8448 16.4341 20.0908 16.2608 20.2979C16.0492 20.5451 15.7819 20.7384 15.4809 20.8619C15.0472 21.0327 14.5825 21.1108 14.1169 21.0909C13.8652 21.0911 13.6144 21.0612 13.3699 21.0019C13.1247 20.9457 12.8904 20.8501 12.6759 20.7189C12.4698 20.5907 12.2933 20.4203 12.1579 20.2189C12.0146 20.0025 11.9327 19.7512 11.9209 19.4919H13.2779C13.2981 19.603 13.3421 19.7084 13.4068 19.8009C13.4715 19.8934 13.5555 19.9709 13.6529 20.0279C13.8518 20.1312 14.0738 20.1822 14.2979 20.1759C14.4558 20.1897 14.6147 20.1655 14.7614 20.1053C14.9081 20.0452 15.0382 19.9507 15.1408 19.8299C15.3229 19.575 15.4129 19.2657 15.3959 18.9529V18.3029H15.3749C15.2338 18.5606 15.0126 18.7652 14.7449 18.8859C14.4751 19.0097 14.1817 19.0735 13.8849 19.0729C13.5535 19.0806 13.2247 19.0122 12.9239 18.8729C12.6622 18.7482 12.4337 18.5635 12.2569 18.3339C12.0791 18.0947 11.95 17.8229 11.8769 17.5339C11.7964 17.2183 11.7564 16.8937 11.7579 16.5679C11.7566 16.2526 11.8039 15.9389 11.8979 15.6379C11.984 15.3526 12.1224 15.0858 12.3059 14.8509C12.4857 14.6226 12.7138 14.4368 12.9739 14.3069C13.2608 14.1685 13.5764 14.0999 13.8949 14.1069C14.1918 14.1006 14.4862 14.1632 14.7549 14.2899C15.0188 14.4278 15.2347 14.6426 15.3739 14.9059H15.3949V14.2409H16.6949V18.9029C16.6919 19.1325 16.6645 19.3612 16.6129 19.5849M14.7428 17.9309C14.8863 17.8565 15.0114 17.7509 15.1089 17.6219C15.2069 17.4904 15.2798 17.3419 15.3239 17.1839C15.3725 17.0166 15.397 16.8432 15.3969 16.6689C15.3971 16.4732 15.378 16.2779 15.3399 16.0859C15.3026 15.9136 15.2349 15.7494 15.1399 15.6009C15.0522 15.4605 14.9304 15.3445 14.7859 15.2639C14.6134 15.1759 14.4214 15.1332 14.2279 15.1399C14.056 15.1342 13.8856 15.1739 13.7339 15.2549C13.5961 15.3306 13.4779 15.4374 13.3889 15.5669C13.2929 15.7036 13.223 15.8568 13.1828 16.0189C13.1419 16.194 13.1214 16.3732 13.1219 16.5529C13.1216 16.733 13.1397 16.9126 13.1759 17.0889C13.2063 17.2574 13.2676 17.4188 13.3569 17.5649C13.4421 17.705 13.5593 17.8229 13.6989 17.9089C13.8585 18.0039 14.0423 18.0504 14.2279 18.0429C14.4049 18.0472 14.5802 18.0084 14.7389 17.9299" fill="white"/>
<path d="M20.6768 19.2159V18.5229H20.6468C20.4925 18.7957 20.2579 19.0143 19.9748 19.1489C19.7092 19.2726 19.4199 19.3374 19.1268 19.3389C18.8202 19.3499 18.5145 19.3007 18.2268 19.1939C18.0079 19.1113 17.8159 18.9702 17.6718 18.7859C17.53 18.5945 17.4329 18.3737 17.3878 18.1399C17.3316 17.8631 17.3049 17.5813 17.3078 17.2989V14.2389H18.6738V17.0489C18.6527 17.3669 18.7199 17.6846 18.8678 17.9669C18.9447 18.0724 19.048 18.1557 19.1674 18.2084C19.2868 18.2611 19.4181 18.2813 19.5478 18.2669C19.6996 18.2809 19.8525 18.258 19.9935 18.2002C20.1345 18.1424 20.2595 18.0514 20.3578 17.9349C20.5533 17.6059 20.641 17.2241 20.6088 16.8429V14.2349H21.9748V19.2099L20.6768 19.2159Z" fill="white"/>
<path d="M23.948 12.3462H22.582V19.2162H23.948V12.3462Z" fill="white"/>
<path d="M24.9293 14.9739C25.0677 14.7641 25.2529 14.5892 25.4703 14.4629C25.6984 14.3307 25.9472 14.238 26.2062 14.1889C26.4762 14.1348 26.7509 14.1073 27.0262 14.1069C27.2812 14.1069 27.5359 14.1249 27.7883 14.1609C28.031 14.192 28.2673 14.2616 28.4883 14.3669C28.6941 14.4644 28.8726 14.611 29.0082 14.7939C29.1516 15.0079 29.2218 15.2627 29.2083 15.5199V18.1089C29.2079 18.3249 29.2212 18.5407 29.2482 18.7549C29.2591 18.9165 29.3049 19.0737 29.3823 19.2159H27.9973C27.9712 19.1394 27.9502 19.0612 27.9343 18.9819C27.9188 18.9006 27.9078 18.8185 27.9012 18.7359C27.6895 18.9573 27.4238 19.1196 27.1302 19.2069C26.8385 19.2956 26.5352 19.3408 26.2302 19.3409C26.0058 19.3423 25.7822 19.3141 25.5652 19.2569C25.37 19.2026 25.1875 19.1102 25.0283 18.9849C24.873 18.8622 24.7492 18.7041 24.6672 18.5239C24.576 18.3144 24.532 18.0874 24.5383 17.8589C24.5286 17.6169 24.5795 17.3763 24.6863 17.1589C24.7785 16.9851 24.9099 16.8351 25.0702 16.7209C25.2353 16.6092 25.4183 16.5267 25.6113 16.4769C25.8115 16.4219 26.0149 16.3789 26.2203 16.3479C26.4283 16.3149 26.6283 16.2889 26.8273 16.2689C27.0058 16.2534 27.1828 16.225 27.3572 16.1839C27.4894 16.1537 27.6137 16.0961 27.7222 16.0149C27.7678 15.9758 27.8029 15.926 27.8246 15.87C27.8462 15.814 27.8537 15.7535 27.8463 15.6939C27.852 15.572 27.828 15.4505 27.7762 15.3399C27.7294 15.2587 27.6635 15.19 27.5842 15.1399C27.498 15.0913 27.4033 15.0594 27.3052 15.0459C27.1913 15.0296 27.0763 15.0216 26.9612 15.0219C26.7365 15.0096 26.5137 15.0703 26.3262 15.1949C26.2427 15.2667 26.1755 15.3555 26.1291 15.4553C26.0827 15.5552 26.0582 15.6638 26.0572 15.7739H24.6863C24.6936 15.4905 24.7768 15.2143 24.9272 14.9739M27.6273 16.9019C27.5357 16.9316 27.4426 16.9559 27.3483 16.9749C27.2489 16.9942 27.1442 17.0099 27.0342 17.0219C26.9262 17.0359 26.8163 17.0519 26.7103 17.0709C26.6085 17.0893 26.5083 17.1151 26.4103 17.1479C26.3169 17.1774 26.2286 17.2209 26.1483 17.2769C26.0737 17.3316 26.0128 17.4028 25.9703 17.4849C25.9223 17.5835 25.8995 17.6924 25.9042 17.8019C25.9 17.9082 25.9227 18.0138 25.9703 18.1089C26.0129 18.1903 26.076 18.2593 26.1533 18.3089C26.2363 18.3588 26.3278 18.3927 26.4233 18.4089C26.5275 18.4281 26.6333 18.4375 26.7393 18.4369C26.9561 18.449 27.1723 18.4027 27.3652 18.3029C27.5003 18.2256 27.6127 18.1142 27.6913 17.9799C27.7596 17.8631 27.8041 17.734 27.8223 17.5999C27.836 17.4981 27.8437 17.3956 27.8453 17.2929V16.7839C27.7829 16.8379 27.71 16.8784 27.6312 16.9029" fill="white"/>
<path d="M32.7233 14.241V15.153H31.7233V17.623C31.699 17.7033 31.697 17.7886 31.7174 17.87C31.7378 17.9513 31.78 18.0255 31.8394 18.0848C31.8987 18.144 31.973 18.186 32.0544 18.2063C32.1357 18.2266 32.2211 18.2245 32.3013 18.2C32.3783 18.2 32.4533 18.2 32.5233 18.191C32.5933 18.182 32.6613 18.172 32.7233 18.161V19.218C32.5954 19.2378 32.4665 19.2512 32.3373 19.258C32.1963 19.263 32.0583 19.267 31.9233 19.267C31.7224 19.2679 31.5219 19.2532 31.3233 19.223C31.1472 19.1998 30.9774 19.1424 30.8233 19.054C30.678 18.9709 30.5594 18.8481 30.4813 18.7C30.3908 18.511 30.3482 18.3025 30.3573 18.093V15.153H29.5283V14.241H30.3573V12.749H31.7173V14.241H32.7233Z" fill="white"/>
<path d="M33.1308 15.6488C33.2412 15.3405 33.417 15.0599 33.6463 14.8261C33.8755 14.5924 34.1527 14.4111 34.4587 14.2948C34.7956 14.1643 35.1545 14.0998 35.5157 14.1048C35.8792 14.1001 36.2403 14.1646 36.5797 14.2948C36.8852 14.4102 37.1619 14.5907 37.3907 14.8238C37.6205 15.0588 37.7978 15.34 37.9107 15.6488C38.0365 15.9958 38.0984 16.3627 38.0937 16.7318C38.0993 17.0993 38.0373 17.4647 37.9107 17.8098C37.797 18.1178 37.6198 18.3985 37.3907 18.6338C37.1612 18.865 36.8846 19.0441 36.5797 19.1588C36.239 19.2834 35.8784 19.3447 35.5157 19.3398C35.1552 19.3451 34.7969 19.2837 34.4587 19.1588C34.1527 19.0438 33.8754 18.8636 33.646 18.6306C33.4167 18.3977 33.2409 18.1176 33.1308 17.8098C33.0034 17.4649 32.9413 17.0994 32.9477 16.7318C32.9421 16.3626 33.0042 15.9956 33.1308 15.6488ZM34.3708 17.3148C34.4059 17.4952 34.4736 17.6677 34.5707 17.8238C34.6618 17.9737 34.7891 18.0985 34.9408 18.1868C35.118 18.2823 35.3176 18.3282 35.5188 18.3198C35.7208 18.3275 35.9212 18.2817 36.0998 18.1868C36.2539 18.0993 36.3835 17.9744 36.4767 17.8238C36.5739 17.6677 36.6417 17.4952 36.6767 17.3148C36.7175 17.1231 36.7379 16.9277 36.7378 16.7318C36.7376 16.5349 36.7172 16.3385 36.6767 16.1458C36.6426 15.9651 36.5747 15.7924 36.4767 15.6368C36.3818 15.4879 36.2526 15.3641 36.0998 15.2758C35.922 15.1783 35.7213 15.1307 35.5188 15.1378C35.3304 15.1276 35.1429 15.1687 34.9761 15.2568C34.8093 15.3449 34.6696 15.4765 34.5717 15.6378C34.4738 15.7934 34.406 15.9661 34.3717 16.1468C34.3336 16.3397 34.3145 16.536 34.3147 16.7328C34.3142 16.9285 34.3333 17.1238 34.3717 17.3158" fill="white"/>
<path d="M39.8068 14.2409V15.1639H39.8259C39.9562 14.852 40.1766 14.586 40.4589 14.3999C40.5993 14.307 40.7521 14.2343 40.9128 14.1839C41.0746 14.1327 41.2432 14.1067 41.4128 14.1069C41.5146 14.1085 41.6155 14.1243 41.7128 14.1539V15.4259C41.6362 15.4098 41.5588 15.3981 41.4808 15.3909C41.3952 15.3806 41.3091 15.3753 41.2228 15.3749C41.0038 15.369 40.7861 15.4121 40.5858 15.5009C40.4202 15.5788 40.2768 15.6971 40.1688 15.8449C40.06 15.9947 39.9821 16.1647 39.9398 16.3449C39.8945 16.5502 39.8724 16.7598 39.8738 16.9699V19.2119H38.5078V14.2379L39.8068 14.2409Z" fill="white"/>
<path d="M44.2781 20.7C43.9443 20.8912 43.5621 20.9809 43.1781 20.958C43.0371 20.958 42.8971 20.958 42.7591 20.944C42.6211 20.93 42.4821 20.923 42.3421 20.909V19.786C42.4691 19.796 42.6001 19.81 42.7351 19.824C42.8701 19.8366 43.0057 19.8396 43.1411 19.833C43.2191 19.8289 43.2953 19.8079 43.3643 19.7715C43.4334 19.7351 43.4937 19.6841 43.5411 19.622C43.6244 19.5052 43.6695 19.3655 43.6701 19.222C43.6716 19.1169 43.6519 19.0124 43.6121 18.915L41.8711 14.248H43.3231L44.4521 17.653H44.4691L45.5561 14.248H46.9711L44.8931 19.838C44.7859 20.1861 44.5692 20.4902 44.2751 20.705" fill="white"/>
<path d="M52.7291 12.3521L55.299 19.22H53.7271L53.2111 17.69H50.6411L50.1021 19.22H48.5811L51.181 12.3521H52.7291ZM52.816 16.565L51.949 14.044H51.9301L51.035 16.565H52.816Z" fill="white"/>
<path d="M58.8389 19.2159V18.5229H58.8079C58.6538 18.7952 58.42 19.0137 58.1379 19.1489C57.8715 19.2724 57.5816 19.3372 57.2879 19.3389C56.9813 19.3496 56.6756 19.3004 56.3879 19.1939C56.1696 19.1103 55.9778 18.9693 55.8329 18.7859C55.6921 18.594 55.5955 18.3734 55.5499 18.1399C55.4931 17.8632 55.4656 17.5813 55.4679 17.2989V14.2389H56.8359V17.0489C56.8143 17.3667 56.8807 17.6844 57.0279 17.9669C57.1051 18.0725 57.2088 18.1558 57.3286 18.2085C57.4483 18.2612 57.5799 18.2813 57.7099 18.2669C57.8614 18.2811 58.0141 18.2583 58.1548 18.2004C58.2955 18.1426 58.4201 18.0515 58.5179 17.9349C58.7142 17.6062 58.8026 17.2244 58.7709 16.8429V14.2349H60.1369V19.2099L58.8389 19.2159Z" fill="white"/>
<path d="M63.6295 14.241V15.153H62.6295V17.623C62.6053 17.7032 62.6033 17.7884 62.6237 17.8696C62.6441 17.9508 62.6862 18.025 62.7454 18.0842C62.8046 18.1434 62.8788 18.1854 62.96 18.2058C63.0412 18.2262 63.1264 18.2242 63.2065 18.2C63.2835 18.2 63.3565 18.2 63.4275 18.191C63.4985 18.182 63.5635 18.172 63.6275 18.161V19.218C63.5003 19.238 63.3721 19.2513 63.2435 19.258C63.1005 19.263 62.9645 19.267 62.8305 19.267C62.6297 19.2676 62.4291 19.2529 62.2305 19.223C62.0544 19.1998 61.8846 19.1424 61.7305 19.054C61.5852 18.9709 61.4666 18.8481 61.3885 18.7C61.2989 18.5107 61.2563 18.3024 61.2645 18.093V15.153H60.4355V14.241H61.2645V12.749H62.6305V14.241H63.6295Z" fill="white"/>
<path d="M65.3698 12.3521V14.937H65.3998C65.5541 14.6669 65.7848 14.4484 66.0629 14.3091C66.3072 14.1823 66.5776 14.1138 66.8528 14.109C67.1598 14.0988 67.4657 14.1498 67.7528 14.259C67.9712 14.3454 68.1628 14.4883 68.3079 14.673C68.4478 14.865 68.5443 15.0851 68.5908 15.3181C68.6476 15.5954 68.6752 15.8779 68.6729 16.161V19.221H67.3068V16.411C67.3275 16.093 67.2611 15.7752 67.1148 15.492C67.0366 15.3865 66.9322 15.3032 66.8118 15.2506C66.6915 15.198 66.5594 15.1778 66.4288 15.192C66.2776 15.1787 66.1254 15.2019 65.9851 15.2599C65.8448 15.3179 65.7205 15.4088 65.6229 15.5251C65.4276 15.8533 65.3398 16.2344 65.3718 16.6151V19.225H64.0078V12.3521H65.3698Z" fill="white"/>
<path d="M69.4616 15.6487C69.574 15.3397 69.7514 15.0584 69.9817 14.8237C70.21 14.5915 70.4855 14.4111 70.7896 14.2947C71.1266 14.1645 71.4854 14.1 71.8467 14.1047C72.2102 14.1001 72.5713 14.1646 72.9107 14.2947C73.2165 14.4107 73.4938 14.5911 73.7237 14.8237C73.953 15.0592 74.1302 15.3403 74.2437 15.6487C74.3703 15.9955 74.4323 16.3626 74.4267 16.7317C74.4331 17.0993 74.3711 17.4649 74.2437 17.8098C74.1294 18.1175 73.9523 18.3981 73.7237 18.6337C73.493 18.8644 73.2158 19.0434 72.9107 19.1587C72.57 19.2833 72.2094 19.3447 71.8467 19.3397C71.4862 19.3447 71.1279 19.2834 70.7896 19.1587C70.4861 19.0431 70.2107 18.8641 69.9817 18.6337C69.7519 18.399 69.5747 18.1181 69.4616 17.8098C69.3351 17.4647 69.2731 17.0993 69.2787 16.7317C69.2739 16.3627 69.3359 15.9958 69.4616 15.6487ZM70.7016 17.3147C70.7383 17.4947 70.806 17.6669 70.9016 17.8237C70.994 17.9734 71.1217 18.0981 71.2737 18.1867C71.4502 18.282 71.6492 18.328 71.8496 18.3197C72.0526 18.3271 72.254 18.2813 72.4337 18.1867C72.5858 18.098 72.7139 17.9734 72.8067 17.8237C72.9038 17.6676 72.9716 17.4951 73.0067 17.3147C73.0466 17.123 73.0664 16.9276 73.0656 16.7317C73.0661 16.5349 73.0463 16.3386 73.0067 16.1457C72.9724 15.9651 72.9046 15.7924 72.8067 15.6367C72.7123 15.4889 72.5845 15.3652 72.4337 15.2757C72.2547 15.1787 72.0531 15.131 71.8496 15.1377C71.6486 15.1302 71.4494 15.1779 71.2737 15.2757C71.123 15.3652 70.9956 15.4889 70.9016 15.6367C70.8051 15.7931 70.7374 15.9655 70.7016 16.1457C70.6643 16.3389 70.6453 16.5351 70.6447 16.7317C70.645 16.9275 70.664 17.1227 70.7016 17.3147Z" fill="white"/>
<path d="M76.1368 14.2409V15.1639H76.1558C76.2877 14.8524 76.5086 14.5866 76.7908 14.3999C76.9308 14.3068 77.0833 14.2341 77.2438 14.1839C77.4055 14.1327 77.5742 14.1067 77.7438 14.1069C77.8455 14.1085 77.9465 14.1243 78.0438 14.1539V15.4259C77.9679 15.4096 77.8911 15.3979 77.8138 15.3909C77.7276 15.3806 77.6407 15.3753 77.5538 15.3749C77.3348 15.3696 77.1173 15.4126 76.9168 15.5009C76.7514 15.5791 76.608 15.6974 76.4998 15.8449C76.3916 15.9948 76.3144 16.1648 76.2728 16.3449C76.2275 16.5502 76.2054 16.7598 76.2068 16.9699V19.2119H74.8408V14.2379L76.1368 14.2409Z" fill="white"/>
<path d="M78.3418 12.3511H79.7078V13.4761H78.3418V12.3511ZM79.7078 19.2211H78.3418V14.2411H79.7078V19.2211Z" fill="white"/>
<path d="M83.238 14.241V15.153H82.238V17.623C82.2134 17.7032 82.2112 17.7886 82.2314 17.87C82.2517 17.9513 82.2938 18.0257 82.3531 18.085C82.4124 18.1443 82.4867 18.1863 82.5681 18.2066C82.6494 18.2268 82.7348 18.2246 82.815 18.2C82.892 18.2 82.965 18.2 83.035 18.191C83.105 18.182 83.175 18.172 83.235 18.161V19.218C83.1071 19.238 82.9783 19.2513 82.849 19.258C82.708 19.263 82.57 19.267 82.437 19.267C82.2362 19.2678 82.0356 19.2531 81.837 19.223C81.6609 19.1996 81.4911 19.1422 81.337 19.054C81.1918 18.9714 81.0738 18.8484 80.997 18.7C80.9049 18.5114 80.8616 18.3027 80.871 18.093V15.153H80.042V14.241H80.871V12.749H82.237V14.241H83.238Z" fill="white"/>
<path d="M85.9236 20.7C85.5897 20.8909 85.2075 20.9805 84.8236 20.958C84.6846 20.958 84.5446 20.958 84.4046 20.944C84.2646 20.93 84.1276 20.923 83.9876 20.909V19.786C84.1146 19.796 84.2456 19.81 84.3806 19.824C84.5156 19.8366 84.6512 19.8396 84.7866 19.833C84.8646 19.8291 84.9409 19.8082 85.0099 19.7718C85.079 19.7353 85.1393 19.6842 85.1866 19.622C85.2706 19.5056 85.3158 19.3656 85.3156 19.222C85.3176 19.1167 85.2975 19.0121 85.2566 18.915L83.5176 14.248H84.9706L86.0976 17.653H86.1146L87.2016 14.248H88.6166L86.5386 19.838C86.4313 20.1855 86.2154 20.4894 85.9226 20.705" fill="white"/>
<path d="M91.8712 0.541016H91.5732V30.525H91.8712V0.541016Z" fill="white"/>
<path d="M127.618 1.10596H126.435V2.20296H127.618V1.10596Z" fill="white"/>
<path d="M123.441 1.10596H122.248V2.20296H123.441V1.10596Z" fill="white"/>
<path d="M115.572 1.10596H114.387V2.20296H115.572V1.10596Z" fill="white"/>
<path d="M136.111 0H134.926V1.106H136.111V0Z" fill="white"/>
<path d="M129.419 1.10596H128.226V2.20296H129.419V1.10596Z" fill="white"/>
<path d="M142.791 2.21398H141.725C141.593 2.16698 141.525 2.03298 141.525 1.82198C141.525 1.54598 141.625 1.40298 141.85 1.40298C141.993 1.40298 142.099 1.50299 142.155 1.68899L142.783 1.38897C142.719 1.19672 142.594 1.03023 142.428 0.913811C142.262 0.797392 142.063 0.737157 141.86 0.741966C141.717 0.742019 141.575 0.770949 141.443 0.827019C141.31 0.883088 141.191 0.965163 141.091 1.06835C140.992 1.17154 140.914 1.29373 140.862 1.42767C140.81 1.5616 140.786 1.70455 140.791 1.84798C140.796 1.97521 140.821 2.10084 140.866 2.21999H140.325V2.92699H142.792L142.791 2.21398Z" fill="white"/>
<path d="M134.319 0H133.134V1.106H134.319V0Z" fill="white"/>
<path d="M148.635 7.72705H147.454V8.83305H148.635V7.72705Z" fill="white"/>
<path d="M146.845 7.72705H145.662V8.83305H146.845V7.72705Z" fill="white"/>
<path d="M104.852 7.72705H103.669V8.83305H104.852V7.72705Z" fill="white"/>
<path d="M158.332 3.07224C158.011 2.63759 157.605 2.27309 157.138 2.00107C156.67 1.72904 156.153 1.55522 155.616 1.49023L155.501 2.77722C156.155 2.84479 156.755 3.16673 157.173 3.67346C157.591 4.18019 157.792 4.83102 157.734 5.48523L157.713 5.97021H156.788C156.904 5.70925 156.962 5.4266 156.959 5.14124C156.929 4.62697 156.703 4.14371 156.329 3.79031C155.954 3.43692 155.458 3.24008 154.943 3.24008C154.428 3.24008 153.932 3.43692 153.557 3.79031C153.182 4.14371 152.957 4.62697 152.926 5.14124C152.923 5.4276 152.985 5.71098 153.106 5.97021H148.617C148.725 5.66069 148.777 5.33477 148.771 5.00723V2.92923H147.426V5.05621C147.426 5.66521 147.208 5.97021 146.759 5.97021H142.593C142.704 5.66134 142.76 5.33537 142.757 5.00723V3.46323H141.41V5.05621C141.41 5.66521 141.181 5.97021 140.735 5.97021H137.561C137.43 5.98759 137.296 5.97445 137.17 5.93176C137.044 5.88907 136.929 5.81798 136.835 5.72403C136.741 5.63008 136.67 5.51578 136.627 5.38992C136.584 5.26407 136.571 5.13005 136.588 4.99823V1.99823C134.888 1.99823 134.043 1.99824 134.043 2.00824C132.785 2.00824 132.07 2.92224 132.07 4.34424C132.07 5.65824 132.805 6.65024 133.947 6.65024C134.203 6.67932 134.462 6.64215 134.699 6.54233C134.936 6.44251 135.143 6.28338 135.301 6.08023C135.402 6.42463 135.613 6.72625 135.902 6.9382C136.191 7.15016 136.543 7.26056 136.901 7.25223H158.787C158.942 6.67332 159.023 6.0773 159.028 5.47821C159.055 4.6243 158.81 3.784 158.328 3.07822M135.211 4.24023C135.211 5.02323 134.867 5.54721 134.311 5.54721C133.774 5.54721 133.395 4.99622 133.395 4.32822C133.395 3.58322 133.795 2.98322 134.339 2.98322H135.215L135.211 4.24023ZM154.944 5.98624C154.839 5.98173 154.737 5.95582 154.642 5.91013C154.547 5.86444 154.463 5.79992 154.394 5.72052C154.326 5.64112 154.274 5.54852 154.242 5.44839C154.211 5.34826 154.2 5.2427 154.21 5.13821C154.201 5.03557 154.213 4.93213 154.246 4.83447C154.279 4.73682 154.332 4.64709 154.402 4.57101C154.471 4.49494 154.556 4.43418 154.65 4.39261C154.744 4.35104 154.846 4.32956 154.949 4.32956C155.052 4.32956 155.154 4.35104 155.249 4.39261C155.343 4.43418 155.428 4.49494 155.497 4.57101C155.567 4.64709 155.62 4.73682 155.652 4.83447C155.685 4.93213 155.698 5.03557 155.688 5.13821C155.697 5.24306 155.685 5.3486 155.652 5.44852C155.619 5.54844 155.566 5.64069 155.497 5.71982C155.427 5.79894 155.343 5.86332 155.248 5.90909C155.153 5.95486 155.049 5.9811 154.944 5.98624Z" fill="white"/>
<path d="M106.645 7.72705H105.464V8.83305H106.645V7.72705Z" fill="white"/>
<path d="M128.168 5.03604C128.168 5.65404 127.939 5.96906 127.491 5.96906H123.386C123.494 5.65951 123.548 5.33385 123.547 5.00604V2.92804H122.204V5.05405C122.204 5.66305 121.976 5.96805 121.527 5.96805H117.927C117.784 4.01405 116.887 2.90604 115.314 2.90604C114.801 2.92447 114.298 3.05117 113.838 3.2778C113.377 3.50444 112.97 3.82589 112.643 4.22104L112.769 1.10303H111.443V5.96704H106.628C106.735 5.65752 106.787 5.33157 106.782 5.00403V2.92603H105.439V5.05405C105.439 5.66305 105.219 5.96805 104.771 5.96805H103.944C102.925 5.94905 102.524 5.60704 102.275 4.51004C102.17 4.03691 101.898 3.61717 101.51 3.32693C101.122 3.0367 100.643 2.89518 100.159 2.92804H97.443C97.1144 2.91849 96.7876 2.97888 96.4842 3.10522C96.1808 3.23157 95.9077 3.42096 95.683 3.66086C95.4584 3.90075 95.2872 4.18569 95.181 4.49673C95.0748 4.80778 95.036 5.13782 95.067 5.46503V8.83203H96.383V5.67303C96.383 4.71203 96.756 4.22305 97.499 4.22305H98.11C98.0041 4.50759 97.9525 4.80947 97.958 5.11304C97.9382 5.4016 97.9802 5.69108 98.0813 5.96207C98.1825 6.23305 98.3404 6.47929 98.5445 6.6843C98.7485 6.8893 98.994 7.04833 99.2645 7.15073C99.535 7.25313 99.8243 7.29654 100.113 7.27805C100.451 7.2994 100.788 7.24143 101.1 7.10876C101.411 6.9761 101.687 6.77242 101.905 6.51404C102.446 7.01191 103.162 7.27482 103.896 7.24503H127.784C128.032 7.25756 128.28 7.2115 128.507 7.11057C128.734 7.00963 128.934 6.85666 129.091 6.66403C129.376 6.30823 129.525 5.86196 129.51 5.40604V2.92703H128.175L128.168 5.03604ZM100.168 6.20004H100.068C99.581 6.20004 99.25 5.75004 99.25 5.11304C99.25 4.47604 99.582 4.01303 100.135 4.01303C100.669 4.01303 101.014 4.43204 101.014 5.07004C101.014 5.82504 100.728 6.19705 100.164 6.19705M116.514 5.96704H112.604C112.825 5.44635 113.182 4.99497 113.639 4.66055C114.095 4.32614 114.633 4.1211 115.196 4.06705C116.026 4.06705 116.522 4.78205 116.522 5.77505C116.523 5.83852 116.52 5.90197 116.513 5.96503" fill="white"/>
<path d="M99.9129 12.3828H98.4229V13.7658H99.9129V12.3828Z" fill="white"/>
<path d="M146.692 11.4878H145.216V12.8588H146.692V11.4878Z" fill="white"/>
<path d="M102.165 12.3828H100.675V13.7658H102.165V12.3828Z" fill="white"/>
<path d="M103.702 16.351C103.731 16.5742 103.689 16.8008 103.581 16.9984C103.473 17.196 103.306 17.3545 103.102 17.451C102.788 17.5522 102.457 17.5926 102.127 17.57H99.0513C98.4789 17.612 97.9052 17.5088 97.3833 17.27C97.1496 17.1146 96.9635 16.8975 96.8456 16.6428C96.7277 16.3881 96.6825 16.1057 96.7153 15.827V13.751H95.0703V15.823C95.0703 18.054 96.3803 19.16 99.0143 19.16H103.328C103.596 19.191 103.868 19.1619 104.123 19.0747C104.378 18.9876 104.611 18.8447 104.804 18.6564C104.997 18.4681 105.145 18.2391 105.239 17.9861C105.332 17.7331 105.368 17.4625 105.343 17.194V13.764H103.698L103.702 16.351Z" fill="white"/>
<path d="M148.946 11.4878H147.456V12.8588H148.946V11.4878Z" fill="white"/>
<path d="M159.157 11.478H157.487V19.165H159.157V11.478Z" fill="white"/>
<path d="M154.63 16.3499C154.63 17.1499 154.342 17.5499 153.784 17.5659L152.306 12.2869H150.541L152.041 17.5659H150.265V19.1659H154.223C154.761 19.1837 155.285 18.9919 155.685 18.6309C155.879 18.4508 156.032 18.2309 156.133 17.9861C156.234 17.7413 156.281 17.4775 156.271 17.2129V11.4849H154.628L154.63 16.3499Z" fill="white"/>
<path d="M147.384 16.4C147.384 17.173 147.098 17.567 146.536 17.567H137.326C137.173 15.125 136.026 13.741 134.074 13.741C133.327 13.7931 132.601 14.0118 131.949 14.3811C131.297 14.7504 130.737 15.2608 130.308 15.875V14.336H128.64V16.424C128.64 17.282 128.34 17.567 127.794 17.567H116.875C115.647 17.567 115.446 17.138 115.446 16.328V11.48H113.777V17.201C113.754 17.4691 113.792 17.7388 113.886 17.9908C113.98 18.2428 114.129 18.4709 114.321 18.6588C114.514 18.8467 114.745 18.9897 115 19.0775C115.254 19.1654 115.524 19.1959 115.792 19.167H146.892C147.202 19.1824 147.512 19.1247 147.796 18.9984C148.08 18.8721 148.33 18.6808 148.527 18.44C148.884 17.9957 149.071 17.4379 149.052 16.868V13.768H147.384V16.4ZM135.584 17.567H130.697C131.615 15.995 132.712 15.196 133.94 15.196C134.987 15.196 135.596 16.126 135.596 17.352L135.584 17.567Z" fill="white"/>
<path d="M110.925 16.3499C110.925 17.1499 110.637 17.5499 110.077 17.5659L108.595 12.2849H106.829L108.329 17.5638H106.553V19.1638H110.51C111.049 19.1821 111.574 18.9903 111.974 18.6288C112.167 18.4485 112.32 18.2284 112.421 17.9837C112.522 17.7389 112.568 17.4753 112.558 17.2108V11.4849H110.925V16.3499Z" fill="white"/>
</svg>
