<svg width="149" height="22" viewBox="0 0 149 22" fill="none" xmlns="http://www.w3.org/2000/svg">
<path d="M23.263 0.00195312C23.113 0.388953 22.97 0.777958 22.808 1.15996C22.431 2.05296 22.044 2.94495 21.662 3.83395C21.6412 3.91129 21.5938 3.97883 21.5281 4.02472C21.4625 4.07061 21.3828 4.09195 21.303 4.08496C18.379 4.07596 15.453 4.08495 12.53 4.07295C11.808 4.07295 11.801 4.19196 11.553 4.75296C11.117 5.73396 10.702 6.72396 10.279 7.71396C10.113 8.10096 9.95299 8.48996 9.77899 8.91396H15.279C15.092 9.34496 14.92 9.73696 14.75 10.135C14.403 10.946 14.056 11.757 13.717 12.574C13.6907 12.6894 13.6232 12.7913 13.527 12.8603C13.4309 12.9294 13.3128 12.9609 13.195 12.949C11.562 12.925 9.92698 12.942 8.29498 12.933C8.21375 12.9235 8.13184 12.9435 8.064 12.9891C7.99615 13.0348 7.94685 13.1032 7.92499 13.182C7.32499 14.582 6.72499 15.982 6.11899 17.382C6.09141 17.4591 6.0687 17.5379 6.05099 17.618H15.801C15.641 17.998 15.501 18.359 15.337 18.718C15.082 19.268 14.845 19.829 14.537 20.353C14.3337 20.7378 14.0296 21.0601 13.6572 21.2854C13.2848 21.5107 12.8582 21.6305 12.423 21.632C8.468 21.663 4.51298 21.674 0.557983 21.688C0.370751 21.6758 0.184432 21.6524 0 21.618L0.699982 19.971C1.15898 18.896 1.61399 17.82 2.07599 16.747C2.43399 15.918 2.80199 15.095 3.15799 14.268C3.61199 13.209 4.05798 12.147 4.50998 11.089C4.90298 10.171 5.30201 9.25896 5.69501 8.34296C6.16801 7.24296 6.635 6.14295 7.108 5.04295C7.469 4.20695 7.828 3.37195 8.202 2.54295C8.387 2.13295 8.582 1.72295 8.802 1.33395C9.00285 0.964765 9.2956 0.653693 9.65195 0.430847C10.0083 0.208002 10.4161 0.0809304 10.836 0.0619507C10.8819 0.0507773 10.9255 0.0318377 10.965 0.00595093L23.263 0.00195312Z" fill="white"/>
<path d="M139.429 0.0019989C139.665 0.0389989 139.898 0.0880006 140.129 0.110001C141.63 0.273351 143.1 0.652946 144.492 1.237C145.676 1.73675 146.795 2.37809 147.824 3.147C147.924 3.22 148.016 3.31301 148.166 3.44701C144.839 2.05392 141.199 1.57441 137.624 2.058C134.039 2.46252 130.654 3.92138 127.898 6.25C127.982 5.98 128.036 5.779 128.109 5.584C128.545 4.41066 129.148 3.30653 129.899 2.306C130.268 1.74306 130.825 1.33026 131.471 1.142C132.434 0.897998 133.371 0.562995 134.343 0.341995C135.043 0.180995 135.772 0.15 136.487 0.0559998C136.534 0.0444566 136.578 0.0255501 136.618 0L139.429 0.0019989Z" fill="white"/>
<path d="M124.014 5.62824C123.688 6.39024 123.376 7.12124 123.065 7.85224C122.613 8.91324 122.165 9.97323 121.711 11.0342C121.355 11.8612 120.999 12.6902 120.631 13.5112C120.408 14.058 120.155 14.5922 119.872 15.1112C119.625 15.5417 119.262 15.8942 118.824 16.1286C118.387 16.363 117.892 16.4699 117.396 16.4372L121.053 21.6152C120.94 21.6222 120.866 21.6312 120.791 21.6312C119.041 21.6312 117.292 21.6312 115.543 21.6312C115.476 21.6404 115.406 21.6294 115.345 21.5995C115.283 21.5696 115.231 21.5222 115.196 21.4632C114.696 20.7082 114.184 19.9632 113.678 19.2212C113.069 18.3212 112.467 17.4212 111.853 16.5292C111.819 16.4881 111.777 16.4542 111.729 16.4296C111.682 16.4051 111.63 16.3903 111.576 16.3862C111.009 16.3742 110.444 16.3862 109.876 16.3772C109.821 16.3698 109.765 16.3826 109.719 16.413C109.673 16.4435 109.639 16.4898 109.623 16.5432C109.229 17.4662 108.834 18.3902 108.423 19.3082C108.24 19.7388 108.022 20.1532 107.769 20.5472C107.554 20.8782 107.259 21.15 106.912 21.3383C106.564 21.5265 106.175 21.6251 105.78 21.6252C104.934 21.6462 104.086 21.6252 103.189 21.6252C103.267 21.4252 103.332 21.2322 103.409 21.0532C104.093 19.4532 104.777 17.8532 105.461 16.2532C106.154 14.6272 106.837 12.9992 107.534 11.3752C107.962 10.3792 108.398 9.3879 108.842 8.40123C109.061 7.87218 109.312 7.3572 109.594 6.85924C109.825 6.46522 110.159 6.14211 110.561 5.9252C110.963 5.7083 111.417 5.60591 111.872 5.62923C115.806 5.63256 119.739 5.63256 123.672 5.62923L124.014 5.62824ZM111.547 12.3102C113.093 12.3102 114.611 12.3192 116.128 12.3032C116.462 12.2915 116.778 12.1531 117.012 11.9162C117.265 11.6391 117.457 11.313 117.577 10.9582C117.777 10.5152 117.966 10.0652 118.168 9.59424C116.455 9.59424 114.787 9.59924 113.119 9.58924C112.997 9.57922 112.875 9.60956 112.771 9.67565C112.667 9.74173 112.588 9.83993 112.545 9.95523C112.215 10.7262 111.889 11.4992 111.545 12.3102" fill="white"/>
<path d="M16.2012 21.6199C16.8382 20.1419 17.4592 18.7049 18.0782 17.2639C18.7395 15.7199 19.3988 14.1749 20.0562 12.6289C20.6682 11.2039 21.2742 9.77692 21.9022 8.35792C22.1406 7.78349 22.4228 7.2282 22.7462 6.69693C22.927 6.41146 23.1712 6.1715 23.4598 5.99565C23.7484 5.8198 24.0736 5.71278 24.4102 5.68292C24.7236 5.6481 25.0388 5.63074 25.3542 5.63092C29.1349 5.62758 32.9165 5.62758 36.6992 5.63092H37.0482C36.8482 6.08592 36.6642 6.52092 36.4812 6.95492C36.0292 8.01359 35.5779 9.0736 35.1272 10.1349C34.8442 10.7959 34.5652 11.4589 34.2692 12.1129C34.2456 12.1593 34.2115 12.1995 34.1697 12.2304C34.1278 12.2613 34.0794 12.282 34.0282 12.2909C32.7132 12.3029 31.3952 12.2999 30.0282 12.2999L31.1782 9.61293C31.0782 9.60593 30.9932 9.59593 30.9092 9.59593C29.3092 9.59593 27.7092 9.59593 26.1092 9.59593C25.9964 9.58644 25.8836 9.61468 25.7886 9.67622C25.6936 9.73776 25.6217 9.8291 25.5842 9.93593C25.1635 10.9233 24.7395 11.9096 24.3122 12.8949C23.9182 13.8109 23.5232 14.7256 23.1272 15.6389C22.8412 16.3069 22.5552 16.9749 22.2562 17.6699H22.7562C24.0912 17.6699 25.4252 17.6459 26.7562 17.6799C27.0517 17.6861 27.3419 17.6006 27.587 17.4354C27.8321 17.2702 28.02 17.0332 28.1252 16.7569C28.1652 16.6569 28.1932 16.5569 28.2332 16.4449H25.7522C25.9582 15.9619 26.1522 15.5029 26.3522 15.0449C26.5522 14.5869 26.7522 14.1219 26.9612 13.6529H33.6082C33.2732 14.4359 32.9452 15.1989 32.6212 15.9629C32.1672 17.0199 31.7212 18.0829 31.2642 19.1399C31.04 19.7819 30.7012 20.3779 30.2642 20.8989C29.895 21.3135 29.3828 21.5732 28.8302 21.6259C28.1642 21.6729 27.4942 21.6849 26.8302 21.6839C23.3635 21.6719 19.8949 21.6549 16.4242 21.6329C16.3632 21.6329 16.3042 21.6279 16.2082 21.6239" fill="white"/>
<path d="M101.458 5.62793C101.311 5.97493 101.175 6.30093 101.039 6.62793C100.469 7.96593 99.8976 9.30392 99.3262 10.6419C98.8202 11.8209 98.3072 12.9969 97.8012 14.1749C97.1942 15.5919 96.6062 17.0169 95.9852 18.4269C95.6746 19.1523 95.3244 19.86 94.9362 20.5469C94.7543 20.872 94.4897 21.1433 94.1692 21.3333C93.8487 21.5233 93.4837 21.6253 93.1112 21.6289C92.2162 21.6549 91.3182 21.6359 90.3892 21.6359C91.0892 19.9359 91.8062 18.2039 92.5352 16.4359H92.2422C90.6352 16.4359 89.0282 16.4409 87.4202 16.4289C87.3399 16.4205 87.2592 16.4408 87.1924 16.4862C87.1256 16.5316 87.077 16.5991 87.0552 16.6769C86.6192 17.6769 86.1952 18.6829 85.7362 19.6769C85.557 20.0897 85.3247 20.4773 85.0452 20.8299C84.856 21.0651 84.619 21.2575 84.3499 21.3943C84.0808 21.5312 83.7858 21.6095 83.4842 21.6239C82.5562 21.6589 81.6242 21.6329 80.6582 21.6329C80.8202 21.2419 80.9722 20.8689 81.1292 20.4989C81.5672 19.4643 82.0069 18.4286 82.4482 17.3919C82.8812 16.3799 83.3222 15.3719 83.7482 14.3599C84.2022 13.2989 84.6432 12.2369 85.0982 11.1799C85.5272 10.1799 85.9582 9.18893 86.4102 8.20493C86.6396 7.6637 86.9108 7.14112 87.2212 6.64192C87.4049 6.36388 87.6514 6.13294 87.9408 5.96774C88.2302 5.80254 88.5544 5.70772 88.8872 5.69093C89.5382 5.64393 90.1872 5.63493 90.8392 5.63493C94.2585 5.6296 97.6779 5.6296 101.097 5.63493L101.458 5.62793ZM88.9252 12.3099H93.2652C93.5769 12.3221 93.8845 12.2361 94.1447 12.064C94.4049 11.8919 94.6044 11.6425 94.7152 11.3509C94.8305 11.0803 94.9469 10.8093 95.0642 10.5379L95.4532 9.61693C95.3592 9.60693 95.2982 9.59393 95.2402 9.59393H90.4202C90.3245 9.58862 90.2295 9.61384 90.149 9.66595C90.0685 9.71807 90.0066 9.79439 89.9722 9.88393C89.6272 10.6759 89.2882 11.4719 88.9252 12.3109" fill="white"/>
<path d="M69.2682 5.62797C69.0452 6.14997 68.8442 6.61896 68.6472 7.08796C67.8952 8.85696 67.1472 10.63 66.3932 12.397C66.0722 13.145 65.7483 13.897 65.4062 14.632C65.2581 15.0291 65.0191 15.3859 64.7083 15.674C64.3974 15.9621 64.0234 16.1734 63.6162 16.291C63.3223 16.3702 63.0204 16.4158 62.7162 16.427C61.6452 16.443 60.5772 16.439 59.5082 16.432C58.0796 16.42 56.6519 16.4006 55.2253 16.374C55.1448 16.3662 55.0643 16.3871 54.9979 16.4331C54.9314 16.479 54.8834 16.547 54.8622 16.625C54.3472 17.799 53.8623 18.992 53.3043 20.144C53.1192 20.5816 52.8099 20.9553 52.4146 21.2189C52.0193 21.4825 51.5554 21.6244 51.0803 21.627C50.2093 21.641 49.3393 21.627 48.4473 21.627C48.5593 21.358 48.6793 21.065 48.8033 20.774C49.5779 18.958 50.3532 17.1413 51.1292 15.324C51.8306 13.684 52.5349 12.0446 53.2422 10.406C53.7202 9.29997 54.1812 8.18497 54.6992 7.09797C54.8723 6.70555 55.1477 6.36687 55.4966 6.1174C55.8454 5.86793 56.255 5.71685 56.6823 5.67997C56.8987 5.64989 57.1168 5.63285 57.3353 5.62896C61.1873 5.62563 65.0393 5.62563 68.8913 5.62896L69.2682 5.62797ZM56.7322 12.289C56.7541 12.2973 56.777 12.3031 56.8003 12.306C58.2743 12.306 59.7483 12.315 61.2213 12.306C61.5641 12.2982 61.8911 12.1598 62.1353 11.919C62.372 11.6638 62.5516 11.361 62.6623 11.031C62.8733 10.562 63.0753 10.089 63.2923 9.59497H58.1973C58.1049 9.59416 58.0145 9.6216 57.9382 9.67361C57.8619 9.72562 57.8033 9.79972 57.7703 9.88597C57.6503 10.146 57.5342 10.406 57.4232 10.668C57.1912 11.209 56.9622 11.748 56.7322 12.29" fill="white"/>
<path d="M37.1678 21.6818C37.9248 19.9218 38.6677 18.1998 39.4197 16.4428H34.5527L35.2297 14.8428C35.6627 13.8218 36.0918 12.7998 36.5298 11.7808C36.8648 10.9908 37.2018 10.2018 37.5468 9.41684C37.8638 8.69484 38.1907 7.97785 38.5237 7.25885C38.7011 6.83553 38.9839 6.46466 39.3452 6.18161C39.7065 5.89856 40.1343 5.71274 40.5877 5.64185C40.613 5.63594 40.6388 5.63258 40.6647 5.63184H43.4457C42.4987 7.86684 41.5667 10.0698 40.6177 12.3118H45.1177C45.415 12.308 45.7044 12.2159 45.9492 12.0473C46.194 11.8787 46.3832 11.6412 46.4927 11.3648C46.9637 10.2028 47.4468 9.04285 47.9318 7.88585C48.1399 7.30104 48.4706 6.76746 48.9018 6.32085C49.2637 5.94964 49.7504 5.72586 50.2678 5.69284C51.2188 5.65984 52.1678 5.68285 53.1338 5.68285C53.0138 5.97085 52.8787 6.28784 52.7467 6.60384C52.2617 7.75484 51.7838 8.90384 51.2938 10.0528C50.8258 11.1448 50.3617 12.2368 49.8687 13.3168C49.5573 14.0402 49.2012 14.7435 48.8027 15.4228C48.6302 15.7045 48.3904 15.9389 48.1048 16.1049C47.8193 16.2709 47.4969 16.3633 47.1667 16.3738C46.1127 16.4258 45.0557 16.4278 43.9967 16.4278C43.9074 16.4193 43.8178 16.4423 43.7436 16.4929C43.6694 16.5435 43.6154 16.6185 43.5908 16.7048C43.1318 17.7728 42.6858 18.8438 42.1988 19.8978C42.0415 20.3255 41.7786 20.7063 41.4344 21.005C41.0903 21.3036 40.6762 21.5103 40.2307 21.6059C40.0793 21.6445 39.9247 21.6696 39.7687 21.6808C38.9227 21.6878 38.0778 21.6808 37.1688 21.6808" fill="white"/>
<path d="M69.3896 21.6312C71.1136 17.5962 72.8227 13.5922 74.5417 9.56718H69.7197C69.9827 8.94218 70.2517 8.31618 70.5117 7.68618C70.7062 7.16136 71.0134 6.68555 71.4117 6.29219C71.8401 5.87468 72.4134 5.63892 73.0117 5.63418C77.0767 5.62418 81.1397 5.62918 85.2047 5.62918C85.2307 5.62918 85.2587 5.62918 85.3457 5.63618C84.7877 6.94818 84.2457 8.23619 83.6887 9.53619H81.0347C80.3907 9.53619 79.7457 9.54619 79.0997 9.52919C79.0192 9.51745 78.9373 9.53545 78.8691 9.57982C78.801 9.62418 78.7515 9.69187 78.7297 9.77018C78.3757 10.6162 78.0167 11.4622 77.6587 12.3072C77.2797 13.2022 76.9047 14.0952 76.5247 14.9872C76.0707 16.0562 75.6246 17.1292 75.1566 18.1872C74.8236 18.9412 74.4957 19.7002 74.0887 20.4172C73.9031 20.7751 73.6237 21.0758 73.2804 21.2872C72.9371 21.4985 72.5428 21.6126 72.1396 21.6172C71.2326 21.6382 70.3217 21.6222 69.3887 21.6222" fill="white"/>
<path d="M107.895 5.63006C107.68 6.13806 107.48 6.61405 107.278 7.09205C106.823 8.16005 106.371 9.22905 105.912 10.292C105.556 11.119 105.19 11.9421 104.834 12.7711C104.377 13.8281 103.934 14.8911 103.475 15.9501C103.135 16.7454 102.793 17.5411 102.447 18.3371C102.194 18.9161 101.947 19.5011 101.676 20.0691C101.466 20.5829 101.089 21.0108 100.605 21.2831C100.284 21.4467 99.9392 21.5584 99.5832 21.6141C99.1128 21.6702 98.6388 21.6906 98.1652 21.6751C97.7172 21.6751 97.2702 21.6301 96.7832 21.6001C96.8832 21.3331 96.9832 21.0571 97.1022 20.7871C97.7112 19.3621 98.3302 17.9421 98.9392 16.5131C99.6332 14.8911 100.316 13.2591 101.013 11.6351C101.495 10.5131 101.979 9.39105 102.484 8.28005C102.724 7.73315 102.999 7.20237 103.307 6.69105C103.498 6.38043 103.763 6.12195 104.078 5.93872C104.393 5.75548 104.749 5.65321 105.113 5.64105C106.027 5.58705 106.945 5.62705 107.896 5.62705" fill="white"/>
<path d="M137.963 21.6959C136.973 21.579 136.002 21.3322 135.076 20.9619C135.113 20.4189 135.149 19.8619 135.193 19.3029C135.224 18.9209 135.251 18.5369 135.306 18.1589C135.381 17.4514 135.493 16.7484 135.643 16.0529C135.934 14.8789 136.25 13.7069 136.637 12.5619C137.216 10.8478 138.066 9.23786 139.156 7.79385C139.203 7.74032 139.253 7.69081 139.308 7.64586L140.179 9.40486C142.141 6.93238 144.852 5.16229 147.904 4.35986L147.41 4.56786C146.072 5.13177 144.826 5.89583 143.717 6.83386C142.348 7.97028 141.183 9.3326 140.273 10.8619C139.658 11.9093 139.159 13.0209 138.785 14.1769C138.45 15.189 138.222 16.2333 138.103 17.2929C138.038 17.9259 137.988 18.5609 137.944 19.1929C137.914 19.6759 137.893 20.1589 137.893 20.6409C137.893 20.9809 137.937 21.3179 137.963 21.6949" fill="white"/>
<path d="M133.326 20.1358C132.841 19.7848 132.367 19.4498 131.904 19.1048C131.674 18.9338 131.473 18.7188 131.239 18.5548C131.099 18.4592 130.996 18.3197 130.944 18.1585C130.893 17.9974 130.897 17.8236 130.955 17.6648C131.236 16.2201 131.677 14.8113 132.272 13.4648C132.66 12.6316 133.09 11.8189 133.561 11.0298C134.43 9.59114 135.508 8.28987 136.761 7.16882C137.542 6.45063 138.399 5.82051 139.318 5.28983L139.697 5.06982C139.563 5.46982 139.43 5.85484 139.297 6.24384C139.288 6.26984 139.264 6.29483 139.269 6.31683C139.402 6.96383 138.911 7.28883 138.555 7.67783C137.668 8.65838 136.873 9.71815 136.179 10.8438C135.369 12.1291 134.725 13.5118 134.262 14.9588C133.986 15.8686 133.765 16.7943 133.601 17.7308C133.46 18.4998 133.418 19.2868 133.322 20.1308" fill="white"/>
<path d="M127.635 11.9853C127.584 11.7876 127.544 11.5873 127.516 11.3853C127.393 10.5529 127.371 9.70873 127.453 8.87128C127.491 8.67375 127.506 8.47235 127.498 8.27127C127.494 8.17941 127.514 8.08818 127.557 8.00673C127.6 7.92529 127.663 7.85649 127.741 7.80727C128.55 7.13427 129.341 6.43827 130.183 5.79927C131.091 5.125 132.071 4.55477 133.107 4.09928C134.439 3.49452 135.841 3.05783 137.282 2.79927C138.513 2.60733 139.762 2.54466 141.007 2.61228C141.684 2.65744 142.358 2.75134 143.022 2.89327C139.951 3.12558 136.976 4.06729 134.332 5.64427C131.608 7.16811 129.306 9.34502 127.632 11.9793" fill="white"/>
<path d="M140.555 3.91994C137.948 5.17845 135.631 6.96579 133.753 9.16826C131.874 11.3707 130.474 13.9401 129.643 16.7129C129.469 16.4747 129.308 16.2277 129.16 15.9729C128.834 15.3519 128.525 14.7199 128.22 14.0909C128.178 14.006 128.158 13.9121 128.16 13.8175C128.163 13.7228 128.189 13.6303 128.236 13.5479C128.814 12.3409 129.521 11.1994 130.343 10.1429C131.054 9.23865 131.848 8.40329 132.716 7.64793C133.866 6.62266 135.164 5.77468 136.565 5.13194C137.733 4.58057 138.971 4.19355 140.246 3.98193C140.358 3.96293 140.464 3.93795 140.557 3.91895" fill="white"/>
<path d="M141.695 4.8111C141.268 5.1201 140.854 5.41611 140.441 5.71111L140.396 5.67311C140.579 5.44214 140.776 5.22209 140.984 5.0141C141.62 4.41788 142.392 3.98663 143.233 3.7581C143.878 3.59769 144.547 3.56373 145.204 3.6581C145.234 3.65886 145.263 3.66596 145.29 3.67891C145.317 3.69186 145.34 3.71038 145.359 3.7332C145.378 3.75602 145.392 3.78264 145.4 3.81125C145.408 3.83986 145.409 3.86983 145.404 3.89911C145.396 4.054 145.352 4.20491 145.276 4.3401C145.246 4.3941 145.1 4.42211 145.021 4.40111C144.737 4.32911 144.459 4.23011 144.144 4.13211C144.174 4.74311 144.058 5.31111 143.444 5.48111C143.12 5.56416 142.778 5.54471 142.466 5.42545C142.153 5.30618 141.885 5.09296 141.698 4.81511M143.655 4.0961C143.047 4.13776 142.459 4.33619 141.949 4.6721C142.191 4.94664 142.518 5.13277 142.877 5.20111C143.014 5.23407 143.158 5.22175 143.287 5.16602C143.416 5.11028 143.523 5.01416 143.592 4.8921C143.678 4.77867 143.73 4.64307 143.741 4.50131C143.752 4.35955 143.722 4.21756 143.655 4.0921" fill="white"/>
</svg>
