<svg width="128" height="32" viewBox="0 0 128 32" fill="none" xmlns="http://www.w3.org/2000/svg">
<path d="M23.8672 0.0126953H127.158V31.8944H23.8672V0.0126953ZM91.5919 10.4626V21.4885C91.5919 21.5767 91.606 21.6702 91.6122 21.7576H93.7803V13.4123C93.8033 13.4189 93.8247 13.4302 93.8432 13.4453C93.8617 13.4605 93.8769 13.4792 93.8879 13.5005C94.613 14.9177 95.3377 16.3349 96.0622 17.7521C96.715 19.032 97.3721 20.3101 98.0231 21.5926C98.0453 21.6529 98.0871 21.704 98.1418 21.7377C98.1965 21.7714 98.2609 21.7859 98.3247 21.7787C99.1063 21.7708 99.8895 21.7787 100.67 21.7743C100.742 21.7743 100.81 21.7664 100.875 21.762C100.929 21.5309 100.922 10.639 100.875 10.4714C100.163 10.4373 99.4504 10.442 98.7393 10.4855L98.727 10.5041L98.719 10.5455V10.5685C98.719 13.2847 98.719 16.0023 98.719 18.7215C98.719 18.7426 98.719 18.7647 98.719 18.7876L98.7146 18.8079C98.711 18.8135 98.7058 18.8178 98.6996 18.8203H98.6723C98.6291 18.7418 98.5841 18.6606 98.54 18.5759C97.1933 15.9297 95.8458 13.282 94.4974 10.6329C94.4744 10.573 94.432 10.5224 94.3771 10.4892C94.3222 10.456 94.2578 10.442 94.194 10.4494C93.4063 10.4556 92.6168 10.4494 91.8274 10.4494C91.7639 10.4494 91.6977 10.4556 91.5981 10.46M111.844 10.46C111.838 10.5235 111.832 10.557 111.832 10.5923V21.657C111.833 21.6789 111.837 21.7006 111.844 21.7214C111.844 21.7276 111.852 21.732 111.858 21.7382C111.865 21.7443 111.867 21.7461 111.892 21.7708H112.134C113.002 21.7708 113.871 21.7796 114.74 21.7664C115.281 21.7587 115.819 21.732 116.356 21.6861C117.055 21.6296 117.743 21.4703 118.395 21.2133C119.309 20.8789 120.091 20.2606 120.627 19.4492C121.111 18.6617 121.39 17.7662 121.441 16.8435C121.505 16.1297 121.475 15.4106 121.353 14.7045C121.232 13.9068 120.92 13.1502 120.444 12.4993C119.821 11.7053 118.963 11.1288 117.992 10.8525C117.133 10.5871 116.239 10.4518 115.339 10.4511C114.245 10.4406 113.149 10.4467 112.055 10.445C111.989 10.445 111.925 10.4529 111.843 10.4556M102.669 21.7505C102.738 21.7567 102.781 21.7646 102.824 21.7646C104.177 21.7646 105.526 21.769 106.882 21.7584C107.437 21.7514 107.988 21.6564 108.514 21.4771C108.976 21.3317 109.398 21.0838 109.749 20.752C110.299 20.2033 110.609 19.4593 110.611 18.6827C110.652 18.1543 110.526 17.6265 110.249 17.1743C110.028 16.8331 109.735 16.5446 109.389 16.3293C109.044 16.1139 108.656 15.9769 108.252 15.9279C108.207 15.92 108.164 15.9068 108.094 15.8865C108.29 15.8247 108.447 15.7806 108.604 15.7207C108.955 15.6026 109.275 15.4062 109.538 15.1464C109.802 14.8866 110.003 14.5702 110.126 14.2211C110.278 13.7615 110.312 13.2711 110.226 12.7948C110.174 12.3642 110.007 11.9554 109.744 11.6112C109.48 11.2669 109.128 10.9997 108.726 10.8375C108.135 10.5797 107.496 10.4493 106.852 10.4547C105.529 10.4467 104.196 10.4503 102.865 10.4485C102.801 10.4485 102.739 10.4591 102.668 10.4635L102.669 21.7505ZM45.1331 21.7505V21.463C45.1331 20.258 45.1331 19.0514 45.1331 17.8465C45.1331 17.5633 45.149 17.2766 45.1719 16.9935C45.1946 16.643 45.2662 16.2974 45.3845 15.9668C45.4707 15.6356 45.6758 15.3478 45.9607 15.1581C46.2455 14.9684 46.5902 14.8902 46.929 14.9383C47.1502 14.947 47.3623 15.0282 47.5327 15.1694C47.7031 15.3107 47.8223 15.5041 47.8719 15.7198C47.9512 16.0234 47.988 16.3366 47.9813 16.6504C47.9857 18.2663 47.9813 19.8805 47.9813 21.4929C47.9813 21.5811 47.9901 21.6694 47.9937 21.7434C48.7128 21.7908 49.4345 21.7861 50.153 21.7293C50.1574 21.6817 50.1671 21.6306 50.1671 21.5812C50.1671 19.7764 50.1671 17.9708 50.1583 16.1679C50.1599 15.6699 50.0717 15.1757 49.898 14.7089C49.7967 14.3988 49.6243 14.1166 49.3945 13.8849C49.1648 13.6532 48.8842 13.4784 48.5749 13.3743C48.0382 13.1957 47.464 13.1607 46.9096 13.2729C46.5216 13.3309 46.1507 13.4716 45.822 13.6856C45.4932 13.8996 45.2143 14.1818 45.0043 14.5131C44.9778 14.5563 44.9461 14.5934 44.909 14.6454C44.857 14.5572 44.8155 14.4796 44.7723 14.4037C44.5837 14.0761 44.318 13.7995 43.9983 13.5978C43.6786 13.3962 43.3145 13.2755 42.9376 13.2464C42.3969 13.1585 41.8424 13.2227 41.3361 13.4319C40.8298 13.6411 40.3918 13.9871 40.0709 14.4311C40.0294 14.4783 39.9852 14.523 39.9386 14.5651V13.4052C39.255 13.4052 38.5952 13.4052 37.9416 13.4052C37.8877 13.7086 37.9045 21.5979 37.9504 21.7487C38.6687 21.7921 39.3892 21.7829 40.1062 21.7214V18.2496C40.1062 17.8773 40.1062 17.5033 40.1229 17.1311C40.1368 16.6762 40.2343 16.2277 40.4105 15.808C40.522 15.5015 40.7397 15.2452 41.024 15.0855C41.3084 14.9257 41.6405 14.8732 41.9603 14.9374C42.1328 14.9503 42.2986 15.0103 42.4393 15.1109C42.5801 15.2116 42.6905 15.349 42.7586 15.5081C42.8301 15.6756 42.8782 15.8522 42.9015 16.0329C42.9304 16.2868 42.9448 16.5421 42.9447 16.7977C42.9447 18.3616 42.9447 19.9246 42.9447 21.4868C42.9447 21.575 42.9526 21.6632 42.957 21.7514L45.1331 21.7505ZM36.7772 10.4556H30.129C30.0796 10.6479 30.0796 21.5459 30.129 21.7364C30.3442 21.7814 36.629 21.7734 36.7957 21.7285C36.8499 21.1373 36.841 20.5421 36.7693 19.9528H32.3942V16.8047H36.3794C36.4303 16.2055 36.4253 15.6027 36.3644 15.0044H32.3748C32.3748 14.0782 32.3642 13.1715 32.381 12.2479H33.8567C34.3462 12.2479 34.8358 12.2479 35.3244 12.2479C35.8131 12.2479 36.2832 12.2603 36.7728 12.2356L36.7772 10.4556ZM80.805 18.2681C80.805 18.1587 80.805 18.0917 80.805 18.0176C80.7759 17.588 80.7556 17.1576 80.7062 16.7315C80.6451 16.1638 80.4892 15.6104 80.2449 15.0944C79.9153 14.3664 79.3137 13.7964 78.5689 13.5067C77.89 13.2514 77.1617 13.1545 76.4396 13.2235C75.9499 13.2558 75.4716 13.3857 75.0327 13.6054C74.6058 13.8257 74.2276 14.1298 73.9207 14.4994C73.6139 14.869 73.3846 15.2967 73.2465 15.7568C72.8937 16.7941 72.845 17.9106 73.1063 18.9746C73.2417 19.6533 73.5702 20.2784 74.0523 20.7749C74.5343 21.2714 75.1495 21.6181 75.8239 21.7734C76.4922 21.94 77.1834 21.9945 77.8695 21.9349C78.6224 21.8976 79.3597 21.7064 80.0358 21.373C80.0868 21.3549 80.1302 21.3201 80.159 21.2744C80.1878 21.2286 80.2003 21.1745 80.1946 21.1207C80.1867 20.647 80.1946 20.1716 80.1946 19.6962C80.1946 19.6468 80.1867 19.5991 80.1805 19.5286C80.1064 19.5594 80.0482 19.5806 79.9908 19.6088C79.6565 19.7561 79.3337 19.929 78.9924 20.0499C78.3522 20.3062 77.6575 20.3957 76.9733 20.3101C76.5879 20.2788 76.219 20.1401 75.9086 19.9096C75.5981 19.6791 75.3586 19.3662 75.2171 19.0064C75.1148 18.7731 75.0619 18.5211 75.0618 18.2663L80.805 18.2681ZM65.1244 20.5288C65.1202 20.9374 65.1535 21.3454 65.2241 21.7479H67.1285C67.1285 21.6544 67.1285 21.5715 67.1285 21.4974C67.102 20.9002 67.0588 20.3013 67.0473 19.7032C67.027 18.7541 67.0244 17.8059 67.0164 16.8568C67.032 16.2941 66.9688 15.7321 66.8286 15.187C66.7434 14.8571 66.5905 14.5485 66.3796 14.2809C66.1687 14.0133 65.9043 13.7926 65.6034 13.6328C65.0482 13.3665 64.4417 13.2241 63.826 13.2156C62.8091 13.17 61.7937 13.3352 60.8437 13.7007C60.7281 13.7422 60.6188 13.7995 60.4962 13.8533C60.5473 14.4708 60.5164 15.0811 60.5844 15.6845H60.6355C60.6973 15.6457 60.759 15.606 60.8199 15.5663C61.2873 15.2523 61.8098 15.0293 62.36 14.9091C62.9172 14.7782 63.4982 14.7876 64.0509 14.9365C64.2476 14.9842 64.4284 15.0826 64.5752 15.2219C64.7221 15.3612 64.8299 15.5365 64.888 15.7304C64.947 15.9621 64.9882 16.198 65.0115 16.436C65.0111 16.489 65.004 16.5418 64.9903 16.593C64.9021 16.593 64.8192 16.593 64.7398 16.593C64.2106 16.6019 63.6751 16.608 63.1424 16.6195C62.5729 16.6312 62.0082 16.7266 61.4664 16.9026C60.9309 17.0431 60.4574 17.3578 60.1205 17.7972C59.7837 18.2366 59.6027 18.7756 59.6061 19.3292C59.5749 19.7219 59.6482 20.1158 59.8186 20.4709C59.9891 20.826 60.2505 21.1297 60.5764 21.3509C60.9531 21.6248 61.3851 21.8132 61.8422 21.9028C62.2993 21.9924 62.7704 21.981 63.2226 21.8696C63.5857 21.7973 63.9309 21.654 64.2385 21.448C64.5461 21.242 64.8099 20.9773 65.015 20.6691C65.0379 20.6364 65.0671 20.6073 65.1306 20.5306M81.2328 21.5891C81.3069 21.6138 81.3563 21.6288 81.4092 21.6429C81.9583 21.7888 82.5191 21.8862 83.0852 21.934C83.9016 22.0246 84.7279 21.925 85.4994 21.6429C85.9486 21.4999 86.3467 21.23 86.646 20.8658C86.9452 20.5016 87.1328 20.0587 87.1859 19.5903C87.2833 19.1021 87.2168 18.5953 86.9967 18.1487C86.7766 17.7021 86.4152 17.3407 85.9687 17.1205C85.5537 16.9221 85.1222 16.7604 84.6791 16.6371C84.3454 16.5546 84.0258 16.423 83.7308 16.2464C83.6182 16.1761 83.5312 16.0714 83.4827 15.9478C83.4342 15.8242 83.4269 15.6882 83.4618 15.5601C83.4909 15.4123 83.5606 15.2756 83.6632 15.1653C83.7657 15.055 83.897 14.9754 84.0422 14.9356C84.335 14.8389 84.6441 14.8011 84.9516 14.8245C85.4773 14.8524 85.9964 14.9545 86.4935 15.1279C86.5394 15.1429 86.5817 15.1482 86.6629 15.165C86.7105 14.6137 86.7581 14.0818 86.8093 13.5384C86.7211 13.5137 86.6505 13.4925 86.5835 13.4767C86.0922 13.3639 85.5939 13.2846 85.0919 13.2394C84.3802 13.1622 83.6602 13.2291 82.9749 13.4361C82.489 13.5823 82.0528 13.8597 81.7144 14.2379C81.491 14.5039 81.3273 14.8149 81.2346 15.1497C81.1419 15.4845 81.1224 15.8354 81.1772 16.1785C81.2075 16.549 81.341 16.9037 81.5627 17.2021C81.7845 17.5006 82.0855 17.7308 82.4315 17.8667C82.6697 17.9726 82.9229 18.0546 83.169 18.1411C83.5553 18.2751 83.9461 18.3951 84.3289 18.5354C84.5162 18.601 84.6778 18.7245 84.7902 18.8882C84.8547 18.9883 84.8976 19.1008 84.9164 19.2184C84.9351 19.336 84.9293 19.4562 84.8992 19.5715C84.8691 19.6867 84.8154 19.7945 84.7415 19.8879C84.6677 19.9813 84.5752 20.0584 84.47 20.1143C84.1876 20.2714 83.8687 20.3511 83.5456 20.3454C82.879 20.3401 82.2216 20.1896 81.6192 19.9043C81.5468 19.8717 81.4727 19.8426 81.3669 19.7985C81.3237 20.408 81.2787 20.9866 81.2372 21.582M72.9202 20.0428C72.8372 20.0702 72.7737 20.0887 72.7155 20.1116C72.4482 20.2113 72.1634 20.2554 71.8784 20.2413C71.6703 20.253 71.4651 20.1875 71.3023 20.0573C71.1396 19.927 71.0306 19.7413 70.9964 19.5356C70.941 19.2937 70.9132 19.0464 70.9134 18.7982C70.9046 17.6162 70.9134 16.4334 70.9134 15.2514C70.9134 15.1808 70.9196 15.1085 70.9223 15.0097H71.5626C71.7752 15.0097 71.9869 15.0097 72.1969 15.0097C72.4068 15.0097 72.6158 15.0221 72.8275 14.9991V13.4052C72.7393 13.4008 72.6582 13.3946 72.5814 13.3946C72.106 13.3946 71.6323 13.3946 71.1578 13.3946C71.0793 13.3946 71.0052 13.3858 70.9134 13.3796V11.8254C70.9134 11.5731 70.9196 11.3226 70.9046 11.0377L68.7153 11.7434C68.7153 12.0265 68.7153 12.2956 68.7153 12.5655C68.7153 12.8354 68.7303 13.1133 68.7012 13.407H67.1364V15.0185H68.7153V15.3034C68.7153 16.5666 68.7091 17.8306 68.7215 19.0964C68.7235 19.4316 68.759 19.7658 68.8273 20.094C68.9158 20.5683 69.1555 21.0013 69.5105 21.3281C69.8656 21.6548 70.3169 21.8578 70.797 21.9066C71.1965 21.9464 71.5983 21.9561 71.9993 21.9357C72.3367 21.9283 72.6706 21.8648 72.9872 21.7479C72.9643 21.1904 72.944 20.632 72.921 20.0525M54.8024 13.4308C54.7512 13.8066 54.7733 21.6006 54.8253 21.754H56.9643V21.4832C56.9643 20.513 56.9555 19.5427 56.9643 18.5724C56.9705 18.112 56.9996 17.6524 57.0472 17.1955C57.0834 16.7948 57.2037 16.4061 57.4001 16.055C57.5139 15.8364 57.685 15.653 57.8951 15.5242C58.1051 15.3954 58.3463 15.3261 58.5926 15.3237C58.9286 15.2943 59.267 15.3345 59.5867 15.4419C59.6248 15.4492 59.6637 15.4513 59.7023 15.4481V13.3999C59.7023 13.3117 59.6573 13.272 59.5726 13.257C59.1491 13.1637 58.7073 13.1981 58.3033 13.3558C57.9671 13.501 57.6639 13.7131 57.4124 13.9793C57.1608 14.2454 56.966 14.56 56.84 14.9039C56.8073 14.985 56.7782 15.067 56.7518 15.1473L56.7191 15.1429V13.444C56.0802 13.3926 55.4383 13.3891 54.7988 13.4334M51.4179 21.7849C52.1353 21.8276 52.8547 21.8256 53.5719 21.7787C53.6195 21.5468 53.6107 13.6319 53.5551 13.444C52.8495 13.444 52.1438 13.4396 51.4179 13.444V21.7849ZM53.5842 9.85311C52.8503 9.85311 52.1412 9.85311 51.4364 9.85311C51.3867 10.5504 51.3918 11.2506 51.4514 11.9471H53.5842V9.85311Z" fill="white"/>
<path d="M21.6546 31.9286H21.39C18.2787 31.9286 15.1667 31.9286 12.0542 31.9286C11.98 31.9372 11.905 31.922 11.84 31.8852C11.775 31.8484 11.7234 31.792 11.6925 31.724C10.7021 29.9904 9.97155 28.1207 9.52436 26.1749C9.28802 25.1509 9.12355 24.1116 9.03217 23.0647C8.94361 22.0823 8.90651 21.096 8.92103 20.1097C8.96292 16.1326 10.0062 12.2302 11.9545 8.76274C13.3787 6.22033 15.2165 3.93296 17.3925 1.99459C18.1382 1.32675 18.9184 0.698435 19.73 0.112248C19.8272 0.0362461 19.9479 -0.00337866 20.0713 0.000225918C20.5256 0.00463628 20.9781 0.000225918 21.4315 0.000225918C21.5012 0.000225918 21.5735 0.00639462 21.6546 0.010805V31.9286ZM15.5966 6.3882L15.5278 6.41554C15.5551 6.53285 15.5789 6.65106 15.616 6.76838C16.0561 8.32193 16.3 9.92447 16.3419 11.5386C16.3799 12.7217 16.3115 13.9058 16.1373 15.0766C15.9676 16.2399 15.6623 17.3793 15.2278 18.4717C15.212 18.5055 15.1925 18.5374 15.1696 18.567C15.2379 17.7863 15.2214 17.0005 15.1202 16.2233C15.0147 15.4486 14.8178 14.6892 14.5337 13.9608C14.2579 13.2372 13.8808 12.5565 13.4134 11.9391C13.5016 12.2655 13.6075 12.5821 13.6948 12.9094C14.0966 14.3687 14.2613 15.8831 14.1826 17.3947C14.1542 18.088 14.0588 18.7768 13.8977 19.4517C13.3284 21.6609 12.2363 23.7008 10.7134 25.3995C10.6869 25.4304 10.664 25.4639 10.6393 25.4965L10.6622 25.5336C10.7796 25.4824 10.8978 25.4383 11.0151 25.381C12.1641 24.7981 13.2033 24.0204 14.0865 23.0823C16.3888 20.6453 17.6997 17.4372 17.7629 14.0852C17.7989 12.8207 17.6533 11.5577 17.3307 10.3346C17.0135 9.08769 16.5192 7.89267 15.8629 6.78601C15.7827 6.65017 15.6865 6.52139 15.6027 6.39173" fill="white"/>
<path d="M9.6314 31.9174H0.046779C0.000911162 31.7542 -0.0193774 0.414174 0.0238442 0.0357648C0.185264 -0.00569261 9.64638 -0.0136356 9.88454 0.0313502C9.86337 0.146902 9.77075 0.21306 9.70813 0.295975C9.02559 1.10614 8.39145 1.95587 7.80902 2.84075C5.69902 6.04197 4.33581 9.67668 3.82029 13.4759C3.61386 15.0183 3.54626 16.5761 3.6183 18.1306C3.70742 20.0377 4.0842 21.9205 4.73589 23.715C5.64369 26.2662 6.96863 28.649 8.6567 30.7663C8.91691 31.0927 9.19652 31.4005 9.46644 31.7172C9.51231 31.7692 9.55465 31.8248 9.6358 31.9192" fill="white"/>
<path d="M15.5819 0.0176275C15.4708 0.117302 15.3975 0.186984 15.3234 0.253139C12.575 2.67813 10.3663 5.65313 8.84021 8.98566C8.04673 10.7281 7.47537 12.5634 7.13956 14.4483C6.82506 16.271 6.72117 18.1237 6.82996 19.9701C6.86877 20.7428 6.91818 21.5155 7.00638 22.2829C7.24301 24.4278 7.82567 26.5201 8.73171 28.4786C9.01045 29.0802 9.33682 29.6606 9.64114 30.2498C9.67322 30.3002 9.6923 30.3578 9.6967 30.4174C9.66478 30.3852 9.6353 30.3507 9.6085 30.3142C8.60291 28.8072 7.7462 27.2061 7.05048 25.5334C6.48783 24.1368 6.08968 22.6795 5.86409 21.1909C5.67793 19.9551 5.59679 18.7057 5.62152 17.4562C5.64367 16.3329 5.74744 15.2126 5.93202 14.1043C6.3576 11.5574 7.17998 9.09292 8.36919 6.80077C9.24905 5.08254 10.3212 3.46977 11.5649 1.99346C12.088 1.37601 12.6516 0.79209 13.1915 0.185223C13.2456 0.122529 13.3138 0.0734145 13.3904 0.0418543C13.467 0.0102941 13.5499 -0.00283799 13.6325 0.00350859C14.1962 0.0123293 14.7572 0.00350859 15.3208 0.00350859C15.3905 0.00350859 15.4593 0.0114529 15.5792 0.0176275" fill="white"/>
<path d="M114.127 19.97V12.296L114.156 12.2713C114.869 12.2149 115.587 12.2481 116.292 12.3701C117.002 12.5439 117.643 12.9292 118.13 13.475C118.618 14.0209 118.928 14.7016 119.02 15.4274C119.121 16.0788 119.077 16.7445 118.89 17.3767C118.736 17.9127 118.457 18.4046 118.077 18.8123C117.696 19.2199 117.224 19.5317 116.7 19.7222C116.25 19.8943 115.771 19.979 115.289 19.9718C114.91 19.9718 114.53 19.9718 114.129 19.9718" fill="white"/>
<path d="M104.957 19.9579V16.7436C105.015 16.7326 105.074 16.725 105.133 16.7207C105.564 16.7207 105.993 16.7207 106.425 16.7375C106.731 16.7464 107.035 16.8029 107.324 16.9051C107.609 16.9931 107.858 17.1695 108.036 17.4089C108.214 17.6482 108.311 17.9379 108.313 18.2361C108.337 18.4687 108.311 18.7036 108.239 18.9259C108.171 19.108 108.066 19.2736 107.929 19.4116C107.792 19.5495 107.627 19.6567 107.445 19.7259C107.122 19.8617 106.777 19.9382 106.427 19.9517C105.947 19.9764 105.466 19.9579 104.957 19.9579Z" fill="white"/>
<path d="M104.961 15.013V12.2936C104.981 12.283 104.992 12.2671 105.004 12.2671C105.57 12.2794 106.139 12.2794 106.705 12.3147C106.923 12.3413 107.134 12.4026 107.332 12.4964C107.477 12.5584 107.605 12.6534 107.707 12.774C107.808 12.8945 107.88 13.0372 107.917 13.1906C107.988 13.4374 107.997 13.6979 107.944 13.9492C107.89 14.186 107.766 14.4011 107.588 14.5665C107.411 14.732 107.187 14.8402 106.947 14.8771C106.642 14.9481 106.331 14.9915 106.017 15.0068C105.671 15.0297 105.322 15.013 104.959 15.013" fill="white"/>
<path d="M78.7253 16.7551H75.0488C75.0674 16.6351 75.0779 16.5302 75.0982 16.4261C75.1507 16.1082 75.275 15.8066 75.4616 15.544C75.6432 15.2942 75.8881 15.0971 76.1709 14.9731C76.4538 14.8491 76.7646 14.8026 77.0714 14.8383C77.4375 14.8414 77.791 14.9722 78.0709 15.2081C78.3508 15.444 78.5395 15.7703 78.6045 16.1306C78.6539 16.3264 78.683 16.5275 78.7262 16.7569" fill="white"/>
<path d="M64.9883 17.9184C65.0634 18.3718 64.9913 18.8373 64.7828 19.2468C64.5742 19.6563 64.2401 19.9883 63.8292 20.1942C63.3411 20.406 62.7889 20.4158 62.2936 20.2215C62.1078 20.1593 61.9479 20.0371 61.8393 19.874C61.7307 19.7109 61.6795 19.5163 61.6937 19.3209C61.6892 19.1079 61.743 18.8976 61.8494 18.7129C61.9557 18.5282 62.1105 18.3761 62.2971 18.273C62.5916 18.1106 62.9154 18.008 63.2497 17.9714C63.8275 17.9156 64.4082 17.8976 64.9883 17.9175" fill="white"/>
</svg>
