<svg width="89" height="52" viewBox="0 0 89 52" fill="none" xmlns="http://www.w3.org/2000/svg">
<path d="M44.1016 41.4499V13.5661C44.21 13.5581 44.3061 13.543 44.4012 13.543C47.986 13.543 51.57 13.5243 55.1593 13.5536C56.896 13.531 58.6159 13.8954 60.1942 14.6206C61.6726 15.2758 62.8495 16.4645 63.4901 17.9493C63.9609 19.1182 64.1175 20.39 63.9444 21.6382C63.85 22.5237 63.5675 23.3788 63.1158 24.1463C62.4196 25.3503 61.311 26.2615 59.995 26.7114C59.8594 26.7545 59.7335 26.8236 59.6243 26.915C59.6961 26.9486 59.7697 26.9783 59.8448 27.0039C60.7739 27.23 61.651 27.6324 62.4285 28.189C63.0895 28.672 63.6414 29.2887 64.0484 29.999C64.4554 30.7093 64.7083 31.4973 64.7908 32.3118C64.966 33.5925 64.8399 34.8963 64.4227 36.1198C64.1006 37.057 63.5872 37.9171 62.9152 38.6454C62.2431 39.3738 61.427 39.9546 60.5187 40.351C59.4797 40.8284 58.375 41.1473 57.2415 41.297C56.3834 41.411 55.5181 41.4624 54.6525 41.4508C51.2899 41.4555 47.927 41.4555 44.5639 41.4508L44.1016 41.4499ZM50.2114 36.6728C50.3555 36.6817 50.4844 36.6995 50.6151 36.6995C51.746 36.6995 52.8778 36.7181 54.0088 36.6915C54.5512 36.6826 55.0914 36.6203 55.6216 36.5056C56.2343 36.4017 56.8016 36.1156 57.2493 35.6845C57.697 35.2534 58.0044 34.6975 58.1315 34.0891C58.3177 33.2965 58.3113 32.4709 58.1128 31.6814C57.9974 31.1408 57.7375 30.6416 57.3608 30.237C56.9841 29.8324 56.5047 29.5376 55.9737 29.384C55.3919 29.199 54.7846 29.1069 54.1741 29.111C52.9747 29.1004 51.7736 29.1066 50.5786 29.111C50.4622 29.111 50.343 29.1261 50.2114 29.1359V36.6728ZM50.2114 24.9092C50.3057 24.9198 50.3599 24.9305 50.4133 24.9305C51.7336 24.9305 53.053 24.9394 54.3733 24.9216C54.9171 24.9136 55.455 24.8076 55.9612 24.6087C56.4257 24.4499 56.838 24.1672 57.1535 23.7911C57.4689 23.415 57.6755 22.9599 57.7509 22.4748C57.8254 22.05 57.8505 21.618 57.8256 21.1874C57.8202 20.6217 57.6382 20.0719 57.3051 19.6147C56.9719 19.1576 56.5043 18.8159 55.9674 18.6375C55.4182 18.4257 54.8348 18.3164 54.2461 18.3147C52.9925 18.3023 51.7407 18.3085 50.4879 18.3085C50.399 18.3085 50.3155 18.3227 50.2114 18.3334V24.9092Z" fill="white"/>
<path d="M42.0092 41.4292C41.8465 41.4372 41.7424 41.4496 41.6304 41.4496H35.7375C35.3703 41.4496 35.3703 41.4496 35.2547 41.094C34.7414 39.5007 34.2281 37.9077 33.7148 36.3151C33.6694 36.1782 33.6205 36.0483 33.5708 35.9043H22.6527C22.5984 36.0519 22.5442 36.1959 22.4944 36.34C21.9562 37.9249 21.4189 39.5102 20.8825 41.0957C20.7633 41.4514 20.7616 41.4514 20.397 41.4514H14.9033C14.7851 41.4514 14.6659 41.4389 14.4863 41.4283C17.9834 32.1123 21.4734 22.8228 24.9563 13.5596H31.8023C35.1963 22.8305 38.5974 32.1209 42.0056 41.4309M31.9526 30.9752C30.7256 27.0311 29.3565 23.1654 28.1722 19.2222C28.1053 19.3077 28.0552 19.4052 28.0246 19.5094C27.3186 21.693 26.6225 23.8775 25.9077 26.0567C25.4098 27.5735 24.8887 29.0796 24.3802 30.5911C24.3411 30.7093 24.3179 30.8311 24.2806 30.9707L31.9526 30.9752Z" fill="white"/>
<path d="M76.0484 47.2225C72.7389 42.311 70.7555 36.6272 70.2908 30.723C69.8261 24.8187 70.8959 18.8946 73.3962 13.5258H63.5868L63.5664 13.4556C71.7532 8.97157 79.9403 4.48638 88.1277 0L88.1837 0.0542389C88.1188 0.162709 88.0548 0.27028 87.9881 0.37875C85.4673 4.45699 83.2444 8.71202 81.3368 13.1106C79.4582 17.4245 77.988 21.905 76.9455 26.4933C76.4974 28.5086 76.1489 30.5398 75.8999 32.5871C75.5655 35.3316 75.4407 38.0976 75.5265 40.861C75.5864 42.8798 75.7756 44.8927 76.0929 46.8873C76.1115 46.994 76.1133 47.1025 76.124 47.2101C76.0991 47.2101 76.0733 47.2163 76.0484 47.2207" fill="white"/>
<path d="M0.0877962 13.5545H17.0846C17.1638 13.8275 17.1735 18.2418 17.0846 18.569H6.227C6.13809 18.8268 6.11497 24.6335 6.19588 25.1101C6.99606 25.135 7.79626 25.1181 8.60445 25.1207C9.41264 25.1234 10.2253 25.1207 11.037 25.1207H15.8488C15.9423 26.6602 15.9506 28.2037 15.8737 29.7441C15.2442 29.7529 14.6049 29.7441 13.9648 29.7441C13.3247 29.7441 12.6774 29.7441 12.0337 29.7441H6.171C6.16477 29.9112 6.15588 30.0508 6.15588 30.1886C6.15588 33.7841 6.15588 37.3811 6.15588 40.9795C6.15588 41.1191 6.14164 41.2605 6.13453 41.4241H0.107359C0.0940848 41.4125 0.081616 41.4 0.070024 41.3868C0.0621885 41.3791 0.0563713 41.3696 0.0531201 41.3592C0.0415939 41.3283 0.0344242 41.296 0.0317936 41.2632C0.0288299 32.1274 0.0273438 22.9911 0.0273438 13.8541C0.0273438 13.7981 0.0273335 13.7439 0.0335572 13.6879C0.0345707 13.6658 0.0396951 13.6441 0.0486703 13.6239C0.0604503 13.5986 0.075076 13.5747 0.092246 13.5527" fill="white"/>
<path d="M28.4502 3.74366H29.1544C29.1633 3.89836 29.1775 4.02727 29.1775 4.15797C29.1775 4.82479 29.1775 5.49162 29.1775 6.15577C29.1775 6.60032 29.1944 6.61631 29.654 6.61809H30.7121C30.7183 6.45983 30.7289 6.33092 30.7289 6.20111C30.7289 4.92615 30.7289 3.65177 30.7289 2.378C30.7289 2.2473 30.745 2.11749 30.7539 1.97168H31.4722V4.40691C31.6332 4.30111 31.7301 4.23621 31.8279 4.1713C32.2041 3.89511 32.6333 3.69958 33.0886 3.59695C33.4449 3.52134 33.8166 3.57917 34.133 3.75945C34.4495 3.93973 34.6888 4.22993 34.8055 4.57496C34.8725 4.76294 34.9138 4.95913 34.9282 5.1582C34.9452 5.4905 34.9452 5.82347 34.9282 6.15577C34.9354 6.45423 34.8269 6.74391 34.6254 6.96417C34.4239 7.18443 34.1449 7.31817 33.847 7.33737C33.704 7.35587 33.56 7.36508 33.4158 7.36494C32.2404 7.36494 31.0624 7.36494 29.887 7.36494C29.5363 7.39101 29.1861 7.30744 28.885 7.12578C28.5481 7.32101 28.1583 7.40501 27.7709 7.36582C25.9157 7.36286 24.0622 7.36286 22.2105 7.36582C22.1216 7.36582 22.0327 7.37027 21.9438 7.36582C21.6228 7.34715 21.5099 7.23246 21.5081 6.90972C21.5037 6.2998 21.5081 5.689 21.5037 5.07908C21.5067 4.94663 21.4899 4.81448 21.4539 4.68698C21.4175 4.56297 21.3373 4.45639 21.2282 4.38705C21.1192 4.31771 20.9886 4.29034 20.8609 4.31001C20.7385 4.32142 20.6234 4.37294 20.5334 4.45655C20.4433 4.54016 20.3834 4.65118 20.363 4.77234C20.3503 4.87168 20.3461 4.97191 20.3505 5.07196V7.63611C20.3505 7.71346 20.3505 7.79259 20.3505 7.86994C20.3336 8.13667 20.2252 8.25315 19.9611 8.26382C19.6971 8.27449 19.4508 8.26825 19.1947 8.26825C18.6177 8.26825 18.0389 8.25581 17.4637 8.26825C17.0606 8.27133 16.6705 8.12623 16.3674 7.86053C16.0643 7.59482 15.8694 7.22702 15.8197 6.82703C15.7743 6.51141 15.8204 6.1894 15.9527 5.89924C16.0849 5.60908 16.2977 5.363 16.5657 5.19021C16.7093 5.1004 16.8577 5.01848 17.0102 4.94482C17.1671 5.12787 17.2878 5.33907 17.3658 5.56719L17.0475 5.75211C16.8538 5.85386 16.7001 6.01821 16.6117 6.21839C16.5232 6.41858 16.5051 6.64281 16.5603 6.8546C16.6188 7.05914 16.7441 7.23821 16.9162 7.36326C17.0883 7.48831 17.2973 7.55213 17.5099 7.54453C18.1323 7.54898 18.7546 7.54453 19.377 7.54453C19.4419 7.54453 19.5077 7.52942 19.6064 7.51786C19.6144 7.38628 19.6295 7.25558 19.6295 7.12666C19.6295 6.36026 19.6232 5.59564 19.6339 4.82924C19.6299 4.53154 19.7328 4.24226 19.9238 4.01389C20.1148 3.78552 20.3813 3.63318 20.6751 3.58451C20.8578 3.54702 21.0464 3.54984 21.2279 3.59278C21.4094 3.63572 21.5794 3.71773 21.7259 3.83311C21.8724 3.9485 21.992 4.09446 22.0764 4.26083C22.1607 4.42719 22.2077 4.60994 22.2141 4.79634C22.2283 5.26133 22.2185 5.72812 22.2185 6.194V6.57542C22.3103 6.59249 22.4029 6.60435 22.4959 6.61098C24.3494 6.61098 26.2029 6.61098 28.0563 6.61098C28.3933 6.61098 28.436 6.56563 28.4377 6.22156C28.4422 5.53428 28.4377 4.84613 28.4377 4.15886L28.4502 3.74366ZM31.4776 6.6101C32.2778 6.6101 33.0299 6.61899 33.7812 6.60565C33.8353 6.6081 33.8892 6.59918 33.9396 6.57948C33.99 6.55978 34.0356 6.52973 34.0737 6.49127C34.1117 6.45281 34.1413 6.40679 34.1604 6.3562C34.1796 6.30561 34.1879 6.25157 34.1849 6.19756C34.2146 5.82315 34.2125 5.4469 34.1786 5.07285C34.1765 4.94084 34.1418 4.8114 34.0775 4.69608C34.0132 4.58076 33.9214 4.48314 33.8102 4.41193C33.699 4.34072 33.5719 4.29811 33.4403 4.28793C33.3086 4.27775 33.1765 4.3003 33.0557 4.35357C32.515 4.52474 32.0231 4.82255 31.6207 5.22222C31.5478 5.28808 31.4995 5.37684 31.4838 5.47384C31.4696 5.83659 31.4776 6.19845 31.4776 6.6101Z" fill="white"/>
<path d="M60.4217 3.71723H61.1169C61.1249 3.85237 61.1374 3.96885 61.1374 4.08621C61.1374 4.78415 61.1374 5.48565 61.1374 6.18448C61.1374 6.58012 61.1747 6.61391 61.5819 6.61569C62.0146 6.61865 62.4473 6.61865 62.88 6.61569C63.1903 6.61569 63.249 6.56322 63.2525 6.24671C63.2605 5.55766 63.2525 4.86951 63.257 4.18223V3.79014C63.4768 3.69795 63.7217 3.68415 63.9505 3.75102C63.9594 3.83993 63.9771 3.92884 63.9771 4.01153C63.9771 4.7886 63.9771 5.56566 63.9771 6.34273C63.9945 6.52196 63.958 6.70231 63.8723 6.86069C63.7866 7.01907 63.6557 7.14829 63.4962 7.23183C63.3258 7.31174 63.141 7.35621 62.9529 7.36253C62.5205 7.38501 62.0872 7.38501 61.6548 7.36253C61.3629 7.3203 61.0741 7.25821 60.7906 7.17671C60.4889 7.33631 60.1473 7.40488 59.8073 7.37408C57.955 7.36934 56.1018 7.36934 54.2478 7.37408C53.8579 7.40959 53.4666 7.32356 53.1275 7.1278C52.8316 7.3154 52.4828 7.40183 52.1335 7.37408C51.4445 7.36786 50.7563 7.37408 50.069 7.37408C49.6534 7.39265 49.2458 7.25617 48.9252 6.99113C48.6046 6.72609 48.3938 6.35138 48.3339 5.93974C48.274 5.52809 48.3691 5.10887 48.6009 4.76341C48.8326 4.41795 49.1844 4.1709 49.588 4.0702C49.6769 4.24802 49.7738 4.42585 49.8903 4.65345C49.7587 4.72903 49.636 4.79482 49.5196 4.86772C49.3748 4.95158 49.2549 5.07233 49.172 5.21766C49.0891 5.36299 49.0462 5.52769 49.0478 5.69498C49.0493 5.86227 49.0952 6.02617 49.1807 6.16995C49.2663 6.31373 49.3884 6.43225 49.5347 6.51344C49.6727 6.58257 49.8249 6.61878 49.9792 6.61924C50.7563 6.62991 51.5316 6.62725 52.3087 6.62369C52.6438 6.62369 52.6901 6.57568 52.6901 6.23249C52.6931 4.95575 52.6931 3.6793 52.6901 2.40315V1.97461H53.3916C53.4013 2.11864 53.4165 2.26001 53.4165 2.39959C53.4165 3.64433 53.4165 4.88906 53.4165 6.13379C53.4165 6.60501 53.4325 6.61924 53.9019 6.61924C55.9107 6.61924 57.9198 6.61924 59.9291 6.61924C59.9958 6.61924 60.0625 6.61924 60.1274 6.61924C60.3372 6.60235 60.3941 6.54367 60.4128 6.33117C60.4172 6.25382 60.4128 6.17469 60.4128 6.09734V3.71723H60.4217Z" fill="white"/>
<path d="M39.0187 7.3635C38.9904 7.77066 38.8124 8.15294 38.519 8.43664C38.2583 8.69979 37.9043 8.84933 37.5339 8.85273C37.2147 8.85273 36.8946 8.85273 36.5506 8.85273V8.13434C36.8591 8.13434 37.1445 8.13878 37.4299 8.13434C37.5974 8.13983 37.7625 8.09305 37.9022 8.00049C38.0419 7.90793 38.1494 7.77417 38.2096 7.61778C38.2306 7.54185 38.2419 7.46359 38.2434 7.38483C38.11 7.3786 37.9953 7.37061 37.8789 7.36438C37.6246 7.35194 37.3667 7.36439 37.116 7.32705C36.7442 7.27776 36.4025 7.09631 36.1533 6.81585C35.9042 6.53539 35.7643 6.17466 35.7593 5.79958C35.753 5.56664 35.7513 5.33458 35.7593 5.09986C35.7793 4.68185 35.9604 4.28783 36.2645 4.00035C36.5686 3.71286 36.9722 3.55422 37.3907 3.55767C37.8092 3.56112 38.2101 3.72638 38.5094 4.01884C38.8088 4.3113 38.9833 4.70825 38.9965 5.12653C39.0071 5.50173 38.9965 5.88049 38.9965 6.25746C38.9965 6.36593 39.0089 6.47351 39.0169 6.60332C39.144 6.61132 39.2508 6.62377 39.3601 6.62377C40.6351 6.62377 41.9094 6.62377 43.1832 6.62377C43.25 6.62557 43.3168 6.62349 43.3833 6.61755C43.594 6.5971 43.65 6.54286 43.6722 6.32948C43.6784 6.24071 43.6799 6.15167 43.6767 6.06274C43.6767 5.41904 43.6767 4.77534 43.6767 4.13163C43.6767 4.01338 43.6855 3.89425 43.6918 3.76266C43.9126 3.69319 44.149 3.69102 44.371 3.75644C44.3799 3.84534 44.396 3.93425 44.396 4.01872C44.396 4.77267 44.4004 5.53018 44.396 6.28146C44.3957 6.43649 44.3733 6.59069 44.3293 6.73935C44.2884 6.88504 44.2071 7.01617 44.0947 7.11751C43.9824 7.21886 43.8436 7.28628 43.6945 7.31194C43.5214 7.34619 43.3454 7.36346 43.169 7.3635C41.9243 7.36647 40.6813 7.36647 39.4401 7.3635H39.0187ZM38.2398 6.60332C38.2571 6.52209 38.269 6.43983 38.2754 6.35704C38.271 5.92583 38.2834 5.49195 38.2443 5.06341C38.2226 4.84539 38.1172 4.6443 37.9502 4.5025C37.7832 4.3607 37.5676 4.28926 37.349 4.30323C37.1308 4.30657 36.9216 4.39067 36.7618 4.53929C36.602 4.68791 36.503 4.89049 36.4839 5.10786C36.4645 5.33951 36.4645 5.57237 36.4839 5.80402C36.4938 5.99446 36.5676 6.176 36.6935 6.31927C36.8193 6.46255 36.9898 6.55917 37.1774 6.59353C37.5325 6.61688 37.8888 6.61986 38.2443 6.60243" fill="white"/>
<path d="M49.1991 51.46V46.5922C49.3057 46.5833 49.3911 46.5708 49.4782 46.5708C49.9761 46.5708 50.4758 46.562 50.9755 46.5708C51.1745 46.5731 51.3723 46.603 51.5632 46.6598C51.7177 46.6984 51.8627 46.7685 51.9888 46.8658C52.115 46.9631 52.2197 47.0854 52.2963 47.2251C52.373 47.3648 52.4199 47.5188 52.4342 47.6775C52.4485 47.8362 52.4298 47.9961 52.3793 48.1472C52.3492 48.2721 52.2943 48.3897 52.2179 48.4931C52.1416 48.5965 52.0453 48.6835 51.9348 48.7491C51.8619 48.7971 51.7872 48.838 51.6787 48.9101C51.7605 48.9518 51.8103 48.9847 51.8637 49.0043C52.0625 49.0961 52.2339 49.2383 52.361 49.4166C52.4881 49.5949 52.5664 49.8034 52.5884 50.0213C52.6103 50.2392 52.5749 50.459 52.4859 50.6591C52.3969 50.8592 52.2572 51.0326 52.0806 51.1621C51.8768 51.2935 51.654 51.3928 51.42 51.4564C50.6809 51.5302 49.9363 51.5302 49.1973 51.4564M49.9974 50.8403C50.3912 50.9117 50.7949 50.9074 51.1871 50.8278C51.3386 50.7886 51.4725 50.6995 51.567 50.5747C51.6616 50.45 51.7113 50.297 51.7081 50.1406C51.7426 49.97 51.7183 49.7928 51.6392 49.6378C51.5601 49.4828 51.4308 49.3591 51.2724 49.287C50.8548 49.1797 50.4174 49.1748 49.9974 49.2728V50.8403ZM50.0063 48.6424C50.2731 48.6424 50.5229 48.6487 50.7745 48.6424C50.9171 48.64 51.0587 48.6175 51.1951 48.5758C51.3391 48.5284 51.4618 48.4319 51.5418 48.3032C51.6217 48.1744 51.6539 48.0216 51.6325 47.8716C51.6404 47.7311 51.5992 47.5922 51.516 47.4786C51.4328 47.3651 51.3128 47.284 51.1764 47.2492C50.7827 47.176 50.3802 47.1619 49.9823 47.2074C49.9823 47.6413 49.9823 48.0281 49.9823 48.4139C49.9823 48.478 49.9948 48.5411 50.0055 48.6433" fill="white"/>
<path d="M29.4062 51.4669V46.6356C29.4391 46.6107 29.456 46.5893 29.4729 46.5893C30.106 46.5893 30.7399 46.5378 31.3685 46.5893C31.7776 46.6079 32.1706 46.7544 32.492 47.0082C32.8134 47.262 33.0471 47.6102 33.16 48.0039C33.3926 48.6696 33.3926 49.3946 33.16 50.0604C33.0429 50.4586 32.803 50.8098 32.4746 51.0638C32.1462 51.3178 31.7461 51.4616 31.3311 51.4749C30.7577 51.5185 30.1753 51.4963 29.6019 51.5016C29.5368 51.4952 29.4725 51.4827 29.4098 51.4642M30.2411 47.2037C30.1522 48.4121 30.1585 49.6256 30.2598 50.833C30.5776 50.8495 30.8962 50.8475 31.2138 50.8268C31.4871 50.8095 31.7477 50.7052 31.9576 50.5293C32.1675 50.3533 32.3156 50.1149 32.3803 49.8487C32.5356 49.3023 32.5325 48.7229 32.3714 48.1781C32.3179 47.9678 32.2103 47.775 32.0594 47.6191C31.9084 47.4631 31.7193 47.3493 31.5107 47.289C31.0945 47.1972 30.6665 47.1705 30.242 47.2099" fill="white"/>
<path d="M4.99831 8.8547V8.13631C5.29171 8.13631 5.56466 8.13631 5.83761 8.13631C5.9712 8.14439 6.10465 8.11884 6.22581 8.06199C6.34696 8.00514 6.45195 7.91881 6.53111 7.8109C6.6112 7.6745 6.6793 7.53141 6.73469 7.38325L6.31415 7.36636C6.05987 7.35569 5.80382 7.36636 5.5522 7.32902C5.18014 7.28134 4.83774 7.10108 4.58787 6.82132C4.33799 6.54156 4.1974 6.18107 4.19189 5.806C4.183 5.57306 4.18388 5.341 4.19189 5.10806C4.21369 4.69014 4.39656 4.29692 4.7021 4.01095C5.00763 3.72498 5.41209 3.56851 5.83053 3.57438C6.24898 3.58025 6.64887 3.748 6.94627 4.04242C7.24367 4.33685 7.41544 4.73503 7.42552 5.1534C7.43441 5.8949 7.43619 6.63908 7.42552 7.38059C7.41811 7.76716 7.26198 8.13599 6.98957 8.41038C6.71717 8.68477 6.34948 8.84359 5.96297 8.85382C5.65445 8.86271 5.34593 8.85382 4.99652 8.85382M6.68134 6.60796C6.74077 6.05362 6.73242 5.49412 6.65646 4.9418C6.60466 4.74056 6.48129 4.5651 6.30946 4.44825C6.13762 4.3314 5.92909 4.28118 5.7229 4.30698C5.51674 4.32308 5.32283 4.41117 5.17508 4.55583C5.02733 4.7005 4.93516 4.89251 4.91471 5.09828C4.89608 5.34153 4.89608 5.58585 4.91471 5.82911C4.92981 6.01869 5.00812 6.19773 5.13709 6.3375C5.26606 6.47727 5.43824 6.56969 5.626 6.59996C5.96564 6.63285 6.30881 6.60796 6.67779 6.60796" fill="white"/>
<path d="M19.6953 51.2866V46.1094C19.8367 46.1094 19.954 46.1094 20.0723 46.1094C20.1905 46.1094 20.291 46.1174 20.4279 46.1236C20.5008 46.7033 20.4128 47.2794 20.4804 47.8573C20.5238 47.8498 20.5664 47.8378 20.6075 47.8218C20.8167 47.6756 21.0599 47.5858 21.3138 47.5609C21.5677 47.536 21.8238 47.5769 22.0574 47.6796C22.2909 47.7823 22.4941 47.9434 22.6474 48.1474C22.8007 48.3513 22.8988 48.5913 22.9325 48.8442C23.0484 49.3217 23.034 49.8216 22.8907 50.2917C22.7887 50.6466 22.577 50.9601 22.2858 51.1873C21.9946 51.4144 21.639 51.5435 21.2699 51.556C20.732 51.6029 20.1911 51.5111 19.6989 51.2892M20.4555 50.8687C20.5844 50.906 20.6555 50.9327 20.7302 50.9478C20.8843 50.9999 21.0483 51.0161 21.2097 50.9951C21.371 50.9741 21.5254 50.9165 21.661 50.8267C21.7967 50.7368 21.91 50.6172 21.9923 50.4768C22.0746 50.3365 22.1237 50.1792 22.1359 50.0169C22.1859 49.6902 22.1823 49.3574 22.1252 49.0318C22.1091 48.8789 22.056 48.7321 21.9707 48.6041C21.8854 48.4761 21.7704 48.3707 21.6354 48.2969C21.5005 48.2232 21.3496 48.1832 21.1959 48.1805C21.0421 48.1778 20.8899 48.2124 20.7524 48.2814C20.4937 48.3703 20.459 48.421 20.4582 48.6922C20.4582 49.2568 20.4582 49.8213 20.4582 50.3859L20.4555 50.8687Z" fill="white"/>
<path d="M41.5762 46.126H42.2874C42.3683 46.695 42.2786 47.2711 42.3435 47.8659C42.4324 47.8241 42.4982 47.7975 42.5622 47.7619C42.754 47.6479 42.9693 47.5791 43.1916 47.5607C43.414 47.5423 43.6377 47.5748 43.8456 47.6557C44.0536 47.7366 44.2404 47.8638 44.3919 48.0276C44.5434 48.1914 44.6556 48.3876 44.72 48.6012C44.9162 49.1618 44.9225 49.7714 44.7378 50.3358C44.6319 50.6838 44.4188 50.9894 44.1288 51.209C43.8388 51.4286 43.4868 51.5508 43.1232 51.5584C42.5966 51.5977 42.068 51.5159 41.578 51.3192L41.5762 46.126ZM42.3239 50.872C42.4715 50.9075 42.5764 50.9449 42.6795 50.9609C42.8286 51.0009 42.9846 51.0074 43.1365 50.98C43.2884 50.9526 43.4323 50.8919 43.558 50.8023C43.6836 50.7128 43.7879 50.5965 43.8634 50.4619C43.9389 50.3273 43.9837 50.1777 43.9945 50.0238C44.0467 49.6742 44.0373 49.3183 43.9669 48.972C43.9412 48.8205 43.8794 48.6774 43.7868 48.5548C43.6942 48.4323 43.5734 48.3337 43.4348 48.2676C43.2961 48.2014 43.1435 48.1696 42.99 48.1747C42.8364 48.1799 42.6863 48.2219 42.5524 48.2971C42.4784 48.3205 42.4148 48.3686 42.3722 48.4334C42.3296 48.4982 42.3107 48.5756 42.3186 48.6528C42.331 48.9649 42.3186 49.2752 42.3186 49.5837L42.3239 50.872Z" fill="white"/>
<path d="M15.8475 50.3466C15.7391 50.6649 15.6431 50.9468 15.5417 51.226C15.4403 51.5051 15.4412 51.5034 15.1354 51.5078C15.0251 51.5078 14.914 51.5078 14.8038 51.5016C14.7732 51.497 14.7433 51.4886 14.7148 51.4767C14.7291 51.2349 16.2672 47.0143 16.5001 46.5867C16.5891 46.5867 16.6877 46.576 16.7873 46.5742C16.9856 46.5742 17.1848 46.5742 17.4097 46.5742C17.9974 48.2075 18.5806 49.8283 19.1825 51.5051C18.9016 51.5051 18.674 51.5051 18.4446 51.5051C18.3237 51.5051 18.2819 51.4162 18.249 51.3131C18.1681 51.0606 18.0765 50.809 17.9992 50.5565C17.9592 50.4249 17.8969 50.3466 17.7449 50.3484C17.1225 50.3529 16.5055 50.3484 15.8511 50.3484M16.0725 49.6905H17.7146C17.4586 48.8859 17.2007 48.1132 16.9358 47.3433L16.8691 47.3522C16.6068 48.1204 16.3445 48.8876 16.0689 49.6896" fill="white"/>
<path d="M0.0252506 5.08596H0.748102C0.756104 5.21132 0.768533 5.32956 0.768533 5.44159C0.768533 5.96438 0.764092 6.48539 0.772983 7.0064C0.780332 7.19638 0.845829 7.37951 0.960635 7.53105C1.07544 7.68259 1.23403 7.79521 1.41492 7.8537C1.5961 7.91294 1.79126 7.91412 1.97313 7.85705C2.15501 7.79999 2.31451 7.68753 2.42937 7.5354C2.51602 7.40844 2.57646 7.26548 2.60718 7.11487C2.63606 6.95117 2.6471 6.78483 2.64009 6.61876C2.64009 5.2211 2.64009 3.82315 2.64009 2.4249V1.97412H3.3398C3.34869 2.08259 3.36115 2.18039 3.36115 2.27641C3.36115 3.82877 3.3656 5.38291 3.36115 6.93616C3.36972 7.34475 3.22764 7.74221 2.96202 8.0528C2.69641 8.3634 2.32582 8.5654 1.92085 8.62033C1.51588 8.67527 1.10485 8.57928 0.766091 8.35067C0.427334 8.12206 0.184528 7.77681 0.0839394 7.38071C0.000754015 6.61966 -0.0206462 5.85312 0.0199326 5.08861" fill="white"/>
<path d="M37.1726 51.4839H36.4534C36.4471 51.347 36.4382 51.2385 36.4365 51.1283C36.4365 50.4953 36.4365 49.864 36.4365 49.2328C36.4398 49.0886 36.4315 48.9444 36.4116 48.8015C36.4087 48.7119 36.387 48.6239 36.3478 48.5432C36.3087 48.4625 36.2531 48.3909 36.1845 48.3331C36.1159 48.2754 36.0359 48.2327 35.9497 48.2078C35.8636 48.183 35.7731 48.1766 35.6843 48.189C35.5515 48.1907 35.4196 48.2104 35.2922 48.2476C34.8983 48.3668 34.8645 48.4201 34.8645 48.8327C34.8645 49.5848 34.8645 50.3441 34.8645 51.0945C34.8645 51.2137 34.8539 51.3337 34.8459 51.4804H34.1542C34.0839 51.2137 34.0706 46.5352 34.1373 46.1289C34.2368 46.1245 34.3435 46.1147 34.4502 46.112C34.5569 46.1094 34.6672 46.112 34.8174 46.112V47.9249C34.9739 47.852 35.0673 47.8102 35.1589 47.7649C35.5265 47.5745 35.9507 47.5237 36.3529 47.6217C36.5451 47.6592 36.7219 47.7529 36.8609 47.8909C36.9998 48.0289 37.0947 48.205 37.1335 48.397C37.1765 48.5575 37.1995 48.7226 37.202 48.8887C37.21 49.664 37.2082 50.441 37.202 51.2172C37.1977 51.3066 37.1885 51.3956 37.1744 51.4839" fill="white"/>
<path d="M61.6315 51.4795H60.9354C60.866 51.2332 60.8393 46.7157 60.9042 46.1387H61.644V49.3056C61.7622 49.1954 61.8289 49.1492 61.8796 49.0869C62.2103 48.6833 62.542 48.2823 62.8576 47.8706C62.9042 47.7896 62.9737 47.7242 63.0574 47.6826C63.1411 47.641 63.2352 47.625 63.3279 47.6368C63.4987 47.6486 63.67 47.6501 63.8409 47.6412C63.7122 47.8585 63.5591 48.0604 63.3848 48.2432C63.2346 48.4343 63.0745 48.6184 62.918 48.806C62.7616 48.9936 62.6095 49.1794 62.4451 49.3785C62.8185 49.8533 63.1643 50.3139 63.5351 50.754C63.6622 50.8636 63.8037 50.9554 63.9556 51.0269V51.5061C63.7603 51.5591 63.5534 51.5511 63.3627 51.4833C63.1721 51.4154 63.0067 51.291 62.8887 51.1265C62.5695 50.7291 62.2663 50.3183 61.9578 49.912C61.8843 49.8118 61.7976 49.7221 61.7 49.6453C61.6111 50.2516 61.6795 50.8553 61.6298 51.4768" fill="white"/>
<path d="M55.1948 49.3104C55.2102 49.2662 55.2227 49.221 55.2322 49.1752C55.2847 48.3964 54.993 48.1145 54.2115 48.1972C53.9741 48.2248 53.7403 48.2861 53.4531 48.343C53.4424 48.1884 53.4451 48.0331 53.4611 47.8789C53.4771 47.8405 53.5013 47.806 53.532 47.7779C53.5627 47.7498 53.5992 47.7287 53.6389 47.7162C54.1233 47.5477 54.6456 47.5203 55.145 47.6371C55.3884 47.6822 55.6077 47.8125 55.7638 48.0045C55.9198 48.1966 56.0024 48.4379 55.9968 48.6853C56.0119 49.2063 56.003 49.7291 56.0048 50.2501C56.0048 50.3266 56.0048 50.4039 56.0048 50.4813C56.011 50.8689 56.0439 50.9125 56.4085 51.0041C56.4191 51.0228 56.4378 51.0414 56.4378 51.0619C56.4334 51.2201 56.5374 51.4389 56.3489 51.5064C56.2209 51.5628 56.0803 51.5842 55.9413 51.5686C55.8023 51.553 55.6699 51.5009 55.5576 51.4175C55.4681 51.339 55.3851 51.2534 55.3096 51.1615C55.1482 51.3152 54.9536 51.4298 54.7408 51.4962C54.528 51.5627 54.3028 51.5793 54.0826 51.5447C53.8476 51.5344 53.6231 51.4438 53.4469 51.288C53.2706 51.1321 53.1532 50.9205 53.1144 50.6885C53.0647 50.4524 53.0976 50.2065 53.2077 49.9918C53.3178 49.7772 53.4983 49.6069 53.719 49.5095C54.012 49.3754 54.3302 49.3051 54.6525 49.3033C54.8303 49.297 55.0081 49.3033 55.2002 49.3033M55.2402 49.8367C54.8928 49.749 54.5265 49.7745 54.1946 49.9096C54.0927 49.9566 54.0075 50.0337 53.9507 50.1305C53.8938 50.2273 53.8678 50.3391 53.8763 50.4511C53.875 50.5632 53.9103 50.6726 53.9769 50.7628C54.0435 50.853 54.1378 50.919 54.2453 50.9507C54.3837 50.994 54.5298 51.0072 54.6737 50.9896C54.8177 50.972 54.9562 50.9239 55.0801 50.8485C55.1298 50.8242 55.1714 50.7862 55.1999 50.7388C55.2285 50.6915 55.2428 50.637 55.2411 50.5818C55.2366 50.3382 55.2411 50.0963 55.2411 49.8376" fill="white"/>
<path d="M38.1244 47.7684C38.6531 47.5592 39.2327 47.5149 39.7871 47.6412C40.0091 47.6777 40.2119 47.7893 40.3618 47.9572C40.5116 48.1251 40.5993 48.3393 40.6104 48.5641C40.6521 49.1162 40.6441 49.6719 40.6566 50.2249C40.6566 50.3138 40.6566 50.4027 40.6566 50.4917C40.6566 50.8962 40.6708 50.9104 41.0629 51.0189C41.0629 51.0891 41.0753 51.1647 41.0753 51.2403C41.0753 51.3158 41.0656 51.3941 41.0602 51.4634C40.8747 51.5663 40.6572 51.5949 40.4514 51.5436C40.2456 51.4923 40.067 51.3648 39.9515 51.1869L39.7435 51.3283C39.5524 51.4528 39.3354 51.532 39.1091 51.5598C38.8827 51.5877 38.653 51.5636 38.4374 51.4892C38.242 51.4378 38.0683 51.3248 37.9422 51.1669C37.8162 51.0089 37.7444 50.8145 37.7377 50.6126C37.7052 50.4136 37.7336 50.2094 37.8191 50.0268C37.9046 49.8442 38.0433 49.6917 38.2169 49.5892C38.5459 49.4014 38.9192 49.3051 39.298 49.31C39.4759 49.302 39.6483 49.31 39.8235 49.31C39.9036 49.0675 39.8964 48.8045 39.803 48.5668C39.7744 48.4696 39.7162 48.3837 39.6365 48.3211C39.5569 48.2585 39.4597 48.2222 39.3585 48.2173C39.0726 48.2126 38.7866 48.2257 38.5023 48.2565C38.3742 48.2779 38.2481 48.31 38.1253 48.3525L38.1244 47.7684ZM39.8706 49.8239C39.5246 49.7433 39.162 49.7745 38.8348 49.9129C38.726 49.9587 38.6354 50.0393 38.5774 50.1421C38.5193 50.2449 38.4969 50.3641 38.5139 50.481C38.5144 50.588 38.5492 50.692 38.6133 50.7778C38.6773 50.8636 38.7671 50.9266 38.8695 50.9575C39.0066 51.0047 39.1526 51.0203 39.2966 51.003C39.4405 50.9858 39.5787 50.9362 39.7008 50.858C39.7828 50.8068 39.8413 50.7253 39.8635 50.6312C39.884 50.369 39.8715 50.1058 39.8715 49.8311" fill="white"/>
<path d="M25.9586 47.6558H26.6396C26.72 48.9153 26.7298 50.1783 26.669 51.4389C26.2591 51.5864 26.0466 51.5393 25.8688 51.245C25.5124 51.492 25.0793 51.6031 24.6481 51.558C24.401 51.5565 24.1628 51.4656 23.9775 51.3022C23.7922 51.1388 23.6722 50.9138 23.6398 50.6689C23.6123 50.5504 23.5962 50.4295 23.5918 50.3079C23.5874 49.4873 23.5918 48.6649 23.5918 47.846C23.5956 47.7864 23.6028 47.727 23.6131 47.6682H24.3333C24.3395 47.7802 24.3502 47.8851 24.3502 47.9936C24.3502 48.6373 24.3502 49.2792 24.3502 49.9229C24.3502 50.0225 24.3502 50.123 24.3547 50.2226C24.3483 50.3403 24.3705 50.4578 24.4195 50.565C24.4686 50.6722 24.5429 50.7659 24.6361 50.838C24.7293 50.9102 24.8386 50.9586 24.9547 50.9792C25.0708 50.9997 25.1901 50.9918 25.3024 50.9561C25.3567 50.9454 25.4091 50.9267 25.4633 50.9107C25.8963 50.78 25.9284 50.7329 25.9284 50.2884C25.9284 49.5344 25.9284 48.7802 25.9284 48.0256C25.9284 47.9065 25.9435 47.7882 25.9533 47.6593" fill="white"/>
<path d="M60.024 51.4785H59.3011C59.2949 51.3531 59.286 51.2348 59.2842 51.1175C59.2842 50.4827 59.2842 49.8514 59.2842 49.2193C59.2881 49.0976 59.2833 48.9758 59.27 48.8547C59.2713 48.7534 59.2497 48.6531 59.2068 48.5614C59.1639 48.4696 59.1008 48.3887 59.0222 48.3247C58.9436 48.2608 58.8516 48.2154 58.753 48.192C58.6544 48.1686 58.5519 48.1678 58.4529 48.1897C58.3316 48.1994 58.2121 48.2248 58.0973 48.2653C57.7265 48.3924 57.7123 48.4155 57.7123 48.8112C57.7123 49.5758 57.7123 50.344 57.7123 51.1086C57.7123 51.2277 57.6981 51.346 57.6892 51.4873H57.0126C56.9198 50.2174 56.9068 48.9429 56.9735 47.6714H57.6385C57.6616 47.7291 57.6945 47.8047 57.7328 47.899C57.8475 47.8412 57.9417 47.7905 58.0413 47.7451C58.4031 47.5691 58.8151 47.5251 59.206 47.6207C59.3981 47.6599 59.5744 47.7549 59.7126 47.894C59.8509 48.033 59.945 48.2098 59.9831 48.4022C60.0233 48.5519 60.0451 48.706 60.048 48.861C60.0542 49.6709 60.0524 50.48 60.048 51.2917C60.0432 51.3541 60.0349 51.4161 60.0231 51.4776" fill="white"/>
<path d="M0.834872 51.4883H0.0889308C0.00175722 49.8551 -0.000916016 48.2185 0.0809265 46.585H2.86201V47.2073H0.85354V48.5988C1.43945 48.6681 2.02626 48.5908 2.63173 48.6468V49.2176H0.837558L0.834872 51.4883Z" fill="white"/>
<path d="M8.27344 7.34595V6.64355C8.41303 6.63733 8.53216 6.62666 8.65219 6.62666C9.21676 6.62666 9.78313 6.62666 10.3477 6.62666C10.4807 6.6294 10.6137 6.62435 10.746 6.61155C10.8475 6.60982 10.9448 6.57125 11.0199 6.50303C11.095 6.43481 11.1427 6.34161 11.1541 6.24081C11.1766 6.09938 11.1877 5.95636 11.187 5.81315C11.187 4.66977 11.187 3.52817 11.187 2.38835V1.97314H11.8761C11.8893 2.06481 11.8976 2.1571 11.9009 2.24964C11.9009 3.52461 11.9072 4.79957 11.9009 6.07276C11.9148 6.23115 11.8962 6.39072 11.8464 6.54171C11.7966 6.69271 11.7166 6.83197 11.6112 6.95101C11.5058 7.07006 11.3772 7.1664 11.2334 7.23415C11.0895 7.30189 10.9334 7.33962 10.7745 7.34505C10.6423 7.36129 10.5093 7.36901 10.3761 7.36817C9.80089 7.36817 9.22032 7.36817 8.64863 7.36817C8.52949 7.36817 8.40947 7.35573 8.27344 7.34773" fill="white"/>
<path d="M9.94409 47.7374V48.2993C9.75267 48.2513 9.55849 48.2151 9.36262 48.1908C9.13283 48.1739 8.90189 48.181 8.67358 48.2122C8.58358 48.223 8.50044 48.2657 8.43926 48.3326C8.37808 48.3995 8.34293 48.4861 8.34017 48.5767C8.3273 48.6653 8.34379 48.7557 8.38714 48.8341C8.43049 48.9124 8.4983 48.9744 8.58022 49.0106C8.69918 49.0703 8.8215 49.1232 8.94654 49.1688C9.12436 49.2373 9.30218 49.2898 9.47555 49.3689C9.70029 49.458 9.89018 49.6174 10.0169 49.8233C10.1435 50.0292 10.2002 50.2706 10.1784 50.5114C10.1566 50.7521 10.0575 50.9794 9.89587 51.1592C9.73426 51.339 9.5188 51.4617 9.28171 51.5089C8.72372 51.6294 8.14244 51.5799 7.6129 51.3667V50.8039C7.79616 50.8556 7.9819 50.8981 8.16945 50.931C8.41168 50.9559 8.65502 50.9683 8.89851 50.9684C8.97574 50.9625 9.05132 50.943 9.12168 50.9106C9.21177 50.8795 9.28993 50.8211 9.34523 50.7435C9.40054 50.6658 9.43022 50.5729 9.43019 50.4776C9.44009 50.3881 9.42145 50.2978 9.3769 50.2195C9.33234 50.1413 9.26416 50.0791 9.18213 50.0419C9.00432 49.953 8.81316 49.8935 8.63 49.817C8.45231 49.7536 8.27964 49.6769 8.11345 49.5876C7.92309 49.4801 7.77221 49.3145 7.68293 49.1149C7.59364 48.9154 7.57065 48.6925 7.61735 48.4789C7.64251 48.2724 7.73346 48.0794 7.87676 47.9286C8.02007 47.7778 8.20811 47.6771 8.41308 47.6414C8.92164 47.5208 9.45457 47.5542 9.94409 47.7374Z" fill="white"/>
<path d="M10.4102 48.172V47.6653C10.5746 47.6501 10.7249 47.6377 10.9161 47.6217C10.9721 47.291 11.0263 46.9593 11.085 46.6152H11.6896V47.6208C11.9954 47.6333 12.2666 47.6457 12.5582 47.6599V48.1934H11.7162C11.7073 48.3303 11.6949 48.4352 11.6949 48.541C11.6949 49.1163 11.6949 49.6968 11.6949 50.2703C11.6949 50.874 11.8931 51.0287 12.5031 50.9247C12.5449 50.9185 12.592 50.9247 12.6631 50.9167V51.4688C12.243 51.6285 11.777 51.6173 11.365 51.4377C11.218 51.3558 11.0984 51.2323 11.0214 51.0826C10.9443 50.933 10.9132 50.7639 10.932 50.5966C10.924 49.9742 10.9321 49.3519 10.9276 48.7357V48.2298C10.74 48.2094 10.5897 48.1961 10.411 48.1756" fill="white"/>
<path d="M12.7422 7.30186V1.96729H13.3814C13.4704 2.20645 13.5059 6.33541 13.4277 7.26718C13.3249 7.32844 13.2086 7.36348 13.089 7.36922C12.9695 7.37495 12.8504 7.35121 12.7422 7.30008" fill="white"/>
<path d="M45.917 1.97559H45.2422V7.3395H45.917V1.97559Z" fill="white"/>
<path d="M6.01106 47.9754C6.16334 47.819 6.35244 47.7032 6.56105 47.6388C6.76966 47.5743 6.99112 47.5632 7.20513 47.6065C7.28443 47.8168 7.29255 48.0473 7.22825 48.2626C7.11631 48.2563 7.00409 48.2563 6.89215 48.2626C6.71609 48.2698 6.5415 48.2979 6.37204 48.3462C6.0164 48.4707 5.97195 48.548 5.97017 48.9294V51.4767H5.25356C5.17856 50.2037 5.16936 48.9276 5.22599 47.6536C5.33624 47.6491 5.4536 47.6411 5.57007 47.6385C5.68654 47.6358 5.79056 47.6385 5.9177 47.6385C5.94526 47.7425 5.97194 47.8341 6.00661 47.9737" fill="white"/>
<path d="M46.2388 51.4869C46.1072 51.4958 46.0095 51.5056 45.9099 51.5082C45.789 51.5082 45.6698 51.5082 45.5596 51.5082C45.4715 50.231 45.457 48.9498 45.516 47.6709H46.2388V51.4869Z" fill="white"/>
<path d="M3.60107 47.6582H4.25099C4.33876 48.9308 4.34709 50.2077 4.2759 51.4813H3.61263C3.53293 50.2083 3.53025 48.9316 3.60462 47.6582" fill="white"/>
<path d="M10.0899 6.2111H9.40435C9.32577 5.00731 9.31687 3.79997 9.37767 2.59515C9.59507 2.51538 9.83203 2.50574 10.0552 2.56758C10.0967 3.16738 10.107 3.76892 10.0863 4.36979C10.0952 4.97348 10.0863 5.57985 10.0863 6.2111" fill="white"/>
<path d="M51.837 3.8135L51.5916 3.93264C51.5589 3.89345 51.5292 3.85184 51.5028 3.80817C51.4914 3.77664 51.4738 3.74767 51.4512 3.72294C51.4285 3.69821 51.4012 3.67821 51.3708 3.66408C51.3404 3.64995 51.3075 3.64197 51.274 3.64061C51.2405 3.63925 51.207 3.64451 51.1756 3.65613C51.1171 3.67518 51.0672 3.71424 51.0347 3.76644C51.0021 3.81864 50.9891 3.88064 50.9977 3.94153V4.33363H51.8433C51.8522 4.45899 51.8584 4.55056 51.87 4.68926C51.3614 4.70615 50.8831 4.70437 50.3869 4.68926C50.3781 4.57457 50.3683 4.491 50.3594 4.39142C50.4483 4.3603 50.5301 4.33273 50.611 4.30251C50.624 4.27221 50.6339 4.24062 50.6403 4.20826C50.6448 4.11935 50.6403 4.03044 50.6466 3.94153C50.636 3.78478 50.6851 3.62985 50.7841 3.50782C50.883 3.38579 51.0245 3.30569 51.18 3.28361C51.2586 3.2715 51.3388 3.27571 51.4156 3.29601C51.4925 3.3163 51.5643 3.35224 51.6266 3.40155C51.689 3.45087 51.7405 3.51251 51.7779 3.58262C51.8153 3.65274 51.8379 3.72982 51.8442 3.80905" fill="white"/>
<path d="M44.8535 1.42057V1.12449C44.9309 1.10138 45.0038 1.08093 45.0784 1.06049C45.0906 1.02879 45.0998 0.996051 45.106 0.962684C45.1122 0.873775 45.106 0.784862 45.1122 0.695953C45.1035 0.54521 45.1515 0.396651 45.2467 0.279501C45.342 0.162351 45.4777 0.0850858 45.627 0.0629118C45.9827 0.0131224 46.1685 0.142038 46.3107 0.537686C46.2938 0.558135 46.2769 0.591931 46.2503 0.604379C46.1925 0.631052 46.1294 0.646164 46.0582 0.671058C46.0147 0.6106 45.9764 0.559032 45.9373 0.510132C45.8617 0.41411 45.7595 0.349203 45.6501 0.415886C45.5633 0.476377 45.5003 0.565416 45.4723 0.667504C45.4534 0.801542 45.4508 0.937351 45.4643 1.07203H46.3081C46.3187 1.20717 46.3267 1.29964 46.3356 1.41967L44.8535 1.42057Z" fill="white"/>
<path d="M10.4373 1.1638L10.2079 1.27849C10.1667 1.23654 10.129 1.19134 10.095 1.14335C10.0695 1.0874 10.0249 1.04241 9.96911 1.01648C9.91335 0.990563 9.85017 0.985419 9.79096 1.00198C9.72704 1.02256 9.67208 1.06438 9.63521 1.1205C9.59834 1.17662 9.58177 1.24366 9.58824 1.3105C9.58824 1.41897 9.58824 1.52567 9.58824 1.66614H10.4462C10.4551 1.80395 10.4613 1.91153 10.4675 2.03334H9.01566C8.91608 1.74794 8.91608 1.74793 9.23438 1.63768C9.24238 1.50699 9.24684 1.36652 9.25573 1.22693C9.25899 1.07615 9.31806 0.931943 9.42154 0.822226C9.52501 0.712509 9.66551 0.645087 9.81584 0.633013C10.1288 0.603673 10.3493 0.780604 10.4382 1.16203" fill="white"/>
<path d="M46.3725 46.435C46.3659 46.5581 46.3132 46.6743 46.2249 46.7603C46.1366 46.8464 46.0191 46.896 45.8958 46.8994C45.7725 46.9027 45.6525 46.8596 45.5596 46.7785C45.4667 46.6973 45.4078 46.5842 45.3945 46.4616C45.4011 46.3385 45.4538 46.2224 45.5421 46.1363C45.6305 46.0503 45.748 46.0006 45.8712 45.9973C45.9945 45.9939 46.1145 46.037 46.2074 46.1182C46.3003 46.1993 46.3592 46.3124 46.3725 46.435Z" fill="white"/>
<path d="M3.46504 46.4052C3.46786 46.3415 3.484 46.2791 3.51239 46.2221C3.54078 46.1651 3.58082 46.1146 3.6299 46.074C3.67899 46.0333 3.73602 46.0035 3.79737 45.9862C3.85871 45.969 3.92299 45.9648 3.98605 45.9739C4.04933 45.9777 4.11121 45.9942 4.16803 46.0223C4.22486 46.0504 4.27548 46.0896 4.31691 46.1376C4.35834 46.1855 4.38975 46.2413 4.40927 46.3016C4.4288 46.362 4.43605 46.4256 4.4306 46.4887C4.41539 46.617 4.35161 46.7346 4.25239 46.8172C4.15316 46.8999 4.02604 46.9414 3.89714 46.9333C3.83374 46.9277 3.77209 46.9096 3.71575 46.88C3.65942 46.8504 3.60953 46.8099 3.56899 46.7608C3.52845 46.7118 3.49807 46.6551 3.47961 46.5942C3.46116 46.5333 3.455 46.4694 3.46149 46.4061" fill="white"/>
<path d="M29.1347 8.10059H28.4883V8.75496H29.1347V8.10059Z" fill="white"/>
<path d="M61.1016 2.17285H60.4668V2.83167H61.1016V2.17285Z" fill="white"/>
<path d="M19.2717 9.07324H18.6387V9.71961H19.2717V9.07324Z" fill="white"/>
<path d="M18.122 9.07227H17.4863V9.72219H18.122V9.07227Z" fill="white"/>
<path d="M63.4483 8.10205H62.834V8.7582H63.4483V8.10205Z" fill="white"/>
<path d="M43.2539 8.0918H43.8496C43.9159 8.30977 43.9202 8.54189 43.862 8.76217H43.2539V8.0918Z" fill="white"/>
<path d="M32.7642 2.16943H33.3866V2.83448H32.8051C32.7373 2.61952 32.7224 2.39139 32.7615 2.16943" fill="white"/>
<path d="M42.324 50.8722V49.5804C42.324 49.2719 42.3329 48.958 42.324 48.6495C42.3161 48.5724 42.3351 48.4949 42.3777 48.4301C42.4203 48.3653 42.4839 48.3172 42.5578 48.2939C42.6918 48.2186 42.8418 48.1766 42.9954 48.1714C43.149 48.1663 43.3015 48.1981 43.4402 48.2643C43.5789 48.3305 43.6996 48.429 43.7922 48.5516C43.8848 48.6742 43.9466 48.8172 43.9724 48.9687C44.0428 49.315 44.0521 49.671 43.9999 50.0205C43.9891 50.1744 43.9443 50.3241 43.8689 50.4587C43.7934 50.5933 43.6891 50.7095 43.5634 50.7991C43.4377 50.8886 43.2938 50.9493 43.1419 50.9767C42.9901 51.0041 42.834 50.9976 42.685 50.9576C42.5792 50.9425 42.4743 50.9051 42.3293 50.8687" fill="white"/>
<path d="M55.2296 49.8411C55.2296 50.0998 55.2296 50.3426 55.2296 50.5853C55.2313 50.6405 55.217 50.6951 55.1885 50.7424C55.1599 50.7897 55.1183 50.8278 55.0687 50.852C54.9448 50.9274 54.8063 50.9755 54.6623 50.9931C54.5183 51.0108 54.3723 50.9975 54.2338 50.9543C54.1263 50.9225 54.0321 50.8565 53.9655 50.7664C53.8989 50.6762 53.8636 50.5667 53.8649 50.4546C53.8564 50.3427 53.8823 50.2308 53.9392 50.134C53.9961 50.0372 54.0812 49.9602 54.1832 49.9131C54.515 49.7781 54.8813 49.7525 55.2287 49.8402" fill="white"/>
<path d="M39.8729 49.8229C39.8729 50.1003 39.8854 50.3644 39.8649 50.6231C39.8427 50.7172 39.7843 50.7987 39.7022 50.8498C39.5802 50.928 39.4419 50.9776 39.298 50.9949C39.154 51.0121 39.008 50.9966 38.8709 50.9494C38.7685 50.9184 38.6787 50.8554 38.6147 50.7696C38.5507 50.6839 38.5158 50.5798 38.5153 50.4728C38.4983 50.356 38.5207 50.2368 38.5788 50.134C38.6369 50.0312 38.7274 49.9505 38.8363 49.9047C39.1634 49.7663 39.5261 49.7352 39.872 49.8158" fill="white"/>
</svg>
