<svg width="160" height="60" viewBox="0 0 160 60" fill="none" xmlns="http://www.w3.org/2000/svg">
<path d="M79.7461 26.4219C79.7461 26.1989 79.7461 2.06592 79.7461 2.06592C82.2761 3.99392 87.6231 7.09593 87.6231 14.4299C87.6231 21.4589 82.2101 24.7489 80.3451 26.0139C80.1344 26.1334 79.9337 26.2699 79.7451 26.4219" fill="white"/>
<path d="M79.7464 2.06592V26.4219C79.1744 25.8149 71.8594 22.4979 71.8594 14.4299C71.8594 7.09593 77.2934 3.92992 79.7464 2.06592Z" fill="white"/>
<path d="M79.7508 27.643C77.7638 25.994 70.9758 22.552 70.9758 14.307C70.9758 6.06201 77.7638 2.62 79.7508 0.966003V0C77.6508 1.748 70.0928 5.60501 70.0928 14.307C70.0928 23.009 77.6488 26.877 79.7508 28.623V27.643Z" fill="white"/>
<path d="M79.754 27.643C81.754 25.994 88.548 22.552 88.548 14.307C88.548 6.06201 81.755 2.62 79.748 0.966003V0C81.878 1.748 89.434 5.60501 89.434 14.307C89.434 23.009 81.878 26.877 79.759 28.623L79.754 27.643Z" fill="white"/>
<path d="M64.7285 58.3179C64.8929 58.3179 65.028 58.3008 65.1338 58.2666C65.3226 58.2031 65.4772 58.0811 65.5977 57.9004C65.6937 57.7555 65.7629 57.57 65.8052 57.3438C65.8296 57.2087 65.8418 57.0833 65.8418 56.9678C65.8418 56.5234 65.7531 56.1784 65.5757 55.9326C65.3999 55.6868 65.1159 55.564 64.7236 55.564H63.8618V58.3179H64.7285ZM63.3735 55.1465H64.8262C65.3193 55.1465 65.7018 55.3215 65.9736 55.6714C66.2161 55.9871 66.3374 56.3916 66.3374 56.8848C66.3374 57.2656 66.2658 57.6099 66.1226 57.9175C65.8703 58.4611 65.4365 58.7329 64.8213 58.7329H63.3735V55.1465ZM68.5127 55.0488C69.1458 55.0488 69.6146 55.2523 69.9189 55.6592C70.1566 55.9766 70.2754 56.3826 70.2754 56.8774C70.2754 57.4129 70.1395 57.8581 69.8677 58.2129C69.5487 58.6296 69.0938 58.8379 68.5029 58.8379C67.9512 58.8379 67.5174 58.6556 67.2017 58.291C66.9201 57.9395 66.7793 57.4951 66.7793 56.958C66.7793 56.473 66.8997 56.0579 67.1406 55.7129C67.4499 55.2702 67.9072 55.0488 68.5127 55.0488ZM68.5615 58.4033C68.9896 58.4033 69.2988 58.2503 69.4893 57.9443C69.6813 57.6367 69.7773 57.2835 69.7773 56.8848C69.7773 56.4632 69.6667 56.1239 69.4453 55.8667C69.2256 55.6095 68.9245 55.481 68.542 55.481C68.1709 55.481 67.8682 55.6087 67.6338 55.8643C67.3994 56.1182 67.2822 56.4933 67.2822 56.9897C67.2822 57.3869 67.3823 57.7222 67.5825 57.9956C67.7843 58.2674 68.1107 58.4033 68.5615 58.4033ZM70.8687 55.1465H71.3594V56.6284H73.2246V55.1465H73.7153V58.7329H73.2246V57.0557H71.3594V58.7329H70.8687V55.1465ZM76.3105 57.2632L75.7661 55.6787L75.1875 57.2632H76.3105ZM75.5122 55.1465H76.0615L77.3628 58.7329H76.8306L76.4668 57.6587H75.0483L74.6602 58.7329H74.1621L75.5122 55.1465Z" fill="white"/>
<path d="M75.8818 21.511V21.2491C76.5887 21.1872 77.2423 20.8481 77.6999 20.3058C78.1574 19.7636 78.3818 19.0622 78.3239 18.3551C78.3329 18.1551 78.3328 18.037 78.3328 18.037C78.3328 18.037 78.3378 13.7371 78.3378 10.6161C78.3378 7.49506 75.8818 7.53506 75.8818 7.53506V7.26807H83.6028V7.53506C83.6028 7.53506 81.1469 7.49506 81.1469 10.6161C81.1469 13.7371 81.1518 18.037 81.1518 18.037C81.1518 18.037 81.1518 18.1561 81.1568 18.3551C81.1005 19.0625 81.326 19.7636 81.7841 20.3056C82.2422 20.8476 82.8959 21.1867 83.6028 21.2491V21.5161L75.8818 21.511Z" fill="black"/>
<path d="M95.8405 49.8747V49.5297C95.6055 49.5067 94.8725 49.5298 94.8725 48.6158V38.8528C94.8725 37.9418 95.6055 37.9688 95.8405 37.9478V37.5947H92.3545V37.9457C92.5885 37.9667 93.3225 37.9407 93.3245 38.8507V48.6167C93.3245 49.5287 92.5885 49.5047 92.3545 49.5277V49.8727L95.8405 49.8747Z" fill="white"/>
<path d="M3.70001 49.878V49.499C3.44701 49.48 2.65301 49.506 2.65201 48.52V37.27C2.65201 36.289 3.45201 36.316 3.70001 36.295V35.916H0V36.295C0.255 36.316 1.045 36.29 1.047 37.274V48.523C1.047 49.505 0.255 49.479 0 49.498V49.877L3.70001 49.878Z" fill="white"/>
<path d="M159.81 49.8747V47.8647H159.46C159.444 48.1007 159.467 48.8307 158.555 48.8347H155.454V38.8528C155.454 37.9418 156.192 37.9688 156.424 37.9478V37.5947H152.938V37.9457C153.169 37.9667 153.903 37.9407 153.904 38.8507V48.6167C153.904 49.5287 153.169 49.5047 152.938 49.5277V49.8727H159.814L159.81 49.8747Z" fill="white"/>
<path fill-rule="evenodd" clip-rule="evenodd" d="M64.3802 49.2002C65.3102 49.2002 67.4522 48.6592 67.4522 44.0412C67.4522 40.4612 65.7462 38.2411 63.5742 38.2411C62.0512 38.2411 60.3202 39.2631 60.3202 43.2411C60.3202 46.5631 61.9202 49.1971 64.3602 49.1971M63.8282 50.1252C60.1772 50.1252 58.7012 46.6181 58.7012 43.7361C58.7012 40.9461 60.1422 37.3472 63.9562 37.3472C67.1242 37.3472 69.0972 39.7091 69.0972 43.4471C69.0972 47.1851 67.0612 50.1292 63.8282 50.1292" fill="white"/>
<path d="M105.878 37.5947V37.9457C106.115 37.9667 106.846 37.9407 106.848 38.8507V47.0508L100.548 37.5938H98.4766V37.9447C98.7086 37.9657 99.4445 37.9397 99.4445 38.8497V48.6127C99.4445 49.5287 98.7106 49.5047 98.4766 49.5267V49.8717H101.516V49.5267C101.28 49.5037 100.548 49.5268 100.548 48.6158V40.4737L106.848 49.8737H107.948V38.8528C107.948 37.9418 108.684 37.9688 108.916 37.9478V37.5947H105.878Z" fill="white"/>
<path d="M128.964 37.5947V37.9457C129.198 37.9667 129.93 37.9407 129.934 38.8507V47.0508L123.634 37.5938H121.565V37.9447C121.799 37.9657 122.53 37.9397 122.535 38.8497V48.6127C122.535 49.5287 121.799 49.5047 121.565 49.5267V49.8717H124.607V49.5267C124.368 49.5037 123.637 49.5268 123.633 48.6158V40.4737L129.933 49.8737H131.039V38.8528C131.039 37.9418 131.775 37.9688 132.009 37.9478V37.5947H128.964Z" fill="white"/>
<path d="M34.987 49.8747V47.8647H34.638C34.619 48.1007 34.638 48.8307 33.731 48.8347H30.104V44.0847H33.028C33.937 44.0847 33.916 44.8207 33.933 45.0547H34.282V42.2287H33.933C33.9383 42.3453 33.9177 42.4616 33.8727 42.5693C33.8276 42.6769 33.7593 42.7732 33.6725 42.8513C33.5858 42.9293 33.4828 42.9872 33.371 43.0206C33.2592 43.0541 33.1413 43.0623 33.026 43.0447H30.102V38.6367H33.728C34.639 38.6367 34.616 39.3707 34.635 39.6047H34.984V37.5947H27.584V37.9457C27.82 37.9667 28.554 37.9407 28.554 38.8507V48.6167C28.554 49.5287 27.82 49.5047 27.584 49.5277V49.8727L34.987 49.8747Z" fill="white"/>
<path d="M118.802 49.8752V47.8652H118.453C118.432 48.1012 118.453 48.8312 117.544 48.8352H113.917V44.0852H116.843C117.755 44.0852 117.729 44.8212 117.75 45.0552H118.099V42.2292H117.75C117.756 42.3459 117.735 42.4623 117.69 42.57C117.644 42.6778 117.576 42.7741 117.489 42.8522C117.402 42.9302 117.299 42.988 117.187 43.0214C117.075 43.0548 116.957 43.0629 116.841 43.0452H113.917V38.6372H117.544C118.456 38.6372 118.432 39.3712 118.453 39.6052H118.802V37.5972H111.402V37.9482C111.636 37.9692 112.369 37.9432 112.369 38.8532V48.6192C112.369 49.5312 111.636 49.5072 111.402 49.5302V49.8752H118.802Z" fill="white"/>
<path d="M53.8551 50.018C55.0271 50.0219 56.1864 49.775 57.2551 49.294L57.6701 46.623L57.2951 46.569C57.1361 47.2945 56.7193 47.9376 56.1219 48.379C55.5246 48.8204 54.7874 49.03 54.0471 48.969C52.1021 48.969 49.4711 47.313 49.4711 42.997C49.4711 39.902 50.6711 36.697 53.5381 36.697C56.7181 36.697 57.0592 39.139 57.0862 39.506H57.4651V36.369C56.2778 36.032 55.0529 35.8452 53.8191 35.813C49.6341 35.813 47.7031 38.74 47.7031 43.049C47.7031 46.949 49.8541 50.024 53.8561 50.024" fill="white"/>
<path d="M141.625 39.6047H141.278C141.255 39.3687 141.278 38.6347 140.369 38.6347H138.238V48.6158C138.238 49.5298 138.969 49.5077 139.206 49.5267V49.8757H135.718V49.5267C135.95 49.5077 136.684 49.5268 136.69 48.6198V38.6347H134.538C133.627 38.6347 133.648 39.3687 133.631 39.6047H133.282V37.5947H141.63L141.625 39.6047Z" fill="white"/>
<path d="M148.264 45.7467L149.314 48.6198C149.638 49.5308 148.899 49.5057 148.668 49.5287V49.8737H152.1V49.5287C151.844 49.5287 151.205 49.3877 150.7 48.1037L146.884 37.5947H145.867L142.032 48.1147C141.526 49.4007 141.013 49.5277 140.759 49.5277V49.8727H143.731V49.5277C143.502 49.5047 142.758 49.5277 143.089 48.6187L144.134 45.7457L148.264 45.7467ZM146.2 40.0787L147.911 44.7787H144.485L146.2 40.0787Z" fill="white"/>
<path d="M13.3834 37.5947V37.9457C13.6174 37.9667 14.3514 37.9407 14.3534 38.8507V47.0508L8.05341 37.5938H5.98242V37.9447C6.21842 37.9657 6.95241 37.9397 6.95441 38.8497V48.6127C6.95441 49.5287 6.21842 49.5047 5.98242 49.5267V49.8717H9.02542V49.5267C8.79142 49.5037 8.05941 49.5268 8.05341 48.6158V40.4737L14.3534 49.8737H15.4534V38.8528C15.4534 37.9418 16.1894 37.9688 16.4234 37.9478V37.5947H13.3834Z" fill="white"/>
<path d="M26.0463 39.6047H25.6953C25.6763 39.3687 25.7003 38.6347 24.7903 38.6347H22.6583V48.6158C22.6583 49.5298 23.3923 49.5077 23.6263 49.5267V49.8757H20.1373V49.5267C20.3723 49.5077 21.1053 49.5268 21.1093 48.6198V38.6347H18.9553C18.0433 38.6347 18.0673 39.3687 18.0463 39.6047H17.6953V37.5947H26.0463V39.6047Z" fill="white"/>
<path d="M78.1363 37.5947V37.9457C78.3683 37.9667 79.1033 37.9407 79.1043 38.8507V47.0508L72.8043 37.5938H70.7373V37.9447C70.9713 37.9657 71.7023 37.9397 71.7053 38.8497V48.6127C71.7053 49.5287 70.9703 49.5047 70.7373 49.5267V49.8717H73.7763V49.5267C73.5403 49.5037 72.8083 49.5268 72.8043 48.6158V40.4737L79.1043 49.8737H80.2043V38.8528C80.2043 37.9418 80.9403 37.9688 81.1763 37.9478V37.5947H78.1363Z" fill="white"/>
<path d="M90.7983 39.6047H90.4493C90.4263 39.3687 90.4543 38.6347 89.5403 38.6347H87.4083V48.6158C87.4083 49.5298 88.1443 49.5077 88.3763 49.5267V49.8757H84.8893V49.5267C85.1233 49.5077 85.8563 49.5268 85.8613 48.6198V38.6347H83.7063C82.7923 38.6347 82.8163 39.3687 82.7973 39.6047H82.4443V37.5947H90.7953L90.7983 39.6047Z" fill="white"/>
<path d="M46.3361 48.9861C44.874 47.5059 43.5878 45.8616 42.5031 44.0861C43.1664 43.8127 43.7343 43.3497 44.1358 42.7551C44.5373 42.1604 44.7544 41.4606 44.7601 40.7431C44.7601 39.5181 44.0461 37.5981 40.6721 37.5981H37.2891V37.9491C37.5251 37.9701 38.2591 37.9441 38.2611 38.8541V48.6201C38.2611 49.5321 37.5231 49.5081 37.2891 49.5311V49.8761H40.7761V49.5311C40.5391 49.5081 39.8081 49.5311 39.8041 48.6191V44.4451L40.9831 44.4271C41.5271 45.2141 42.9831 47.2601 43.4341 47.9111C44.6801 49.6711 45.8001 50.0521 47.0191 50.0521C47.2623 50.0577 47.505 50.0287 47.7401 49.9661V49.6171C47.2066 49.6003 46.7013 49.3736 46.3341 48.9861M39.9821 43.5641H39.8041V38.4141H39.9941C42.3071 38.4141 43.0661 39.2551 43.0661 40.8141C43.0661 41.9551 42.4941 43.5621 39.9821 43.5621" fill="white"/>
</svg>
