<svg width="57" height="58" viewBox="0 0 57 58" fill="none" xmlns="http://www.w3.org/2000/svg">
<path d="M44.1433 21.9317C43.6022 21.7407 43.0327 21.6425 42.4589 21.6411H40.8291V29.1198H42.4589C43.3753 29.1435 44.2783 28.8971 45.0556 28.4111C45.7864 27.9443 46.1492 26.9635 46.1492 25.4915C46.1994 24.6492 45.9937 23.8114 45.5593 23.088C45.225 22.5591 44.7277 22.1533 44.1426 21.9317" fill="white"/>
<path d="M21.958 41.8841H27.0901L24.5207 36.2793L21.958 41.8841Z" fill="white"/>
<path d="M38.4323 37.9408C38.4464 37.61 38.3805 37.2808 38.2403 36.9809C38.1002 36.681 37.8898 36.4193 37.627 36.218C36.937 35.7661 36.119 35.5503 35.2958 35.603H33.3467V40.2852H35.329C36.144 40.342 36.9549 40.1281 37.6358 39.6768C37.8983 39.4727 38.1077 39.2084 38.2463 38.9062C38.385 38.604 38.4488 38.2728 38.4323 37.9408Z" fill="white"/>
<path d="M0 57.0066H57V0H0V57.0066ZM24.6714 19.0747H34.0801V21.6271H24.6714V19.0747ZM24.6714 23.928H34.0801V26.4893H24.6714V23.928ZM24.6714 29.2194H34.0801V31.7799H24.6714V29.2194ZM17.4987 45.8125C16.21 46.5329 14.7625 46.9216 13.2863 46.9438C12.4543 46.9694 11.6256 46.8273 10.8496 46.526C10.0736 46.2247 9.36611 45.7704 8.76928 45.1901C8.19179 44.6162 7.73415 43.9332 7.42297 43.1808C7.11178 42.4284 6.95326 41.6217 6.95662 40.8075C6.95999 39.9933 7.12516 39.1879 7.44255 38.4382C7.75994 37.6884 8.22321 37.0092 8.80543 36.44C9.38329 35.8684 10.0691 35.4176 10.823 35.1137C11.5768 34.8098 12.3836 34.659 13.1963 34.6701C14.6421 34.6976 16.0646 35.0383 17.366 35.6686V36.6708C16.0695 35.9525 14.6164 35.5633 13.1344 35.5373C12.4478 35.5208 11.7652 35.647 11.1299 35.9078C10.4945 36.1687 9.92023 36.5586 9.44333 37.0528C8.9538 37.5486 8.56986 38.1385 8.31471 38.7869C8.05955 39.4352 7.93848 40.1286 7.9588 40.825C7.93542 41.5228 8.05587 42.2179 8.31266 42.8671C8.56945 43.5163 8.95708 44.1057 9.45145 44.5987C9.95593 45.0906 10.5548 45.4753 11.212 45.7296C11.8692 45.9838 12.571 46.1024 13.2752 46.078C14.7633 46.026 16.2149 45.6037 17.4987 44.8494V45.8125ZM14.4087 28.6648H14.1042L10.638 24.4111V31.7681H6.92856V19.0873H10.3917L14.3003 23.8307L18.2193 19.0873H21.6854V31.7652H17.8601V24.4081L14.4087 28.6648ZM29.3293 46.7749L27.4384 42.6569H21.6013L19.7163 46.7749H18.7525L24.2747 34.7711H24.7997L30.288 46.7749H29.3293ZM40.398 46.7749L38.2852 43.5072C37.8603 42.7412 37.3135 42.0496 36.6664 41.4593C36.1512 41.1599 35.559 41.0198 34.9643 41.0566H33.3485V46.7757H32.4171V34.8404H35.482C36.5268 34.7701 37.5637 35.0638 38.4164 35.6715C38.7487 35.9421 39.0135 36.2862 39.1899 36.6767C39.3663 37.0672 39.4494 37.4934 39.4327 37.9216C39.4327 39.3046 38.678 40.2756 37.1686 40.8346C37.8326 41.3103 38.3778 41.9329 38.7616 42.654L41.4659 46.772L40.398 46.7749ZM49.8915 46.7749H43.2439V34.8404H49.7617V35.6067H44.1783V40.3929H49.5958V41.1561H44.1783V46.005H49.8922L49.8915 46.7749ZM49.3539 28.7806C48.9187 29.5173 48.3488 30.1655 47.6739 30.6914C46.5574 31.4692 45.2114 31.848 43.8531 31.7666H37.0056V19.0873H42.2778C42.9589 19.0803 43.6396 19.1217 44.3147 19.2112C44.8343 19.2822 45.3463 19.4007 45.8443 19.5651C46.2449 19.6887 46.6308 19.8562 46.9947 20.0644C47.2935 20.2454 47.5794 20.4469 47.8502 20.6677C48.2907 21.0269 48.6757 21.4494 48.9925 21.9214C49.3364 22.4329 49.5995 22.9943 49.7728 23.5858C49.9753 24.2529 50.0748 24.947 50.0677 25.6441C50.1184 26.7331 49.8725 27.8154 49.3561 28.7755" fill="white"/>
</svg>
