<svg width="54" height="54" viewBox="0 0 54 54" fill="none" xmlns="http://www.w3.org/2000/svg">
<path fill-rule="evenodd" clip-rule="evenodd" d="M38.9043 0H15.341L0 15.3407V38.7202L15.2183 54H38.659L54 38.659V15.2183L38.9043 0ZM49.3365 36.5728L36.5727 49.3365H17.4273L4.66378 36.6342V17.4273L17.4273 4.72497H36.8178L49.3362 17.3046V36.5728H49.3365Z" fill="white"/>
<path fill-rule="evenodd" clip-rule="evenodd" d="M15.3567 21.038L12.0543 14.5341L7.13184 18.9906V34.9492L11.8673 39.5861V24.0491L15.9797 32.9015L20.6525 21.0984V45.849H25.8862V8.15088H20.3413L15.3567 21.038ZM29.5461 8.15088V45.849H35.5278L46.8677 34.9492V26.9998H38.1446V31.5767H41.3846C42.257 31.456 42.3192 32.42 41.6958 33.1423C41.073 33.8649 34.7798 39.8269 34.7798 39.8269V14.173L42.1319 21.5799V23.3865H46.8674V19.1711L35.652 8.15088H29.5461Z" fill="white"/>
</svg>
