<svg width="138" height="24" viewBox="0 0 138 24" fill="none" xmlns="http://www.w3.org/2000/svg">
<path d="M23.2597 23.8603C23.5379 23.8603 24.3726 23.8324 24.5673 23.7485C24.5673 23.4971 24.5395 23.1059 24.5395 22.2398V16.7078C24.5395 16.149 24.5117 16.0373 24.2891 16.0373C24.0387 16.0373 23.1762 16.0931 22.9536 16.149C22.9815 16.3725 22.9815 16.8754 22.9815 17.7136V23.6088C23.0093 23.8324 23.0649 23.8603 23.2597 23.8603ZM17.3335 7.68335C17.3335 7.87893 17.4169 7.93481 17.5839 7.93481C17.8621 7.93481 18.6968 7.90687 18.8915 7.82305C18.8915 7.57159 18.8637 7.18044 18.8637 6.31432V0.782305C18.8637 0.223515 18.8359 0.111757 18.6133 0.111757C18.3629 0.111757 17.5004 0.167637 17.2778 0.223515C17.3056 0.447031 17.3056 0.949941 17.3056 1.78812V7.68335H17.3335ZM8.84758 5.69965C8.84758 6.73341 8.84758 7.4319 8.81976 7.93481C9.18146 7.93481 9.57097 7.93481 9.79355 7.87893C9.98831 7.85099 10.0718 7.79511 10.0718 7.54365V4.33062C10.0718 3.71595 10.0718 3.07334 10.0161 1.81607C10.5169 2.76601 10.8786 3.46449 11.5185 4.47031C12.4923 5.97905 13.1044 6.92899 13.7444 7.82305C13.8278 7.93481 13.9113 7.99069 14.0504 7.99069C14.4121 7.99069 15.1077 7.85099 15.219 7.79511V2.37485C15.219 1.34109 15.2189 0.642607 15.2468 0.111757C14.9685 0.111757 14.6347 0.111757 14.2452 0.167636C14.0782 0.195576 13.9948 0.251455 13.9948 0.530849V3.9674C13.9948 4.58207 13.9948 5.05704 14.0504 6.00698C13.7444 5.39232 13.2992 4.69383 12.7427 3.82771C11.8524 2.45867 10.8508 0.922002 10.4613 0.363213C10.35 0.223515 10.2387 0.139697 10.1274 0.139697C9.90484 0.139697 8.84758 0.195576 8.625 0.251455V0.307334L8.84758 0.614667V5.69965ZM20.3939 1.2014H22.5919V7.71129C22.5919 7.90687 22.6754 7.93481 22.8423 7.93481C23.3431 7.93481 23.8161 7.90687 24.15 7.82305C24.15 7.57159 24.1222 7.18044 24.1222 6.31432V1.2014H26.0698C26.3202 1.14552 26.654 0.838183 26.7097 0.167636H22.3415C21.1173 0.167636 20.7835 0.167636 20.5887 0.111757C20.4774 0.251455 20.3105 0.447031 20.1714 0.838184C20.0879 1.11758 20.1992 1.2014 20.3939 1.2014ZM11.1012 23.8603C11.3794 23.8603 12.2141 23.8324 12.4089 23.7485C12.4089 23.4971 12.381 23.1059 12.381 22.2398V16.7078C12.381 16.149 12.3532 16.0373 12.1306 16.0373C11.8802 16.0373 11.0177 16.0931 10.7952 16.149C10.823 16.3725 10.823 16.8754 10.823 17.7136V23.6088C10.8508 23.8324 10.9065 23.8603 11.1012 23.8603ZM8.76411 20.9546L8.1242 16.4284C8.09637 16.1211 8.0129 16.0373 7.90161 16.0373C7.59556 16.0373 6.78871 16.1211 6.59395 16.2049V16.4005C6.09314 17.6577 5.25847 19.865 4.64637 21.4854L3.00484 16.9034C2.78226 16.2887 2.69879 16.0931 2.50403 16.0652C1.91976 16.0652 1.4746 16.1769 1.16855 16.2328L1.19637 16.4563C0.723388 19.2503 0.222581 22.4354 0 23.7485C0.194758 23.8603 0.751208 23.8603 1.08508 23.8603C1.22419 23.8603 1.27984 23.8044 1.30766 23.6647C1.50242 22.2398 1.86411 19.4179 2.03105 17.9092C2.5875 19.5856 3.67258 22.8265 3.95081 23.8044C4.20121 23.8044 4.47943 23.7485 4.70201 23.7206C4.98024 23.6647 5.06371 23.553 5.14718 23.3015C5.92621 20.9825 6.6496 18.943 6.98347 17.8813L7.34516 20.9546C7.48427 22.2677 7.53992 22.9104 7.62339 23.553C7.65121 23.8044 7.81815 23.8603 7.95726 23.8603C8.20766 23.8603 8.98669 23.8044 9.18145 23.7485C9.09798 23.1618 8.95887 22.2398 8.76411 20.9546ZM0.33387 4.33062C0.33387 6.98487 1.44678 8.04656 3.50565 8.04656C5.00807 8.04656 6.81653 7.54365 6.81653 4.1071V2.37485C6.81653 1.34109 6.81653 0.642608 6.84436 0.139697C6.59395 0.139697 6.12097 0.139696 5.75927 0.195575C5.59234 0.223515 5.48105 0.279394 5.48105 0.50291V4.19092C5.48105 6.53783 4.64637 6.95693 3.64476 6.95693C2.81008 6.95693 1.80847 6.59371 1.80847 4.30268V0.838184C1.80847 0.223516 1.78065 0.111757 1.55807 0.111757C1.30766 0.111757 0.472982 0.167637 0.250402 0.223515C0.278224 0.474971 0.278226 0.977881 0.278226 1.81607V4.33062H0.33387ZM106.922 7.76717C107.089 7.37602 107.423 6.45402 107.729 5.75553H110.483C110.762 6.45402 110.929 6.92899 111.151 7.54365C111.263 7.87893 111.374 7.93481 111.569 7.93481C111.847 7.93481 112.681 7.87893 112.932 7.79511V7.73923C112.681 7.23632 112.403 6.45402 111.902 5.19674C111.485 4.13504 110.539 1.70431 109.983 0.363213C109.927 0.223515 109.816 0.139697 109.704 0.139697C109.565 0.139697 108.87 0.195576 108.425 0.279395L108.536 0.530849C108.063 1.64843 106.171 6.2305 105.531 7.71129V7.76717C105.809 7.85099 106.338 7.93481 106.616 7.93481C106.783 7.93481 106.867 7.87893 106.922 7.76717ZM109.12 1.87194C109.259 2.2631 109.621 3.1851 110.177 4.72177H108.035C108.48 3.66007 108.814 2.68219 109.12 1.87194ZM112.932 1.2014H115.13V7.71129C115.13 7.90687 115.213 7.93481 115.38 7.93481C115.881 7.93481 116.354 7.90687 116.688 7.82305C116.688 7.57159 116.66 7.18044 116.66 6.31432V1.2014H118.608C118.858 1.14552 119.192 0.838183 119.248 0.167636H114.879C113.655 0.167636 113.321 0.167636 113.127 0.111757C113.015 0.251455 112.848 0.447031 112.709 0.838184C112.654 1.11758 112.737 1.2014 112.932 1.2014ZM85.3875 7.93481C85.5266 7.93481 85.5823 7.87893 85.6101 7.73923C85.8048 6.31432 86.1665 3.49243 86.3335 1.9837C86.8899 3.66007 87.975 6.90105 88.2532 7.87893C88.5036 7.87893 88.7819 7.82305 89.0044 7.79511C89.2827 7.73923 89.3661 7.62747 89.4496 7.37602C90.2286 5.05704 90.952 3.01746 91.2859 1.95576L91.6476 5.0291C91.7867 6.34226 91.8423 6.98486 91.9258 7.62747C91.9536 7.87893 92.1206 7.93481 92.2597 7.93481C92.5101 7.93481 93.2891 7.87893 93.4839 7.82305C93.3726 7.23632 93.2335 6.31432 93.0387 5.0291L92.3988 0.50291C92.371 0.195576 92.2875 0.111757 92.1762 0.111757C91.8702 0.111757 91.0633 0.195576 90.8685 0.279395V0.47497C90.3677 1.73225 89.5331 3.93946 88.921 5.55995L87.2794 0.977881C87.0569 0.363213 86.9734 0.167637 86.7786 0.139697C86.1944 0.139697 85.7492 0.251455 85.4431 0.307334L85.471 0.530849C84.998 3.3248 84.4972 6.50989 84.2746 7.82305C84.4972 7.93481 85.0815 7.93481 85.3875 7.93481ZM98.7423 7.93481C98.9927 7.93481 99.6605 7.93481 99.9944 7.87893C100.189 7.85099 100.273 7.79511 100.273 7.57159V4.72177H100.495C100.913 4.72177 101.135 4.83353 101.525 5.53201C102.025 6.48195 102.248 6.98487 102.582 7.40396C102.888 7.82305 103.222 7.96275 103.667 7.96275C104.112 7.96275 104.557 7.90687 104.669 7.85099V7.79511C104.363 7.45984 103.973 6.90105 103.389 5.86729C102.971 5.14086 102.582 4.52619 102.304 4.27474C102.804 4.05122 103.778 3.49243 103.778 2.31898C103.778 0.754365 102.804 0.0838182 100.857 0.0838182C100.3 0.0838182 99.0762 0.223516 98.7423 0.279395C98.7702 0.614668 98.7702 0.922002 98.7702 1.53667V5.64377C98.798 6.70547 98.7702 7.4319 98.7423 7.93481ZM100.3 1.03376C100.44 1.00582 100.662 1.00582 100.829 1.00582C101.58 1.00582 102.22 1.42491 102.22 2.45867C102.22 3.26892 101.719 3.66007 101.469 3.74389C101.302 3.82771 100.634 3.85564 100.3 3.82771V1.03376ZM120.472 7.57159L120.667 7.79511C120.973 7.85099 121.779 7.90687 122.837 7.90687C123.783 7.90687 124.339 7.87893 124.506 7.85099C124.812 7.68335 125.035 7.40396 125.146 6.87311L125.118 6.84517C124.534 6.90105 123.644 6.90105 123.143 6.90105C122.67 6.90105 122.28 6.87311 122.002 6.81723V4.41443H123.866C124.283 4.41443 124.562 4.2468 124.673 3.38067H122.002V1.17346H123.282C123.838 1.17346 124.256 1.17346 124.423 1.08964C124.562 0.922002 124.729 0.698487 124.784 0.139697H121.807C121.306 0.139697 120.778 0.223515 120.416 0.307334C120.444 0.810244 120.444 1.25728 120.444 1.844V7.57159H120.472ZM118.83 17.7136V23.6088C118.83 23.8044 118.914 23.8603 119.081 23.8603C119.359 23.8603 120.194 23.8324 120.388 23.7485C120.388 23.4971 120.36 23.1059 120.36 22.2398V16.7078C120.36 16.149 120.333 16.0373 120.11 16.0373C119.86 16.0373 118.997 16.0931 118.775 16.149C118.83 16.3725 118.83 16.8754 118.83 17.7136ZM55.7008 20.0047C55.7008 21.8487 56.8137 23.9721 59.6516 23.9721C62.2391 23.9721 63.6024 22.0722 63.6024 19.865C63.6024 17.7136 62.1835 15.8976 59.7073 15.8976C57.2032 15.9255 55.7008 17.6857 55.7008 20.0047ZM59.5681 16.8754C61.0984 16.8754 61.9887 18.2445 61.9887 19.9767C61.9887 21.9045 61.154 22.9942 59.7629 22.9942C58.4831 22.9942 57.3702 21.9045 57.3702 19.837C57.3702 17.8533 58.344 16.8754 59.5681 16.8754ZM53.2246 7.93481C53.475 7.93481 54.1427 7.93481 54.4766 7.87893C54.6714 7.85099 54.7548 7.79511 54.7548 7.57159V4.72177H54.9774C55.3948 4.72177 55.6173 4.83353 56.0069 5.53201C56.5077 6.48195 56.7302 6.98487 57.0641 7.40396C57.3702 7.82305 57.704 7.96275 58.1492 7.96275C58.5944 7.96275 59.0395 7.90687 59.1508 7.85099V7.79511C58.8448 7.45984 58.4552 6.90105 57.871 5.86729C57.4536 5.14086 57.0641 4.52619 56.7859 4.27474C57.2867 4.05122 58.2605 3.49243 58.2605 2.31898C58.2605 0.754365 57.2867 0.0838182 55.3391 0.0838182C54.7827 0.0838182 53.5585 0.223516 53.2246 0.279395C53.2524 0.614668 53.2524 0.922002 53.2524 1.53667V5.64377C53.2524 6.70547 53.2524 7.4319 53.2246 7.93481ZM54.7548 1.03376C54.8939 1.00582 55.1165 1.00582 55.2835 1.00582C56.0347 1.00582 56.6746 1.42491 56.6746 2.45867C56.6746 3.26892 56.1738 3.66007 55.9234 3.74389C55.7565 3.82771 55.0887 3.85564 54.7548 3.82771V1.03376ZM45.9351 7.76717C46.102 7.37602 46.4359 6.45402 46.7419 5.75553H49.4964C49.7746 6.45402 49.9415 6.92899 50.1641 7.54365C50.2754 7.87893 50.3867 7.93481 50.5814 7.93481C50.8597 7.93481 51.6944 7.87893 51.9448 7.79511V7.73923C51.6944 7.23632 51.4161 6.45402 50.9153 5.19674C50.498 4.13504 49.552 1.70431 48.9956 0.363213C48.9399 0.223515 48.8286 0.139697 48.7173 0.139697C48.5782 0.139697 47.8827 0.195576 47.4375 0.279395L47.5488 0.530849C47.0758 1.64843 45.1839 6.2305 44.544 7.71129V7.76717C44.8222 7.85099 45.3508 7.93481 45.629 7.93481C45.796 7.93481 45.9073 7.87893 45.9351 7.76717ZM48.1609 1.87194C48.3 2.2631 48.6617 3.1851 49.2181 4.72177H47.0758C47.4931 3.66007 47.8548 2.68219 48.1609 1.87194ZM78.5153 7.57159L78.7101 7.79511C79.0161 7.85099 79.823 7.90687 80.8802 7.90687C81.8262 7.90687 82.3827 7.87893 82.5496 7.85099C82.8556 7.68335 83.0782 7.40396 83.1895 6.87311L83.1617 6.84517C82.5774 6.90105 81.6871 6.90105 81.1863 6.90105C80.7133 6.90105 80.3238 6.87311 80.0456 6.81723V4.41443H81.9097C82.327 4.41443 82.6052 4.2468 82.7165 3.38067H80.0456V1.17346H81.3254C81.8819 1.17346 82.2992 1.17346 82.4661 1.08964C82.6052 0.922002 82.7722 0.698487 82.8278 0.139697H79.8508C79.35 0.139697 78.8214 0.223515 78.4597 0.307334C78.4875 0.810244 78.4875 1.25728 78.4875 1.844V7.57159H78.5153ZM33.9714 7.73923C34.7504 7.90687 35.5016 7.96275 36.3919 7.96275C38.896 7.96275 40.7879 6.53783 40.7879 3.88359C40.7879 2.31898 40.1202 0.0838182 36.4476 0.0838182C35.446 0.0838182 34.194 0.251455 33.9435 0.307334C33.9435 0.614668 33.9714 0.866123 33.9714 1.70431V7.73923ZM35.5016 1.11758C35.6964 1.08964 35.919 1.0617 36.2806 1.0617C38.1169 1.0617 39.1464 2.06752 39.1464 3.93946C39.1464 6.50989 37.5327 7.04074 36.4476 7.04074C36.1137 7.04074 35.7798 7.0128 35.5016 6.92899V1.11758ZM61.3766 7.76717C61.5436 7.37602 61.8774 6.45402 62.1835 5.75553H64.9379C65.2161 6.45402 65.3831 6.92899 65.6056 7.54365C65.7169 7.87893 65.8282 7.93481 66.023 7.93481C66.3012 7.93481 67.1359 7.87893 67.3863 7.79511V7.73923C67.1359 7.23632 66.8577 6.45402 66.3569 5.19674C65.9395 4.13504 64.9936 1.70431 64.4371 0.363213C64.3815 0.223515 64.2702 0.139697 64.1589 0.139697C64.0198 0.139697 63.3242 0.195576 62.879 0.279395L62.9903 0.530849C62.5173 1.64843 60.6254 6.2305 59.9855 7.71129V7.76717C60.2637 7.85099 60.7923 7.93481 61.0706 7.93481C61.2375 7.93481 61.321 7.87893 61.3766 7.76717ZM63.5746 1.87194C63.7137 2.2631 64.0754 3.1851 64.6319 4.72177H62.4895C62.9347 3.66007 63.2685 2.68219 63.5746 1.87194ZM27.906 7.57159L28.1008 7.79511C28.4069 7.85099 29.2137 7.90687 30.271 7.90687C31.2169 7.90687 31.7734 7.87893 31.9403 7.85099C32.2464 7.68335 32.469 7.40396 32.5802 6.87311L32.5524 6.84517C31.9681 6.90105 31.0778 6.90105 30.577 6.90105C30.104 6.90105 29.7145 6.87311 29.4363 6.81723V4.41443H31.3004C31.7177 4.41443 31.996 4.2468 32.1073 3.38067H29.4363V1.17346H30.7161C31.2726 1.17346 31.6899 1.17346 31.8569 1.08964C31.996 0.922002 32.1629 0.698487 32.2185 0.139697H29.2415C28.7407 0.139697 28.2121 0.223515 27.8504 0.307334C27.8782 0.810244 27.8782 1.25728 27.8782 1.844V7.57159H27.906ZM19.6427 16.4563V19.8929C19.6427 20.5076 19.6427 20.9825 19.6984 21.9325C19.3923 21.3178 18.9472 20.6193 18.3907 19.7532C17.5004 18.3842 16.4988 16.8475 16.1093 16.2887C15.998 16.149 15.8867 16.0652 15.7754 16.0652C15.5528 16.0652 14.4956 16.1211 14.273 16.1769V16.2328L14.4956 16.5402V21.6531C14.4956 22.6868 14.4956 23.3853 14.4677 23.8882C14.8294 23.8882 15.219 23.8882 15.4415 23.8324C15.6363 23.8044 15.7198 23.7485 15.7198 23.4971V20.284C15.7198 19.6694 15.7198 19.0268 15.6641 17.7695C16.1649 18.7194 16.5266 19.4179 17.1665 20.4517C18.1403 21.9604 18.7524 22.9104 19.3923 23.8044C19.4758 23.9162 19.5593 23.9721 19.6984 23.9721C20.0601 23.9721 20.7556 23.8324 20.8669 23.7765V18.3562C20.8669 17.3225 20.8669 16.624 20.8948 16.0931C20.6165 16.0931 20.2827 16.0931 19.8931 16.149C19.7262 16.1211 19.6427 16.1769 19.6427 16.4563ZM93.623 16.4005V20.0885C93.623 22.4354 92.7883 22.8545 91.7867 22.8545C90.952 22.8545 89.9504 22.4913 89.9504 20.2002V16.7637C89.9504 16.149 89.9226 16.0373 89.7 16.0373C89.4496 16.0373 88.6149 16.0931 88.3923 16.149C88.4202 16.4005 88.4202 16.9034 88.4202 17.7416V20.2561C88.4202 22.9104 89.5331 23.9721 91.5919 23.9721C93.0944 23.9721 94.9028 23.4691 94.9028 20.0326V18.3003C94.9028 17.2666 94.9028 16.5681 94.9306 16.0652C94.6802 16.0652 94.2073 16.0652 93.8456 16.1211C93.7343 16.1211 93.623 16.1769 93.623 16.4005ZM82.5218 16.0373C81.5202 16.0373 80.2681 16.2049 80.0177 16.2608C80.0177 16.5681 80.0456 16.8196 80.0456 17.6577V23.6647C80.8246 23.8324 81.5758 23.8882 82.4661 23.8882C84.9702 23.8882 86.8621 22.4633 86.8621 19.8091C86.8899 18.2445 86.2222 16.0373 82.5218 16.0373ZM82.5218 22.9383C82.1879 22.9383 81.854 22.9104 81.5758 22.8265V17.0151C81.7706 16.9872 81.9931 16.9593 82.3548 16.9593C84.1911 16.9593 85.2206 17.9651 85.2206 19.837C85.2484 22.4074 83.6347 22.9383 82.5218 22.9383ZM96.7113 7.82305C96.7113 7.57159 96.6835 7.18044 96.6835 6.31432V0.782305C96.6835 0.223515 96.6556 0.111757 96.4331 0.111757C96.1827 0.111757 95.3202 0.167637 95.0976 0.223515C95.1254 0.447031 95.1254 0.949941 95.1254 1.78812V7.68335C95.1254 7.87893 95.2089 7.93481 95.3758 7.93481C95.6819 7.93481 96.5165 7.90687 96.7113 7.82305ZM129.292 3.43655C128.151 2.79395 127.761 2.48661 127.761 1.89988C127.761 1.36903 128.234 1.0617 128.874 1.0617C129.264 1.0617 129.792 1.22934 130.071 1.36903C130.488 1.39697 130.683 0.894062 130.683 0.586728C130.377 0.279394 129.57 0 128.93 0C126.899 0 126.315 1.34109 126.315 2.17928C126.315 2.9057 126.565 3.71595 127.984 4.47031C129.208 5.14086 129.514 5.4482 129.514 6.00698C129.514 6.62165 129.013 6.95693 128.262 6.95693C127.678 6.95693 126.927 6.67753 126.509 6.3702C126.398 6.45401 126.203 6.90105 126.203 7.1525C126.203 7.32014 126.287 7.4319 126.481 7.57159C126.787 7.79511 127.427 8.04656 128.262 8.04656C129.709 8.04656 131.017 7.23632 131.017 5.69965C131.017 4.52619 130.377 4.05122 129.292 3.43655ZM126.008 15.9255C123.504 15.9255 122.03 17.6857 122.03 20.0326C122.03 21.8766 123.143 24 125.981 24C128.568 24 129.931 22.1001 129.931 19.8929C129.931 17.7136 128.485 15.9255 126.008 15.9255ZM126.092 23.0221C124.812 23.0221 123.699 21.9325 123.699 19.865C123.699 17.8533 124.701 16.8754 125.897 16.8754C127.427 16.8754 128.318 18.2445 128.318 19.9767C128.29 21.9045 127.455 23.0221 126.092 23.0221ZM111.29 23.6647C111.04 23.1618 110.762 22.3795 110.261 21.1222C109.844 20.0605 108.898 17.6298 108.341 16.2887C108.285 16.149 108.174 16.0652 108.063 16.0652C107.924 16.0652 107.228 16.1211 106.783 16.2049L106.894 16.4563C106.421 17.5739 104.529 22.156 103.89 23.6368V23.6927C104.168 23.7765 104.696 23.8603 104.975 23.8603C105.169 23.8603 105.281 23.8044 105.308 23.6927C105.475 23.3015 105.809 22.3795 106.115 21.681H108.87C109.148 22.3795 109.315 22.8545 109.538 23.4691C109.649 23.8044 109.76 23.8603 109.955 23.8603C110.233 23.8603 111.068 23.8044 111.318 23.7206V23.6647H111.29ZM106.421 20.6473C106.839 19.5856 107.173 18.6077 107.479 17.7974C107.618 18.1886 107.979 19.1106 108.536 20.6473H106.421ZM136.998 16.0931C136.831 16.1211 136.748 16.1769 136.748 16.4563V19.8929C136.748 20.5076 136.748 20.9825 136.804 21.9325C136.498 21.3178 136.052 20.6193 135.496 19.7532C134.606 18.3842 133.604 16.8475 133.215 16.2887C133.103 16.149 132.992 16.0652 132.881 16.0652C132.658 16.0652 131.601 16.1211 131.378 16.1769V16.2328L131.601 16.5402V21.6531C131.601 22.6868 131.601 23.3853 131.573 23.8882C131.935 23.8882 132.324 23.8882 132.547 23.8324C132.742 23.8044 132.825 23.7485 132.825 23.4971V20.284C132.825 19.6694 132.825 19.0268 132.769 17.7695C133.27 18.7194 133.632 19.4179 134.272 20.4517C135.246 21.9604 135.858 22.9104 136.498 23.8044C136.581 23.9162 136.665 23.9721 136.804 23.9721C137.165 23.9721 137.861 23.8324 137.972 23.7765V18.3562C137.972 17.3225 137.972 16.624 138 16.0931C137.694 16.0373 137.36 16.0652 136.998 16.0931ZM115.046 17.1269H116.994C117.244 17.071 117.578 16.7637 117.634 16.0931H113.266C112.042 16.0931 111.708 16.0931 111.513 16.0373C111.402 16.1769 111.235 16.3725 111.096 16.7637C111.012 17.0431 111.096 17.1269 111.29 17.1269H113.488V23.6368C113.488 23.8324 113.572 23.8603 113.739 23.8603C114.24 23.8603 114.713 23.8324 115.046 23.7485C115.046 23.4971 115.019 23.1059 115.019 22.2398V17.1269H115.046ZM101.135 22.8545C99.1875 22.8545 98.1302 21.5693 98.1302 19.8929C98.1302 17.9371 99.3544 16.9593 100.829 16.9593C101.497 16.9593 102.081 17.1269 102.443 17.2945C102.832 17.3504 103.11 16.9313 103.083 16.5122C102.888 16.2887 101.998 15.8976 100.829 15.8976C98.4085 15.8976 96.4887 17.4622 96.4887 20.0047C96.4887 22.3516 97.9911 23.9441 100.773 23.9441C101.58 23.9441 102.248 23.7206 102.554 23.525C102.749 23.3295 102.916 22.9662 102.971 22.5471L102.944 22.5192C102.61 22.6589 101.97 22.8545 101.135 22.8545ZM45.2673 23.7206C44.9613 23.3853 44.5718 22.8265 43.9875 21.7928C43.5702 21.0664 43.1806 20.4517 42.9024 20.2002C43.4032 19.9767 44.377 19.4179 44.377 18.2445C44.377 16.6799 43.4032 16.0093 41.4556 16.0093C40.8992 16.0093 39.675 16.149 39.3411 16.2049C39.369 16.5402 39.369 16.8475 39.369 17.4622V21.5693C39.369 22.603 39.369 23.3295 39.3411 23.8324C39.5915 23.8324 40.2593 23.8324 40.5931 23.7765C40.7879 23.7485 40.8714 23.6927 40.8714 23.4691V20.6193H41.094C41.5113 20.6193 41.7339 20.7311 42.1234 21.4296C42.6242 22.3795 42.8468 22.8824 43.1806 23.3015C43.4867 23.7206 43.8206 23.8603 44.2657 23.8603C44.7109 23.8603 45.1561 23.8044 45.2673 23.7485V23.7206ZM42.0399 19.6694C41.873 19.7532 41.2052 19.7811 40.8714 19.7532V16.9593C41.0105 16.9313 41.2331 16.9313 41.4 16.9313C42.1512 16.9313 42.7911 17.3504 42.7911 18.3842C42.7911 19.2223 42.3181 19.5856 42.0399 19.6694ZM35.5851 17.1269H37.5327C37.7831 17.071 38.1169 16.7637 38.1726 16.0931H33.8044C32.5802 16.0931 32.2464 16.0931 32.0516 16.0373C31.9403 16.1769 31.7734 16.3725 31.6343 16.7637C31.5508 17.0431 31.6343 17.1269 31.829 17.1269H34.027V23.6368C34.027 23.8324 34.1105 23.8603 34.2774 23.8603C34.7782 23.8603 35.2512 23.8324 35.5851 23.7485C35.5851 23.4971 35.5573 23.1059 35.5573 22.2398V17.1269H35.5851ZM30.9109 21.6251C30.9109 20.4517 30.2988 19.9767 29.1859 19.362C28.0452 18.7194 27.6556 18.4121 27.6556 17.8254C27.6556 17.2945 28.1286 16.9872 28.7685 16.9872C29.1581 16.9872 29.6867 17.1548 29.9649 17.2945C30.3823 17.3225 30.577 16.8196 30.577 16.5122C30.271 16.2049 29.4641 15.9255 28.8242 15.9255C26.7931 15.9255 26.2089 17.2666 26.2089 18.1048C26.2089 18.8312 26.4593 19.6414 27.8782 20.3958C29.1024 21.0664 29.4085 21.3737 29.4085 21.9325C29.4085 22.5471 28.9077 22.8824 28.1565 22.8824C27.5722 22.8824 26.821 22.603 26.4036 22.2957C26.2923 22.3795 26.0976 22.8265 26.0976 23.078C26.0976 23.2456 26.181 23.3574 26.3758 23.4971C26.6819 23.7206 27.3218 23.9721 28.1565 23.9721C29.5754 23.9721 30.9109 23.1339 30.9109 21.6251ZM72.4778 3.66007C73.0343 3.35274 73.5629 2.79395 73.5629 2.01164C73.5629 1.25727 73.2012 0.0838182 70.9198 0.0838182C70.1407 0.0838182 68.9722 0.223515 68.6661 0.307334C68.6939 0.866123 68.694 1.22934 68.694 1.87194V7.76717C69.2226 7.87893 70.1407 7.96275 70.7528 7.96275C72.6726 7.96275 74.0359 7.12456 74.0359 5.47613C74.0359 4.69383 73.5351 3.9674 72.4778 3.66007ZM70.1964 1.0617C70.3077 1.03376 70.6137 1.00582 70.8085 1.00582C71.5875 1.00582 72.0883 1.45285 72.0883 2.23516C72.0883 2.84983 71.8101 3.26892 71.504 3.43655C70.9198 3.43655 70.5581 3.43655 70.1964 3.49243V1.0617ZM70.8363 7.06868C70.6415 7.06868 70.3355 7.04074 70.1964 7.0128V4.38649C70.3911 4.35856 70.5859 4.35856 70.7528 4.35856C71.7823 4.35856 72.3665 4.80559 72.3665 5.61583C72.3665 6.56577 71.7266 7.06868 70.8363 7.06868ZM78.0423 23.8044C78.3484 23.6368 78.571 23.3574 78.6823 22.8265L78.6544 22.7986C78.0702 22.8545 77.1798 22.8545 76.679 22.8545C76.2061 22.8545 75.8165 22.8265 75.5383 22.7707V20.3679H77.4024C77.8198 20.3679 78.098 20.2002 78.2093 19.3341H75.5383V17.1269H76.8181C77.3746 17.1269 77.7919 17.1269 77.9589 17.0431C78.098 16.8754 78.2649 16.6519 78.3206 16.0931H75.3435C74.8427 16.0931 74.3141 16.1769 73.9524 16.2608C73.9802 16.7637 73.9802 17.2107 73.9802 17.7974V23.4971L74.175 23.7206C74.4811 23.7765 75.2879 23.8324 76.3452 23.8324C77.319 23.8603 77.8476 23.8324 78.0423 23.8044ZM68.6661 20.5914C69.1391 20.5914 69.4452 20.5076 69.5565 19.5576H66.802V17.099H68.4435C68.9722 17.099 69.2504 17.099 69.3895 17.0151C69.5565 16.8475 69.7234 16.624 69.8069 16.0652C69.2226 16.0652 67.1359 16.0652 66.6907 16.0652C66.1621 16.0931 65.4387 16.1769 65.2161 16.2608C65.244 16.6799 65.244 17.0151 65.244 17.5739V23.6088C65.244 23.8044 65.3274 23.8324 65.5222 23.8324C65.9952 23.8324 66.6073 23.8044 66.8298 23.7206C66.802 22.7986 66.802 21.7648 66.802 20.5355H68.6661V20.5914ZM51.8613 16.1769C51.6944 16.1211 51.277 16.0652 50.8319 16.0652C50.6093 16.4843 49.4129 18.468 48.8843 19.2782C48.3556 18.3842 47.7436 17.3225 47.3262 16.624C47.0202 16.1211 46.9367 16.0373 46.7141 16.0373C46.4081 16.0373 45.796 16.149 45.3786 16.2608V16.2887C46.102 17.3504 47.1871 18.9988 47.8548 20.1444C47.9383 20.284 47.9661 20.4796 47.9661 20.7031V23.6088C47.9661 23.8044 47.994 23.8324 48.1887 23.8324C48.8565 23.8324 49.246 23.8044 49.5242 23.7206C49.5242 23.4412 49.4964 23.078 49.4964 22.2398V20.5634C49.4964 20.3958 49.5242 20.2282 49.6355 20.0605C49.7746 19.865 51.5831 17.1548 51.8891 16.6519C52.0282 16.4005 52.056 16.2608 51.8613 16.1769Z" fill="white"/>
</svg>
