<svg width="130" height="54" viewBox="0 0 130 54" fill="none" xmlns="http://www.w3.org/2000/svg">
<path d="M69.0888 19.1911C62.0231 19.1911 56.2947 16.3269 56.2947 12.7941C56.2947 9.2612 62.0231 6.39703 69.0888 6.39703C76.1545 6.39703 81.8829 9.2612 81.8829 12.7941C81.8829 16.3269 76.1545 19.1911 69.0888 19.1911ZM61.4124 0C47.28 0 35.8242 5.72833 35.8242 12.7941C35.8242 19.8598 47.28 25.5881 61.4124 25.5881C75.5447 25.5881 87.0005 19.8598 87.0005 12.7941C87.0005 5.72833 75.5447 0 61.4124 0Z" fill="white"/>
<path d="M82.2471 40.0827L82.2826 31.0044L80.9922 31.1364L81.0656 40.0827H82.2471Z" fill="white"/>
<path fill-rule="evenodd" clip-rule="evenodd" d="M7.02179 37.4672L6.85478 31.0137L5.53987 31.1265L5.80432 36.6425C5.82764 37.1545 5.85107 38.4404 5.85107 38.7849C5.85107 39.4455 5.61304 39.9973 5.18201 40.3847C4.7502 40.7728 4.10579 41.0127 3.26182 41.0127C2.46247 41.0127 1.96344 40.8388 1.66221 40.558C1.36212 40.2783 1.22038 39.8567 1.22038 39.2774C1.22038 38.8009 1.28865 38.2529 1.4026 37.6292L1.43611 37.4458L0.381515 37.2379L0.332739 37.4141C0.131705 38.1404 0 38.919 0 39.5463C0 40.4172 0.232032 41.1232 0.760398 41.6091C1.28741 42.0938 2.07386 42.3269 3.10791 42.3269C4.26238 42.3269 5.16419 42.0222 5.81263 41.4892C6.36734 41.0332 6.72275 40.4215 6.8973 39.723C7.12425 39.8881 7.39595 39.9954 7.68694 40.048L7.66629 40.0878H8.70073C9.59726 40.0878 10.3071 39.8115 10.6931 39.3024C10.9806 39.7111 11.488 39.9903 12.2102 40.0649L12.2014 40.0904H13.2136C14.1291 40.0904 15.0036 39.9489 15.9381 39.6032C16.6599 39.9369 17.3882 40.0904 18.1673 40.0904H19.2603C20.1568 40.0904 20.8666 39.8139 21.2527 39.305C21.5401 39.7136 22.0476 39.9929 22.7699 40.0674L22.7611 40.0929H57.797C58.5144 40.0929 59.2413 39.8974 59.6808 39.3029C60.0953 39.8554 60.8152 40.1155 61.6682 40.1155C62.3552 40.1155 63.0767 39.9502 63.5335 39.4347C63.8769 39.899 64.4572 40.1155 65.1558 40.1155C65.792 40.1155 66.4144 39.9041 66.7905 39.3561C67.1101 39.7912 67.5735 39.9839 68.0405 40.0549L68.0282 40.0904H68.8888C69.6403 40.0904 70.2634 39.7267 70.7679 38.9776C71.2123 39.3083 71.7197 39.607 72.195 39.8319C72.7274 40.0837 73.2522 40.2588 73.6103 40.2588C74.0301 40.2588 74.3753 40.0111 74.619 39.641L74.6241 39.6324C74.6925 39.5154 74.756 39.3912 74.8128 39.263C74.9317 39.4501 75.0707 39.6063 75.2315 39.7309C75.4443 39.8958 75.6874 39.9995 75.9559 40.0497L75.9453 40.0904H76.8789C77.5542 40.0904 78.1531 39.954 78.5923 39.6005C79.036 39.2434 79.283 38.6927 79.3136 37.9352C79.3608 37.2351 79.3712 36.3105 79.3712 35.3719L79.3602 31.0204L78.06 31.1193L78.1926 36.1852L78.1974 36.4212C78.2066 36.8675 78.216 37.32 78.216 37.6038C78.216 38.0092 78.1295 38.2986 77.9686 38.4846C77.814 38.6633 77.5626 38.7786 77.1502 38.7786H76.558C76.3269 38.7786 76.1512 38.7428 76.0118 38.6805C75.8737 38.6188 75.76 38.5264 75.6593 38.3969C75.4501 38.1281 75.307 37.7166 75.1358 37.1295C75.0035 36.6438 74.8 36.2091 74.4839 35.8937C74.1613 35.5719 73.7331 35.3862 73.1851 35.3862C72.6602 35.3862 72.1907 35.5221 71.7409 35.8616C71.2988 36.1954 70.8849 36.7192 70.4493 37.4783C70.16 37.9742 69.9255 38.3017 69.6982 38.5052C69.4803 38.7004 69.2729 38.7786 69.0218 38.7786H68.8835C68.2303 38.7786 67.8893 38.6736 67.7003 38.4892C67.5106 38.3041 67.4238 37.9904 67.4238 37.4354V36.3034H66.2869V37.4933C66.2869 38.0101 66.1744 38.3242 66.0044 38.5086C65.8396 38.6875 65.5885 38.7786 65.2211 38.7786C64.8548 38.7786 64.603 38.6848 64.4399 38.5188C64.2746 38.3506 64.1683 38.0755 64.1683 37.6491V36.3034H63.0209V37.7621C63.0209 38.0756 62.9408 38.321 62.7696 38.4889C62.5994 38.6557 62.3058 38.7786 61.8039 38.7786C61.3338 38.7786 60.9765 38.6702 60.7397 38.4783C60.508 38.2906 60.365 38.0014 60.365 37.5812V36.3034H59.2281V37.6616C59.2281 38.0091 59.1393 38.2813 58.9538 38.4667C58.7701 38.6504 58.459 38.7811 57.9405 38.7811H23.4158C22.8132 38.7811 22.4303 38.6988 22.197 38.5275C21.9778 38.3665 21.8491 38.0937 21.8491 37.5963V35.9592H20.7018V37.5737C20.7018 38.0615 20.5641 38.3515 20.3677 38.5229C20.1681 38.6973 19.8716 38.7811 19.4847 38.7811H18.7517C18.2199 38.7811 17.8238 38.7686 17.4226 38.7049C17.6766 38.5002 17.8641 38.2942 18.0227 38.0754C18.2634 37.7479 18.3849 37.4514 18.3849 37.0359C18.3849 35.7739 17.4183 34.6474 16.2631 34.6474C15.6995 34.6474 15.124 34.9103 14.6925 35.3239C14.259 35.7395 13.9559 36.3212 13.9559 36.9781C13.9559 37.4824 14.244 38.1021 14.7329 38.6443C14.2377 38.7375 13.7738 38.7811 13.344 38.7811H12.8562C12.2536 38.7811 11.8708 38.6988 11.6375 38.5275C11.4183 38.3665 11.2896 38.0937 11.2896 37.5963V35.9592H10.1422V37.5737C10.1422 38.0615 10.0045 38.3515 9.80819 38.5229C9.6086 38.6973 9.31203 38.7811 8.92506 38.7811H8.34335C7.84791 38.7811 7.5403 38.6721 7.34813 38.4806C7.15278 38.286 7.03819 37.9677 7.02179 37.4672ZM16.1202 38.2346C15.5003 37.8287 15.1543 37.4095 14.9569 36.8497C15.1219 36.472 15.3138 36.2372 15.5088 36.0956C15.7118 35.9481 15.9319 35.8913 16.1613 35.8913C16.3287 35.8913 16.5832 35.9947 16.8254 36.2547C17.0514 36.4972 17.2543 36.8647 17.3442 37.3635C17.09 37.6825 16.7759 37.9271 16.1202 38.2346ZM72.2605 36.8517C72.0234 37.0462 71.7547 37.3805 71.4063 37.9502C72.2731 38.5296 73.0117 38.9079 73.6847 39.0399C73.9118 38.7484 74.0423 38.3652 74.0423 38.0411C74.0423 37.0607 73.4996 36.5974 72.9764 36.5974C72.7176 36.5974 72.5046 36.6516 72.2605 36.8517Z" fill="white"/>
<path d="M95.7198 33.2195L94.6477 32.3438L93.8203 33.32L94.8566 34.1271L95.7198 33.2195Z" fill="white"/>
<path d="M17.9148 33.4758L16.8656 32.627L16.241 33.3524L15.4124 32.682L14.5957 33.6341L15.6104 34.4174L16.2609 33.7403L17.0632 34.3625L17.9148 33.4758Z" fill="white"/>
<path d="M22.868 34.4834L21.8184 33.6343L21.1941 34.3623L20.3657 33.6892L19.5488 34.6417L20.5632 35.4249L21.2139 34.7502L22.0165 35.3698L22.868 34.4834Z" fill="white"/>
<path d="M122.583 34.4834L121.533 33.6343L120.909 34.3623L120.081 33.6892L119.264 34.6417L120.279 35.4249L120.929 34.7502L121.731 35.3698L122.583 34.4834Z" fill="white"/>
<path fill-rule="evenodd" clip-rule="evenodd" d="M94.7089 34.645C94.1451 34.645 93.5728 34.9082 93.1446 35.3222C92.7139 35.7381 92.4154 36.3195 92.4154 36.9758C92.4154 37.4706 92.6926 38.0894 93.1881 38.639C92.2806 38.8062 91.4285 38.8667 90.5014 38.8667C89.4199 38.8667 88.7725 38.7249 88.3946 38.4542C88.0338 38.1964 87.8786 37.7894 87.8786 37.1316C87.8786 36.7821 87.9392 36.4314 87.9997 36.0842C88.021 35.9603 88.0424 35.8368 88.0611 35.7141L88.0884 35.5345L87.0342 35.3299L86.9822 35.4987C86.8039 36.0696 86.6367 36.9056 86.6367 37.4809C86.6367 38.2947 86.8491 38.9844 87.4342 39.4635C88.0117 39.9364 88.9141 40.1709 90.2122 40.1709C91.5283 40.1709 92.992 39.9637 94.2637 39.5495C95.0305 39.9301 95.8203 40.0805 96.7355 40.0805H110.817C113.055 40.0805 114.236 39.3478 115.535 38.5012C115.814 38.9846 116.165 39.3578 116.588 39.62C117.018 39.886 117.514 40.0312 118.071 40.0689V40.0805H118.982C119.878 40.0805 120.588 39.804 120.974 39.2951C121.296 39.7522 121.893 40.0474 122.758 40.0752L122.762 40.0754L123.364 40.0829H123.369C124.098 40.0751 124.731 39.7008 125.213 38.9617C125.655 39.2962 126.161 39.6014 126.634 39.8322C126.906 39.9644 127.169 40.0735 127.408 40.1502C127.643 40.2259 127.866 40.2739 128.052 40.2739C128.464 40.2739 128.773 40.033 129.023 39.6586C129.401 39.1158 129.647 38.3867 129.647 37.7949C129.647 37.1538 129.473 36.5606 129.125 36.1227C128.772 35.6795 128.247 35.4064 127.583 35.4064C127.057 35.4064 126.596 35.5427 126.154 35.88C125.72 36.211 125.312 36.7294 124.871 37.4771L124.87 37.4797C124.586 37.9762 124.357 38.3033 124.134 38.5064C123.921 38.7008 123.717 38.7788 123.466 38.7788H123.13C122.527 38.7788 122.145 38.6964 121.911 38.5251C121.692 38.3642 121.563 38.0913 121.563 37.5939V35.9568H120.416V37.5713C120.416 38.0591 120.278 38.3492 120.081 38.5206C119.882 38.6949 119.586 38.7788 119.198 38.7788H118.745C118.075 38.7788 117.605 38.6938 117.239 38.5288C116.932 38.3899 116.686 38.1886 116.451 37.909C116.588 37.8236 116.728 37.7399 116.873 37.653L116.873 37.6527L117.012 37.5702C117.238 37.5984 117.467 37.6178 117.709 37.6178H117.898L117.982 36.4544L117.772 36.4494C116.843 36.4276 115.994 36.1474 115.128 35.86L115.115 35.8559C114.263 35.5733 113.389 35.2834 112.453 35.2834C112.006 35.2834 111.609 35.3304 111.171 35.4099L110.999 35.4408L111.05 36.5999L111.268 36.5733C111.359 36.5623 111.444 36.5509 111.525 36.54C111.785 36.5048 112.009 36.4744 112.325 36.4744C112.98 36.4744 113.567 36.6133 114.158 36.7983C114.365 36.863 114.576 36.9348 114.792 37.0081C115.038 37.0918 115.29 37.1776 115.548 37.2569C115.359 37.3613 115.18 37.463 115.007 37.561L115.006 37.5618C113.771 38.2632 112.864 38.7788 111.057 38.7788H97.208C96.6562 38.7788 96.2485 38.7726 95.8612 38.7051C96.1188 38.5019 96.309 38.2937 96.4685 38.0732C96.7091 37.7456 96.831 37.4491 96.831 37.0335C96.831 35.7715 95.8638 34.645 94.7089 34.645ZM94.552 38.2349C93.9583 37.8407 93.6095 37.4218 93.4014 36.8592C93.572 36.476 93.7647 36.2389 93.9583 36.0962C94.1596 35.948 94.3754 35.8914 94.6049 35.8914C94.7729 35.8914 95.0305 35.9956 95.2744 36.2543C95.5022 36.4958 95.7043 36.8607 95.7887 37.3545C95.5346 37.683 95.2215 37.9261 94.552 38.2349ZM128.129 39.04C127.454 38.9079 126.707 38.5286 125.837 37.9411C126.186 37.3719 126.457 37.0401 126.696 36.8482C126.942 36.6503 127.159 36.5976 127.421 36.5976C127.944 36.5976 128.487 37.0609 128.487 38.0412C128.487 38.3654 128.356 38.7485 128.129 39.04Z" fill="white"/>
<path d="M11.4824 41.5962L10.4108 40.7241L9.58594 41.6973L10.623 42.508L11.4824 41.5962Z" fill="white"/>
<path d="M18.1262 51.1259L19.268 51.4297C19.4847 51.4883 19.6938 51.5515 19.8497 51.6559C19.9932 51.7518 20.0861 51.878 20.0861 52.0841C20.0861 52.3085 19.9812 52.4862 19.7906 52.6144C19.594 52.7467 19.2994 52.8292 18.9315 52.8292C18.1966 52.8292 17.6796 52.4849 17.3901 52.0058L17.2655 51.7997L16.2559 52.6658L16.3585 52.8051C16.902 53.543 17.7689 53.9901 18.8976 53.9901C19.6121 53.9901 20.2387 53.7995 20.6909 53.4483C21.1464 53.0945 21.4134 52.5858 21.4134 51.9811C21.4134 51.3487 21.1131 50.9401 20.7285 50.6753C20.356 50.419 19.9058 50.2986 19.6013 50.2178L18.5509 49.9466L18.5498 49.9463C18.3201 49.8844 18.1678 49.8115 18.0729 49.7216C17.9857 49.6391 17.9309 49.527 17.9309 49.345C17.9309 49.1283 18.0211 48.9888 18.1629 48.8958C18.3149 48.7963 18.5428 48.7406 18.8219 48.7406C19.369 48.7406 19.7963 48.9802 20.1327 49.4398L20.2715 49.6294L21.2077 48.7275L21.0949 48.5939C20.5331 47.9281 19.7488 47.5923 18.8715 47.5923C18.2517 47.5923 17.7459 47.7349 17.3159 48.0629C16.8859 48.3908 16.6952 48.9223 16.6952 49.3953C16.6952 50.1201 17.0488 50.7301 18.1262 51.1259Z" fill="white"/>
<path fill-rule="evenodd" clip-rule="evenodd" d="M52.3192 47.5942C51.3425 47.5942 50.5095 47.9248 49.9207 48.4977C49.3324 49.0702 49 49.8729 49 50.7969C49 51.7224 49.3331 52.5251 49.9218 53.0972C50.511 53.6699 51.3439 53.9996 52.3192 53.9996C53.296 53.9996 54.129 53.6692 54.7178 53.0962C55.3061 52.5237 55.6385 51.721 55.6385 50.7969C55.6385 49.8728 55.3054 49.0701 54.7167 48.4976C54.1277 47.9248 53.2947 47.5942 52.3192 47.5942ZM50.4212 50.7969C50.4212 50.1816 50.6156 49.6773 50.9425 49.3294C51.2674 48.9835 51.7361 48.7778 52.3192 48.7778C52.9065 48.7778 53.3751 48.9837 53.6988 49.3292C54.0245 49.6769 54.2172 50.1812 54.2172 50.7969C54.2172 51.4141 54.0245 51.919 53.6988 52.2666C53.3752 52.612 52.9065 52.8173 52.3192 52.8161C51.7361 52.8161 51.2674 52.6105 50.9425 52.2645C50.6156 51.9166 50.4212 51.4122 50.4212 50.7969Z" fill="white"/>
<path d="M2.26966 47.7427H0.455078V53.8414H1.80588V49.9647L3.50136 53.8414H4.6919L6.39484 49.9207V53.8414H7.74564V47.7427H5.94818L4.12956 52.1212L2.26966 47.7427Z" fill="white"/>
<path d="M10.8801 47.7427H9.52148V51.38C9.52148 51.8782 9.6136 52.5275 10.005 53.0566C10.4056 53.598 11.0958 53.9822 12.2173 53.9822C13.3621 53.9822 14.0648 53.5773 14.4714 53.0118C14.8687 52.4593 14.9625 51.7822 14.9625 51.2645V47.7427H13.6013V51.174C13.6013 51.5539 13.5674 51.9631 13.3831 52.2746C13.2935 52.4259 13.1686 52.5538 12.9907 52.6454C12.8116 52.7376 12.5678 52.7986 12.2329 52.7986C11.9069 52.7986 11.6683 52.7384 11.4921 52.6472C11.3169 52.5567 11.1925 52.4302 11.1027 52.2805C10.9181 51.9729 10.8801 51.5693 10.8801 51.1991V47.7427Z" fill="white"/>
<path d="M30.5461 47.7427H29.1875V51.38C29.1875 51.8782 29.2795 52.5275 29.671 53.0566C30.0717 53.598 30.7619 53.9822 31.8833 53.9822C33.0281 53.9822 33.7308 53.5773 34.1374 53.0118C34.5347 52.4593 34.6286 51.7822 34.6286 51.2645V47.7427H33.2674V51.174C33.2674 51.5539 33.2334 51.9631 33.0491 52.2746C32.9595 52.4259 32.8346 52.5538 32.6567 52.6454C32.4776 52.7376 32.2339 52.7986 31.8989 52.7986C31.5729 52.7986 31.3343 52.7384 31.1581 52.6472C30.9829 52.5567 30.8585 52.4302 30.7687 52.2805C30.5841 51.9729 30.5461 51.5693 30.5461 51.1991V47.7427Z" fill="white"/>
<path d="M38.3791 47.7427H36.5645V53.8414H37.9153V49.9647L39.6108 53.8414H40.8013L42.5042 49.9207V53.8414H43.855V47.7427H42.0576L40.239 52.1212L38.3791 47.7427Z" fill="white"/>
<path d="M74.6699 47.7427H73.3086V53.8414H74.6699V51.3411H77.8267V53.8414H79.1879V47.7427H77.8267V50.1349H74.6699V47.7427Z" fill="white"/>
<path d="M98.2617 47.7427H96.9004V51.38C96.9004 51.8782 96.9925 52.5275 97.384 53.0566C97.784 53.598 98.4749 53.9822 99.5957 53.9822C100.741 53.9822 101.444 53.5773 101.85 53.0118C102.247 52.4593 102.341 51.7822 102.341 51.2645V47.7427H100.983V51.174C100.983 51.5539 100.949 51.9631 100.764 52.2746C100.675 52.4259 100.55 52.5538 100.372 52.6454C100.193 52.7376 99.9496 52.7986 99.6144 52.7986C99.2886 52.7986 99.0498 52.7384 98.8732 52.6472C98.6984 52.5567 98.5739 52.4302 98.4843 52.2805C98.2992 51.9729 98.2617 51.5693 98.2617 51.1991V47.7427Z" fill="white"/>
<path d="M112.009 47.7427H110.648V51.38C110.648 51.8782 110.74 52.5275 111.131 53.0566C111.532 53.598 112.222 53.9822 113.344 53.9822C114.488 53.9822 115.191 53.5773 115.598 53.0118C115.996 52.4593 116.089 51.7822 116.089 51.2645V47.7427H114.731V51.174C114.731 51.5539 114.696 51.9631 114.512 52.2746C114.423 52.4259 114.297 52.5538 114.12 52.6454C113.941 52.7376 113.697 52.7986 113.362 52.7986C113.036 52.7986 112.798 52.7384 112.621 52.6472C112.446 52.5567 112.322 52.4302 112.231 52.2805C112.047 51.9729 112.009 51.5693 112.009 51.1991V47.7427Z" fill="white"/>
<path d="M27.5717 47.7456H22.9941V53.8444H27.5717V52.6382H24.3527V51.3616H27.4257V50.1706H24.3527V48.9517H27.5717V47.7456Z" fill="white"/>
<path d="M71.9258 47.7456H66.2812V48.9517H68.4229V53.8444H69.7841V48.9517H71.9258V47.7456Z" fill="white"/>
<path d="M85.7869 47.7456H81.209V53.8444H85.7869V52.6382H82.5676V51.3616H85.6402V50.1706H82.5676V48.9517H85.7869V47.7456Z" fill="white"/>
<path d="M109.315 47.7456H103.67V48.9517H105.812V53.8444H107.173V48.9517H109.315V47.7456Z" fill="white"/>
<path fill-rule="evenodd" clip-rule="evenodd" d="M120.795 47.7456H118.023V53.8444H119.385V51.5903H120.062L121.81 53.8469H123.469L121.591 51.4694C122.52 51.2286 123.139 50.5374 123.139 49.6315C123.139 49.0762 122.908 48.598 122.489 48.2618C122.074 47.928 121.489 47.7456 120.795 47.7456ZM119.385 50.4168V48.9342H120.832C121.153 48.9342 121.382 49.0204 121.529 49.1461C121.674 49.2703 121.757 49.4485 121.757 49.6717C121.757 49.8919 121.676 50.0727 121.531 50.1997C121.384 50.3276 121.155 50.4168 120.832 50.4168H119.385Z" fill="white"/>
<path d="M129.309 47.7456H124.795V53.8444L129.309 53.8445V52.6382H126.154V51.3616H129.162V50.1706H126.154V48.9517H129.309V47.7456Z" fill="white"/>
<path d="M61.7949 47.7476H57.3008V53.8463H58.662V51.4439H61.6593V50.2454H58.662V48.9537H61.7949V47.7476Z" fill="white"/>
<path d="M95.4844 47.7476H90.9902V53.8463H92.3515V51.4439H95.3487V50.2454H92.3515V48.9537H95.4844V47.7476Z" fill="white"/>
</svg>
