<svg width="140" height="22" viewBox="0 0 140 22" fill="none" xmlns="http://www.w3.org/2000/svg">
<path d="M132.92 9.41764V12.3366H134.972V15.2326C134.978 15.4914 134.964 15.7705 134.919 15.9939C134.838 16.5341 134.325 17.4538 132.869 17.4538C131.421 17.4538 130.917 16.5341 130.83 15.9939C130.793 15.7705 130.778 15.4914 130.778 15.2326V6.08545C130.778 5.7619 130.799 5.40776 130.868 5.13971C130.967 4.6522 131.399 3.69078 132.858 3.69078C134.389 3.69078 134.771 4.70437 134.859 5.13971C134.916 5.42806 134.919 5.91172 134.919 5.91172V7.02245H139.96V6.36583C139.96 6.36583 139.983 5.68069 139.922 5.04129C139.543 1.28686 136.449 0.0990345 132.902 0.0990345C129.349 0.0990345 126.318 1.29791 125.877 5.04129C125.837 5.3836 125.776 5.99936 125.776 6.36583V14.7803C125.776 15.1468 125.788 15.4305 125.856 16.1002C126.185 19.7514 129.349 21.0456 132.888 21.0456C136.449 21.0456 139.592 19.7514 139.927 16.1002C139.986 15.4305 139.992 15.1468 140 14.7803V9.41764H132.92ZM98.1658 0.637437H93.104V15.4436C93.112 15.7017 93.104 15.9915 93.0595 16.2041C92.9539 16.7011 92.5327 17.6576 91.1362 17.6576C89.7577 17.6576 89.3254 16.7011 89.2278 16.2041C89.1771 15.9915 89.1707 15.7017 89.1771 15.4436V0.637437H84.1169V14.9841C84.1105 15.3539 84.1395 16.1095 84.1614 16.3074C84.5106 20.0459 87.4571 21.2597 91.1362 21.2597C94.8225 21.2597 97.7672 20.0459 98.1228 16.3074C98.1509 16.1095 98.1876 15.3539 98.1658 14.9841V0.637437ZM51.6576 0.637437L49.1326 16.2822L46.6092 0.637437H38.4442L38.0112 20.6516H43.0133L43.1488 2.12389L46.5904 20.6516H51.6655L55.1103 2.12389L55.2462 20.6516H60.261L59.8133 0.637437H51.6576ZM21.4271 0.637437L17.7197 20.6516H23.1261L25.9199 2.12389L28.6466 20.6516H34.0155L30.3235 0.637437H21.4271ZM115.856 16.7512L111.142 0.637437H103.715V20.4429H108.628L108.343 3.81363L113.405 20.4429H120.528V0.637437H115.583L115.856 16.7512ZM70.4094 5.84619C70.3205 5.45093 70.3462 5.03101 70.3922 4.81153C70.5353 4.17085 70.9658 3.47208 72.206 3.47208C73.362 3.47208 74.0397 4.19269 74.0397 5.27412V6.49793H78.974V5.10296C78.974 0.790605 75.1078 0.113169 72.3086 0.113169C68.7831 0.113169 65.904 1.2753 65.3782 4.5201C65.2392 5.40313 65.2047 6.18696 65.426 7.18718C66.2834 11.233 73.3268 12.4067 74.3491 14.9654C74.5295 15.4501 74.4779 16.0681 74.3859 16.4323C74.2327 17.0982 73.7847 17.7679 72.4569 17.7679C71.2115 17.7679 70.4618 17.0519 70.4618 15.9728L70.4603 14.052H65.1492V15.5788C65.1492 20.003 68.6145 21.3378 72.3469 21.3378C75.9214 21.3378 78.8737 20.1163 79.3474 16.8052C79.5733 15.0944 79.4029 13.98 79.3122 13.5604C78.4847 9.4107 70.9776 8.16248 70.4094 5.84619ZM5.31977 5.7971C5.22288 5.39362 5.2455 4.96779 5.29946 4.74574C5.43619 4.10814 5.86922 3.39704 7.13131 3.39704C8.30192 3.39704 8.99118 4.12459 8.99118 5.21476V6.45347H13.9833V5.04745C13.9833 0.69372 10.058 -0.000165543 7.2282 -0.000165543C3.67321 -0.000165543 0.768411 1.17995 0.236948 4.44814C0.0914891 5.34531 0.0665525 6.13454 0.276774 7.14581C1.14336 11.2377 8.25643 12.4209 9.29135 15.0101C9.48512 15.4914 9.42653 16.1095 9.33041 16.4878C9.16619 17.1606 8.71466 17.8398 7.37572 17.8398C6.12545 17.8398 5.37759 17.1115 5.37759 16.0175L5.37065 14.0916H0V15.622C0 20.0968 3.51439 21.4424 7.27575 21.4424C10.8919 21.4424 13.8615 20.2101 14.3459 16.8607C14.5867 15.1342 14.406 14.0106 14.3248 13.5845C13.4801 9.38397 5.88952 8.13986 5.31977 5.7971Z" fill="white"/>
</svg>
