<svg width="146" height="34" viewBox="0 0 146 34" fill="none" xmlns="http://www.w3.org/2000/svg">
<path d="M48.4549 33.9939C48.2419 33.7319 47.8599 33.4709 47.8549 33.2049C47.7988 32.6243 47.9179 32.0402 48.1969 31.5279C48.3279 31.3409 49.1969 31.5719 49.6659 31.7719C49.9969 31.9129 50.2159 32.3199 50.7999 32.9479C51.7819 31.1929 52.6129 29.5929 53.5479 28.0539C54.5383 26.6467 55.0651 24.9657 55.0551 23.245C55.045 21.5242 54.4986 19.8495 53.4919 18.4539C52.0649 16.2449 51.2919 13.6229 50.0569 11.2769C49.2966 10.0465 48.4427 8.87638 47.5029 7.77692H53.5569C50.9569 8.61592 52.2939 10.1089 52.9219 11.4689C54.1709 14.1749 55.4289 16.8689 56.8929 20.0259C58.4129 16.3079 59.8239 13.0559 60.9929 9.72092C61.1449 9.29392 60.0629 8.43193 59.5569 7.77393H64.3179C62.1699 8.48593 61.7009 10.4309 60.9819 12.1319C58.7519 17.3869 56.6759 22.7129 54.3229 27.9149C53.2026 30.026 51.9373 32.0569 50.5359 33.9929L48.4549 33.9939Z" fill="white"/>
<path d="M145.093 21.8236C143.682 26.5006 138.417 27.4146 134.228 23.9306L133.176 25.8376V19.9686C133.276 19.9316 133.385 19.8966 133.49 19.8586C133.79 20.6686 134.052 21.4946 134.39 22.2856C135.573 25.0286 138.136 26.2386 140.732 25.2686C141.37 25.0611 141.934 24.6735 142.357 24.1526C142.779 23.6316 143.042 22.9995 143.113 22.3326C143.248 21.702 143.172 21.0447 142.897 20.4616C142.622 19.8785 142.163 19.4017 141.59 19.1046C139.779 18.0926 137.914 17.1716 136.068 16.2206C135.323 15.8932 134.674 15.3807 134.183 14.7319C133.692 14.0831 133.375 13.3195 133.261 12.5136C133.076 11.6562 133.16 10.7624 133.502 9.95453C133.843 9.14665 134.427 8.4642 135.171 8.00061C136.009 7.47157 136.98 7.19034 137.971 7.18946C138.962 7.18857 139.933 7.46806 140.771 7.99561C141.242 8.29653 141.691 8.63071 142.113 8.99561C142.441 8.61661 142.752 8.25961 143.231 7.70761V12.3816C142.659 11.3746 142.306 10.7736 141.973 10.1606C141.624 9.3534 141.012 8.68795 140.236 8.27197C139.461 7.856 138.568 7.71386 137.702 7.86859C137.168 7.97175 136.663 8.18936 136.221 8.50647C135.779 8.82358 135.41 9.23266 135.141 9.7056C135.015 10.2329 135.017 10.783 135.148 11.3091C135.28 11.8353 135.537 12.3219 135.896 12.7276C137.345 13.8645 138.946 14.7913 140.653 15.4806C142.675 16.3916 144.353 17.5476 145.088 19.7406L145.093 21.8236Z" fill="white"/>
<path d="M120.132 16.6109C124.021 15.4539 125.106 14.0709 124.558 11.1429C124.078 8.5779 122.578 7.7859 118.335 7.9919C118.291 8.5619 118.206 9.16289 118.204 9.76589C118.204 13.8152 118.213 17.8642 118.23 21.9129C118.246 24.7999 118.26 24.7999 121.217 25.5889H113.229C113.929 25.1949 114.956 24.9589 115.296 24.3469C115.598 23.4809 115.697 22.5571 115.584 21.6469C115.608 18.2909 115.594 14.9359 115.593 11.5789C115.593 8.67891 115.593 8.67889 112.819 7.61489C116.519 7.61489 119.848 7.44189 123.147 7.67089C124.203 7.71507 125.208 8.13481 125.981 8.85445C126.755 9.5741 127.245 10.5463 127.365 11.5959C127.545 13.8739 126.447 15.2839 123.785 16.2069C123.415 16.3359 123.054 16.4879 122.43 16.7289C125.846 19.4289 127.173 23.9639 131.545 25.4029C128.072 26.2389 127.051 25.9139 124.945 23.2449C123.409 21.2929 121.887 19.3286 120.381 17.3519C120.262 17.1167 120.177 16.8659 120.128 16.6069" fill="white"/>
<path d="M99.8614 25.6148H93.9844C94.8149 24.4474 95.5633 23.2238 96.2244 21.9528C98.0804 17.7938 99.7794 13.5628 101.611 9.38981C101.873 8.87872 102.003 8.311 101.992 7.73717C101.981 7.16333 101.828 6.60119 101.546 6.10081C100.693 4.48881 99.9394 2.82281 99.0564 1.00081C98.5124 1.46981 98.2264 1.8678 97.8454 2.0088C97.3431 2.22017 96.7898 2.27896 96.2544 2.17781C96.0908 2.04204 95.9651 1.86627 95.8896 1.66756C95.8141 1.46884 95.7913 1.25395 95.8234 1.04381C96.0344 0.591806 96.6234 -0.0381857 96.9744 0.00181429C97.9112 0.0425632 98.8154 0.358 99.5744 0.908827C100.311 1.71961 100.877 2.67007 101.238 3.70381C103.829 9.74381 106.327 15.8248 108.963 21.8458C109.646 23.1289 110.435 24.3523 111.323 25.5028H106.897C109.339 24.4958 108.75 22.9118 108.054 21.2358C106.641 17.8358 105.291 14.4148 103.802 10.7228C103.536 11.082 103.296 11.46 103.083 11.8538C101.583 15.4768 100.126 19.1198 98.5834 22.7258C97.9624 24.1788 97.9324 25.1978 99.8554 25.6168" fill="white"/>
<path d="M90.737 25.6108H82.628C83.469 25.2108 84.582 25.0108 85.055 24.3548C85.4253 23.5147 85.5581 22.5892 85.439 21.6788C85.47 17.2338 85.453 12.7898 85.453 8.39084C81.114 7.32884 79.776 7.94083 78 11.9808V7.71582H95.437V11.1268C94.659 10.2638 93.921 8.79784 92.78 8.34784C91.487 7.83484 89.835 8.22784 88.157 8.22784C88.119 8.71484 88.045 9.20783 88.044 9.69983C88.0353 13.8658 88.0353 18.0308 88.044 22.1948C88.049 24.8238 88.156 24.9338 90.738 25.6128" fill="white"/>
<path d="M74.4352 9.06374L75.4642 7.57073V11.8708L75.2152 11.9788C74.8772 11.3598 74.5472 10.7387 74.1962 10.1257C73.8219 9.29686 73.1727 8.62282 72.3585 8.21771C71.5442 7.8126 70.615 7.70133 69.7282 7.90273C68.723 8.1909 67.8632 8.84715 67.3202 9.74075C67.0208 10.2547 66.9378 10.8666 67.0895 11.4418C67.2412 12.0169 67.6152 12.5083 68.1292 12.8077C69.8031 13.9349 71.5733 14.9121 73.4192 15.7277C77.4582 17.3327 77.9572 21.0397 76.5122 23.5817C74.9792 26.2817 70.6122 26.8947 67.7392 24.8447C67.3662 24.5817 67.0312 24.2637 66.5742 23.8847L65.3932 25.7667V19.9167C65.5052 19.8957 65.6152 19.8728 65.7262 19.8538C66.0802 20.7438 66.3962 21.6537 66.7972 22.5227C67.2463 23.6989 68.1421 24.65 69.2894 25.1687C70.4367 25.6873 71.7424 25.7316 72.9222 25.2917C73.6197 25.0757 74.2338 24.6503 74.681 24.0731C75.1283 23.496 75.3871 22.7951 75.4222 22.0657C75.4898 21.4253 75.3537 20.7799 75.0333 20.2213C74.7128 19.6627 74.2242 19.2195 73.6372 18.9547C72.0082 18.0877 70.3492 17.2727 68.7142 16.4167C65.5492 14.7577 64.4872 11.8168 66.1252 9.28475C67.6932 6.85975 71.1112 6.53173 73.7592 8.55373C73.9402 8.69373 74.1252 8.82975 74.4342 9.05975" fill="white"/>
<path d="M16.0921 21.4576C13.3021 26.2426 8.05805 27.4656 3.70405 24.6016C-0.25395 22.0016 -1.21396 15.6016 1.67204 11.0726C4.54504 6.55964 9.26605 6.06264 15.212 9.71864C15.502 9.02464 15.788 8.34064 16.072 7.65864L16.332 7.71964V13.9196C16.257 13.9436 16.1801 13.9706 16.1051 13.9986C15.9461 13.4986 15.789 12.9986 15.625 12.5066C15.2694 11.1523 14.4704 9.9561 13.3555 9.10893C12.2407 8.26175 10.8741 7.81241 9.47404 7.83262C6.58104 7.79762 4.66605 9.23264 3.62805 12.3056C2.7155 14.9467 2.65324 17.8073 3.45004 20.4856C4.96604 25.6496 10.46 27.0536 14.404 23.3116C15.004 22.7376 15.531 22.0796 16.093 21.4606" fill="white"/>
<path d="M45.1888 7.72363V11.5306C45.0718 11.5166 44.8938 11.5306 44.8768 11.4866C43.6278 8.24663 41.9768 7.35065 38.5018 8.15265C38.2947 8.24324 38.1133 8.38371 37.9737 8.56152C37.8341 8.73933 37.7407 8.94896 37.7018 9.17166C37.6618 13.8577 37.6848 18.5436 37.7018 23.2296C37.7108 25.0296 39.0018 25.3056 40.4018 25.5616H32.5698C33.2698 25.2146 34.3298 25.0187 34.7578 24.3907C35.1425 23.5551 35.2948 22.6314 35.1988 21.7166C35.2408 17.7246 35.1688 13.7316 35.2438 9.74164C35.2678 8.41764 34.8148 7.92165 33.5438 8.11765C33.4858 8.12465 33.4288 8.11765 33.3708 8.12265C29.5988 8.17165 29.5988 8.17166 27.7568 11.7537V7.72363H45.1888Z" fill="white"/>
<path d="M18.8108 25.551C20.8908 25.432 21.1938 23.932 21.1978 22.275C21.2098 18.339 21.1258 14.4 21.1908 10.466C21.2208 8.61303 20.1768 8.01701 18.6328 7.68701H26.3878C25.4878 8.12701 24.4078 8.31001 24.0328 8.92401C23.7197 9.78469 23.6222 10.709 23.7488 11.616C23.7278 15.147 23.8268 18.682 23.7188 22.211C23.6648 24.025 23.9818 25.311 26.0848 25.552L18.8108 25.551Z" fill="white"/>
</svg>
