<svg width="148" height="52" viewBox="0 0 148 52" fill="none" xmlns="http://www.w3.org/2000/svg">
<path d="M2.98433 33.3457H0V41.6574H2.93501C5.72203 41.6574 7.57182 39.7583 7.57182 37.4646C7.57182 35.1708 5.77136 33.3457 2.98433 33.3457ZM3.009 40.0296H1.87446V35.0228H3.009C4.56282 35.0228 5.6727 36.0834 5.6727 37.5386C5.6727 38.9937 4.58749 40.0296 3.009 40.0296Z" fill="white"/>
<path d="M14.1814 38.2289C14.1814 39.3881 13.4661 40.054 12.5043 40.054C11.5424 40.054 10.8024 39.3634 10.8024 38.2289V33.3701H8.90332V38.3029C8.90332 40.424 10.3092 41.8052 12.4549 41.8052C14.6007 41.8052 16.0559 40.3747 16.0559 38.2289V33.3701H14.2061V38.2289H14.1814Z" fill="white"/>
<path d="M23.2087 37.3166C23.8747 36.9466 24.294 36.256 24.294 35.4915C24.294 34.1103 23.0854 33.3457 21.6549 33.3457H17.9307V41.6574H21.8769C23.3814 41.6574 24.6639 40.7695 24.6639 39.339C24.6392 38.4265 24.072 37.6126 23.2087 37.3166ZM21.2603 36.7H19.8051V34.8255H21.2603C22.0002 34.8255 22.3948 35.2695 22.3948 35.7628C22.3948 36.2807 22.0002 36.7 21.2603 36.7ZM19.8051 38.0812H21.5316C22.2715 38.0812 22.7648 38.5005 22.7648 39.1171C22.7648 39.6843 22.3455 40.1776 21.5316 40.1776H19.8051V38.0812Z" fill="white"/>
<path d="M30.262 33.3457H28.4122L25.0332 41.6574H27.0063L27.6722 39.931H30.9032L31.5691 41.6574H33.6409L30.2866 33.3704L30.262 33.3457ZM30.3853 38.4265H28.2149L29.3001 35.5901L30.3853 38.4265Z" fill="white"/>
<path d="M36.5771 33.3457H34.6533V41.6574H36.5771V33.3457Z" fill="white"/>
<path d="M45.1351 33.3457H41.5342V41.6574H43.4333V39.0431H45.0858C47.0589 39.0431 48.2674 37.7359 48.2674 36.1574C48.2428 34.4062 46.9109 33.3457 45.1351 33.3457ZM43.4086 34.9735H44.9378C45.8504 34.9735 46.3683 35.5408 46.3683 36.2314C46.3683 36.922 45.8504 37.4892 44.9378 37.4892H43.4086V34.9735Z" fill="white"/>
<path d="M53.6197 33.2471C51.1533 33.2471 49.2295 35.1215 49.2295 37.5633C49.2295 39.9557 51.0546 41.8054 53.5703 41.8054C56.0367 41.8054 57.9605 39.931 57.9605 37.5139C57.9605 35.0969 56.1354 33.2471 53.6197 33.2471ZM53.595 40.0543C52.1398 40.0543 51.104 38.9691 51.104 37.5139C51.104 36.1081 52.1152 34.9735 53.595 34.9735C55.0255 34.9735 56.0861 36.0588 56.0861 37.5139C56.0614 38.9444 55.0255 40.0543 53.595 40.0543Z" fill="white"/>
<path d="M76.2112 39.1422C75.7426 39.7341 75.0273 40.0794 74.2874 40.0547C72.8569 40.0547 71.7963 38.9942 71.7963 37.5143C71.7963 36.0345 72.8322 34.974 74.2874 34.974C75.0026 34.9493 75.6932 35.2699 76.1618 35.8125L76.1865 35.8372L77.5677 34.604L77.543 34.5793C76.7044 33.6668 75.5453 33.1735 74.3121 33.1981C71.8457 33.1981 69.9219 35.0973 69.9219 37.5143C69.9219 39.9314 71.7963 41.7565 74.2627 41.7565C75.5452 41.7812 76.7538 41.2386 77.5924 40.2767L77.617 40.252L76.2358 39.0682L76.2112 39.1422Z" fill="white"/>
<path d="M61.364 33.3457H59.4648V41.6821H65.3595V39.9803H61.364V33.3457Z" fill="white"/>
<path d="M68.3925 33.3457H66.4688V41.6574H68.3925V33.3457Z" fill="white"/>
<path d="M80.6508 40.0296V38.1798H84.3257V36.626H80.6508V34.9982H84.9177V33.3457H78.7764V41.6821H85.041V40.0296H80.6508Z" fill="white"/>
<path d="M45.7518 13.171C46.4423 13.171 46.9849 12.6284 46.9849 11.9378C46.9849 11.2472 46.4423 10.7046 45.7518 10.7046C45.0612 10.7046 44.5186 11.2472 44.5186 11.9378C44.5186 12.6037 45.0612 13.171 45.7518 13.171Z" fill="white"/>
<path d="M78.283 11.296C78.9736 11.296 79.5162 10.7534 79.5162 10.0628C79.5162 9.3722 78.9736 8.82959 78.283 8.82959C77.5924 8.82959 77.0498 9.3722 77.0498 10.0628C77.0498 10.7534 77.6171 11.296 78.283 11.296Z" fill="white"/>
<path d="M76.5809 14.1568C77.2714 14.1568 77.814 13.6142 77.814 12.9236C77.814 12.233 77.2714 11.6904 76.5809 11.6904C75.8903 11.6904 75.3477 12.233 75.3477 12.9236C75.3477 13.5896 75.8903 14.1568 76.5809 14.1568Z" fill="white"/>
<path d="M78.7764 12.9234C78.7764 13.614 79.319 14.1566 80.0096 14.1566C80.7002 14.1566 81.2428 13.614 81.2428 12.9234C81.2428 12.2328 80.7002 11.6902 80.0096 11.6902C79.319 11.6656 78.7764 12.2328 78.7764 12.9234Z" fill="white"/>
<path d="M83.2403 14.4531L81.1686 15.711C81.6619 16.5249 83.0924 19.3119 82.4264 23.2581H79.5161V15.711H77.0744V23.2581H75.2246V15.711H72.7829V23.2581H69.3299V14.7244H66.8882V24.3187C66.8882 26.2918 65.285 27.8703 63.3119 27.895H62.6953V30.3367H63.3119C66.0989 30.3367 68.4913 28.4129 69.1573 25.7245H84.3749L84.5969 24.7873C85.9041 19.4106 83.8816 15.5137 83.2403 14.4531Z" fill="white"/>
<path d="M30.5091 14.4282L29.4239 16.5987C32.5809 18.1771 32.7782 21.3095 32.5315 23.2579H27.1055V25.6996H34.554L34.7759 24.7377C36.2558 17.9058 31.8903 15.1188 30.5091 14.4282Z" fill="white"/>
<path d="M64.0523 25.7002L64.6936 23.5298C65.2609 21.5567 64.8909 19.4356 63.6824 17.7831C61.5366 14.8974 57.4917 14.3055 54.6061 16.4512C54.4827 16.5252 54.3841 16.6239 54.2608 16.7225L52.115 18.5477V11.9131H49.6979V23.2585H46.9602V14.7248H44.4445C41.0902 14.7248 38.3525 17.4625 38.3525 20.8168V25.7249H40.7943V20.8168C40.7943 18.7943 42.4221 17.1665 44.4445 17.1665H44.5185V25.7249L64.0523 25.7002ZM52.1397 21.754L55.8639 18.5723C57.5657 17.1172 60.1308 17.3145 61.5859 19.041C61.6353 19.1149 61.7093 19.1889 61.7586 19.2629C62.5232 20.2988 62.7698 21.6307 62.3999 22.8639L62.2765 23.2832H52.1643L52.1397 21.754Z" fill="white"/>
<path d="M23.0857 27.2539C22.3951 27.2539 21.8525 27.7965 21.8525 28.4871C21.8525 29.1777 22.3951 29.7203 23.0857 29.7203C23.7763 29.7203 24.3189 29.1777 24.3189 28.4871C24.3436 27.8212 23.7763 27.2539 23.0857 27.2539Z" fill="white"/>
<path d="M10.1121 27.2539C9.42151 27.2539 8.87891 27.7965 8.87891 28.4871C8.87891 29.1777 9.42151 29.7203 10.1121 29.7203C10.8027 29.7203 11.3453 29.1777 11.3453 28.4871C11.3453 27.8212 10.778 27.2539 10.1121 27.2539Z" fill="white"/>
<path d="M6.98027 27.2539C6.28968 27.2539 5.74707 27.7965 5.74707 28.4871C5.74707 29.1777 6.28968 29.7203 6.98027 29.7203C7.67086 29.7203 8.21346 29.1777 8.21346 28.4871C8.23812 27.8212 7.67086 27.2539 6.98027 27.2539Z" fill="white"/>
<path d="M42.7176 13.171C43.4082 13.171 43.9508 12.6284 43.9508 11.9378C43.9508 11.2472 43.4082 10.7046 42.7176 10.7046C42.027 10.7046 41.4844 11.2472 41.4844 11.9378C41.4844 12.6037 42.027 13.171 42.7176 13.171Z" fill="white"/>
<path d="M23.2085 21.7781C23.2085 22.592 22.5426 23.2579 21.7287 23.2579H20.6188V14.7242H18.0537C14.7734 14.7242 12.1837 17.3879 12.1837 20.8162V23.2826H2.44148V22.9619C2.44148 20.3969 3.05808 17.8812 4.26661 15.6121L2.12085 14.4775C0.739668 17.0919 0.0244141 20.0269 0.0244141 22.9866V25.7489H14.6501V20.8408C14.6501 18.7691 16.1299 17.1906 18.0784 17.1906H18.2017V25.7489H21.7287C23.8991 25.7489 25.6502 23.9978 25.6502 21.8274V14.7242H23.2085V21.7781Z" fill="white"/>
<path d="M147.515 28.6595C147.096 28.6348 146.652 28.6595 146.257 28.7335C146.578 28.3882 146.849 28.0429 147.096 27.6482C148.008 26.2177 148.23 24.4913 147.761 22.8881C147.342 22.9621 146.923 23.0608 146.553 23.2334C146.775 22.8388 146.972 22.4195 147.12 22.0002C147.688 20.4217 147.564 18.6706 146.75 17.1907C146.356 17.3387 145.986 17.536 145.64 17.7827C145.788 17.3387 145.887 16.8948 145.936 16.4508C146.183 14.7737 145.69 13.0965 144.605 11.814C144.259 12.0607 143.914 12.332 143.643 12.6279C143.692 12.184 143.692 11.7154 143.667 11.2467C143.544 9.56959 142.705 8.01577 141.349 7.02921C141.053 7.32518 140.782 7.67047 140.584 8.04043C140.535 7.59648 140.436 7.12787 140.313 6.70858C139.844 5.10543 138.685 3.77358 137.181 3.05832C136.959 3.42828 136.761 3.79824 136.638 4.19286C136.49 3.74891 136.317 3.32963 136.095 2.935C135.306 1.45517 133.9 0.39462 132.248 0.0246617C131.952 0.838571 131.853 1.72647 131.927 2.58971C131.755 2.44173 131.533 2.31841 131.311 2.17042C129.88 1.28252 128.129 1.08521 126.526 1.57849C126.822 3.23097 127.833 4.66148 129.288 5.52471C129.51 5.64803 129.732 5.77136 129.929 5.87001C129.116 6.19064 128.376 6.68392 127.808 7.32518C128.696 8.38573 129.954 9.07632 131.335 9.29829C132.001 10.5068 133.062 11.4194 134.344 11.9127C134.739 13.2199 135.578 14.3544 136.737 15.119C136.835 16.4755 137.427 17.7827 138.389 18.7446C138.192 20.1011 138.513 21.4823 139.252 22.6415C138.784 23.924 138.784 25.3545 139.277 26.637C138.537 27.7962 138.266 29.1774 138.463 30.5339C137.501 31.5205 136.934 32.803 136.835 34.1842C135.701 34.9488 134.862 36.0833 134.468 37.3905C133.185 37.8838 132.125 38.821 131.483 40.0295C130.127 40.2515 128.894 40.9421 128.006 41.978C126.353 41.904 124.725 42.5206 123.566 43.7291C122.752 44.543 122.308 45.3076 122.062 46.0475C121.84 46.7874 121.075 47.2067 120.335 46.9847C119.891 46.8614 119.546 46.4915 119.398 46.0475C119.176 45.3076 118.707 44.5184 117.893 43.7291C116.734 42.5452 115.106 41.904 113.454 41.978C112.566 40.9421 111.333 40.2268 110.001 40.0049C109.36 38.7963 108.299 37.8591 107.017 37.3658C106.647 36.0586 105.808 34.8994 104.649 34.1595C104.55 32.803 103.983 31.4958 103.021 30.5093C103.218 29.1527 102.923 27.7716 102.207 26.6124C102.676 25.3298 102.701 23.8993 102.232 22.6168C102.972 21.4576 103.268 20.0764 103.095 18.7199C104.057 17.758 104.649 16.4508 104.748 15.0943C105.907 14.3544 106.745 13.2199 107.14 11.888C108.423 11.3947 109.483 10.4575 110.149 9.27363C111.53 9.05165 112.763 8.36106 113.676 7.30052C113.084 6.65925 112.369 6.16598 111.555 5.84535C111.777 5.74669 111.974 5.62337 112.196 5.50005C113.651 4.63682 114.638 3.20631 114.958 1.55383C113.355 1.06055 111.604 1.28252 110.174 2.14576C109.952 2.26908 109.754 2.41706 109.557 2.56505C109.656 1.70181 109.557 0.813909 109.261 0C107.633 0.369959 106.227 1.43051 105.414 2.91034C105.192 3.30496 105.019 3.72425 104.871 4.1682C104.723 3.77358 104.55 3.37896 104.328 3.03366C102.799 3.74892 101.665 5.08076 101.196 6.68392C101.073 7.12787 100.974 7.57182 100.925 8.01577C100.703 7.64581 100.456 7.32518 100.16 7.00455C98.8036 8.01577 97.9651 9.56959 97.8417 11.2467C97.7924 11.6907 97.8171 12.1593 97.8664 12.6279C97.5704 12.3073 97.2498 12.036 96.9045 11.814C95.7946 13.0965 95.3014 14.7737 95.548 16.4262C95.5973 16.8701 95.696 17.3387 95.844 17.758C95.4987 17.5114 95.1287 17.3141 94.7341 17.1661C93.9202 18.6459 93.7969 20.3971 94.3641 21.9755C94.5121 22.4195 94.7094 22.8141 94.9314 23.2087C94.5368 23.0361 94.1175 22.9374 93.7229 22.8634C93.2543 24.4666 93.4762 26.2177 94.3888 27.6236C94.6354 28.0182 94.9067 28.3882 95.2274 28.7088C94.8081 28.6348 94.3888 28.6101 93.9695 28.6348C93.8462 30.3119 94.4381 31.9644 95.622 33.1483C95.9426 33.4689 96.2879 33.7896 96.6579 34.0362C96.2386 34.0362 95.8193 34.1102 95.4 34.2088C95.622 35.886 96.5592 37.3658 97.9651 38.2784C98.335 38.525 98.7543 38.747 99.1736 38.9443C98.7543 39.043 98.3597 39.191 97.9897 39.3883C98.557 40.9668 99.7902 42.2246 101.369 42.8412C101.788 43.0139 102.232 43.1372 102.676 43.2358C102.306 43.4331 101.936 43.6551 101.615 43.9264C102.503 45.3569 103.983 46.3188 105.636 46.5901C106.079 46.6641 106.548 46.7134 106.992 46.6888C106.671 46.9601 106.351 47.2561 106.104 47.5767C107.288 48.7852 108.916 49.4265 110.593 49.3278C111.062 49.3032 111.506 49.2538 111.949 49.1552C111.678 49.4758 111.456 49.8458 111.259 50.2157C112.665 51.1529 114.391 51.4243 116.019 50.9803C116.734 50.8077 117.4 50.5117 118.017 50.0924C119.694 48.9332 121.914 48.9332 123.616 50.0924C124.232 50.487 124.898 50.8077 125.613 50.9803C127.241 51.4243 128.968 51.1529 130.373 50.2157C130.176 49.8458 129.954 49.4758 129.683 49.1552C130.127 49.2538 130.571 49.3278 131.039 49.3278C132.717 49.4265 134.344 48.7852 135.528 47.5767C135.257 47.2561 134.961 46.9354 134.64 46.6888C135.109 46.6888 135.553 46.6641 135.997 46.5901C137.649 46.3188 139.129 45.3569 140.017 43.9264C139.696 43.6551 139.326 43.4331 138.956 43.2358C139.4 43.1372 139.844 43.0139 140.264 42.8412C141.842 42.2246 143.075 40.9668 143.643 39.3883C143.273 39.191 142.878 39.043 142.459 38.9443C142.878 38.7717 143.273 38.5497 143.667 38.2784C145.073 37.3658 146.01 35.8613 146.232 34.2088C145.813 34.1102 145.394 34.0362 144.974 34.0362C145.344 33.7649 145.69 33.4689 146.01 33.1483C147.022 31.9644 147.638 30.3366 147.515 28.6595ZM110.642 41.2381C111.629 41.608 112.492 42.2986 113.059 43.1865C113.775 44.321 114.021 45.3076 113.849 46.1955C112.961 45.9982 112.171 45.3569 111.456 44.2224C110.864 43.3345 110.593 42.2739 110.642 41.2381ZM107.411 38.6977C108.299 39.2649 108.99 40.1282 109.335 41.1147C109.804 42.3726 109.828 43.3838 109.483 44.2224C108.669 43.8278 108.028 43.0385 107.559 41.8053C107.165 40.8188 107.115 39.7336 107.411 38.6977ZM104.748 35.5654C105.488 36.3299 105.981 37.2918 106.129 38.3524C106.326 39.6842 106.129 40.6708 105.611 41.4107C104.896 40.8681 104.427 39.9555 104.23 38.6237C104.082 37.5631 104.254 36.5026 104.748 35.5654ZM102.824 31.9398C103.391 32.8277 103.662 33.8882 103.588 34.9488C103.49 36.2806 103.095 37.2178 102.429 37.8344C101.837 37.1439 101.566 36.1573 101.665 34.8254C101.739 33.7649 102.133 32.7537 102.824 31.9398ZM99.2229 26.0204C99.7162 25.0832 100.505 24.3186 101.467 23.8747C101.615 24.9352 101.418 25.9958 100.925 26.933C100.283 28.1169 99.5436 28.8074 98.6803 29.0788C98.4337 28.1909 98.5817 27.2043 99.2229 26.0204ZM98.261 24.2939C98.2117 23.3814 98.5817 22.4442 99.4449 21.4083C100.135 20.5944 101.048 20.0271 102.084 19.7805C102.01 20.841 101.591 21.8522 100.9 22.6415C100.037 23.6774 99.1489 24.1953 98.261 24.2939ZM99.9875 30.5339C100.283 29.5227 100.875 28.6101 101.714 27.9689C102.084 28.9554 102.133 30.0406 101.837 31.0765C101.467 32.359 100.875 33.1976 100.111 33.6416C99.6669 32.8523 99.6175 31.8164 99.9875 30.5339ZM101.763 18.4979C100.703 19.3118 99.7409 19.6325 98.8283 19.5338C98.9516 18.6459 99.5189 17.7827 100.579 16.9688C101.418 16.3275 102.429 15.9575 103.49 15.9329C103.218 16.9688 102.602 17.8567 101.763 18.4979ZM112.122 7.34985C111.284 7.99111 110.248 8.36107 109.187 8.36107C107.855 8.38573 106.869 8.0651 106.227 7.4485C106.869 6.80724 107.831 6.46194 109.162 6.43728C110.198 6.43728 111.259 6.73325 112.122 7.34985ZM110.568 3.009C111.481 2.46639 112.541 2.21975 113.577 2.31841C113.183 3.30496 112.467 4.11887 111.555 4.66148C110.396 5.35207 109.409 5.57404 108.521 5.35207C108.768 4.48883 109.434 3.69959 110.568 3.009ZM106.178 3.40362C106.696 2.46639 107.485 1.72647 108.447 1.28252C108.595 2.34307 108.373 3.40362 107.855 4.31618C107.214 5.50005 106.449 6.16598 105.586 6.43728C105.364 5.57404 105.537 4.56282 106.178 3.40362ZM105.562 9.32296C106.597 9.07632 107.683 9.17498 108.645 9.59426C107.954 10.4082 107.017 10.9754 106.005 11.1974C104.698 11.4934 103.687 11.3947 102.923 10.9508C103.391 10.1862 104.254 9.64359 105.562 9.32296ZM102.035 6.95522C102.331 5.944 102.947 5.0561 103.81 4.41484C104.18 5.40139 104.205 6.51127 103.884 7.52249C103.49 8.80501 102.898 9.64359 102.109 10.0629C101.689 9.27363 101.64 8.26241 102.035 6.95522ZM102.676 12.8746C103.638 12.4059 104.723 12.2826 105.759 12.4799C105.266 13.4172 104.476 14.1571 103.514 14.601C102.306 15.1683 101.295 15.2916 100.431 14.9957C100.727 14.1817 101.467 13.4665 102.676 12.8746ZM98.705 11.3207C98.779 10.2602 99.1983 9.24897 99.8888 8.45972C100.456 9.37229 100.703 10.4082 100.604 11.4687C100.505 12.8006 100.086 13.7378 99.4202 14.3297C98.853 13.6391 98.6063 12.6526 98.705 11.3207ZM96.9538 13.2445C97.6938 14.0091 98.1624 14.9957 98.2857 16.0315C98.4583 17.3634 98.261 18.35 97.7184 19.0899C97.0032 18.5226 96.5592 17.61 96.3866 16.3028C96.2386 15.2423 96.4359 14.1817 96.9538 13.2445ZM95.0794 18.5473C95.9673 19.1392 96.6332 20.0024 96.9785 20.989C97.4225 22.2468 97.4471 23.2581 97.0772 24.0966C96.2632 23.702 95.622 22.9128 95.178 21.6549C94.8081 20.6437 94.7834 19.5585 95.0794 18.5473ZM94.3395 24.0966C95.326 24.4913 96.1646 25.1819 96.7072 26.0944C97.4225 27.229 97.6444 28.2155 97.4471 29.1034C96.5839 28.8814 95.77 28.2402 95.0794 27.1056C94.5368 26.2177 94.2655 25.1572 94.3395 24.0966ZM96.1893 32.4824C95.4493 31.7178 94.9807 30.7559 94.8327 29.6954C95.8686 29.868 96.8305 30.3859 97.5704 31.1505C98.5077 32.1124 98.927 33.025 98.927 33.9375C98.0144 33.8882 97.1265 33.4443 96.1893 32.4824ZM98.3843 37.4891C97.4964 36.8972 96.8305 36.0586 96.4606 35.0474C97.5211 34.9981 98.557 35.2941 99.4449 35.886C100.555 36.6259 101.171 37.4398 101.369 38.3277C100.481 38.5004 99.4942 38.2537 98.3843 37.4891ZM101.591 41.9533C100.604 41.5587 99.7655 40.8681 99.1983 39.9802C100.234 39.7089 101.319 39.7829 102.281 40.1775C103.539 40.6708 104.304 41.3367 104.674 42.1506C103.835 42.4713 102.824 42.4466 101.591 41.9533ZM105.636 45.6282C104.6 45.4556 103.613 44.9623 102.873 44.1977C103.81 43.7044 104.896 43.5565 105.932 43.7291C107.263 43.9511 108.151 44.4444 108.694 45.1596C107.979 45.6776 106.967 45.8502 105.636 45.6282ZM110.396 48.3413C109.335 48.3906 108.299 48.1193 107.411 47.5274C108.225 46.8614 109.261 46.4668 110.322 46.4175C111.654 46.3435 112.64 46.6395 113.306 47.2314C112.689 47.8973 111.728 48.2919 110.396 48.3413ZM115.624 50.0184C114.613 50.2897 113.503 50.2404 112.517 49.8458C113.183 49.0072 114.095 48.4153 115.131 48.1686C116.438 47.8233 117.45 47.8973 118.239 48.3413C117.746 49.1058 116.907 49.6731 115.624 50.0184ZM115.772 45.7762C115.008 45.0363 114.515 44.0497 114.367 43.0139C115.427 43.1865 116.389 43.6798 117.129 44.4197C118.066 45.3816 118.51 46.2942 118.535 47.1821C117.622 47.1574 116.71 46.7134 115.772 45.7762ZM146.972 24.0966C147.046 25.1572 146.8 26.2177 146.232 27.1056C145.517 28.2402 144.728 28.8814 143.865 29.1034C143.692 28.2155 143.889 27.229 144.605 26.0944C145.147 25.1819 145.986 24.4913 146.972 24.0966ZM146.232 18.5226C146.528 19.5338 146.504 20.619 146.134 21.6302C145.69 22.8881 145.048 23.6774 144.235 24.072C143.865 23.2581 143.865 22.2222 144.333 20.9643C144.703 19.9778 145.369 19.1145 146.232 18.5226ZM143.026 16.0315C143.149 14.971 143.643 14.0091 144.358 13.2445C144.876 14.1817 145.073 15.2423 144.925 16.2782C144.753 17.61 144.284 18.5226 143.593 19.0652C143.051 18.3746 142.853 17.3634 143.026 16.0315ZM140.412 26.933C139.894 25.9958 139.721 24.9352 139.869 23.8747C140.831 24.3186 141.62 25.0832 142.113 26.0204C142.755 27.2043 142.903 28.2155 142.656 29.0788C141.793 28.8074 141.053 28.1169 140.412 26.933ZM141.25 33.6416C140.461 33.1976 139.894 32.359 139.524 31.0765C139.228 30.0653 139.277 28.9801 139.647 27.9689C140.486 28.6101 141.102 29.5227 141.374 30.5339C141.719 31.8411 141.67 32.8523 141.25 33.6416ZM140.436 22.6661C139.746 21.8522 139.326 20.841 139.252 19.8051C140.288 20.0518 141.201 20.619 141.891 21.4329C142.755 22.4442 143.125 23.406 143.075 24.3186C142.187 24.22 141.3 23.702 140.436 22.6661ZM141.423 8.48439C142.113 9.27363 142.533 10.2848 142.607 11.3454C142.705 12.6772 142.459 13.6638 141.891 14.3544C141.226 13.7625 140.806 12.8252 140.708 11.4934C140.609 10.4328 140.856 9.37229 141.423 8.48439ZM137.551 4.41484C138.389 5.0561 139.03 5.944 139.326 6.95522C139.721 8.23775 139.672 9.24897 139.252 10.0629C138.463 9.61893 137.871 8.80501 137.477 7.52249C137.156 6.4866 137.181 5.40139 137.551 4.41484ZM132.889 1.28252C133.851 1.72647 134.64 2.46639 135.158 3.40362C135.8 4.58749 135.972 5.57404 135.75 6.46194C134.887 6.19064 134.122 5.52471 133.481 4.34085C132.963 3.40362 132.741 2.31841 132.889 1.28252ZM129.757 4.66148C128.844 4.11887 128.129 3.30496 127.734 2.31841C128.795 2.21975 129.855 2.46639 130.743 3.009C131.903 3.69959 132.544 4.48883 132.766 5.35207C131.903 5.57404 130.916 5.35207 129.757 4.66148ZM132.149 8.36107C131.089 8.3364 130.053 7.99111 129.214 7.34985C130.077 6.73325 131.113 6.41261 132.174 6.43728C133.506 6.46194 134.468 6.80724 135.109 7.4485C134.468 8.08976 133.481 8.38573 132.149 8.36107ZM132.667 9.59426C133.629 9.17498 134.714 9.07632 135.75 9.32296C137.057 9.64359 137.921 10.1862 138.414 10.9261C137.649 11.3947 136.613 11.4934 135.331 11.1728C134.295 10.9508 133.358 10.3835 132.667 9.59426ZM135.578 12.4799C136.613 12.2826 137.699 12.4059 138.661 12.8746C139.869 13.4418 140.584 14.1571 140.905 15.0203C140.042 15.3163 139.03 15.193 137.822 14.6257C136.86 14.1817 136.071 13.4172 135.578 12.4799ZM137.822 15.9329C138.882 15.9575 139.918 16.3275 140.732 16.9688C141.793 17.7827 142.36 18.6459 142.483 19.5338C141.596 19.6325 140.609 19.3118 139.548 18.4979C138.71 17.8567 138.093 16.9441 137.822 15.9329ZM138.513 31.9398C139.203 32.7537 139.598 33.7649 139.672 34.8254C139.77 36.1573 139.499 37.1439 138.907 37.8344C138.241 37.2178 137.847 36.2806 137.748 34.9488C137.674 33.8882 137.921 32.8277 138.513 31.9398ZM135.208 38.3524C135.356 37.2918 135.849 36.3299 136.589 35.5654C137.082 36.5026 137.279 37.5631 137.107 38.6237C136.909 39.9555 136.441 40.8434 135.726 41.4107C135.183 40.6708 135.01 39.6596 135.208 38.3524ZM132.001 41.1394C132.371 40.1528 133.037 39.2896 133.925 38.7223C134.221 39.7336 134.172 40.8188 133.802 41.83C133.333 43.0878 132.692 43.8771 131.878 44.2471C131.483 43.4085 131.533 42.3973 132.001 41.1394ZM128.277 43.1865C128.844 42.2986 129.683 41.608 130.669 41.2134C130.743 42.2739 130.472 43.3345 129.88 44.2224C129.165 45.3569 128.351 45.9735 127.488 46.1955C127.315 45.3076 127.562 44.2964 128.277 43.1865ZM124.207 44.395C124.947 43.6305 125.909 43.1372 126.97 42.9892C126.822 44.0497 126.329 45.0116 125.564 45.7515C124.627 46.7134 123.714 47.1574 122.802 47.1574C122.826 46.2695 123.27 45.3569 124.207 44.395ZM125.712 50.0184C124.405 49.6731 123.566 49.1058 123.098 48.3413C123.887 47.8973 124.898 47.8233 126.205 48.1686C127.241 48.4399 128.154 49.0319 128.82 49.8458C127.833 50.2404 126.748 50.2897 125.712 50.0184ZM130.941 48.3413C129.609 48.2673 128.647 47.8973 128.03 47.2314C128.721 46.6395 129.683 46.3435 131.015 46.4175C132.075 46.4668 133.086 46.8368 133.925 47.5274C133.062 48.1193 132.001 48.4153 130.941 48.3413ZM135.676 45.6282C134.344 45.8502 133.358 45.6776 132.618 45.1596C133.16 44.4444 134.048 43.9511 135.38 43.7291C136.416 43.5565 137.501 43.7044 138.439 44.1977C137.699 44.9376 136.737 45.4556 135.676 45.6282ZM139.746 41.9533C138.488 42.4466 137.477 42.4959 136.638 42.1506C137.008 41.3367 137.773 40.6708 139.03 40.1775C140.017 39.7829 141.102 39.7089 142.113 39.9802C141.571 40.8681 140.732 41.5587 139.746 41.9533ZM144.876 35.0721C144.506 36.0586 143.84 36.9219 142.952 37.5138C141.842 38.2537 140.856 38.525 139.968 38.3524C140.165 37.4645 140.782 36.6506 141.891 35.9107C142.755 35.3187 143.815 35.0228 144.876 35.0721ZM142.409 33.9375C142.409 33.025 142.829 32.1124 143.766 31.1505C144.506 30.3859 145.468 29.868 146.504 29.6954C146.356 30.7559 145.887 31.7178 145.147 32.4824C144.21 33.4443 143.297 33.9129 142.409 33.9375Z" fill="white"/>
<path d="M105.487 27.6728V28.3634C106.351 30.0405 107.337 31.6684 108.422 33.2222H105.981C105.981 33.2222 106.474 34.2334 107.954 34.2334H133.333C134.837 34.2334 135.306 33.2222 135.306 33.2222H133.086C134.221 31.545 135.232 29.8186 136.145 28.0181H137.353V26.0943H130.743C123.788 20.4463 122.308 10.8027 126.353 3.57617C114.81 5.86992 106.129 15.9328 105.487 27.6728ZM106.005 27.6975C109.434 25.5764 113.355 24.3432 117.375 24.1212V27.6975H106.005ZM130.201 26.9082L129.633 27.6728H118.978V24.0719C122.875 24.0965 126.723 25.0831 130.201 26.9082ZM128.005 24.8118C121.026 22.0988 113.207 22.592 106.647 26.1683C107.88 16.1794 114.934 7.89236 124.577 5.05601C121.815 11.7399 123.171 19.4351 128.005 24.8118Z" fill="white"/>
<path d="M119.547 42.644H121.791C123.296 42.644 123.764 41.6328 123.764 41.6328H117.549C117.549 41.6328 118.042 42.644 119.547 42.644Z" fill="white"/>
<path d="M128.302 39.5366H113.035C113.035 39.5366 113.528 40.5478 115.008 40.5478H126.304C127.809 40.5232 128.302 39.5366 128.302 39.5366Z" fill="white"/>
<path d="M131.755 37.415H109.582C109.582 37.415 110.075 38.4263 111.555 38.4263H129.757C131.262 38.4263 131.755 37.415 131.755 37.415Z" fill="white"/>
<path d="M133.851 35.3184H107.485C107.485 35.3184 107.979 36.3296 109.458 36.3296H131.878C133.382 36.3049 133.851 35.3184 133.851 35.3184Z" fill="white"/>
</svg>
