<svg width="81" height="49" viewBox="0 0 81 49" fill="none" xmlns="http://www.w3.org/2000/svg">
<path d="M19.6053 14.2449C19.6053 5.76304 15.065 3.9834 11.2578 3.9834H4.66504V25.0122H10.9435C16.7708 25.0122 19.6053 21.4878 19.6053 14.2424M5.74807 5.06147H11.2619C16.0866 5.06147 18.5314 8.15134 18.5314 14.2457C18.5314 20.9471 16.192 23.9374 10.9476 23.9374H5.74807V5.06147Z" fill="white"/>
<path d="M61.042 28.9398H62.1201V16.3066H74.3187V28.9398H75.3968V15.2285H61.042V28.9398Z" fill="white"/>
<path d="M32.1943 28.9447H33.4441L39.5567 18.9851L45.7265 28.9588L47.0127 28.9273L39.5492 16.9219L32.1943 28.9447Z" fill="white"/>
<path d="M74.3187 0V11.0518H62.1201V0H56.3591V27.8637H51.8196L43.0077 14.2088L52.3868 0H45.6614L39.6359 9.67019L33.6743 0.0406438L33.6494 0H26.8493L36.1413 14.2478L27.3709 27.867H17.2305C21.9052 25.7474 24.3698 21.1283 24.3698 14.4791C24.3698 4.87116 20.0235 0 11.4538 0H0.0595703V28.9417H1.13762V1.07807H11.4538C19.4198 1.07807 23.2926 5.45994 23.2926 14.4791C23.2926 22.1831 19.929 26.8063 13.5676 27.8512L13.4847 27.8653L13.6265 28.7187V28.9442H27.9937V28.8837L37.4234 14.2428L28.8354 1.07807H33.0457L39.6301 11.7127L46.2577 1.07807H50.385L41.7224 14.2013L51.1952 28.8912V28.945H51.2325L51.2541 28.9741L51.3005 28.945H57.4305V28.6963V1.07807H61.0387V12.1282H75.3935V1.07807H79.0016V28.9417H80.0797V0H74.3187Z" fill="white"/>
<path d="M18.1928 41.7944H17.5518V42.4653H18.1928V41.7944Z" fill="white"/>
<path d="M63.8422 41.7944H63.2012V42.4653H63.8422V41.7944Z" fill="white"/>
<path d="M0 47.048V41.7946H2.00104C2.31232 41.7743 2.62428 41.8224 2.91497 41.9356C3.20565 42.0488 3.46804 42.2243 3.68366 42.4497C4.1041 42.9882 4.31081 43.663 4.26413 44.3446C4.30796 45.0589 4.09372 45.7652 3.66042 46.3348C3.451 46.5737 3.19005 46.7619 2.89728 46.8851C2.6045 47.0084 2.28756 47.0635 1.97036 47.0464L0 47.048ZM1.93969 42.4041H0.71319V46.4103H1.93969C2.16489 46.4251 2.39039 46.3863 2.59769 46.2971C2.80498 46.2079 2.98816 46.0707 3.13218 45.897C3.43064 45.4512 3.57213 44.9187 3.53437 44.3836C3.5686 43.8617 3.42413 43.3437 3.12472 42.9149C2.98098 42.7429 2.79886 42.6071 2.59303 42.5184C2.3872 42.4296 2.16342 42.3905 1.93969 42.4041Z" fill="white"/>
<path d="M5.72428 43.2284V45.5703C5.69817 45.8434 5.76004 46.1177 5.90091 46.3531C5.97697 46.433 6.07038 46.4944 6.1739 46.5325C6.27742 46.5706 6.38828 46.5844 6.49799 46.5729C6.65357 46.5838 6.80966 46.5602 6.95504 46.5037C7.10042 46.4472 7.23149 46.3593 7.33888 46.2462C7.54833 45.9718 7.64983 45.6301 7.62414 45.2858V43.2284H8.26766V47.048H7.65234V46.4767C7.52944 46.6871 7.35062 46.8594 7.13571 46.9743C6.90432 47.09 6.64799 47.1469 6.38937 47.1401C6.1503 47.146 5.91282 47.0996 5.69359 47.0041C5.5457 46.9427 5.41531 46.8457 5.31403 46.7217C5.21274 46.5977 5.14372 46.4506 5.11311 46.2934C5.0826 46.0968 5.06956 45.8978 5.07414 45.6988V43.2251L5.72428 43.2284Z" fill="white"/>
<path d="M9.25781 47.0479V41.7944H9.88724V43.759C10.0214 43.5542 10.2043 43.3861 10.4196 43.2697C10.6368 43.1556 10.8793 43.0986 11.1245 43.1039C11.3571 43.0959 11.5884 43.142 11.8001 43.2388C12.0118 43.3355 12.1981 43.4801 12.3444 43.6611C12.6699 44.0884 12.833 44.6174 12.8046 45.1538C12.8319 45.6818 12.6709 46.2022 12.3502 46.6225C12.203 46.8013 12.0164 46.9438 11.8051 47.0387C11.5938 47.1337 11.3634 47.1785 11.132 47.1698C10.8889 47.176 10.6477 47.1261 10.4271 47.0238C10.2142 46.9172 10.0293 46.7622 9.88724 46.5711V47.0529L9.25781 47.0479ZM9.86567 45.1107C9.84077 45.4992 9.94324 45.8853 10.1576 46.2103C10.2544 46.3367 10.3805 46.4377 10.5249 46.5047C10.6693 46.5718 10.8278 46.6028 10.9868 46.5951C11.1447 46.6012 11.3017 46.5704 11.4456 46.5054C11.5896 46.4403 11.7164 46.3427 11.8161 46.2203C12.0348 45.924 12.1428 45.5604 12.1213 45.1928C12.1457 44.7979 12.0422 44.4056 11.8261 44.0741C11.7298 43.9449 11.6031 43.8414 11.4574 43.7727C11.3116 43.704 11.1511 43.6722 10.9902 43.6802C10.8301 43.669 10.6696 43.6956 10.5218 43.758C10.374 43.8204 10.2429 43.9168 10.1393 44.0393C9.92922 44.355 9.83004 44.7316 9.85737 45.1099" fill="white"/>
<path d="M15.9465 46.5374C15.7655 46.7326 15.5494 46.8921 15.3096 47.0076C15.0854 47.1126 14.8407 47.1664 14.5931 47.1652C14.2613 47.1849 13.9347 47.0762 13.6809 46.8616C13.5685 46.753 13.4807 46.6214 13.4235 46.4759C13.3663 46.3304 13.3409 46.1744 13.3492 46.0182C13.3413 45.8665 13.3662 45.7149 13.4221 45.5737C13.4781 45.4325 13.5638 45.3049 13.6734 45.1998C13.9546 44.977 14.2966 44.8443 14.6545 44.8191L15.1089 44.7702C15.3113 44.7582 15.5119 44.7257 15.7076 44.6732C15.7683 44.6553 15.8199 44.615 15.8519 44.5604C15.8844 44.4635 15.8971 44.3612 15.8892 44.2594C15.8941 44.1739 15.8768 44.0886 15.839 44.0117C15.8013 43.9349 15.7443 43.8691 15.6736 43.8207C15.4774 43.7101 15.2532 43.6593 15.0285 43.6747C14.7908 43.6579 14.5543 43.7203 14.3559 43.8522C14.2795 43.9164 14.2193 43.9976 14.1801 44.0894C14.1409 44.1812 14.1239 44.2809 14.1303 44.3804H13.5242V44.3514C13.5169 44.1783 13.5499 44.0059 13.6203 43.8476C13.6908 43.6894 13.797 43.5496 13.9305 43.4392C14.2532 43.2006 14.6495 43.0832 15.05 43.1075C15.4474 43.0767 15.8439 43.1772 16.1787 43.3936C16.3051 43.5046 16.4038 43.6436 16.4668 43.7996C16.5299 43.9555 16.5556 44.124 16.5419 44.2917V46.199C16.5308 46.3081 16.5494 46.4182 16.5958 46.5175C16.6201 46.5434 16.6502 46.5632 16.6837 46.5753C16.7171 46.5874 16.7529 46.5914 16.7882 46.5871C16.8115 46.5869 16.8347 46.5855 16.8578 46.583C16.8835 46.583 16.9184 46.5747 16.9565 46.5672V47.0648C16.8888 47.0832 16.8201 47.0981 16.7509 47.1096C16.696 47.1181 16.6406 47.1225 16.585 47.1228C16.4128 47.1352 16.2419 47.0855 16.1032 46.9827C16.0471 46.9287 16.0037 46.8628 15.9762 46.79C15.9487 46.7171 15.9377 46.6391 15.944 46.5614L15.9465 46.5374ZM15.8859 45.1036C15.6066 45.2248 15.3089 45.2983 15.0052 45.3208C14.8576 45.3408 14.7482 45.3573 14.6735 45.3681C14.4889 45.3853 14.3137 45.4572 14.1702 45.5746C14.1167 45.6328 14.0756 45.7012 14.0495 45.7758C14.0234 45.8504 14.0129 45.9295 14.0184 46.0083C14.0133 46.0902 14.0266 46.1721 14.0573 46.2482C14.088 46.3242 14.1354 46.3924 14.1959 46.4478C14.3423 46.5585 14.5235 46.6129 14.7067 46.6012C15.0115 46.6141 15.3114 46.5216 15.5559 46.3392C15.6599 46.2629 15.7442 46.1629 15.8019 46.0476C15.8596 45.9322 15.889 45.8047 15.8876 45.6758L15.8859 45.1036Z" fill="white"/>
<path d="M18.1928 43.2285H17.5518V47.0482H18.1928V43.2285Z" fill="white"/>
<path d="M21.249 47.0474V41.7939H21.9622V43.9501H24.6855V41.7939H25.4012V47.0474H24.6855V44.587H21.9597V47.0474H21.249Z" fill="white"/>
<path d="M29.0268 45.8136H29.6621C29.6107 46.2027 29.4143 46.5581 29.1123 46.8087C28.7923 47.0578 28.3946 47.1858 27.9894 47.1703C27.7534 47.1814 27.518 47.1392 27.3006 47.0467C27.0832 46.9542 26.8895 46.814 26.7339 46.6362C26.4087 46.2219 26.2451 45.7035 26.2736 45.1775C26.2411 44.6307 26.4029 44.0899 26.7306 43.6508C26.884 43.4686 27.0774 43.3241 27.2957 43.2288C27.514 43.1334 27.7514 43.0897 27.9894 43.101C28.2263 43.0868 28.4635 43.1249 28.684 43.2126C28.9046 43.3004 29.1032 43.4355 29.2657 43.6086C29.5888 44.0123 29.7494 44.5222 29.716 45.0382C29.716 45.1162 29.716 45.1759 29.716 45.2132C29.7149 45.2501 29.7116 45.287 29.706 45.3235H26.9503C26.9362 45.6602 27.0423 45.9909 27.2497 46.2564C27.4391 46.4424 27.6871 46.5568 27.9514 46.5803C28.2158 46.6037 28.4801 46.5347 28.6993 46.385C28.8759 46.2407 28.9938 46.0369 29.031 45.8119M26.9495 44.7878H29.0459C29.063 44.4888 28.9664 44.1943 28.7756 43.9635C28.5693 43.7773 28.3016 43.6738 28.0237 43.6727C27.7458 43.6716 27.4773 43.7731 27.2696 43.9577C27.0707 44.1891 26.9577 44.4819 26.9495 44.787" fill="white"/>
<path d="M32.8099 46.5373C32.6297 46.7327 32.4142 46.8923 32.1747 47.0075C31.9502 47.1126 31.7052 47.1664 31.4574 47.165C31.1256 47.1845 30.7991 47.0759 30.5452 46.8615C30.4327 46.7529 30.3449 46.6214 30.2877 46.4759C30.2305 46.3304 30.2052 46.1743 30.2135 46.0181C30.2053 45.8665 30.2299 45.715 30.2856 45.5738C30.3412 45.4325 30.4266 45.3049 30.536 45.1996C30.818 44.9771 31.1604 44.8445 31.5187 44.819L31.9732 44.7701C32.1755 44.7579 32.3761 44.7254 32.5719 44.6731C32.6326 44.6552 32.6842 44.6148 32.7162 44.5603C32.7481 44.4633 32.7605 44.361 32.7527 44.2593C32.7577 44.1739 32.7407 44.0887 32.7032 44.0119C32.6657 43.935 32.6091 43.8691 32.5387 43.8206C32.3425 43.71 32.1183 43.6592 31.8936 43.6746C31.6559 43.6578 31.4194 43.7202 31.221 43.8521C31.1444 43.9161 31.084 43.9973 31.0448 44.0891C31.0056 44.1809 30.9887 44.2807 30.9955 44.3803H30.3892V44.3513C30.3822 44.1783 30.4151 44.006 30.4854 43.8478C30.5557 43.6896 30.6616 43.5497 30.7948 43.4391C31.1179 43.2003 31.5149 43.0829 31.9159 43.1074C32.3133 43.0769 32.7097 43.1774 33.0446 43.3935C33.1707 43.5046 33.2691 43.6437 33.3319 43.7997C33.3946 43.9556 33.4201 44.1241 33.4061 44.2916V46.1989C33.3956 46.3079 33.4139 46.4177 33.4592 46.5174C33.4836 46.5433 33.5137 46.5631 33.5471 46.5752C33.5805 46.5873 33.6163 46.5913 33.6516 46.587C33.6715 46.587 33.6939 46.587 33.7229 46.5829C33.752 46.5787 33.7818 46.5746 33.82 46.5671V47.0647C33.7528 47.0831 33.6847 47.098 33.616 47.1095C33.5611 47.118 33.5056 47.1224 33.4501 47.1227C33.2779 47.1353 33.1069 47.0856 32.9683 46.9826C32.912 46.9287 32.8683 46.8629 32.8405 46.79C32.8127 46.7172 32.8014 46.6391 32.8074 46.5613L32.8099 46.5373ZM32.7494 45.1034C32.4703 45.2246 32.1729 45.2981 31.8695 45.3207C31.7202 45.3406 31.6108 45.3572 31.5378 45.368C31.3531 45.3849 31.1778 45.4569 31.0344 45.5745C30.9807 45.6325 30.9393 45.7009 30.9129 45.7755C30.8865 45.8501 30.8757 45.9293 30.881 46.0082C30.8762 46.0902 30.8898 46.1722 30.9208 46.2482C30.9518 46.3243 30.9994 46.3924 31.0601 46.4477C31.2065 46.5586 31.3878 46.613 31.571 46.6011C31.8752 46.6136 32.1744 46.5211 32.4185 46.3391C32.5227 46.263 32.6072 46.1631 32.6649 46.0476C32.7226 45.9322 32.7519 45.8047 32.7502 45.6756L32.7494 45.1034Z" fill="white"/>
<path d="M35.0755 41.7944H34.4229V47.0479H35.0755V41.7944Z" fill="white"/>
<path d="M36.8207 46.0857C36.8082 46.2043 36.8334 46.3239 36.8928 46.4274C36.9294 46.4593 36.9723 46.4833 37.0187 46.4975C37.0652 46.5118 37.1141 46.5162 37.1623 46.5103C37.2013 46.5103 37.2452 46.5103 37.3 46.5103C37.3547 46.5103 37.4227 46.5028 37.5098 46.4962V47.0419C37.4012 47.0618 37.3058 47.0767 37.222 47.0841C37.1466 47.0933 37.0708 47.0981 36.9948 47.0982C36.7694 47.1211 36.5436 47.0594 36.3612 46.9249C36.2204 46.75 36.1548 46.5263 36.1788 46.303V43.7397H35.6074V43.2305H36.1788V42.1641H36.8215V43.2305H37.5098V43.7397H36.8215L36.8207 46.0857Z" fill="white"/>
<path d="M40.6606 47.0479V44.6985C40.6868 44.4265 40.6264 44.1531 40.4881 43.9174C40.412 43.839 40.3191 43.7788 40.2164 43.7415C40.1137 43.7041 40.0038 43.6906 39.8951 43.7018C39.7442 43.6942 39.5932 43.7165 39.4509 43.7674C39.3085 43.8184 39.1777 43.8969 39.0659 43.9986C38.9624 44.1018 38.8819 44.2255 38.8293 44.3618C38.7767 44.4981 38.7534 44.6439 38.7607 44.7898V47.0479H38.1172V41.7944H38.7607V43.7664C38.8712 43.5649 39.0388 43.4004 39.2425 43.2938C39.464 43.1803 39.7101 43.1233 39.959 43.1279C40.2081 43.1207 40.456 43.165 40.6871 43.2581C40.8756 43.338 41.0347 43.4745 41.1424 43.6487C41.2038 43.7493 41.2473 43.8599 41.2709 43.9754C41.3014 44.1715 41.3145 44.37 41.3099 44.5684V47.0437L40.6606 47.0479Z" fill="white"/>
<path d="M44.3477 47.0474V41.7939H48.0935V42.4466H45.0542V44.0148H47.8621V44.6326H45.0542V46.3948H48.1549V47.0499L44.3477 47.0474Z" fill="white"/>
<path d="M48.4541 47.0472L49.7809 45.0826L48.5138 43.2275H49.266L50.2047 44.6L51.1252 43.2275H51.8658L50.5829 45.0752L51.9487 47.0472H51.1758L50.1715 45.5703L49.2038 47.0472H48.4541Z" fill="white"/>
<path d="M52.4561 48.5741V43.2286H53.0838V43.7668C53.2207 43.56 53.4042 43.3882 53.6195 43.2651C53.8381 43.1508 54.082 43.0937 54.3286 43.0993C54.5603 43.0903 54.791 43.1353 55.0024 43.2307C55.2138 43.3261 55.4002 43.4693 55.5468 43.6491C55.8428 44.0861 56.0005 44.602 55.9994 45.1298C55.9984 45.6576 55.8387 46.1729 55.541 46.6087C55.394 46.7886 55.2074 46.9321 54.9958 47.0279C54.7842 47.1237 54.5533 47.1693 54.3211 47.1611C54.0769 47.1662 53.8346 47.1166 53.6121 47.0159C53.4025 46.9151 53.2211 46.7641 53.0838 46.5764V48.5667L52.4561 48.5741ZM53.0623 45.1641C53.034 45.543 53.1332 45.9205 53.3442 46.2364C53.4481 46.3589 53.5792 46.4552 53.7272 46.5176C53.8752 46.58 54.0357 46.6066 54.1959 46.5955C54.3568 46.6033 54.5172 46.5715 54.663 46.5028C54.8087 46.4341 54.9354 46.3307 55.0318 46.2016C55.2462 45.8692 55.3485 45.4768 55.3237 45.082C55.3452 44.7144 55.2372 44.3509 55.0185 44.0546C54.919 43.932 54.7922 43.8344 54.6482 43.7696C54.5042 43.7048 54.347 43.6746 54.1892 43.6814C54.0301 43.6733 53.8715 43.704 53.727 43.7711C53.5825 43.8381 53.4565 43.9395 53.36 44.0662C53.145 44.3903 53.0425 44.7761 53.0681 45.1641" fill="white"/>
<path d="M59.3525 45.8136H59.9894C59.9374 46.2025 59.7412 46.5577 59.4396 46.8087C59.1194 47.0574 58.7219 47.1854 58.3168 47.1703C58.0806 47.1813 57.8449 47.139 57.6273 47.0466C57.4097 46.9541 57.2156 46.8139 57.0596 46.6362C56.7349 46.2217 56.572 45.7033 56.601 45.1775C56.5676 44.6306 56.7295 44.0895 57.0579 43.6508C57.2112 43.4684 57.4045 43.3238 57.6229 43.2284C57.8413 43.133 58.0787 43.0895 58.3168 43.101C58.5534 43.0869 58.7903 43.125 59.0106 43.2127C59.2309 43.3004 59.4292 43.4356 59.5913 43.6086C59.9148 44.0122 60.0757 44.5221 60.0425 45.0382C60.0425 45.1162 60.0425 45.1759 60.0425 45.2132C60.0425 45.2505 60.0383 45.2887 60.0342 45.3235H57.271C57.2561 45.6603 57.3623 45.9912 57.5704 46.2564C57.671 46.3681 57.7953 46.4558 57.9342 46.5132C58.0731 46.5706 58.2231 46.5962 58.3731 46.5881C58.6052 46.5971 58.8334 46.5266 59.02 46.3883C59.1967 46.2441 59.3147 46.0403 59.3517 45.8152M57.2694 44.7911H59.3658C59.3837 44.4921 59.2874 44.1974 59.0963 43.9668C58.8896 43.7806 58.6217 43.6772 58.3436 43.6761C58.0655 43.675 57.7967 43.7764 57.5886 43.961C57.3898 44.1924 57.2767 44.4853 57.2685 44.7903" fill="white"/>
<path d="M60.7764 47.0481V43.2285H61.3983V43.9126C61.4779 43.6849 61.622 43.4852 61.813 43.3379C62.0007 43.206 62.2262 43.1384 62.4556 43.1455C62.5037 43.1455 62.5386 43.1455 62.5601 43.1455C62.5816 43.1468 62.6029 43.1496 62.624 43.1538V43.8314C62.6053 43.8284 62.5865 43.8264 62.5676 43.8255C62.5485 43.8255 62.5137 43.8255 62.4739 43.8255C62.3308 43.8158 62.1872 43.8357 62.0521 43.8839C61.917 43.9322 61.7932 44.0077 61.6886 44.1058C61.4951 44.3312 61.3982 44.6238 61.4191 44.9202V47.0456L60.7764 47.0481Z" fill="white"/>
<path d="M63.8422 43.2285H63.2012V47.0482H63.8422V43.2285Z" fill="white"/>
<path d="M67.394 45.8136H68.0292C67.9778 46.2027 67.7814 46.558 67.4794 46.8087C67.1595 47.0578 66.7618 47.1859 66.3566 47.1703C66.1204 47.1813 65.8847 47.139 65.6671 47.0466C65.4495 46.9541 65.2555 46.8139 65.0994 46.6362C64.7748 46.2217 64.6118 45.7033 64.6408 45.1775C64.6083 44.6307 64.7701 44.0899 65.0978 43.6508C65.251 43.4684 65.4444 43.3238 65.6627 43.2284C65.8811 43.133 66.1186 43.0895 66.3566 43.101C66.5933 43.0869 66.8302 43.125 67.0505 43.2127C67.2708 43.3004 67.4691 43.4356 67.6312 43.6086C67.9547 44.0122 68.1155 44.5221 68.0823 45.0382C68.0823 45.1162 68.0823 45.1759 68.0823 45.2132C68.0813 45.2501 68.078 45.287 68.0724 45.3235H65.3167C65.3025 45.6602 65.4086 45.9909 65.616 46.2564C65.8054 46.4424 66.0535 46.5568 66.3178 46.5803C66.5822 46.6037 66.8465 46.5347 67.0656 46.385C67.2417 46.2402 67.3595 46.0367 67.3973 45.8119M65.3142 44.7878H67.4123C67.4293 44.4888 67.3328 44.1943 67.1419 43.9635C66.9353 43.7773 66.6673 43.6739 66.3892 43.6728C66.1111 43.6717 65.8424 43.7731 65.6343 43.9577C65.4358 44.1893 65.3229 44.482 65.3142 44.7869" fill="white"/>
<path d="M71.358 47.0482V44.6988C71.3842 44.4272 71.3235 44.1542 71.1847 43.9193C71.1091 43.8401 71.0163 43.7793 70.9135 43.7416C70.8107 43.704 70.7006 43.6904 70.5917 43.702C70.4389 43.6929 70.2859 43.7154 70.1421 43.7678C69.9983 43.8203 69.8668 43.9018 69.7558 44.0072C69.6516 44.1246 69.5716 44.2614 69.5205 44.4099C69.4694 44.5583 69.4482 44.7155 69.4581 44.8721V47.0482H68.8154V43.2285H69.4291V43.7841C69.5572 43.5763 69.7384 43.4063 69.9539 43.2916C70.1695 43.1769 70.4116 43.1217 70.6556 43.1315C70.9047 43.1241 71.1526 43.1684 71.3837 43.2617C71.5726 43.3417 71.7322 43.4781 71.8406 43.6523C71.9025 43.7526 71.9457 43.8633 71.9683 43.979C71.9997 44.175 72.0127 44.3735 72.0073 44.5719V47.0473L71.358 47.0482Z" fill="white"/>
<path d="M75.5095 44.4975C75.5067 44.3826 75.48 44.2695 75.4312 44.1654C75.3824 44.0613 75.3125 43.9686 75.2259 43.8929C75.0254 43.7417 74.7775 43.6667 74.5268 43.6815C74.3727 43.6734 74.2189 43.7032 74.079 43.7682C73.939 43.8333 73.8172 43.9316 73.724 44.0547C73.5149 44.371 73.4148 44.7468 73.4388 45.1252C73.4158 45.5044 73.5118 45.8813 73.7133 46.2033C73.7998 46.3258 73.9158 46.4246 74.0506 46.4904C74.1854 46.5562 74.3347 46.5869 74.4845 46.5798C74.6134 46.5912 74.7434 46.5767 74.8666 46.5371C74.9899 46.4975 75.104 46.4336 75.2021 46.3492C75.3003 46.2648 75.3806 46.1616 75.4382 46.0457C75.4958 45.9297 75.5296 45.8035 75.5377 45.6742H76.1497C76.1448 45.8811 76.0983 46.0848 76.0128 46.2732C75.9273 46.4616 75.8046 46.6307 75.6521 46.7705C75.3158 47.0475 74.888 47.1883 74.453 47.1653C74.2201 47.1764 73.9879 47.1336 73.7743 47.0403C73.5607 46.9469 73.3715 46.8055 73.2215 46.6271C72.926 46.1854 72.7699 45.6652 72.7735 45.1338C72.777 44.6024 72.9401 44.0843 73.2414 43.6467C73.4003 43.4652 73.5981 43.322 73.8201 43.2278C74.0421 43.1336 74.2826 43.0908 74.5235 43.1026C74.9414 43.0821 75.3523 43.2161 75.6778 43.4791C75.822 43.6069 75.9376 43.7636 76.0171 43.9391C76.0965 44.1146 76.138 44.3049 76.1389 44.4975H75.5095Z" fill="white"/>
<path d="M79.3779 45.8136H80.0148C79.9617 46.2022 79.7657 46.557 79.465 46.8087C79.1448 47.0574 78.7473 47.1854 78.3421 47.1703C78.1057 47.1816 77.8697 47.1394 77.6518 47.047C77.4338 46.9545 77.2395 46.8141 77.0833 46.6363C76.7592 46.2215 76.5969 45.7031 76.6264 45.1776C76.593 44.6306 76.7549 44.0896 77.0833 43.6509C77.2364 43.4683 77.4298 43.3236 77.6482 43.2282C77.8666 43.1328 78.1041 43.0893 78.3421 43.1011C78.5786 43.0868 78.8153 43.1249 79.0353 43.2126C79.2553 43.3003 79.4533 43.4355 79.6151 43.6086C79.9385 44.0122 80.0994 44.5221 80.0662 45.0383C80.0662 45.1162 80.0662 45.1759 80.0662 45.2132C80.0662 45.2506 80.0621 45.2887 80.0587 45.3235H77.3031C77.2888 45.6602 77.395 45.9909 77.6024 46.2565C77.7028 46.3682 77.827 46.4559 77.9657 46.5133C78.1045 46.5707 78.2544 46.5963 78.4043 46.5882C78.6364 46.5973 78.8647 46.5268 79.0512 46.3883C79.2278 46.244 79.3457 46.0403 79.3829 45.8153M77.3014 44.7911H79.3978C79.4161 44.4919 79.3194 44.197 79.1275 43.9668C78.9208 43.7807 78.6529 43.6772 78.3748 43.6761C78.0966 43.6751 77.8279 43.7765 77.6198 43.961C77.4216 44.1926 77.3091 44.4855 77.3014 44.7903" fill="white"/>
<path d="M2.61906 32.9731H2.03027V33.5893H2.61906V32.9731Z" fill="white"/>
<path d="M1.29972 32.9731H0.710938V33.5893H1.29972V32.9731Z" fill="white"/>
<path d="M11.0312 38.2676H10.4424V38.8854H11.0312V38.2676Z" fill="white"/>
<path d="M9.71183 38.2676H9.12305V38.8854H9.71183V38.2676Z" fill="white"/>
<path d="M29.6343 33.663C29.6301 33.1695 29.6268 32.808 29.6268 32.575V32.5269H28.9816V32.575C28.9816 32.8166 28.9841 33.1856 28.9891 33.682L29.0032 35.1681C29.009 35.7743 29.0131 36.2719 29.0131 36.6608C29.0194 36.7268 29.011 36.7933 28.9886 36.8557C28.9662 36.9181 28.9304 36.9748 28.8836 37.0217C28.8368 37.0687 28.7802 37.1048 28.7179 37.1274C28.6556 37.15 28.5891 37.1586 28.523 37.1526H24.8859C24.8664 36.6192 24.7382 36.0955 24.5094 35.6134C24.372 35.3668 24.1746 35.159 23.9353 35.0092C23.6961 34.8594 23.4229 34.7726 23.1411 34.7568C22.7237 34.7303 22.3085 34.835 21.9535 35.0561C21.5149 35.2984 21.1482 35.6523 20.8904 36.082V35.518H20.2925V37.1526H16.4903C16.4631 36.5543 16.2752 35.9745 15.9463 35.4741C15.7652 35.2163 15.5218 35.0086 15.2387 34.8704C14.9557 34.7321 14.6421 34.668 14.3275 34.6838C13.8706 34.7005 13.4226 34.8153 13.0139 35.0205L12.9692 35.042L13.2436 35.6001L13.2868 35.5753C13.6129 35.3848 13.9823 35.2807 14.3599 35.2726C14.5539 35.2727 14.7452 35.3186 14.9181 35.4066C15.0911 35.4947 15.2408 35.6224 15.355 35.7793C15.6642 36.1692 15.8307 36.6532 15.8268 37.1509H10.9756C10.8986 37.147 10.8233 37.1273 10.7544 37.0929C10.6855 37.0585 10.6244 37.0102 10.575 36.951C10.4193 36.7773 10.3354 36.5508 10.3403 36.3175V36.3026C10.3345 35.8149 10.3263 35.3132 10.3263 34.8098V34.7593H9.67942V34.8115C9.70264 36.0646 9.70265 36.5762 9.69518 36.6417H9.68772C9.68907 36.7217 9.66912 36.8005 9.62992 36.8702C9.59071 36.9398 9.53365 36.9978 9.46463 37.0381C9.34875 37.1113 9.21441 37.1498 9.07738 37.1492H2.96893C2.84703 37.1492 2.68364 37.1119 2.68364 36.8018V34.2443H2.04012V34.5553C1.93394 34.4375 1.80426 34.3433 1.65942 34.2787C1.51459 34.2142 1.35783 34.1807 1.19926 34.1804C1.05136 34.1789 0.904779 34.2084 0.768955 34.267C0.633131 34.3255 0.511051 34.4119 0.410601 34.5204C0.26804 34.6798 0.158864 34.8661 0.0894996 35.0684C0.0201354 35.2706 -0.00801032 35.4847 0.00674408 35.698C0.00674408 36.4833 0.329333 36.8814 0.961241 36.8814H2.07829C2.06459 37.0008 2.07831 37.1218 2.11845 37.2351C2.15859 37.3484 2.22408 37.451 2.3099 37.5351C2.39573 37.6193 2.49963 37.6827 2.61369 37.7206C2.72776 37.7585 2.84898 37.7698 2.9681 37.7538H9.2399C9.43858 37.7499 9.63303 37.6957 9.80504 37.5962C9.97706 37.4967 10.121 37.3552 10.2234 37.1849C10.2678 37.2746 10.3235 37.3582 10.3893 37.4337C10.4645 37.532 10.5612 37.6119 10.672 37.6671C10.7829 37.7223 10.9049 37.7514 11.0287 37.7521H28.533C28.6809 37.769 28.8307 37.7532 28.9718 37.7057C29.1128 37.6582 29.2417 37.5803 29.3493 37.4774C29.4569 37.3745 29.5405 37.2492 29.5942 37.1103C29.6479 36.9715 29.6703 36.8226 29.66 36.6741C29.66 36.276 29.6559 35.7743 29.6484 35.1648L29.6343 33.663ZM24.2282 37.1526H20.8904V37.1235C21.4253 35.936 22.1343 35.334 23.0067 35.334C23.0474 35.334 23.0847 35.334 23.1236 35.3381C23.5864 35.3671 23.9131 35.6864 24.0955 36.286C24.1764 36.568 24.2207 36.8592 24.2274 37.1526M9.73995 36.6417V36.6135H9.7441V36.6409M2.04926 36.2934H1.07404C1.00637 36.301 0.938008 36.2873 0.878536 36.2541C0.819065 36.221 0.771434 36.17 0.742306 36.1085C0.696957 35.9881 0.676648 35.8597 0.682606 35.7312C0.663494 35.4596 0.738798 35.1898 0.895745 34.9674C0.94549 34.893 1.01283 34.832 1.09183 34.7899C1.17082 34.7478 1.25901 34.7259 1.34852 34.7261C1.49549 34.7306 1.63838 34.7755 1.76144 34.856C1.8845 34.9365 1.98295 35.0493 2.04595 35.1822L2.04926 36.2934Z" fill="white"/>
<path d="M30.8076 32.5269L30.8482 37.7571H31.4951L31.4528 32.5269H30.8076Z" fill="white"/>
<path d="M47.0386 34.7634H46.3934V34.8123C46.405 35.9319 46.415 36.6235 46.415 36.6625C46.421 36.7283 46.4124 36.7946 46.3899 36.8568C46.3674 36.9189 46.3315 36.9753 46.2847 37.022C46.2379 37.0687 46.1814 37.1046 46.1192 37.127C46.057 37.1494 45.9907 37.1579 45.9249 37.1517H39.9541C39.8374 37.1403 39.7283 37.0884 39.6456 37.0052C39.563 36.9219 39.512 36.8124 39.5013 36.6956C39.4765 36.2876 39.3866 35.8861 39.2351 35.5065C39.131 35.2515 38.9502 35.0352 38.7176 34.8877C38.4851 34.7401 38.2123 34.6686 37.9373 34.683C36.8982 34.683 36.3733 35.3729 36.3733 36.7313V36.7819H37.8502L37.8643 37.1841C37.8741 37.6149 37.7135 38.0321 37.4174 38.3451C37.2833 38.4988 37.1175 38.6217 36.9314 38.7052C36.7453 38.7887 36.5433 38.8307 36.3393 38.8285C36.1362 38.8298 35.9351 38.7881 35.7493 38.7061C35.5634 38.624 35.3971 38.5035 35.2612 38.3525C35.114 38.199 34.9988 38.0177 34.9224 37.8193C34.8459 37.6208 34.8097 37.4091 34.8159 37.1965L34.8076 36.7189C34.8035 36.49 34.8002 36.3241 34.8002 36.2213V36.1724H34.1533V36.223C34.1616 36.4518 34.1666 36.645 34.1724 36.8034C34.1782 36.9618 34.1807 37.0887 34.1857 37.1857C34.1786 37.4842 34.2308 37.7811 34.3393 38.0592C34.4477 38.3374 34.6103 38.5913 34.8176 38.8061C35.0088 39.0191 35.2428 39.1892 35.5043 39.3054C35.7659 39.4215 36.049 39.4812 36.3351 39.4803C36.6221 39.4831 36.9063 39.4244 37.1687 39.3081C37.431 39.1918 37.6654 39.0206 37.856 38.8061C38.2715 38.3724 38.4986 37.7921 38.4879 37.1915L38.4631 36.1691H37.045C37.0509 35.9428 37.1394 35.7266 37.2938 35.5612C37.3696 35.4774 37.4623 35.4105 37.5658 35.3651C37.6692 35.3196 37.7812 35.2966 37.8942 35.2975H37.9249C38.0834 35.2918 38.2399 35.3347 38.3733 35.4205C38.5067 35.5063 38.6107 35.631 38.6712 35.7776C38.7918 36.0962 38.8596 36.4323 38.8719 36.7728C38.891 37.041 39.0092 37.2926 39.2036 37.4785C39.3753 37.6486 39.6055 37.7465 39.8471 37.7521H45.9249C46.2308 37.7691 46.5309 37.6644 46.76 37.461C46.8599 37.3561 46.9374 37.2319 46.9879 37.096C47.0384 36.9602 47.0607 36.8155 47.0535 36.6707C47.0535 36.6575 47.0461 36.0397 47.0303 34.8074L47.0386 34.7634Z" fill="white"/>
<path d="M49.4029 34.763H49.354V35.3535H49.4029C49.6476 35.3535 49.8706 35.5193 50.0846 35.8627C50.3258 36.2497 50.4563 36.6954 50.4619 37.1513H48.3124L48.1143 37.7559H51.0872V37.7078C51.1278 36.9351 50.9493 36.1667 50.5722 35.4911C50.4567 35.2792 50.2883 35.1007 50.0834 34.9729C49.8785 34.8452 49.6441 34.7734 49.4029 34.763Z" fill="white"/>
<path d="M64.0941 34.8131V34.7625H63.4506V34.8131C63.4647 35.95 63.4738 36.6259 63.4754 36.6632C63.4812 36.729 63.4724 36.7952 63.4498 36.8572C63.4271 36.9192 63.3912 36.9755 63.3445 37.0221C63.2978 37.0688 63.2414 37.1046 63.1794 37.1271C63.1173 37.1496 63.0511 37.1583 62.9853 37.1525H56.7218C56.5991 37.1525 56.4366 37.1152 56.4366 36.805V34.2475H55.7914V34.5585C55.6854 34.4409 55.556 34.3468 55.4115 34.2822C55.2669 34.2176 55.1105 34.1841 54.9522 34.1837C54.8042 34.1821 54.6576 34.2115 54.5218 34.2701C54.3859 34.3286 54.2639 34.415 54.1635 34.5237C54.021 34.683 53.9118 34.8693 53.8425 35.0716C53.7731 35.2738 53.7449 35.4879 53.7597 35.7012C53.7597 36.4866 54.0806 36.8846 54.7133 36.8846H55.8304C55.8169 37.0041 55.8309 37.1251 55.8713 37.2384C55.9116 37.3516 55.9773 37.4543 56.0632 37.5384C56.1492 37.6225 56.2531 37.6859 56.3673 37.7237C56.4814 37.7616 56.6027 37.773 56.7218 37.757H62.9895C63.2955 37.773 63.5955 37.6685 63.8254 37.4659C63.9246 37.3605 64.0016 37.2363 64.0518 37.1005C64.1019 36.9647 64.1242 36.8202 64.1173 36.6756C64.1173 36.6624 64.109 36.0437 64.0924 34.8123M55.7997 36.2933H54.8261C54.7584 36.301 54.69 36.2874 54.6305 36.2542C54.571 36.221 54.5234 36.17 54.4944 36.1084C54.4484 35.9882 54.428 35.8597 54.4347 35.7311C54.4153 35.4597 54.4903 35.1898 54.647 34.9673C54.6966 34.8928 54.764 34.8318 54.843 34.7896C54.922 34.7475 55.0102 34.7257 55.0998 34.726C55.2465 34.7306 55.3891 34.7756 55.5119 34.8561C55.6347 34.9366 55.7328 35.0494 55.7955 35.1821L55.7997 36.2933Z" fill="white"/>
<path d="M79.9952 34.7631H79.3501V34.812C79.3633 35.949 79.3716 36.6248 79.3733 36.6622C79.379 36.7279 79.3702 36.7941 79.3476 36.8561C79.325 36.9181 79.2891 36.9744 79.2423 37.0211C79.1956 37.0677 79.1393 37.1036 79.0772 37.1261C79.0152 37.1486 78.9489 37.1572 78.8832 37.1514H74.5403C74.5057 36.5546 74.3184 35.9766 73.9963 35.473C73.814 35.2147 73.5692 35.0067 73.2849 34.8685C73.0005 34.7303 72.6858 34.6664 72.37 34.6827C71.9154 34.6998 71.4698 34.8153 71.064 35.021L71.0192 35.0409L71.2928 35.6007L71.3393 35.575C71.665 35.386 72.0333 35.2824 72.4099 35.2739C72.6034 35.2758 72.7939 35.3224 72.9665 35.41C73.1391 35.4976 73.2892 35.6239 73.405 35.779C73.7108 36.1708 73.8769 36.6536 73.8769 37.1506H67.1282C66.9746 37.1412 66.8305 37.0729 66.726 36.9598C66.5779 36.8105 66.4947 36.6088 66.4946 36.3984L66.4863 34.7706H65.8412L65.8503 37.056C65.8652 37.5323 65.6993 37.9966 65.3859 38.3555C65.2324 38.5295 65.0423 38.6675 64.8293 38.7595C64.6163 38.8515 64.3855 38.8954 64.1536 38.8879H64.0781L64.1096 38.9559C64.2224 39.2089 64.2962 39.3623 64.3501 39.4535L64.3642 39.4809H64.3957C64.9532 39.4472 65.4762 39.1994 65.8553 38.7893C66.2137 38.3963 66.4336 37.8967 66.4814 37.367C66.5557 37.4862 66.659 37.5846 66.7817 37.6529C66.9044 37.7212 67.0425 37.7572 67.1829 37.7576H78.8931C79.1993 37.7748 79.4998 37.6702 79.729 37.4666C79.8285 37.3613 79.9059 37.2371 79.9563 37.1013C80.0067 36.9655 80.0293 36.8209 80.0226 36.6763C80.0226 36.663 80.0143 36.0452 79.9977 34.8129L79.9952 34.7631Z" fill="white"/>
<path d="M37.3681 40.0259H36.7793V40.6437H37.3681V40.0259Z" fill="white"/>
<path d="M36.0478 40.0259H35.459V40.6437H36.0478V40.0259Z" fill="white"/>
<path d="M46.5006 38.3066H45.9102V38.9245H46.5006V38.3066Z" fill="white"/>
<path d="M63.6041 38.3066H63.0137V38.9245H63.6041V38.3066Z" fill="white"/>
<path d="M72.6246 38.3066H72.0342V38.9245H72.6246V38.3066Z" fill="white"/>
<path d="M56.4325 32.9731H55.8438V33.5893H56.4325V32.9731Z" fill="white"/>
<path d="M55.1122 32.9731H54.5234V33.5893H55.1122V32.9731Z" fill="white"/>
<path d="M80.0058 33.4453H79.417V34.0631H80.0058V33.4453Z" fill="white"/>
<path d="M78.6845 33.4453H78.0957V34.0631H78.6845V33.4453Z" fill="white"/>
</svg>
