<svg width="47" height="72" viewBox="0 0 47 72" fill="none" xmlns="http://www.w3.org/2000/svg">
<path d="M25.1474 71.3176C25.3329 71.3093 25.5142 71.2597 25.6781 71.1725C25.842 71.0852 25.9843 70.9625 26.0948 70.8133C26.3605 70.4047 26.582 69.9691 26.7558 69.5138L30.3824 61.0611H30.8327L34.4763 69.1743C34.7252 69.7909 35.0325 70.3822 35.394 70.9403C35.4938 71.0703 35.6248 71.173 35.7748 71.239C35.9248 71.3049 36.089 71.332 36.2523 71.3176V71.7085H30.9687V71.3176C31.3205 71.322 31.6713 71.2786 32.0115 71.1888C32.1844 71.124 32.2673 70.9565 32.2673 70.6908C32.2518 70.5025 32.2089 70.3175 32.1403 70.1415C32.0871 69.9938 32.0142 69.8209 31.9268 69.612L31.5108 68.6771H27.8455C27.6068 69.2913 27.4492 69.6939 27.3817 69.8776C27.2656 70.154 27.1925 70.4464 27.1647 70.7449C27.1647 70.9682 27.3249 71.1267 27.6374 71.2275C27.9111 71.2924 28.192 71.3227 28.4732 71.3176V71.7085H25.1411L25.1474 71.3176ZM31.2713 68.0657L29.7078 64.4913H29.5719L28.0932 68.0657H31.2713ZM14.3271 62.6974C14.8719 62.159 15.5208 61.7375 16.2343 61.4588C16.9477 61.1801 17.7105 61.0499 18.476 61.0764C19.1643 61.0776 19.8471 61.1995 20.4933 61.4366C20.8953 61.6013 21.315 61.7188 21.7441 61.7869C21.823 61.7911 21.902 61.778 21.9753 61.7485C22.0485 61.7189 22.1144 61.6736 22.1683 61.6158C22.2965 61.4638 22.387 61.2836 22.4322 61.0899H22.8825V64.7039H22.4691C22.15 64.0341 21.7442 63.4092 21.2623 62.8451C20.945 62.4617 20.5487 62.1513 20.1005 61.935C19.6523 61.7186 19.1627 61.6015 18.6651 61.5915C18.1973 61.5655 17.7318 61.6742 17.3238 61.9046C16.9158 62.1351 16.5825 62.4778 16.3633 62.8919C15.8199 64.0291 15.5698 65.2842 15.6356 66.5428C15.6159 67.7254 15.8438 68.8991 16.3047 69.9884C16.5274 70.4816 16.8992 70.8924 17.3677 71.163C17.8363 71.4336 18.378 71.5504 18.9164 71.4968C19.166 71.5281 19.4193 71.5073 19.6605 71.4358C19.9016 71.3644 20.1254 71.2438 20.3176 71.0817C20.4728 70.8788 20.5479 70.6258 20.5284 70.3711V68.742C20.5529 68.5613 20.5226 68.3773 20.4413 68.214C20.3601 68.0507 20.2317 67.9156 20.0727 67.8261C19.6858 67.7057 19.2806 67.6541 18.8758 67.6739V67.2795H24.4702V67.6739C24.0689 67.6406 23.6693 67.7556 23.3472 67.9972C23.131 68.3137 23.0351 68.697 23.077 69.0779V71.0465C22.5212 71.3307 21.9313 71.5425 21.3218 71.677C20.4359 71.8969 19.5256 72.0031 18.6129 71.993C17.8166 72.0318 17.0208 71.9081 16.2739 71.6295C15.5271 71.3508 14.8448 70.9229 14.2686 70.372C13.7699 69.8756 13.3781 69.2823 13.1176 68.6287C12.8571 67.9751 12.7333 67.275 12.7538 66.5716C12.7375 65.8515 12.8683 65.1356 13.1382 64.4677C13.4081 63.7999 13.8114 63.1941 14.3235 62.6875M1.53548 71.6995V71.3086C1.87701 71.3188 2.21685 71.2574 2.53328 71.1285C2.68661 71.0372 2.81053 70.9038 2.89034 70.7442C2.97015 70.5846 3.0025 70.4054 2.98356 70.2279V62.7532C3.0047 62.5718 2.97127 62.3882 2.88754 62.2258C2.8038 62.0635 2.67359 61.9298 2.51349 61.8419C2.20076 61.7198 1.86755 61.6587 1.53185 61.6618V61.2718H10.9383V64.3869H10.5357C10.4445 63.5993 10.0685 62.8722 9.47842 62.3426C8.64907 61.896 7.70676 61.7031 6.76865 61.7878C6.44218 61.7554 6.11292 61.8085 5.81317 61.9418C5.73658 62.0164 5.67855 62.1078 5.64382 62.2089C5.60909 62.3099 5.5986 62.4177 5.6132 62.5236V66.0979C6.28109 66.1828 6.95645 66.0127 7.50442 65.6215C7.91808 65.0999 8.17955 64.4741 8.25999 63.8132H8.67333V69.0311H8.25999C8.22377 68.3517 7.97134 67.7017 7.53955 67.1759C6.99047 66.7534 6.29917 66.5597 5.61051 66.6356V70.3729C5.59467 70.498 5.61036 70.6251 5.65613 70.7426C5.7019 70.86 5.7763 70.9642 5.87259 71.0456C6.2196 71.1918 6.59705 71.2512 6.97219 71.2186C7.85827 71.255 8.73829 71.0571 9.5235 70.6449C10.3056 70.1161 10.9148 69.3688 11.275 68.4961H11.7308L11.0698 71.7094L1.53548 71.6995ZM21.1966 57.3787L2.65575 54.677L11.5957 55.1029L3.41494 50.1498L11.0157 51.6988L6.99109 45.4272L13.3023 50.4596L13.2266 44.2286L21.1966 57.3787ZM24.4846 57.5732L0 19.1307L10.5249 28.4219L2.18568 11.3435L15.1727 29.5115L13.1239 0L20.1925 21.4335L23.5957 0.843813L23.8281 17.9059L29.661 0.135079L27.2043 27.8725L39.0017 6.65517L31.7071 28.556L43.1884 11.3426L34.6637 33.7388L46.6277 18.7705L24.4846 57.5732ZM27.4745 57.2508L35.3364 44.1349V50.2155L41.6313 45.3525L37.6554 51.5835L44.9688 50.0111L37.1114 54.93L45.7226 54.523L27.4745 57.2508ZM37.2006 68.1044H37.6716C37.8288 69.0539 38.2769 69.9312 38.954 70.6152C39.511 71.1241 40.2392 71.4045 40.9937 71.4005C41.2811 71.4295 41.5715 71.3967 41.8452 71.3043C42.1188 71.2118 42.3696 71.0619 42.5805 70.8646C42.8729 70.5554 43.0407 70.149 43.0516 69.7236C43.0579 69.5101 43.0166 69.2978 42.9308 69.1022C42.845 68.9066 42.7167 68.7325 42.5553 68.5925C42.1485 68.2924 41.7071 68.0424 41.2405 67.8477L40.1796 67.3497C39.3525 67.0076 38.5985 66.5106 37.9579 65.8854C37.5218 65.3933 37.2902 64.7532 37.3104 64.096C37.3242 63.3114 37.628 62.5597 38.1633 61.9859C38.5041 61.6408 38.9161 61.3742 39.3706 61.2048C39.8251 61.0354 40.3112 60.9673 40.7947 61.0052C41.3834 61.004 41.9689 61.0908 42.5319 61.2628C42.8462 61.3725 43.1683 61.4586 43.4955 61.5204C43.5647 61.5281 43.6348 61.5192 43.6998 61.4943C43.7649 61.4694 43.823 61.4292 43.8693 61.3772C43.9473 61.2561 44.0041 61.1228 44.0376 60.9827H44.5213V64.3463H44.071C43.862 63.5875 43.4635 62.8943 42.9129 62.3318C42.6561 62.0599 42.3454 61.8446 42.0007 61.6996C41.656 61.5546 41.2848 61.4831 40.9109 61.4897C40.4341 61.464 39.9649 61.6165 39.5943 61.9175C39.4437 62.0442 39.3229 62.2025 39.2406 62.3812C39.1582 62.5599 39.1164 62.7546 39.1179 62.9514C39.1029 63.1561 39.1357 63.3614 39.2139 63.5512C39.292 63.741 39.4134 63.9099 39.5682 64.0446C40.1881 64.4764 40.8522 64.8408 41.5494 65.1316L42.7759 65.7053C43.2559 65.9155 43.698 66.2034 44.0845 66.5572C44.3761 66.8282 44.6076 67.1574 44.764 67.5235C44.9204 67.8896 44.9981 68.2845 44.9922 68.6826C44.9672 69.5194 44.6151 70.3132 44.0115 70.8935C43.5899 71.271 43.095 71.5577 42.5576 71.7355C42.0203 71.9134 41.4521 71.9787 40.8884 71.9273C40.5509 71.9255 40.214 71.8954 39.8815 71.8372C39.5443 71.7783 39.2128 71.69 38.8909 71.5734L38.5721 71.459C38.5009 71.4389 38.4284 71.4236 38.3551 71.4131C38.2959 71.4 38.2356 71.393 38.175 71.3924C38.1095 71.3837 38.0428 71.3924 37.9816 71.4175C37.9205 71.4426 37.867 71.4833 37.8265 71.5355C37.7471 71.6543 37.6906 71.7869 37.6599 71.9264H37.1889L37.2006 68.1044Z" fill="white"/>
</svg>
