<svg width="130" height="21" viewBox="0 0 130 21" fill="none" xmlns="http://www.w3.org/2000/svg">
<path d="M15.0584 11.0006H20.0095C20.0215 11.0896 20.0465 11.1456 20.0305 11.1696C19.4704 11.8969 19.208 12.8099 19.2964 13.7236C19.3364 14.5646 19.2964 15.4086 19.3104 16.2516C19.3201 16.3899 19.2959 16.5285 19.24 16.6553C19.1841 16.7822 19.0981 16.8935 18.9894 16.9796C17.7343 18.1479 16.2489 19.0411 14.6284 19.6019C13.008 20.1628 11.2882 20.379 9.57941 20.2366C7.26806 20.0996 5.0733 19.1756 3.36005 17.6181C1.6468 16.0606 0.518339 13.9634 0.162417 11.6756C-0.0718516 10.4089 -0.0525185 9.10825 0.219302 7.84906C0.491122 6.58987 1.01003 5.39712 1.74597 4.33984C2.48192 3.28257 3.42032 2.38178 4.50678 1.68964C5.59324 0.997494 6.8062 0.527742 8.07544 0.307586C9.99233 -0.150585 11.9961 -0.0960844 13.8852 0.465637C15.7743 1.02736 17.4823 2.07649 18.8374 3.50757C18.9988 3.64761 19.1259 3.82292 19.2088 4.0199C19.2917 4.21687 19.3282 4.43026 19.3154 4.64358C19.2734 5.50358 19.3054 6.36758 19.3054 7.38458C19.1464 7.15458 19.0615 7.04957 18.9965 6.93457C18.5885 6.22257 18.2424 5.46757 17.7704 4.80057C17.029 3.67394 16.0139 2.7538 14.8201 2.12613C13.6264 1.49846 12.2929 1.18379 10.9445 1.21158C9.84465 1.19239 8.75842 1.457 7.79065 1.97986C6.82288 2.50272 6.00621 3.26619 5.41944 4.19659C4.49198 5.61455 3.93528 7.24262 3.80042 8.93158C3.55742 10.8942 3.81367 12.8864 4.54541 14.7236C4.86024 15.6503 5.38188 16.4932 6.07074 17.1885C6.75961 17.8838 7.59765 18.4132 8.52143 18.7366C9.72784 19.1816 11.037 19.2693 12.292 18.9893C13.547 18.7092 14.6946 18.0733 15.5974 17.1576C15.735 17.0378 15.8433 16.8881 15.9141 16.7199C15.9848 16.5518 16.016 16.3697 16.0054 16.1876C15.9774 15.3436 15.9965 14.5006 15.9965 13.6576C16.0704 13.1724 16.0235 12.6765 15.8601 12.2137C15.6967 11.751 15.4217 11.3357 15.0595 11.0046" fill="white"/>
<path d="M112.868 13.5007C112.9 13.6781 112.923 13.857 112.936 14.0368C112.941 14.7918 112.919 15.5507 112.947 16.3047C112.954 16.4651 112.923 16.6248 112.856 16.7705C112.788 16.9162 112.687 17.0435 112.56 17.1417C110.875 18.6856 108.774 19.7012 106.517 20.0628C104.097 20.5133 101.597 20.2066 99.3571 19.1847C97.8741 18.5287 96.5905 17.4931 95.6357 16.1824C94.6809 14.8717 94.0888 13.3324 93.919 11.7197C93.6449 9.98219 93.7994 8.20401 94.369 6.53975C94.8764 4.95069 95.811 3.53179 97.0706 2.43828C98.3303 1.34477 99.8665 0.618764 101.511 0.339738C103.366 -0.0724936 105.29 -0.0641516 107.142 0.364122C108.993 0.792395 110.725 1.62974 112.211 2.81474C112.465 2.97284 112.669 3.19923 112.801 3.46803C112.932 3.73684 112.985 4.03718 112.954 4.33473C112.891 5.10773 112.942 5.89075 112.938 6.66875C112.943 6.87132 112.893 7.07147 112.793 7.24776C112.687 7.01776 112.582 6.78873 112.477 6.55873C111.696 4.71054 110.335 3.16631 108.6 2.15874C107.762 1.65731 106.83 1.33308 105.862 1.20607C104.894 1.07906 103.91 1.15197 102.971 1.4203C102.032 1.68864 101.159 2.14671 100.404 2.76616C99.6491 3.38561 99.0293 4.15328 98.583 5.02175C97.8456 6.48107 97.4314 8.08214 97.3684 9.71596C97.3054 11.3498 97.5952 12.978 98.218 14.4897C98.6594 15.6013 99.3651 16.5886 100.274 17.3659C101.183 18.1433 102.268 18.6873 103.434 18.9509C104.601 19.2145 105.814 19.1896 106.969 18.8786C108.124 18.5675 109.186 17.9796 110.062 17.1658C111.012 16.3111 111.82 15.3106 112.456 14.2017C112.573 14.0017 112.69 13.8018 112.868 13.5018" fill="white"/>
<path d="M81.2515 13.6576C81.2515 14.6446 81.2745 15.6346 81.2325 16.6196C81.2255 16.8116 81.0055 17.0196 80.8395 17.1746C79.3509 18.5415 77.526 19.4884 75.5515 19.9186C72.9242 20.5639 70.1561 20.3057 67.6935 19.1856C66.219 18.5384 64.9406 17.5146 63.9868 16.2171C63.033 14.9196 62.4373 13.3941 62.2595 11.7936C61.9666 10.0141 62.1244 8.18946 62.7185 6.48662C63.2315 4.91156 64.1654 3.50672 65.419 2.424C66.6727 1.34128 68.1985 0.621881 69.8315 0.343617C71.6859 -0.0710732 73.6096 -0.0648937 75.4613 0.361683C77.3129 0.78826 79.0455 1.62438 80.5315 2.80861C80.7852 2.96605 80.9894 3.19175 81.1208 3.45986C81.2522 3.72797 81.3055 4.02767 81.2745 4.32463C81.2095 5.09963 81.2605 5.88062 81.2575 6.65862C81.264 6.86284 81.2254 7.06599 81.1445 7.25362C81.0385 7.03262 80.9265 6.81264 80.8255 6.58864C80.0414 4.71851 78.6649 3.15755 76.9075 2.14562C76.0766 1.65469 75.1549 1.33693 74.198 1.21145C73.241 1.08596 72.2686 1.15535 71.3391 1.41542C70.4097 1.6755 69.5425 2.12092 68.7897 2.72484C68.0369 3.32877 67.414 4.07872 66.9585 4.92962C66.5057 5.74376 66.1742 6.61967 65.9745 7.52962C65.4039 9.85847 65.609 12.3099 66.5585 14.5116C67.0065 15.7043 67.7687 16.7536 68.7644 17.5485C69.7601 18.3433 70.9522 18.854 72.2145 19.0266C73.3196 19.1989 74.4493 19.1205 75.5201 18.7973C76.5908 18.4742 77.5752 17.9145 78.4005 17.1596C79.3263 16.342 80.1114 15.3779 80.7245 14.3056C80.8579 14.0843 80.9882 13.8626 81.1155 13.6406C81.1605 13.6476 81.2075 13.6546 81.2535 13.6596" fill="white"/>
<path d="M50.5063 0.784672C49.9977 1.40953 49.7473 2.20518 49.8063 3.00867C49.8203 6.59867 49.7803 10.1877 49.8233 13.7767C49.8637 14.7327 49.6313 15.6805 49.1532 16.5093C48.6751 17.3382 47.9711 18.014 47.1233 18.4577C45.7519 19.2513 44.217 19.7203 42.6363 19.8287C40.6269 20.0347 38.5979 19.7318 36.7363 18.9477C36.0818 18.6685 35.4624 18.3138 34.8903 17.8907C34.2692 17.4516 33.7661 16.8658 33.4259 16.1854C33.0857 15.505 32.9189 14.7511 32.9403 13.9907C32.9493 10.3587 32.9313 6.72768 32.9493 3.09568C32.9877 2.69642 32.9403 2.29357 32.8103 1.91413C32.6803 1.53469 32.4706 1.18744 32.1953 0.895695C33.7207 0.697377 35.2633 0.667511 36.7953 0.806675C36.7643 0.882575 36.7236 0.954177 36.6743 1.01969C36.4722 1.2323 36.3154 1.48375 36.2135 1.75879C36.1116 2.03384 36.0666 2.32674 36.0813 2.61969C36.078 6.44569 36.078 10.272 36.0813 14.0987C36.0862 14.6749 36.2221 15.2424 36.4787 15.7583C36.7353 16.2742 37.1058 16.7251 37.5623 17.0767C38.6621 17.9662 39.9956 18.5187 41.4023 18.6677C42.9775 18.8931 44.5837 18.616 45.9923 17.8757C46.3561 17.685 46.6999 17.4582 47.0183 17.1987C47.5034 16.8325 47.8947 16.3566 48.1603 15.8099C48.4259 15.2632 48.5582 14.6613 48.5463 14.0537C48.5323 11.3097 48.5463 8.56368 48.5463 5.81968C48.5463 5.08368 48.5513 4.34868 48.5463 3.61268C48.5393 2.65168 48.6863 1.65869 47.8803 0.786686L50.5063 0.784672Z" fill="white"/>
<path d="M124.953 0.793457H129.419C129.129 1.08788 128.912 1.44632 128.786 1.8399C128.66 2.23349 128.627 2.6512 128.692 3.05945C128.703 7.74545 128.704 12.4315 128.697 17.1175C128.633 17.5284 128.654 17.9483 128.761 18.3504C128.867 18.7526 129.056 19.1282 129.315 19.4535H125.078C125.115 19.3685 125.161 19.2874 125.214 19.2115C125.569 18.7978 125.748 18.2622 125.714 17.7184C125.705 15.1274 125.714 12.5354 125.714 9.94244C125.714 7.65544 125.714 5.36447 125.714 3.07547C125.79 2.6617 125.76 2.23546 125.627 1.83646C125.493 1.43745 125.262 1.07865 124.953 0.793457Z" fill="white"/>
</svg>
