<svg width="192" height="28" viewBox="0 0 192 28" fill="none" xmlns="http://www.w3.org/2000/svg">
<path d="M43.6697 14.0172C43.5367 15.7512 45.9697 15.0242 46.6147 14.6282C47.3202 14.2736 47.906 13.7197 48.2997 13.0352C49.0997 11.6812 48.2736 10.8752 47.5996 10.7922C47.2154 10.7861 46.8383 10.8958 46.5172 11.1069C46.1962 11.3181 45.9462 11.621 45.7997 11.9763C45.5234 12.5449 45.4128 13.1798 45.4807 13.8083C44.4947 14.3783 44.4807 13.3393 44.5017 12.9323C44.5107 12.7103 44.5247 12.3722 44.5627 12.0912C44.6687 11.3302 44.4386 11.5193 43.9186 11.9673C42.0627 13.4985 40.0411 14.817 37.8916 15.8983C34.3556 17.7163 29.3156 19.5603 21.4266 21.3983C11.9446 23.6123 2.70563 23.1392 1.25763 20.7192C-0.190367 18.2992 7.18263 14.0533 7.67963 13.7653C8.17663 13.4773 7.58563 13.2913 7.25363 13.4553C7.25363 13.4553 -1.52835 18.2253 0.233646 21.6183C1.99565 25.0113 10.9836 24.9432 20.5036 22.9532C36.2816 19.6532 42.7537 13.8223 43.4847 13.3813C43.8617 13.1523 43.7006 13.5682 43.6676 14.0162" fill="white"/>
<path d="M35.4835 7.78416C34.1397 7.90289 32.814 8.17567 31.5325 8.59714C30.8935 8.79714 30.5135 9.05915 30.4835 9.30415C30.4595 9.49615 30.5745 9.56715 31.1205 9.51215C33.1725 9.16122 35.2423 8.92319 37.3205 8.79914C39.7755 8.79914 41.2205 9.11515 41.7095 9.74515C42.2765 10.4782 40.1305 13.2391 32.1785 15.9501C24.5095 18.596 16.512 20.1711 8.41248 20.6311C7.84348 20.6761 7.54549 20.9381 8.61249 21.1311C10.1915 21.4221 18.2615 21.5741 28.8705 18.2181C39.4795 14.8621 43.5865 11.1051 42.4525 9.11814C41.9525 8.24114 39.7135 7.36113 35.4865 7.78513" fill="white"/>
<path d="M18.6061 4.25795C20.0865 3.38659 21.7603 2.89694 23.4769 2.83305C25.1935 2.76916 26.8991 3.13305 28.4401 3.89195C29.7876 4.50184 30.9931 5.38611 31.9795 6.48826C32.966 7.59042 33.7117 8.88623 34.1689 10.2929C34.6262 11.6995 34.7851 13.1862 34.6353 14.6577C34.4855 16.1292 34.0304 17.5533 33.2991 18.8389C32.3691 20.4975 31.0275 21.8886 29.4037 22.878C27.7798 23.8674 25.9285 24.4219 24.0281 24.488C22.0077 24.5781 19.9833 24.4729 17.9831 24.174C17.3081 24.05 17.2681 24.4929 17.7021 24.6239C19.6191 25.2009 24.9891 26.6549 30.0951 23.7919C35.6881 20.6549 36.8591 15.526 35.5401 10.272C34.0871 4.48896 28.7731 1.34295 23.1571 1.58095C19.9891 1.71495 18.3181 3.41296 18.0701 4.06196C17.9251 4.44396 18.1761 4.54895 18.6061 4.26195" fill="white"/>
<path d="M15.9492 6.19297C16.4552 5.64497 16.6692 5.45299 16.9142 5.21299C17.0742 5.05399 16.5392 4.69996 15.6142 5.23896C13.5756 6.91534 12.1739 9.24048 11.6432 11.826C11.3553 13.5061 11.4749 15.2309 11.9919 16.8553C12.5089 18.4797 13.4082 19.9563 14.6142 21.161C15.9892 22.293 16.0382 21.604 15.8072 21.376C14.4398 19.8862 13.4892 18.0622 13.0512 16.088C12.5642 14.1737 12.6752 12.1563 13.3692 10.307C13.9876 8.79888 14.8591 7.40751 15.9462 6.19297" fill="white"/>
<path d="M30.7548 10.532C26.7316 8.44815 22.4133 6.99196 17.9498 6.21393C17.1278 6.07393 16.7078 6.76496 17.4338 6.89796C22.0224 7.62774 26.4844 9.00408 30.6868 10.9859C30.7658 11.0209 30.9398 11.0259 30.9988 10.9269C31.0718 10.8009 30.9898 10.663 30.7548 10.532Z" fill="white"/>
<path d="M33.4438 13.7223C27.2068 10.4723 19.1278 9.12935 15.6948 8.76435C14.9428 8.68435 14.5848 9.49333 15.2518 9.56433C23.4828 10.5063 29.0518 12.1643 33.2628 14.1143C33.3518 14.1563 33.5188 14.2143 33.6118 14.0863C33.6818 13.9923 33.6628 13.8313 33.4438 13.7183" fill="white"/>
<path d="M14.7538 12.678C20.1249 12.9116 25.4554 13.7209 30.6538 15.092C30.8108 15.137 30.9238 15.076 30.9538 14.954C30.9768 14.848 30.9048 14.722 30.6978 14.659C25.5692 12.9932 20.2321 12.056 14.8428 11.875C14.1428 11.875 13.8098 12.646 14.7538 12.675" fill="white"/>
<path d="M24.0075 2.46643L24.2935 2.35443H24.2885V2.20743V2.10742H24.2135C22.8215 2.10742 21.3645 3.20741 20.1765 5.14941C18.6974 7.80874 17.9161 10.7995 17.9055 13.8424C17.6835 21.3284 19.9725 27.8064 22.6825 27.8864H22.7175C23.1265 27.896 23.5243 27.7522 23.8326 27.4833C24.1409 27.2144 24.3374 26.8399 24.3835 26.4334C24.3975 26.3484 24.4305 26.0214 24.2425 26.0024C24.0765 25.9854 24.0055 26.1694 23.9145 26.3754C23.8061 26.5887 23.631 26.7609 23.4159 26.8657C23.2008 26.9706 22.9574 27.0024 22.7225 26.9564C21.8385 26.9144 20.7865 25.6614 20.0515 22.9704C19.1728 19.8735 18.7808 16.6588 18.8895 13.4414C19.2315 6.28544 22.0895 2.38041 24.0045 2.46841" fill="white"/>
<path d="M29.701 25.2463C29.701 25.2463 29.664 24.9463 29.501 24.9463C29.361 24.9513 29.356 25.1463 29.335 25.2673C29.258 25.7033 29.084 26.0073 28.77 26.0823C28.6109 26.0921 28.4532 26.0473 28.323 25.9553C27.004 25.0643 24.935 20.0223 24.204 13.9333C23.388 7.14129 25.12 2.79229 26.325 2.45929L26.525 2.3053L26.497 2.20529C26.4244 2.22763 26.3547 2.25816 26.289 2.2963H26.169L26.141 2.19629C24.161 2.79629 22.633 8.21528 23.512 15.3333C24.264 21.4133 26.218 25.6613 27.837 26.7233C28.0595 26.8851 28.3279 26.9713 28.603 26.9693C28.6775 26.9658 28.7514 26.9534 28.823 26.9323C29.1443 26.7981 29.4085 26.5558 29.5699 26.2474C29.7314 25.9389 29.7799 25.5837 29.707 25.2433" fill="white"/>
<path d="M28.9493 15.3894C28.9073 15.2394 28.8763 15.1294 28.7263 14.5114C28.1013 11.9474 27.4403 7.91837 28.0133 4.96337C28.0273 4.89137 28.0373 4.84136 28.0433 4.81136C28.0783 4.63136 28.0313 4.52837 27.9303 4.51137C27.8619 4.50914 27.7953 4.53354 27.7446 4.57943C27.6938 4.62531 27.6629 4.68912 27.6583 4.75737C27.6583 4.77437 27.6423 4.80936 27.6303 4.86336C27.0407 8.45503 27.2348 12.1317 28.1993 15.6414C28.4383 16.4414 29.1313 16.0144 28.9513 15.3854" fill="white"/>
<path d="M16.8537 3.38898C16.844 3.20968 16.7813 3.03731 16.6736 2.89364C16.5659 2.74998 16.418 2.64145 16.2486 2.58182C16.0792 2.52218 15.896 2.5141 15.7221 2.55859C15.5481 2.60309 15.3912 2.69815 15.2713 2.83179C15.1514 2.96542 15.0738 3.13162 15.0483 3.30936C15.0228 3.48709 15.0505 3.6684 15.1281 3.83035C15.2056 3.99231 15.3294 4.12764 15.4838 4.21924C15.6383 4.31084 15.8164 4.35459 15.9957 4.34497C16.1152 4.33963 16.2324 4.31053 16.3405 4.25937C16.4486 4.20821 16.5454 4.13603 16.6253 4.04703C16.7052 3.95802 16.7666 3.85398 16.8058 3.741C16.845 3.62801 16.8613 3.50833 16.8537 3.38898Z" fill="white"/>
<path d="M44.734 17.7703C44.734 17.5906 44.6807 17.4148 44.5808 17.2653C44.4809 17.1158 44.339 16.9993 44.1729 16.9305C44.0068 16.8617 43.824 16.8437 43.6477 16.8788C43.4714 16.9139 43.3094 17.0004 43.1823 17.1276C43.0551 17.2547 42.9686 17.4167 42.9335 17.593C42.8984 17.7693 42.9164 17.9521 42.9852 18.1182C43.054 18.2843 43.1705 18.4263 43.32 18.5261C43.4695 18.626 43.6452 18.6793 43.825 18.6793C43.9444 18.6795 44.0627 18.656 44.173 18.6104C44.2834 18.5648 44.3836 18.4978 44.4681 18.4134C44.5525 18.3289 44.6194 18.2287 44.6651 18.1184C44.7107 18.008 44.7342 17.8897 44.734 17.7703Z" fill="white"/>
<path d="M18.7968 1.13717C18.7844 0.900005 18.7018 0.671881 18.5597 0.481649C18.4175 0.291418 18.2221 0.147638 17.9982 0.068533C17.7742 -0.0105715 17.5319 -0.0214655 17.3017 0.0372525C17.0716 0.0959705 16.8641 0.221672 16.7055 0.398398C16.5468 0.575123 16.4442 0.794927 16.4105 1.03002C16.3769 1.26511 16.4138 1.50492 16.5165 1.71905C16.6192 1.93317 16.7832 2.11197 16.9876 2.23287C17.192 2.35377 17.4277 2.41132 17.6648 2.39818C17.9819 2.38062 18.2792 2.23802 18.4914 2.00164C18.7036 1.76526 18.8134 1.45438 18.7968 1.13717Z" fill="white"/>
<path d="M47.9195 22.0322C47.5785 21.0326 46.9413 20.1606 46.0925 19.5322C45.5605 19.0872 45.0265 19.3642 45.5325 19.7852C46.0555 20.2212 49.4475 23.8152 44.6075 24.0432C43.0535 24.1182 39.9285 23.8512 33.8885 22.2222C33.5295 22.1282 33.1485 22.0222 32.7525 21.9042C32.2885 21.7682 31.7985 21.6212 31.2875 21.4592C30.5535 21.2292 29.7765 20.9722 28.9655 20.6912C28.2085 20.4282 27.4195 20.1452 26.6125 19.8412C26.1515 19.6702 25.6825 19.4892 25.2125 19.3052C25.1425 19.2752 25.0745 19.2492 25.0035 19.2232C24.5915 19.0572 24.1745 18.8912 23.7565 18.7232C23.5875 18.6532 23.4185 18.5832 23.2475 18.5102C21.8625 17.9332 20.4305 17.2172 19.0415 16.5472C18.6215 16.3472 18.2045 16.1472 17.7905 15.9362C16.0265 15.0502 14.3105 14.0972 12.7315 13.0982C12.2935 12.8242 11.8675 12.5432 11.4525 12.2592C10.6165 11.6832 9.40252 10.8302 8.67852 10.2282C3.19852 5.68718 8.5915 5.67118 14.3225 6.37918C14.7015 6.42618 15.0865 6.47918 15.4685 6.52918L15.9935 5.66217C15.6935 5.61684 15.4005 5.57384 15.1145 5.53318C10.7335 4.93318 7.74252 5.15818 6.50152 5.94318C5.66552 6.47218 4.56552 7.96819 8.06152 10.9712C9.11677 11.8651 10.2183 12.7029 11.3615 13.4812C11.8085 13.7912 12.2755 14.1022 12.7615 14.4142C14.3075 15.4142 16.0275 16.4222 17.8675 17.3992C18.2865 17.6242 18.7105 17.8442 19.1415 18.0622C19.7225 18.3622 20.3175 18.6522 20.9195 18.9382C21.5215 19.2242 22.1515 19.5162 22.7795 19.7962C23.2142 19.9882 23.6522 20.1778 24.0935 20.3652L24.2295 20.4212C24.6135 20.5852 25.0008 20.7445 25.3915 20.8992C25.7822 21.0538 26.1688 21.2052 26.5515 21.3532C27.6402 21.7739 28.7402 22.1622 29.8515 22.5182C30.3345 22.6752 30.8195 22.8272 31.3035 22.9722C31.8115 23.1202 32.3155 23.2632 32.8235 23.3992C39.6585 25.2292 43.4935 25.4282 45.6935 24.9452H45.7105C45.8445 24.9212 48.4105 24.3752 47.9275 22.0392" fill="white"/>
<path d="M73.7768 20.0751H72.3828C72.3637 20.0753 72.3448 20.0716 72.3272 20.0644C72.3095 20.0571 72.2935 20.0465 72.28 20.033C72.2665 20.0195 72.2558 20.0034 72.2486 19.9858C72.2414 19.9681 72.2377 19.9492 72.2378 19.9302V15.8561C72.2378 14.7341 72.2918 13.7761 72.3158 12.9151C72.3158 12.8071 72.3668 12.5702 72.3018 12.5562C72.2368 12.5422 72.1708 12.7061 72.1548 12.7301C71.9198 13.0981 71.4888 13.7861 71.2318 14.1621L67.6748 19.1502C67.6614 19.1689 67.6437 19.1842 67.6232 19.1948C67.6027 19.2054 67.5799 19.2109 67.5568 19.2109C67.5338 19.2109 67.511 19.2054 67.4905 19.1948C67.47 19.1842 67.4522 19.1689 67.4388 19.1502L63.8588 14.1592C63.6038 13.7862 63.1859 13.0651 62.9429 12.7011C62.8659 12.5881 62.8768 12.5541 62.8098 12.5701C62.7428 12.5861 62.7908 12.7831 62.7938 12.8891C62.8178 13.7511 62.8638 14.6561 62.8638 15.7781V19.9342C62.8636 19.9725 62.8482 20.0092 62.8211 20.0364C62.7939 20.0635 62.7572 20.0789 62.7188 20.0791H61.3188C61.2997 20.0793 61.2808 20.0756 61.2632 20.0684C61.2455 20.0611 61.2295 20.0505 61.216 20.037C61.2025 20.0235 61.1919 20.0074 61.1846 19.9898C61.1774 19.9721 61.1737 19.9532 61.1738 19.9342V7.97315C61.1735 7.94228 61.183 7.9121 61.2009 7.887C61.2189 7.8619 61.2444 7.84319 61.2738 7.8336C61.3031 7.824 61.3348 7.82402 61.3641 7.83366C61.3934 7.84329 61.4189 7.86203 61.4368 7.88715C62.5238 9.42415 66.6669 15.2871 67.4299 16.3971C67.4432 16.4161 67.461 16.4316 67.4816 16.4423C67.5022 16.453 67.5251 16.4586 67.5484 16.4586C67.5716 16.4586 67.5944 16.453 67.6151 16.4423C67.6357 16.4316 67.6535 16.4161 67.6669 16.3971C68.4289 15.2821 72.5668 9.42615 73.6598 7.88715C73.6775 7.86195 73.7027 7.84305 73.7319 7.83323C73.761 7.8234 73.7925 7.82317 73.8218 7.83256C73.8511 7.84195 73.8766 7.86047 73.8946 7.88541C73.9126 7.91036 73.9221 7.94038 73.9218 7.97114V19.9302C73.922 19.9492 73.9183 19.9681 73.9111 19.9858C73.9038 20.0034 73.8931 20.0195 73.8796 20.033C73.8662 20.0465 73.8501 20.0571 73.8325 20.0644C73.8148 20.0716 73.7959 20.0753 73.7768 20.0751Z" fill="white"/>
<path d="M86.3528 20.3261C83.1528 20.3261 81.3828 18.4541 81.3828 15.0561V8.23108C81.3831 8.17467 81.4056 8.12064 81.4455 8.08075C81.4854 8.04086 81.5394 8.01833 81.5958 8.01807H82.8558C82.8838 8.01807 82.9115 8.0236 82.9373 8.0343C82.9632 8.04501 82.9867 8.0607 83.0064 8.08047C83.0262 8.10025 83.0419 8.12372 83.0526 8.14957C83.0633 8.17541 83.0688 8.20311 83.0688 8.23108V15.0701C83.0688 17.5301 84.1438 18.7271 86.3538 18.7271C88.5638 18.7271 89.6538 17.5271 89.6538 15.0701V8.23108C89.6538 8.17459 89.6763 8.12042 89.7162 8.08047C89.7562 8.04053 89.8103 8.01807 89.8668 8.01807H91.1248C91.1528 8.01807 91.1805 8.0236 91.2063 8.0343C91.2322 8.04501 91.2557 8.0607 91.2755 8.08047C91.2952 8.10025 91.3109 8.12372 91.3216 8.14957C91.3323 8.17541 91.3378 8.20311 91.3378 8.23108V15.0561C91.3378 18.4061 89.5228 20.3261 86.3528 20.3261Z" fill="white"/>
<path d="M106.07 13.638C106.03 13.6196 105.995 13.5913 105.97 13.5557C105.944 13.5201 105.928 13.4784 105.924 13.4348C105.919 13.3912 105.925 13.3472 105.943 13.3069C105.96 13.2666 105.988 13.2315 106.023 13.205C106.37 12.9629 106.656 12.643 106.858 12.2707C107.059 11.8985 107.171 11.4842 107.185 11.061C107.185 9.271 105.728 8.02002 103.642 8.02002H99.7716C99.7037 8.02055 99.6387 8.04784 99.5908 8.09595C99.5429 8.14406 99.5159 8.2091 99.5156 8.27701V19.817C99.5155 19.8508 99.522 19.8842 99.5348 19.9154C99.5476 19.9467 99.5664 19.9751 99.5902 19.9991C99.614 20.023 99.6422 20.042 99.6733 20.0551C99.7045 20.0681 99.7379 20.0749 99.7716 20.075H103.91C106.358 20.075 107.942 18.657 107.942 16.464C107.92 15.8663 107.734 15.2862 107.403 14.7876C107.073 14.289 106.611 13.8912 106.07 13.638ZM101.201 9.77902C101.201 9.74523 101.207 9.71176 101.22 9.68057C101.233 9.64938 101.252 9.62109 101.276 9.59729C101.3 9.57349 101.329 9.55468 101.36 9.54193C101.391 9.52918 101.425 9.52275 101.459 9.52301H103.373C104.666 9.52301 105.501 10.179 105.501 11.196C105.476 11.4489 105.4 11.6942 105.279 11.9176C105.158 12.1411 104.994 12.3381 104.796 12.4971C104.597 12.6562 104.369 12.7741 104.125 12.844C103.881 12.9139 103.625 12.9343 103.373 12.904H101.459C101.425 12.9042 101.391 12.8976 101.36 12.8848C101.329 12.872 101.301 12.8532 101.277 12.8295C101.253 12.8057 101.234 12.7774 101.221 12.7463C101.208 12.7152 101.201 12.6818 101.201 12.648V9.77902ZM103.827 18.573H101.46C101.392 18.5733 101.326 18.5466 101.278 18.4988C101.23 18.451 101.202 18.386 101.202 18.318V14.558C101.202 14.5243 101.209 14.491 101.222 14.4599C101.235 14.4288 101.254 14.4006 101.278 14.3769C101.302 14.3532 101.33 14.3345 101.361 14.3218C101.392 14.3092 101.426 14.3027 101.46 14.303H103.744C104.046 14.2799 104.351 14.3172 104.639 14.4126C104.927 14.5081 105.194 14.6599 105.423 14.8591C105.652 15.0584 105.839 15.3012 105.974 15.5735C106.108 15.8457 106.188 16.1419 106.207 16.445C106.206 16.7462 106.143 17.044 106.019 17.3189C105.896 17.5938 105.717 17.8397 105.492 18.0404C105.267 18.2411 105.003 18.3922 104.716 18.4838C104.429 18.5754 104.126 18.6055 103.827 18.572" fill="white"/>
<path d="M137.527 8.01805H133.059C133.007 8.01961 132.958 8.04138 132.922 8.07872C132.885 8.11606 132.865 8.16604 132.865 8.21806V19.8841C132.867 19.9351 132.888 19.9835 132.924 20.0196C132.96 20.0556 133.008 20.0766 133.059 20.0781H137.63C138.428 20.1069 139.224 19.9736 139.97 19.6864C140.715 19.3991 141.394 18.9638 141.967 18.4067C142.539 17.8496 142.993 17.1822 143.3 16.445C143.608 15.7077 143.762 14.9158 143.755 14.1171C143.766 13.3023 143.611 12.4939 143.3 11.7408C142.989 10.9876 142.528 10.3054 141.946 9.73528C141.364 9.16517 140.672 8.71906 139.913 8.4239C139.153 8.12875 138.342 7.99067 137.527 8.01805ZM137.627 18.4731H134.742C134.689 18.4731 134.638 18.452 134.601 18.4145C134.563 18.377 134.542 18.3261 134.542 18.2731V9.81007C134.542 9.75703 134.563 9.70616 134.601 9.66866C134.638 9.63115 134.689 9.61006 134.742 9.61006H137.527C138.124 9.58864 138.719 9.6901 139.274 9.90816C139.83 10.1262 140.335 10.4562 140.758 10.8776C141.181 11.2991 141.513 11.8029 141.733 12.358C141.953 12.913 142.057 13.5073 142.037 14.104C142.053 14.6849 141.95 15.2629 141.733 15.8022C141.517 16.3415 141.192 16.8306 140.779 17.2393C140.366 17.648 139.873 17.9675 139.332 18.1782C138.79 18.3889 138.211 18.4862 137.63 18.4641" fill="white"/>
<path d="M174.297 20.0751H166.591C166.546 20.0748 166.504 20.057 166.473 20.0255C166.441 19.994 166.424 19.9515 166.424 19.9071V8.18509C166.424 8.14071 166.441 8.09813 166.473 8.06665C166.504 8.03517 166.546 8.01735 166.591 8.01709H167.941C167.985 8.01735 168.028 8.03517 168.059 8.06665C168.09 8.09813 168.108 8.14071 168.108 8.18509V18.3051C168.108 18.327 168.112 18.3487 168.12 18.3689C168.128 18.3892 168.141 18.4076 168.156 18.4231C168.172 18.4386 168.19 18.4509 168.21 18.4594C168.23 18.4678 168.252 18.4721 168.274 18.4721H174.907C174.935 18.4722 174.963 18.4794 174.987 18.4931C175.012 18.5068 175.033 18.5264 175.048 18.5503C175.063 18.5741 175.071 18.6014 175.073 18.6295C175.074 18.6576 175.069 18.6857 175.057 18.7111L174.445 19.9791C174.432 20.0073 174.411 20.0312 174.385 20.0478C174.358 20.0645 174.328 20.0733 174.297 20.0731" fill="white"/>
<path d="M126.245 20.0552H124.783C124.758 20.0554 124.733 20.0484 124.712 20.0352C124.691 20.0219 124.674 20.0028 124.663 19.9802L123.744 18.1202C123.733 18.0974 123.716 18.078 123.695 18.0644C123.674 18.0508 123.649 18.0435 123.624 18.0432H118.364C118.341 18.0434 118.319 18.0376 118.299 18.0265C118.279 18.0153 118.262 17.9992 118.25 17.9797C118.238 17.9602 118.231 17.938 118.23 17.9151C118.229 17.8922 118.234 17.8695 118.245 17.8492L118.887 16.5902C118.898 16.5681 118.915 16.5496 118.936 16.5367C118.957 16.5238 118.981 16.517 119.006 16.5172L122.748 16.5102C122.771 16.5101 122.793 16.5041 122.813 16.493C122.833 16.4818 122.849 16.4657 122.861 16.4463C122.873 16.4268 122.88 16.4047 122.881 16.382C122.882 16.3592 122.877 16.3366 122.867 16.3162L120.173 10.8522L120.154 10.8012L120.133 10.8592L115.623 19.9992C115.612 20.0214 115.594 20.04 115.573 20.0533C115.552 20.0665 115.528 20.0737 115.503 20.0742H114.083C114.059 20.0743 114.036 20.0683 114.016 20.0567C113.995 20.0452 113.978 20.0284 113.966 20.0082C113.954 19.988 113.948 19.965 113.947 19.9415C113.947 19.918 113.953 19.8948 113.964 19.8742L120.039 7.71622C120.05 7.69384 120.067 7.67497 120.088 7.66177C120.109 7.64858 120.134 7.6416 120.158 7.6416C120.183 7.6416 120.208 7.64858 120.229 7.66177C120.25 7.67497 120.267 7.69384 120.278 7.71622L126.365 19.8582C126.375 19.8784 126.38 19.901 126.379 19.9237C126.378 19.9464 126.372 19.9685 126.36 19.9878C126.348 20.0071 126.331 20.023 126.311 20.0339C126.291 20.0448 126.269 20.0504 126.246 20.0502" fill="white"/>
<path d="M160.753 20.055H159.289C159.264 20.0547 159.239 20.0476 159.218 20.0344C159.197 20.0211 159.18 20.0023 159.169 19.98L158.25 18.12C158.239 18.0972 158.223 18.0778 158.201 18.0642C158.18 18.0506 158.156 18.0432 158.131 18.043H152.871C152.848 18.0432 152.825 18.0374 152.805 18.0263C152.785 18.0152 152.769 17.9991 152.757 17.9796C152.745 17.96 152.738 17.9378 152.737 17.9149C152.736 17.892 152.741 17.8694 152.752 17.849L153.394 16.59C153.405 16.568 153.422 16.5494 153.443 16.5365C153.464 16.5236 153.488 16.5169 153.513 16.517L157.253 16.51C157.276 16.51 157.298 16.5042 157.318 16.4931C157.338 16.482 157.355 16.4659 157.367 16.4465C157.379 16.4271 157.386 16.4049 157.387 16.382C157.388 16.3592 157.383 16.3365 157.373 16.316L154.679 10.852L154.66 10.801L154.637 10.859L150.129 19.999C150.117 20.0211 150.1 20.0398 150.079 20.0529C150.058 20.0661 150.034 20.0734 150.009 20.074H148.589C148.565 20.0742 148.542 20.0681 148.522 20.0565C148.501 20.045 148.484 20.0283 148.472 20.0081C148.46 19.9879 148.454 19.9649 148.453 19.9413C148.453 19.9178 148.458 19.8946 148.47 19.874L154.543 7.71603C154.554 7.69343 154.571 7.67437 154.592 7.66104C154.614 7.64771 154.638 7.64062 154.663 7.64062C154.688 7.64062 154.713 7.64771 154.734 7.66104C154.756 7.67437 154.773 7.69343 154.784 7.71603L160.873 19.858C160.883 19.8784 160.887 19.9009 160.886 19.9235C160.885 19.946 160.878 19.9679 160.866 19.987C160.854 20.0062 160.837 20.022 160.817 20.033C160.798 20.044 160.775 20.0499 160.753 20.05" fill="white"/>
<path d="M191.38 20.055H189.916C189.891 20.055 189.867 20.0479 189.845 20.0347C189.824 20.0214 189.807 20.0025 189.796 19.98L188.877 18.12C188.867 18.0972 188.85 18.0778 188.829 18.0642C188.808 18.0506 188.783 18.0432 188.758 18.043H183.498C183.475 18.0435 183.452 18.0379 183.432 18.0268C183.412 18.0158 183.395 17.9997 183.383 17.9801C183.371 17.9605 183.364 17.9381 183.364 17.9151C183.363 17.8921 183.368 17.8693 183.379 17.849L184.021 16.59C184.032 16.568 184.049 16.5494 184.07 16.5365C184.091 16.5236 184.115 16.5169 184.14 16.517L187.88 16.51C187.903 16.51 187.925 16.5042 187.945 16.4931C187.965 16.482 187.982 16.4659 187.994 16.4465C188.006 16.4271 188.013 16.4049 188.014 16.382C188.015 16.3592 188.01 16.3365 188 16.316L185.306 10.852L185.287 10.801C185.278 10.82 185.266 10.859 185.266 10.859L180.755 19.999C180.744 20.0211 180.727 20.0397 180.706 20.0529C180.685 20.0662 180.661 20.0735 180.636 20.074H179.216C179.193 20.074 179.169 20.0679 179.149 20.0564C179.129 20.0448 179.112 20.0281 179.099 20.008C179.087 19.9879 179.081 19.9649 179.08 19.9415C179.08 19.918 179.085 19.8947 179.096 19.874L185.171 7.71603C185.182 7.69343 185.199 7.67437 185.221 7.66104C185.242 7.64771 185.266 7.64062 185.292 7.64062C185.317 7.64062 185.341 7.64771 185.363 7.66104C185.384 7.67437 185.401 7.69343 185.412 7.71603L191.501 19.858C191.511 19.8784 191.515 19.9009 191.514 19.9235C191.513 19.946 191.506 19.9679 191.494 19.987C191.482 20.0062 191.465 20.022 191.446 20.033C191.426 20.044 191.404 20.0499 191.381 20.05" fill="white"/>
</svg>
