<svg width="158" height="39" viewBox="0 0 158 39" fill="none" xmlns="http://www.w3.org/2000/svg">
<path d="M45.7444 24.828C45.5313 25.033 45.2472 25.1475 44.9515 25.1475C44.6558 25.1475 44.3716 25.033 44.1584 24.828C43.953 24.6056 43.8406 24.3128 43.8444 24.01C43.8411 23.8625 43.8672 23.7159 43.9211 23.5785C43.975 23.4412 44.0557 23.3159 44.1584 23.21C44.2603 23.102 44.3832 23.0159 44.5196 22.9571C44.656 22.8982 44.803 22.8679 44.9515 22.8679C45.1 22.8679 45.2469 22.8982 45.3833 22.9571C45.5197 23.0159 45.6425 23.102 45.7444 23.21C45.8465 23.3162 45.9264 23.4416 45.9795 23.5789C46.0325 23.7163 46.0577 23.8628 46.0535 24.01C46.0591 24.3122 45.9485 24.6051 45.7444 24.828ZM43.2495 24.828C43.1465 24.9334 43.0227 25.0161 42.886 25.071C42.7493 25.126 42.6027 25.1519 42.4554 25.147C42.312 25.1514 42.1693 25.1252 42.0367 25.0702C41.9041 25.0152 41.7847 24.9327 41.6865 24.828C41.5801 24.7204 41.4963 24.5926 41.4399 24.4521C41.3836 24.3117 41.3559 24.1614 41.3585 24.01C41.3545 23.8612 41.3816 23.7132 41.438 23.5754C41.4945 23.4377 41.5791 23.3132 41.6865 23.21C41.7821 23.1006 41.9004 23.0133 42.0332 22.9542C42.166 22.8951 42.3101 22.8657 42.4554 22.868C42.6045 22.8654 42.7524 22.8945 42.8893 22.9534C43.0263 23.0124 43.149 23.0999 43.2495 23.21C43.3537 23.3151 43.4357 23.4401 43.4905 23.5775C43.5453 23.715 43.5718 23.8621 43.5684 24.01C43.5727 24.3139 43.4583 24.6074 43.2495 24.828ZM44.1934 22.068C40.7934 22.068 39.1064 20.754 39.1064 18.132C39.1089 17.5166 39.19 16.904 39.3475 16.3091L41.9744 15.885C41.7015 16.5184 41.5695 17.2036 41.5875 17.8931C41.5553 18.2142 41.5981 18.5385 41.7126 18.8403C41.8272 19.142 42.0103 19.4131 42.2474 19.632C42.8999 20.0421 43.669 20.2266 44.4365 20.157H44.9634V16.049C45.9445 15.8708 46.9404 15.7874 47.9374 15.8C48.3772 15.7582 48.821 15.8047 49.2426 15.9368C49.6641 16.0688 50.0551 16.2838 50.3925 16.569C50.8657 17.1709 51.0956 17.9287 51.0364 18.692V20.157H51.8265V22.067H48.6794V18.912C48.7153 18.5891 48.6591 18.2625 48.5175 17.97C48.4175 17.804 48.1795 17.714 47.8115 17.714C47.6407 17.7135 47.47 17.7235 47.3005 17.744V22.069L44.1934 22.068Z" fill="white"/>
<path d="M51.6417 20.1581H52.8557C52.5491 19.7578 52.3947 19.2616 52.4197 18.7581C52.4061 18.3675 52.4786 17.9787 52.6321 17.6192C52.7855 17.2597 53.0162 16.9384 53.3077 16.6781C54.0792 16.0465 55.0618 15.7316 56.0566 15.7971C56.5653 15.7913 57.0726 15.8518 57.5657 15.9771L57.1467 17.9081C56.8095 17.7666 56.4462 17.6984 56.0807 17.7081C55.7612 17.699 55.4494 17.8076 55.2047 18.0131C55.1024 18.1181 55.0218 18.2424 54.9676 18.3786C54.9134 18.5148 54.8865 18.6604 54.8887 18.8071C54.8887 19.6931 55.6287 20.1521 57.1117 20.1521H58.0397V22.0621H51.6396L51.6417 20.1581Z" fill="white"/>
<path d="M68.0992 19.0922C68.0992 18.1802 67.7992 17.7142 67.1902 17.7142C67.0504 17.7092 66.9116 17.7382 66.7855 17.7986C66.6594 17.8591 66.5498 17.9492 66.4662 18.0612C66.2927 18.3012 66.2044 18.5923 66.2152 18.8882C66.2152 19.7392 66.6622 20.1582 67.5502 20.1582H68.0992V19.0922ZM59.1992 22.0682V12.9492H61.6542V20.1582H62.3952C63.3282 20.1582 63.7952 19.7482 63.7952 18.9122C63.7856 18.5116 63.8585 18.1133 64.0093 17.7421C64.1602 17.3708 64.3858 17.0346 64.6722 16.7542C65.0299 16.4261 65.4496 16.1727 65.9065 16.0089C66.3634 15.8451 66.8485 15.7741 67.3332 15.8002C67.7527 15.7442 68.1794 15.784 68.5814 15.9166C68.9833 16.0492 69.3499 16.2713 69.6536 16.566C69.9574 16.8607 70.1904 17.2204 70.3351 17.6181C70.4799 18.0159 70.5325 18.4412 70.4892 18.8622V20.1622H71.2892V22.0722H67.5542C66.5793 22.1428 65.6074 21.9 64.7802 21.3792C64.4902 21.8222 63.8122 22.0422 62.7542 22.0722L59.1992 22.0682Z" fill="white"/>
<path d="M74.217 14.9639C74.0056 14.7495 73.8871 14.4605 73.8871 14.1594C73.8871 13.8583 74.0056 13.5693 74.217 13.3549C74.3165 13.2466 74.4375 13.1602 74.5722 13.1011C74.7069 13.0419 74.8524 13.0114 74.9995 13.0114C75.1466 13.0114 75.2921 13.0419 75.4268 13.1011C75.5615 13.1602 75.6824 13.2466 75.782 13.3549C75.9891 13.5715 76.1047 13.8597 76.1047 14.1594C76.1047 14.4591 75.9891 14.7473 75.782 14.9639C75.6819 15.0713 75.5607 15.1569 75.4261 15.2154C75.2915 15.2739 75.1462 15.3041 74.9995 15.3041C74.8527 15.3041 74.7075 15.2739 74.5729 15.2154C74.4383 15.1569 74.3171 15.0713 74.217 14.9639ZM71.726 14.9639C71.5206 14.7464 71.4062 14.4586 71.4062 14.1594C71.4062 13.8603 71.5206 13.5725 71.726 13.3549C71.8239 13.245 71.9444 13.1574 72.0791 13.0981C72.2138 13.0387 72.3597 13.009 72.507 13.0109C72.6562 13.0081 72.8044 13.0374 72.9413 13.0967C73.0783 13.156 73.2009 13.2441 73.301 13.3549C73.503 13.5741 73.6152 13.8613 73.6152 14.1594C73.6152 14.4575 73.503 14.7447 73.301 14.9639C73.2007 15.0742 73.0779 15.1616 72.9409 15.2202C72.8039 15.2789 72.6559 15.3074 72.507 15.3039C72.36 15.3066 72.2142 15.2776 72.0795 15.219C71.9447 15.1603 71.8241 15.0733 71.726 14.9639ZM71.126 20.1579H72.804V15.9869H75.259V20.1579H76.168V22.0679H71.126V20.1579Z" fill="white"/>
<path d="M78.2216 24.8368C78.1114 24.7294 78.024 24.6007 77.9649 24.4586C77.9058 24.3164 77.8761 24.1638 77.8776 24.0098C77.8739 23.855 77.9025 23.7011 77.9617 23.558C78.021 23.4149 78.1095 23.2857 78.2216 23.1788C78.3298 23.0684 78.4591 22.981 78.6019 22.9217C78.7447 22.8624 78.898 22.8325 79.0526 22.8338C79.2058 22.8329 79.3576 22.863 79.4989 22.9223C79.6402 22.9815 79.7679 23.0688 79.8746 23.1788C79.9856 23.2856 80.0733 23.4142 80.1321 23.5565C80.191 23.6989 80.2198 23.8518 80.2166 24.0058C80.2174 24.1591 80.188 24.311 80.1301 24.4529C80.0721 24.5948 79.9868 24.7239 79.879 24.8328C79.7712 24.9417 79.643 25.0283 79.5017 25.0877C79.3604 25.1471 79.2089 25.178 79.0556 25.1788C78.9013 25.1799 78.7483 25.1502 78.6057 25.0915C78.463 25.0328 78.3334 24.9462 78.2246 24.8368M75.9756 20.1578H80.4856C80.5016 19.9938 80.5156 19.8368 80.5156 19.6678C80.5156 18.4148 79.8156 17.8028 78.4306 17.8028C77.9053 17.7991 77.3806 17.8412 76.8626 17.9288V16.0288C77.4621 15.9302 78.069 15.883 78.6766 15.8878C79.8356 15.7886 80.9905 16.1208 81.9196 16.8208C82.2846 17.1869 82.5655 17.6281 82.7427 18.1137C82.9199 18.5993 82.9891 19.1177 82.9456 19.6328C82.94 20.4501 82.8647 21.2654 82.7206 22.0698H75.9766L75.9756 20.1578Z" fill="white"/>
<path d="M84.309 22.0699V20.1599H88.2811V12.9529H90.739V22.0699H84.309ZM87.85 19.4619H85.3571L83.79 13.1619L86.2501 12.8179L87.85 19.4619Z" fill="white"/>
<path d="M94.9982 12.9502H92.5352V22.0692H94.9982V12.9502Z" fill="white"/>
<path d="M103.805 12.9492H106.272V20.1582H107.237V22.0682H106.167C105.811 24.0462 104.553 25.0462 102.387 25.0462C100.011 25.0462 98.8281 23.7792 98.8281 21.2712C98.831 20.5497 98.9344 19.8322 99.1351 19.1392L101.67 18.6922C101.423 19.447 101.295 20.2359 101.292 21.0302C101.292 22.4302 101.709 23.1232 102.555 23.1232C102.74 23.1385 102.925 23.1036 103.091 23.0223C103.257 22.9409 103.398 22.8162 103.499 22.6612C103.75 22.122 103.857 21.527 103.809 20.9342L103.805 12.9492Z" fill="white"/>
<path d="M112.481 19.0918C112.481 18.1798 112.181 17.7138 111.574 17.7138C111.434 17.7085 111.294 17.7383 111.167 17.8004C111.041 17.8626 110.932 17.9551 110.85 18.0698C110.673 18.3044 110.583 18.5939 110.597 18.8878C110.597 19.7388 111.033 20.1578 111.926 20.1578H112.481V19.0918ZM111.926 22.0678C110.954 22.1366 109.986 21.8938 109.161 21.3748C108.849 21.8358 108.114 22.0678 106.979 22.0678H106.779V20.1578C107.712 20.1578 108.179 19.7478 108.179 18.9118C108.169 18.5115 108.241 18.1133 108.391 17.7421C108.541 17.3708 108.766 17.0344 109.051 16.7538C109.41 16.4261 109.829 16.173 110.286 16.0092C110.743 15.8455 111.229 15.7743 111.713 15.7998C112.132 15.744 112.559 15.7841 112.96 15.917C113.361 16.0499 113.727 16.2721 114.03 16.5669C114.333 16.8617 114.565 17.2214 114.708 17.619C114.852 18.0165 114.904 18.4414 114.859 18.8618V20.1618H115.659V22.0718L111.926 22.0678Z" fill="white"/>
<path d="M120.293 19.1902C120.514 18.9551 120.637 18.644 120.635 18.3212C120.635 17.7872 120.335 17.5062 119.717 17.5062C119.287 17.5332 118.873 17.6759 118.517 17.9192C118.597 17.9522 119.185 18.3802 120.289 19.1892M115.458 20.1572H115.948C116.668 20.1712 117.389 20.1241 118.101 20.0162C117.538 19.443 116.84 19.0192 116.072 18.7832L116.278 17.0072C117.362 16.2223 118.658 15.785 119.996 15.7532C120.831 15.694 121.66 15.927 122.342 16.4122C122.577 16.6054 122.764 16.8505 122.888 17.1281C123.012 17.4057 123.07 17.7083 123.057 18.0122C123.054 18.3997 122.974 18.7828 122.822 19.1395C122.671 19.4962 122.451 19.8196 122.174 20.0912C122.413 20.1284 122.654 20.1501 122.895 20.1562H123.853V22.0662H122.673C121.733 22.0857 120.804 21.8716 119.967 21.4432C118.643 21.8895 117.252 22.1004 115.855 22.0662H115.466L115.458 20.1572Z" fill="white"/>
<path d="M123.66 20.1579H124.977V12.9438H127.432V20.1579H128.532V22.0679H123.659L123.66 20.1579Z" fill="white"/>
<path d="M128.339 20.1579H129.654V12.9438H132.112V22.0679H128.339V20.1579Z" fill="white"/>
<path d="M135.021 25.2738L135.147 23.3568C135.38 23.3788 135.614 23.3888 135.847 23.3868C135.97 23.3981 136.093 23.3829 136.209 23.3422C136.325 23.3015 136.431 23.2362 136.519 23.1508C136.705 22.8659 136.79 22.5266 136.758 22.1878V15.9878H139.214V20.1578H140.248V22.0678H139.211V22.1128C139.211 24.2341 138.054 25.2965 135.74 25.2998C135.478 25.2998 135.24 25.2908 135.021 25.2718" fill="white"/>
<path d="M145.535 20.1579C146.486 20.1269 146.96 19.6939 146.96 18.8389C146.96 18.1059 146.639 17.7388 146.009 17.7388C145.757 17.753 145.511 17.8192 145.285 17.9333C145.06 18.0474 144.861 18.2069 144.701 18.4019C144.236 18.8889 143.914 19.4953 143.773 20.1539L145.535 20.1579ZM140.047 20.1579H141.347V12.9438H143.8V16.0489C143.809 16.497 143.751 16.944 143.627 17.3748H143.662C143.928 16.8728 144.345 16.467 144.854 16.2149C145.371 15.9405 145.947 15.7979 146.532 15.7999C146.929 15.7529 147.331 15.7962 147.709 15.9266C148.086 16.0569 148.43 16.2709 148.713 16.5525C148.996 16.8341 149.212 17.1762 149.345 17.553C149.478 17.9299 149.523 18.3318 149.479 18.7289C149.487 19.2187 149.395 19.7051 149.208 20.1579H150.189V22.0679H140.047V20.1579Z" fill="white"/>
<path d="M154.428 14.9659C154.322 14.8605 154.238 14.735 154.18 14.5969C154.123 14.4587 154.093 14.3106 154.093 14.1609C154.093 14.0113 154.123 13.8632 154.18 13.725C154.238 13.5869 154.322 13.4614 154.428 13.3559C154.528 13.2481 154.65 13.1621 154.785 13.1033C154.92 13.0445 155.065 13.0141 155.212 13.0141C155.36 13.0141 155.505 13.0445 155.64 13.1033C155.775 13.1621 155.896 13.2481 155.996 13.3559C156.193 13.578 156.302 13.8643 156.302 14.1609C156.302 14.4576 156.193 14.7439 155.996 14.9659C155.896 15.0727 155.774 15.1578 155.639 15.2159C155.504 15.2741 155.359 15.3041 155.212 15.3041C155.066 15.3041 154.92 15.2741 154.785 15.2159C154.651 15.1578 154.529 15.0727 154.428 14.9659ZM154.913 19.0919C154.913 18.1799 154.62 17.7139 154.013 17.7139C153.871 17.7098 153.73 17.74 153.602 17.802C153.474 17.8639 153.362 17.9559 153.277 18.0699C153.105 18.3071 153.017 18.5949 153.026 18.8879C153.026 19.7389 153.473 20.1579 154.361 20.1579H154.916L154.913 19.0919ZM151.932 14.9659C151.731 14.7459 151.62 14.4588 151.62 14.1609C151.62 13.8631 151.731 13.5759 151.932 13.3559C152.034 13.2479 152.156 13.1618 152.292 13.1029C152.428 13.0441 152.575 13.0137 152.723 13.0137C152.871 13.0137 153.018 13.0441 153.154 13.1029C153.289 13.1618 153.412 13.2479 153.513 13.3559C153.715 13.5754 153.827 13.8627 153.827 14.1609C153.827 14.4591 153.715 14.7465 153.513 14.9659C153.411 15.0757 153.288 15.1625 153.15 15.2208C153.012 15.2791 152.863 15.3074 152.713 15.3039C152.567 15.3056 152.421 15.2763 152.286 15.2181C152.152 15.1598 152.032 15.0739 151.932 14.9659ZM149.986 22.0659V20.1559H150.305C150.539 20.1354 150.774 20.1739 150.989 20.2679C150.708 19.8739 150.575 19.3935 150.612 18.9109C150.602 18.5097 150.675 18.1106 150.827 17.7391C150.979 17.3676 151.207 17.0317 151.495 16.7529C151.851 16.4231 152.27 16.1686 152.726 16.0046C153.183 15.8407 153.668 15.7707 154.152 15.7989C154.595 15.7641 155.041 15.8248 155.458 15.9768C155.876 16.1288 156.256 16.3685 156.573 16.6799C157.079 17.2904 157.335 18.0695 157.29 18.8609V22.0679L149.986 22.0659Z" fill="white"/>
<path d="M44.9726 31.2189C44.9701 30.8643 44.942 30.5104 44.8886 30.1599C44.8398 29.8492 44.7493 29.5464 44.6196 29.2599C44.4975 29.0185 44.3162 28.8121 44.0926 28.6599C43.8363 28.5144 43.5462 28.4386 43.2514 28.4402C42.9566 28.4418 42.6675 28.5206 42.4127 28.6689C42.1817 28.823 41.9965 29.0365 41.8766 29.2869C41.7359 29.5666 41.641 29.8671 41.5956 30.1769C41.5372 30.5278 41.5091 30.8831 41.5116 31.2389C41.5112 31.6273 41.541 32.0151 41.6006 32.3989C41.6439 32.7036 41.7457 32.997 41.9006 33.2629C42.0267 33.4928 42.2148 33.6827 42.4436 33.8109C42.6941 33.9439 42.9751 34.0088 43.2586 33.9989C43.539 34.0114 43.8171 33.9419 44.0586 33.7989C44.2714 33.6513 44.4497 33.4596 44.5816 33.2369C44.7202 32.9561 44.8212 32.6581 44.8816 32.3509C44.9439 31.9774 44.9746 31.5994 44.9736 31.2209M47.6287 31.2209C47.6432 31.9765 47.4962 32.7266 47.1976 33.4209C46.9389 34.0518 46.4977 34.5912 45.9306 34.9699C46.2306 35.0549 46.5376 35.1369 46.8636 35.2259C47.1896 35.3149 47.4776 35.3989 47.7746 35.4719C47.6596 35.7719 47.5406 36.0719 47.4276 36.3719C47.3146 36.6719 47.1977 36.9809 47.0767 37.2809L42.5216 35.6709C41.9576 35.6135 41.4092 35.4514 40.9047 35.1929C40.4608 34.968 40.0718 34.6481 39.7656 34.2559C39.4619 33.8564 39.2342 33.4046 39.0936 32.9229C38.9462 32.3663 38.8728 31.7927 38.8756 31.2169C38.8668 30.6093 38.9555 30.0043 39.1386 29.4249C39.2965 28.8899 39.5719 28.3969 39.9446 27.9819C40.3193 27.5574 40.7877 27.226 41.3126 27.0139C42.5739 26.5533 43.9573 26.5533 45.2186 27.0139C45.7392 27.2267 46.2029 27.5581 46.5726 27.9819C46.9362 28.4024 47.2086 28.8937 47.3726 29.4249C47.5479 30.0059 47.6356 30.6099 47.6326 31.2169" fill="white"/>
<path d="M52.8292 32.9348C52.6482 32.9608 52.4612 32.9698 52.2672 32.9978C52.0947 33.0064 51.9232 33.0281 51.7542 33.0628C51.6186 33.0933 51.4934 33.1588 51.3911 33.2528C51.3415 33.3019 51.3028 33.3608 51.2773 33.4257C51.2518 33.4906 51.2402 33.5601 51.2432 33.6298C51.2481 33.8108 51.3096 33.9857 51.4191 34.1298C51.4795 34.186 51.5508 34.2291 51.6286 34.2564C51.7064 34.2838 51.7889 34.2948 51.8712 34.2888C52.0323 34.281 52.1908 34.2444 52.3391 34.1808C52.5197 34.1351 52.6873 34.0486 52.8292 33.9278V32.9348ZM55.1292 34.0348H55.9291C55.9431 34.2568 55.9572 34.4798 55.9802 34.6978C56.0032 34.9158 56.0182 35.1448 56.0272 35.3778C55.7555 35.5025 55.4702 35.5951 55.1771 35.6538C54.8354 35.7153 54.4893 35.7487 54.1422 35.7538C53.8848 35.7578 53.6297 35.7048 53.3951 35.5988C53.2825 35.543 53.1864 35.4588 53.1162 35.3544C53.0461 35.2501 53.0043 35.1292 52.9951 35.0038C52.9951 35.0128 52.9781 35.0038 52.9601 34.9848C52.7695 35.162 52.5539 35.3103 52.3201 35.4248C52.1164 35.5157 51.9065 35.5922 51.6921 35.6538C51.4921 35.6988 51.3152 35.7168 51.1652 35.7398C51.0052 35.7448 50.8912 35.7558 50.7932 35.7558C50.4449 35.7683 50.0985 35.6999 49.7811 35.5558C49.5387 35.4559 49.3259 35.2954 49.1632 35.0898C49.0178 34.9192 48.9092 34.7204 48.8441 34.5058C48.7816 34.3077 48.748 34.1016 48.7441 33.8938C48.7438 33.6897 48.7775 33.4869 48.8441 33.2938C48.9085 33.0919 49.0069 32.9025 49.1351 32.7338C49.2903 32.5555 49.4793 32.4097 49.6912 32.3048C49.9464 32.1747 50.2209 32.0862 50.5042 32.0428C50.8756 31.9829 51.2503 31.9445 51.6262 31.9278C52.0502 31.8948 52.4512 31.8628 52.8422 31.8218V31.7218C52.8485 31.6093 52.8317 31.4966 52.793 31.3907C52.7543 31.2848 52.6945 31.1878 52.6171 31.1058C52.3811 30.9498 52.0988 30.8792 51.8171 30.9058C51.6502 30.9027 51.4832 30.9097 51.3171 30.9268C51.1391 30.9498 50.9661 30.9648 50.7831 30.9848C50.6001 31.0048 50.4361 31.0458 50.2581 31.0768C50.0801 31.1078 49.9281 31.1678 49.7971 31.1918L49.4381 29.7318C49.6495 29.6453 49.8664 29.5724 50.0872 29.5138C50.3344 29.442 50.5854 29.3839 50.8391 29.3398C51.0991 29.2998 51.3592 29.2628 51.6312 29.2398C51.8849 29.2133 52.14 29.2009 52.3951 29.2028C52.7697 29.1997 53.1434 29.2366 53.5101 29.3128C53.8218 29.3751 54.1165 29.5037 54.3741 29.6898C54.6205 29.8702 54.8159 30.1114 54.9412 30.3898C55.0797 30.7262 55.1445 31.0883 55.1312 31.4518L55.1292 34.0348Z" fill="white"/>
<path d="M59.794 27.4912V29.3192H61.556V30.8522H59.794V33.0172C59.7668 33.2717 59.831 33.5276 59.975 33.7392C60.0647 33.8114 60.1677 33.8651 60.2783 33.8974C60.3888 33.9296 60.5046 33.9398 60.619 33.9272C60.699 33.9272 60.828 33.9132 61.027 33.8942C61.208 33.8712 61.404 33.8382 61.627 33.7942L61.89 35.3542C61.5712 35.4868 61.2374 35.5798 60.896 35.6312C60.5801 35.685 60.2604 35.7134 59.94 35.7162C59.4865 35.7354 59.0333 35.6727 58.602 35.5312C58.3078 35.4383 58.0428 35.2705 57.833 35.0442C57.6643 34.8465 57.5453 34.6113 57.486 34.3582C57.425 34.1163 57.3937 33.8677 57.393 33.6182V30.8492H56.542V29.5322L57.57 29.2392C57.6 29.1392 57.645 29.0302 57.692 28.8802C57.7297 28.7284 57.7768 28.5791 57.833 28.4332C57.875 28.2852 57.933 28.1262 57.976 27.9852C58.0211 27.8703 58.0601 27.7532 58.093 27.6342L59.794 27.4912Z" fill="white"/>
<path d="M66.5242 32.9348C66.3302 32.9608 66.1472 32.9698 65.9622 32.9978C65.7903 33.0049 65.6193 33.0267 65.4512 33.0628C65.313 33.0933 65.1849 33.1587 65.0792 33.2528C65.033 33.3037 64.9974 33.3632 64.9744 33.4279C64.9514 33.4926 64.9415 33.5613 64.9452 33.6298C64.9444 33.8094 65.0007 33.9845 65.1061 34.1298C65.166 34.1861 65.237 34.2292 65.3145 34.2566C65.3919 34.284 65.4742 34.295 65.5562 34.2888C65.7218 34.2808 65.8849 34.2443 66.0381 34.1808C66.2175 34.1344 66.384 34.0479 66.5251 33.9278L66.5242 32.9348ZM68.8242 34.0348H69.6182C69.6322 34.2568 69.6442 34.4798 69.6622 34.6978C69.6802 34.9158 69.6972 35.1448 69.7202 35.3778C69.4469 35.5048 69.1591 35.5975 68.8632 35.6538C68.5242 35.7156 68.1807 35.749 67.8362 35.7538C67.5787 35.7585 67.3235 35.7056 67.0892 35.5988C66.9751 35.5449 66.8776 35.4612 66.8072 35.3564C66.7368 35.2517 66.696 35.1299 66.6891 35.0038C66.6891 35.0128 66.6821 35.0038 66.6451 34.9848C66.4613 35.1636 66.2504 35.3121 66.0201 35.4248C65.8115 35.5155 65.5971 35.592 65.3782 35.6538C65.1862 35.6988 65.0101 35.7168 64.8531 35.7398C64.7081 35.7448 64.5842 35.7558 64.4972 35.7558C64.1456 35.7698 63.7956 35.7013 63.4752 35.5558C63.233 35.4584 63.0215 35.2974 62.8632 35.0898C62.7157 34.9198 62.6054 34.7209 62.5392 34.5058C62.4858 34.3061 62.4566 34.1006 62.4521 33.8938C62.4527 33.6907 62.482 33.4887 62.5392 33.2938C62.6031 33.09 62.7049 32.9 62.8392 32.7338C62.9895 32.5575 63.1726 32.4118 63.3782 32.3048C63.6377 32.1747 63.9161 32.0863 64.2032 32.0428C64.5723 31.9829 64.9446 31.9445 65.3182 31.9278C65.7382 31.8948 66.1552 31.8628 66.5392 31.8218V31.7218C66.5446 31.6093 66.5275 31.4969 66.4889 31.3911C66.4503 31.2853 66.3908 31.1883 66.3141 31.1058C66.0748 30.9507 65.7903 30.8802 65.5062 30.9058C65.3426 30.9028 65.1789 30.9098 65.0162 30.9268C64.8312 30.9498 64.6581 30.9648 64.4891 30.9848C64.3041 31.0038 64.1302 31.0458 63.9622 31.0768C63.7942 31.1078 63.6292 31.1678 63.4932 31.1918L63.1392 29.7318C63.3506 29.6471 63.5666 29.5744 63.7862 29.5138C64.0344 29.4418 64.2864 29.3837 64.5411 29.3398C64.7921 29.2998 65.0631 29.2628 65.3171 29.2398C65.5746 29.2132 65.8333 29.2009 66.0922 29.2028C66.4667 29.1996 66.8405 29.2365 67.2072 29.3128C67.5209 29.3755 67.8178 29.504 68.0782 29.6898C68.3203 29.8734 68.5133 30.1138 68.6401 30.3898C68.7754 30.7271 68.8395 31.0887 68.8282 31.4518L68.8242 34.0348Z" fill="white"/>
<path d="M73.1466 30.6222C73.3296 30.4372 73.5376 30.2502 73.7576 30.0692C73.9654 29.8951 74.1853 29.7361 74.4156 29.5932C74.6264 29.4703 74.8468 29.3646 75.0746 29.2772C75.2756 29.201 75.4878 29.1591 75.7026 29.1532C75.7604 29.1465 75.8189 29.1581 75.8698 29.1862C75.9207 29.2144 75.9616 29.2577 75.9866 29.3102C76.0457 29.4194 76.0747 29.5422 76.0706 29.6662C76.0687 29.8686 76.0425 30.0701 75.9926 30.2662C75.9483 30.5027 75.8906 30.7364 75.8196 30.9662C75.7539 31.1879 75.6771 31.4062 75.5896 31.6202C75.5196 31.7956 75.4315 31.9632 75.3266 32.1202L73.2366 31.8582V35.5912H70.8066V29.3412H73.2146C73.2146 29.4182 73.2056 29.5072 73.2056 29.6182C73.2056 29.7292 73.1866 29.8542 73.1796 29.9742C73.1726 30.0942 73.1566 30.2012 73.1356 30.3112C73.1163 30.4043 73.1063 30.4991 73.1057 30.5942L73.1466 30.6222Z" fill="white"/>
<path d="M84.552 26.6571C85.0684 26.6583 85.5833 26.7116 86.089 26.8161C86.6184 26.9109 87.1305 27.0848 87.608 27.3321L87.008 28.9981C86.5752 28.8345 86.1243 28.7237 85.665 28.6681C85.2696 28.6139 84.8711 28.5855 84.472 28.5831C83.854 28.5831 83.558 28.8361 83.558 29.3371C83.5566 29.3919 83.5671 29.4463 83.5889 29.4965C83.6106 29.5468 83.6431 29.5917 83.684 29.6281C83.7793 29.7269 83.8923 29.8069 84.017 29.8641C84.158 29.9231 84.317 29.9791 84.504 30.0381C84.698 30.0801 84.904 30.1291 85.122 30.1781C85.412 30.2621 85.731 30.3331 86.092 30.4431C86.4386 30.5469 86.7673 30.7026 87.067 30.9051C87.3769 31.1198 87.6368 31.3988 87.829 31.7231C88.0192 32.0959 88.1256 32.5056 88.141 32.9238C88.1564 33.3419 88.0803 33.7584 87.918 34.1441C87.7584 34.4856 87.5118 34.7791 87.203 34.9951C86.8236 35.2618 86.395 35.4505 85.942 35.5501C85.3364 35.698 84.7143 35.7679 84.091 35.7581C83.8433 35.7552 83.596 35.7388 83.35 35.7091C83.0482 35.6871 82.7477 35.6487 82.45 35.5941C82.1339 35.5388 81.8217 35.4637 81.515 35.3691C81.2074 35.285 80.9092 35.1697 80.625 35.0251L81.189 33.2931C81.5186 33.4136 81.8552 33.5137 82.197 33.5931C82.529 33.6561 82.818 33.7201 83.09 33.7591C83.362 33.7981 83.607 33.8151 83.824 33.8271C84.041 33.8391 84.213 33.8391 84.337 33.8391C84.6444 33.866 84.9524 33.796 85.218 33.6391C85.3092 33.5733 85.382 33.485 85.4293 33.3829C85.4765 33.2808 85.4968 33.1683 85.488 33.0561C85.4936 32.9473 85.4698 32.8391 85.4191 32.7426C85.3685 32.6462 85.2928 32.5652 85.2 32.5081C84.9437 32.3728 84.6681 32.2774 84.383 32.2251C83.914 32.0981 83.476 31.9741 83.061 31.8601C82.67 31.7546 82.2949 31.5968 81.946 31.3911C81.6109 31.1955 81.3364 30.9109 81.1531 30.5688C80.9699 30.2267 80.8851 29.8405 80.908 29.4531C80.9026 29.0737 80.9705 28.6968 81.108 28.3431C81.2457 27.9979 81.4661 27.6919 81.75 27.4521C82.0823 27.1828 82.4657 26.9835 82.877 26.8661C83.4214 26.7179 83.984 26.6475 84.548 26.6571" fill="white"/>
<path d="M93.5838 32.4689C93.586 32.2558 93.5719 32.0429 93.5418 31.8319C93.5262 31.6554 93.4795 31.4831 93.4038 31.3229C93.3366 31.1812 93.2331 31.0597 93.1038 30.9709C92.9598 30.8864 92.7946 30.845 92.6278 30.8519C92.4542 30.8417 92.2823 30.8903 92.1398 30.9899C91.9992 31.0708 91.8866 31.1925 91.8168 31.3389C91.7424 31.505 91.6919 31.6807 91.6668 31.8609C91.6363 32.0625 91.62 32.266 91.6178 32.4699C91.6163 32.6923 91.6303 32.9145 91.6598 33.1349C91.6818 33.3085 91.7318 33.4774 91.8078 33.6349C91.8771 33.7709 91.9858 33.8828 92.1198 33.9559C92.2759 34.0388 92.4512 34.0785 92.6278 34.0709C92.7844 34.0847 92.9415 34.0493 93.077 33.9695C93.2126 33.8897 93.3198 33.7696 93.3838 33.6259C93.4636 33.4651 93.5143 33.2914 93.5338 33.1129C93.5731 32.8996 93.5905 32.6828 93.5858 32.4659M96.0858 32.4559C96.0902 32.8934 96.0268 33.3289 95.8978 33.7469C95.7736 34.131 95.5664 34.483 95.2908 34.7779C94.9895 35.0926 94.6166 35.3297 94.2038 35.4689C93.1518 35.7969 92.0248 35.7969 90.9728 35.4689C90.5681 35.3357 90.2026 35.1045 89.9088 34.7959C89.6376 34.5012 89.4372 34.1487 89.3228 33.7649C89.1969 33.3431 89.1336 32.9051 89.1348 32.4649C89.1335 32.0238 89.201 31.5852 89.3348 31.1649C89.4525 30.7784 89.6598 30.4252 89.9398 30.1339C90.2436 29.8203 90.6156 29.5808 91.0268 29.4339C91.5459 29.2626 92.0903 29.1808 92.6368 29.1919C93.1839 29.1816 93.7288 29.2634 94.2488 29.4339C94.6503 29.5822 95.0118 29.8219 95.3048 30.1339C95.5859 30.425 95.7946 30.7782 95.9138 31.1649C96.0357 31.5829 96.0957 32.0165 96.0918 32.4519" fill="white"/>
<path d="M99.4824 32.4781C99.4496 32.8509 99.5449 33.2237 99.7524 33.5351C99.8811 33.6624 100.037 33.7589 100.208 33.8174C100.379 33.876 100.562 33.895 100.741 33.8731C101.012 33.8707 101.281 33.845 101.547 33.7961C101.823 33.7491 102.077 33.6761 102.322 33.6201C102.383 33.8941 102.458 34.1561 102.522 34.4201C102.586 34.6841 102.663 34.9611 102.73 35.2201C102.351 35.4038 101.947 35.5308 101.53 35.5971C101.102 35.6757 100.666 35.7142 100.23 35.7121C99.6798 35.7346 99.1303 35.648 98.6134 35.4571C98.234 35.3113 97.8986 35.0702 97.6394 34.7571C97.4023 34.4596 97.2348 34.1128 97.1494 33.7421C97.0664 33.3391 97.0248 32.9286 97.0254 32.5171C97.024 32.1176 97.0727 31.7195 97.1704 31.3321C97.2548 30.9416 97.4257 30.5749 97.6704 30.2591C97.9351 29.9231 98.2785 29.6576 98.6704 29.4861C99.1881 29.2712 99.7462 29.1705 100.306 29.1911C100.573 29.1911 100.88 29.2081 101.254 29.2361C101.636 29.2847 102.013 29.3653 102.381 29.4771L102.074 31.1551C101.844 31.1039 101.61 31.0704 101.374 31.0551C101.154 31.0381 100.962 31.0251 100.795 31.0251C100.611 31.0105 100.426 31.0368 100.253 31.1019C100.08 31.1671 99.9241 31.2696 99.7954 31.4021C99.5658 31.7091 99.455 32.0888 99.4834 32.4711" fill="white"/>
<path d="M104.053 29.3399H106.492V35.5909H104.053V29.3399ZM106.63 27.5239C106.639 27.8417 106.522 28.15 106.304 28.3819C106.163 28.5057 105.997 28.5997 105.819 28.6584C105.64 28.7172 105.451 28.7394 105.263 28.7239C105.081 28.7393 104.898 28.7169 104.724 28.658C104.551 28.5992 104.392 28.5052 104.256 28.3819C104.149 28.2674 104.064 28.1326 104.009 27.9853C103.954 27.838 103.928 27.6812 103.933 27.5239C103.928 27.3664 103.954 27.2092 104.01 27.062C104.066 26.9147 104.152 26.7804 104.261 26.6669C104.398 26.5478 104.556 26.4571 104.728 26.4003C104.9 26.3434 105.081 26.3216 105.261 26.3359C105.448 26.3196 105.636 26.3405 105.815 26.3973C105.994 26.4541 106.159 26.5458 106.302 26.6669C106.412 26.7803 106.497 26.9147 106.553 27.062C106.609 27.2093 106.635 27.3665 106.628 27.5239" fill="white"/>
<path d="M111.89 32.9351C111.71 32.9611 111.515 32.9701 111.328 32.9981C111.158 33.0061 110.988 33.0279 110.822 33.0631C110.686 33.0975 110.559 33.1625 110.452 33.2531C110.405 33.3034 110.369 33.3628 110.346 33.4277C110.323 33.4926 110.314 33.5614 110.319 33.6301C110.312 33.8097 110.368 33.9861 110.476 34.1301C110.538 34.1872 110.612 34.2308 110.692 34.2581C110.772 34.2855 110.857 34.296 110.942 34.2891C111.101 34.2786 111.258 34.2421 111.406 34.1811C111.584 34.1341 111.749 34.0476 111.889 33.9281L111.89 32.9351ZM114.2 34.0351H114.983C114.997 34.2571 115.011 34.4801 115.032 34.6981C115.053 34.9161 115.063 35.1451 115.086 35.3781C114.815 35.5045 114.529 35.5972 114.236 35.6541C113.897 35.715 113.553 35.7485 113.209 35.7541C112.949 35.7594 112.691 35.7065 112.455 35.5991C112.342 35.5436 112.245 35.4594 112.175 35.355C112.105 35.2506 112.063 35.1296 112.055 35.0041C112.055 35.0131 112.041 35.0041 112.01 34.9851C111.824 35.1663 111.61 35.3151 111.375 35.4251C111.172 35.5122 110.966 35.5886 110.756 35.6541C110.547 35.6991 110.372 35.7171 110.222 35.7401C110.062 35.7451 109.943 35.7561 109.854 35.7561C109.508 35.7673 109.164 35.7049 108.844 35.5731C108.6 35.4675 108.388 35.302 108.226 35.0921C108.074 34.9255 107.964 34.7253 107.905 34.5081C107.844 34.3097 107.813 34.1035 107.812 33.8961C107.809 33.6923 107.841 33.4895 107.905 33.2961C107.96 33.09 108.06 32.8987 108.198 32.7361C108.353 32.558 108.541 32.4123 108.753 32.3071C109.008 32.1779 109.283 32.0895 109.566 32.0451C109.936 31.9852 110.309 31.9468 110.684 31.9301C111.096 31.8971 111.514 31.8651 111.902 31.8241V31.7241C111.91 31.6131 111.894 31.5018 111.856 31.3972C111.818 31.2926 111.759 31.1972 111.682 31.1171C111.447 30.9587 111.164 30.8879 110.882 30.9171C110.713 30.914 110.544 30.921 110.376 30.9381C110.205 30.9611 110.029 30.9761 109.849 30.9961C109.669 31.0161 109.49 31.0571 109.324 31.0881C109.158 31.1191 108.999 31.1791 108.858 31.2031L108.502 29.7431C108.713 29.6591 108.929 29.5863 109.148 29.5251C109.397 29.4528 109.651 29.3947 109.907 29.3511C110.165 29.3111 110.425 29.2741 110.689 29.2511C110.945 29.2245 111.202 29.2122 111.46 29.2141C111.835 29.2113 112.21 29.2482 112.578 29.3241C112.891 29.3885 113.188 29.5168 113.45 29.7011C113.688 29.8864 113.879 30.1265 114.006 30.4011C114.143 30.7381 114.211 31.0992 114.206 31.4631L114.2 34.0351Z" fill="white"/>
<path d="M118.62 26.4702H116.178V35.5942H118.62V26.4702Z" fill="white"/>
<path d="M129.948 29.8842C129.913 30.0502 129.878 30.2502 129.848 30.4532C129.818 30.6562 129.787 30.8722 129.748 31.0862C129.709 31.3002 129.687 31.5192 129.661 31.7232C129.624 31.9432 129.59 32.1312 129.561 32.2992L128.868 35.5932H125.703L123.622 26.8462H126.289C126.303 26.9352 126.333 27.0852 126.378 27.2942C126.423 27.5032 126.462 27.7322 126.516 27.9832C126.57 28.2342 126.608 28.5192 126.671 28.7992C126.734 29.0792 126.798 29.3562 126.842 29.6142C126.886 29.8722 126.942 30.1062 126.98 30.2942C127.017 30.5032 127.048 30.6462 127.069 30.7392C127.106 30.8802 127.118 31.0532 127.149 31.2292C127.18 31.4052 127.201 31.5952 127.226 31.7922C127.251 31.9892 127.301 32.1692 127.315 32.3662C127.352 32.5442 127.381 32.7172 127.399 32.8662H127.491C127.516 32.7212 127.549 32.5482 127.578 32.3832C127.608 32.1832 127.627 32.0152 127.66 31.8212C127.674 31.6342 127.705 31.4512 127.731 31.2842C127.775 31.0902 127.797 30.9372 127.824 30.7952C127.85 30.6832 127.876 30.5332 127.924 30.3362C127.968 30.1232 128.016 29.8932 128.069 29.6362C128.122 29.3792 128.175 29.1092 128.245 28.8262C128.306 28.5262 128.369 28.2572 128.411 28.0042C128.453 27.7512 128.503 27.5172 128.547 27.3102C128.591 27.1032 128.62 26.9542 128.647 26.8532H131.372C131.386 26.9072 131.412 27.0222 131.458 27.2072C131.505 27.4222 131.547 27.6482 131.613 27.9222C131.679 28.1962 131.74 28.4852 131.813 28.8062C131.886 29.1272 131.951 29.4112 132.013 29.6802C132.075 29.9492 132.125 30.1802 132.165 30.3802C132.202 30.492 132.228 30.6072 132.243 30.7242C132.243 30.7242 132.255 30.7872 132.269 30.8842C132.283 30.9812 132.321 31.1112 132.353 31.2752C132.381 31.4202 132.414 31.5752 132.435 31.7582C132.456 31.9412 132.498 32.1092 132.521 32.2642C132.544 32.4192 132.568 32.5382 132.596 32.6642C132.602 32.7316 132.613 32.7985 132.629 32.8642H132.741C132.762 32.7102 132.788 32.5272 132.818 32.3462C132.848 32.1652 132.881 31.9662 132.898 31.7772C132.915 31.5882 132.956 31.3912 132.983 31.1912C133.016 31.0112 133.042 30.8442 133.067 30.6822C133.081 30.6002 133.109 30.4552 133.147 30.2632C133.182 30.0522 133.222 29.8342 133.276 29.5772C133.33 29.3202 133.389 29.0542 133.44 28.7712C133.491 28.4882 133.54 28.2252 133.602 27.9712C133.644 27.7092 133.695 27.4842 133.728 27.2962C133.752 27.145 133.786 26.9953 133.828 26.8482H136.471C136.438 27.0172 136.359 27.3332 136.253 27.7882C136.147 28.2432 136.026 28.7722 135.885 29.3772C135.744 29.9822 135.592 30.6092 135.435 31.2822C135.278 31.9552 135.128 32.5822 134.987 33.1772C134.846 33.7722 134.727 34.2902 134.614 34.7352C134.514 35.1642 134.443 35.4592 134.414 35.5952H131.255C131.217 35.4592 131.155 35.2292 131.098 34.9252C131.041 34.6212 130.953 34.3072 130.878 33.9622C130.803 33.6172 130.73 33.3032 130.651 33.0012C130.572 32.6992 130.518 32.4622 130.48 32.3012C130.475 32.2712 130.457 32.1752 130.438 32.0642C130.419 31.9532 130.393 31.8012 130.361 31.6332C130.329 31.4652 130.309 31.3002 130.261 31.1012C130.213 30.9022 130.196 30.7332 130.167 30.5642C130.138 30.3952 130.116 30.2532 130.09 30.1312C130.081 30.0506 130.066 29.9707 130.046 29.8922L129.948 29.8842Z" fill="white"/>
<path d="M141.177 32.4689C141.176 32.256 141.163 32.0434 141.139 31.8319C141.118 31.6556 141.069 31.4838 140.994 31.3229C140.926 31.1816 140.823 31.0603 140.694 30.9709C140.548 30.8856 140.381 30.8443 140.212 30.8519C140.041 30.8451 139.872 30.8934 139.73 30.9899C139.594 31.0736 139.486 31.1948 139.418 31.3389C139.337 31.5031 139.284 31.6794 139.261 31.8609C139.224 32.0617 139.206 32.2656 139.207 32.4699C139.207 32.7179 139.224 32.9359 139.244 33.1349C139.265 33.3099 139.318 33.4795 139.401 33.6349C139.473 33.77 139.583 33.8814 139.717 33.9559C139.87 34.0387 140.043 34.0784 140.217 34.0709C140.383 34.0793 140.547 34.0393 140.69 33.9559C140.815 33.8718 140.918 33.7586 140.99 33.6259C141.062 33.4624 141.111 33.2898 141.135 33.1129C141.169 32.8989 141.185 32.6825 141.184 32.4659M143.679 32.4559C143.678 32.8926 143.617 33.3271 143.496 33.7469C143.374 34.1326 143.165 34.4853 142.886 34.7779C142.582 35.0916 142.208 35.3284 141.794 35.4689C140.744 35.797 139.618 35.797 138.568 35.4689C138.164 35.3367 137.799 35.1053 137.507 34.7959C137.232 34.5017 137.027 34.1493 136.907 33.7649C136.78 33.3436 136.718 32.9051 136.724 32.4649C136.723 32.0243 136.789 31.5861 136.918 31.1649C137.036 30.7766 137.247 30.4228 137.532 30.1339C137.834 29.8219 138.202 29.5826 138.61 29.4339C139.658 29.1106 140.779 29.1106 141.827 29.4339C142.232 29.5843 142.598 29.8235 142.898 30.1339C143.176 30.4253 143.38 30.7787 143.493 31.1649C143.615 31.583 143.677 32.0164 143.676 32.4519" fill="white"/>
<path d="M147.269 30.622C147.457 30.4277 147.655 30.2432 147.862 30.069C148.074 29.8986 148.296 29.7397 148.525 29.593C148.739 29.4707 148.961 29.365 149.191 29.277C149.388 29.2016 149.597 29.1597 149.808 29.153C149.867 29.1458 149.926 29.157 149.978 29.1851C150.03 29.2133 150.072 29.2569 150.098 29.31C150.159 29.4186 150.188 29.5419 150.182 29.666C150.177 29.8678 150.153 30.0686 150.111 30.266C150.062 30.495 150.001 30.728 149.931 30.966C149.861 31.204 149.781 31.425 149.701 31.62C149.634 31.7944 149.55 31.9619 149.45 32.12L147.35 31.858V35.591H144.911V29.341H147.317C147.319 29.4335 147.314 29.526 147.305 29.618C147.293 29.733 147.293 29.854 147.284 29.974C147.278 30.0872 147.264 30.1998 147.242 30.311C147.228 30.424 147.219 30.519 147.205 30.594L147.269 30.622Z" fill="white"/>
<path d="M153.175 31.1561C153.201 31.1651 153.228 31.1682 153.255 31.1651L154.844 29.3371H157.573L155.253 31.7761C155.332 31.8611 155.434 31.9521 155.522 32.0521C155.601 32.1337 155.673 32.2205 155.74 32.3121C155.853 32.5181 156.007 32.7801 156.188 33.0661C156.369 33.3521 156.551 33.6451 156.722 33.9611C156.907 34.2611 157.09 34.5611 157.261 34.8561C157.432 35.1511 157.584 35.3811 157.701 35.5961H155.025C154.795 35.1961 154.57 34.7961 154.352 34.3961C154.129 33.9861 153.904 33.5831 153.685 33.1751L153.265 33.6181V35.5951H150.792V26.4951H153.264C153.264 26.9541 153.259 27.4071 153.255 27.8651V29.2241C153.246 29.5241 153.232 29.8471 153.218 30.1731C153.204 30.4991 153.188 30.8391 153.174 31.1531" fill="white"/>
<path d="M28.2932 6.845H35.1402V0H28.2932V6.845ZM21.4492 6.845V13.686H28.2932V6.845H21.4492ZM21.4492 17.112H28.2932V38.563H21.4492V33.106C19.5811 34.2321 17.4779 34.911 15.304 35.0895C13.1301 35.2681 10.9443 34.9415 8.91753 34.1353C6.89075 33.3291 5.07791 32.0651 3.6206 30.4421C2.16328 28.8192 1.10096 26.8812 0.516778 24.7796C-0.0674093 22.6781 -0.157687 20.4699 0.252984 18.3277C0.663655 16.1854 1.56419 14.1672 2.88415 12.4307C4.2041 10.6941 5.90773 9.28639 7.86193 8.31741C9.81613 7.34844 11.9679 6.84451 14.1492 6.845H18.0312V13.686H14.1492C12.7056 13.686 11.2945 14.114 10.0942 14.9158C8.89382 15.7177 7.95814 16.8575 7.40545 18.191C6.85275 19.5246 6.70782 20.992 6.98901 22.4079C7.27019 23.8238 7.96484 25.1246 8.98516 26.1458C10.0055 27.1669 11.3057 27.8626 12.7214 28.145C14.137 28.4273 15.6046 28.2836 16.9386 27.732C18.2726 27.1804 19.4131 26.2457 20.216 25.046C21.0189 23.8463 21.448 22.4355 21.4492 20.992V17.112Z" fill="white"/>
</svg>
