<svg width="46" height="63" viewBox="0 0 46 63" fill="none" xmlns="http://www.w3.org/2000/svg">
<path d="M42.8171 53.0875H41.341V61.869H42.8171V53.0875ZM37.6681 61.869H39.1672L35.0314 52.886H34.6658L30.4367 61.869H31.1735L32.5612 58.9352H36.3242L37.6681 61.869ZM36.0534 58.3696H32.8209L34.4578 54.8958L36.0534 58.3696ZM29.0435 61.869L25.8468 57.6081C26.1515 57.5373 26.446 57.4281 26.7231 57.2831C26.9739 57.1521 27.2035 56.984 27.4041 56.7844C27.5886 56.5995 27.7369 56.3818 27.8415 56.1424C27.9453 55.9001 27.9979 55.6389 27.996 55.3753C27.9991 55.0584 27.9302 54.7449 27.7945 54.4584C27.6541 54.1731 27.449 53.9246 27.1954 53.7328C26.8973 53.5138 26.5606 53.353 26.2029 53.2588C25.7495 53.1375 25.2814 53.0799 24.8121 53.0875H21.7763V61.869H23.2524V57.7403H24.2879L27.3396 61.8706L29.0435 61.869ZM25.7472 56.7908C25.5288 56.9591 25.2816 57.0862 25.0176 57.166C24.7209 57.2572 24.4119 57.3018 24.1015 57.2982H23.2508V53.634H24.5476C24.802 53.631 25.0548 53.6761 25.2924 53.767C25.5105 53.8491 25.7099 53.9743 25.8787 54.135C26.0445 54.2963 26.1754 54.4899 26.2634 54.7038C26.3568 54.9325 26.4037 55.1776 26.4013 55.4247C26.4056 55.6931 26.346 55.9588 26.2276 56.1998C26.114 56.4293 25.9507 56.6306 25.7496 56.7892M17.9966 61.8674H19.4957L15.3599 52.8844H14.9974L10.7676 61.8674H11.5044L12.8873 58.9352H16.6503L17.9966 61.8674ZM16.3835 58.368H13.1486L14.7872 54.8942L16.3835 58.368ZM9.23499 60.5332C9.36931 60.2241 9.43744 59.8903 9.43496 59.5534C9.43829 59.2609 9.36379 58.9727 9.21909 58.7185C9.07058 58.4605 8.8824 58.2275 8.66148 58.0279C8.41619 57.808 8.14931 57.6134 7.8649 57.4472C7.56619 57.2719 7.26188 57.1015 6.95281 56.9374C6.64373 56.7733 6.34103 56.614 6.04231 56.4555C5.76438 56.3114 5.49805 56.146 5.24574 55.9608C5.03437 55.8072 4.84651 55.6237 4.68812 55.4159C4.54752 55.2334 4.47187 55.0091 4.47308 54.7787C4.47421 54.6126 4.50972 54.4485 4.57742 54.2967C4.64937 54.1359 4.75443 53.9921 4.88571 53.8746C5.03799 53.7428 5.21323 53.6402 5.40268 53.5719C5.63714 53.4903 5.88415 53.4506 6.13236 53.4548C6.41707 53.4505 6.70045 53.4947 6.97036 53.5854C7.21068 53.6666 7.43397 53.7913 7.6291 53.9534C7.82308 54.1163 7.98889 54.3101 8.11981 54.527C8.26143 54.7582 8.37483 55.0056 8.45757 55.2638L9.2135 54.9181C9.03877 54.3139 8.67257 53.7827 8.16999 53.4046C7.58546 53.0264 6.896 52.8434 6.20086 52.882C5.7852 52.8749 5.37114 52.9354 4.97493 53.0613C4.64606 53.1666 4.34065 53.3346 4.07557 53.5559C3.83678 53.7599 3.64773 54.0158 3.52277 54.3039C3.3945 54.5989 3.32963 54.9175 3.33238 55.2391C3.32605 55.5493 3.39784 55.8561 3.5411 56.1313C3.68291 56.3931 3.86698 56.6297 4.08592 56.8315C4.32294 57.047 4.58194 57.2371 4.85863 57.3986C5.14912 57.568 5.44408 57.731 5.7436 57.8877C6.04311 58.0444 6.33867 58.1986 6.63022 58.3505C6.90193 58.4922 7.16048 58.6577 7.40287 58.8452C7.6133 59.0075 7.79667 59.2022 7.94615 59.4219C8.08751 59.6339 8.16062 59.8841 8.15565 60.1388C8.16034 60.3457 8.10737 60.5498 8.00269 60.7283C7.90288 60.8992 7.76695 61.0463 7.6044 61.1592C7.43233 61.2805 7.24041 61.3709 7.03726 61.4261C6.82685 61.4843 6.60951 61.5138 6.39121 61.5137C6.11638 61.5151 5.84306 61.4734 5.58111 61.3903C5.33106 61.3105 5.09641 61.1888 4.88727 61.0302C4.67611 60.8687 4.49267 60.6739 4.34404 60.4535C4.18286 60.2173 4.05695 59.9589 3.97041 59.6864L3.17383 60.013C3.28441 60.3212 3.43492 60.6137 3.62151 60.8828C3.79874 61.1367 4.01996 61.3569 4.27471 61.5328C4.54205 61.7155 4.83832 61.8518 5.15098 61.9359C5.51933 62.0323 5.89899 62.0787 6.27972 62.0737C6.7441 62.0823 7.20677 62.0155 7.64981 61.8762C8.01116 61.7614 8.34649 61.5768 8.63678 61.3329C8.89392 61.1167 9.09779 60.8441 9.23261 60.5363" fill="white"/>
<path d="M22.9328 0.00796964C22.0772 0.00880477 21.2222 0.0561454 20.3718 0.149768C23.0889 2.85813 26.7396 5.61668 26.3366 8.34894C25.8172 11.9041 22.5815 13.2543 20.0651 15.6711C17.0843 18.5388 18.2975 19.3457 20.6625 22.3153C26.0848 29.1109 27.1801 34.5699 26.7715 38.7471C26.4526 41.3079 25.6699 43.7892 24.4614 46.0693C25.6487 45.993 26.828 45.8233 27.9886 45.5619C27.4995 43.3403 27.3192 41.0618 27.4526 38.7909C27.4765 38.3927 27.5107 37.9792 27.5537 37.5539C28.1416 32.0176 32.1245 27.0589 32.1739 22.6427C32.2352 17.359 19.517 16.2255 28.4634 12.1351C28.9939 11.8959 29.5095 11.6249 30.0072 11.3234C32.3794 9.88953 34.0554 7.77301 33.3353 4.53094C33.071 3.57794 32.6365 2.68063 32.0528 1.88234C29.1731 0.640661 26.0695 0.00220919 22.9336 0.00638952M22.8388 5.17298C22.0665 3.34242 20.9566 1.6735 19.5672 0.253327C18.7338 0.372116 17.9079 0.539139 17.0938 0.75357C18.5435 1.78805 19.832 3.03146 20.9174 4.44333C22.6157 6.95892 22.1011 8.84841 19.9751 11.0016C19.8596 11.1187 19.7417 11.2333 19.6238 11.352C17.8936 13.0639 16.1396 14.5136 14.8348 16.6094C12.864 19.7734 16.0296 22.7853 17.9924 25.406C20.077 28.1941 22.1681 31.0984 23.4179 34.3484C25.0453 38.6022 24.3403 42.5739 22.6078 46.1123C22.7161 46.1163 22.8244 46.1163 22.9359 46.1163C23.1916 46.1163 23.4458 46.1123 23.6991 46.1027C25.558 42.7771 26.3143 38.9476 25.8593 35.165C25.4042 31.3823 23.7613 27.8415 21.1668 25.0516C20.2427 23.9859 19.2609 22.9717 18.2258 22.0134C17.1613 21.1584 16.2379 20.1412 15.4896 18.9992C14.6436 17.3678 16.0647 15.6026 17.3631 14.2141C18.2218 13.2973 19.0463 12.527 19.9122 11.6388C20.3041 11.2405 20.7032 10.8088 21.1158 10.33C22.3903 8.85795 23.5493 7.16682 22.842 5.1698M15.6975 1.16302C14.4264 1.58335 13.1948 2.11431 12.0165 2.7498C13.722 4.14541 15.7867 5.45817 16.365 6.59887C17.6786 9.20208 16.1873 11.7448 14.36 13.9186C13.5554 14.8745 12.6872 15.7643 11.9655 16.5545C10.8583 17.7716 9.26112 19.3369 9.3368 21.1292C9.41646 23.041 11.0295 24.6828 12.2045 26.0831C14.8395 29.236 16.7171 30.9845 19.3737 34.3628C21.5555 37.1341 22.9797 41.7518 21.2058 46.0486C21.4631 46.0693 21.7188 46.0844 21.9785 46.0948C22.0199 46.0151 22.0534 45.9418 22.0924 45.8638C22.9095 44.2579 23.3547 42.4888 23.3951 40.6875C23.4355 38.8862 23.07 37.0989 22.3258 35.4581C20.8919 31.8599 18.6129 28.6489 16.3124 25.5733C14.646 23.3429 11.4485 19.5504 12.9357 16.5776C13.3422 15.8182 13.8514 15.1186 14.4492 14.4985C15.0522 13.8437 15.7166 13.228 16.31 12.6728C17.9135 11.1688 18.9212 9.97793 19.1474 8.15935C19.5035 5.32831 17.3153 3.30023 15.6967 1.16221M22.9352 0.00160052C22.0796 0.00243565 21.2246 0.0497762 20.3741 0.143398C23.0913 2.85176 26.742 5.61031 26.3389 8.34257C25.8196 11.8977 22.5839 13.2479 20.0675 15.6647C17.0867 18.5324 18.2999 19.3393 20.6649 22.309C26.0872 29.1046 27.1825 34.5635 26.7739 38.7408C26.4551 41.3016 25.6722 43.7828 24.4638 46.0629C25.651 45.9866 26.8304 45.8169 27.991 45.5555C27.5019 43.3339 27.3215 41.0555 27.4549 38.7846C27.4788 38.3863 27.5131 37.9729 27.5561 37.5475C28.144 32.0113 32.1269 27.0526 32.1763 22.6364C32.2376 17.3527 19.5194 16.2191 28.4658 12.1287C28.9963 11.8896 29.5118 11.6185 30.0095 11.317C32.3818 9.88316 34.0578 7.76664 33.3377 4.52457C33.0734 3.57158 32.6389 2.67424 32.0552 1.87594C29.1755 0.634268 26.0719 -0.00415992 22.9359 2.03969e-05M22.8412 5.16662C22.0689 3.33605 20.9591 1.66713 19.5696 0.246957C18.7362 0.365747 17.9103 0.53277 17.0962 0.747201C18.5459 1.78168 19.8344 3.02507 20.9198 4.43694C22.6181 6.95253 22.1035 8.84201 19.9775 10.9952C19.862 11.1123 19.7441 11.227 19.6262 11.3457C17.896 13.0575 16.1419 14.5073 14.8371 16.6031C12.8664 19.7671 16.032 22.7789 17.9948 25.3997C20.0794 28.1877 22.1705 31.092 23.4203 34.3421C25.0477 38.5958 24.3427 42.5675 22.6101 46.1059C22.7185 46.1099 22.8268 46.1099 22.9384 46.1099C23.1941 46.1099 23.4481 46.1059 23.7014 46.0964C25.5604 42.7707 26.3167 38.9412 25.8617 35.1586C25.4067 31.376 23.7637 27.8351 21.1692 25.0452C20.2451 23.9795 19.2633 22.9653 18.2282 22.0071C17.1637 21.152 16.2403 20.1348 15.4919 18.9928C14.646 17.3614 16.0671 15.5962 17.3655 14.2078C18.2242 13.2909 19.0487 12.5206 19.9145 11.6324C20.3065 11.2341 20.7055 10.8024 21.1182 10.3237C22.3927 8.85158 23.5517 7.16045 22.8443 5.16343M15.6998 1.15665C14.4288 1.57698 13.1971 2.10794 12.0189 2.74343C13.7244 4.13904 15.7891 5.4518 16.3674 6.5925C17.6809 9.19571 16.1897 11.7384 14.3624 13.9122C13.5578 14.8681 12.6896 15.7579 11.9679 16.5481C10.8606 17.7653 9.26351 19.3306 9.33918 21.1229C9.41884 23.0346 11.0319 24.6764 12.2068 26.0768C14.8419 29.2296 16.7195 30.9781 19.376 34.3564C21.5579 37.1277 22.9822 41.7454 21.2082 46.0422C21.4655 46.0629 21.7212 46.078 21.9809 46.0884C22.0223 46.0087 22.0557 45.9355 22.0948 45.8574C22.9119 44.2516 23.3571 42.4824 23.3975 40.6811C23.4379 38.8798 23.0724 37.0925 22.3281 35.4517C20.8943 31.8536 18.6153 28.6425 16.3148 25.567C14.6484 23.3365 11.4509 19.544 12.9381 16.5712C13.3446 15.8118 13.8538 15.1122 14.4516 14.4921C15.0546 13.8374 15.7189 13.2216 16.3124 12.6664C17.9159 11.1625 18.9236 9.97157 19.1498 8.15298C19.5059 5.32194 17.3177 3.29386 15.6991 1.15585M11.6094 14.7542C13.3436 13.0169 15.1255 10.8064 15.4162 8.85954C15.6871 7.03378 13.2536 5.20724 10.8041 3.44282C9.5577 4.214 8.38947 5.10479 7.31589 6.10258C8.63024 7.19469 10.08 8.09803 11.4422 9.12959C12.0136 9.49224 12.5062 9.96635 12.8903 10.5236C13.5276 11.681 12.551 13.0942 11.3967 14.2866C11.3967 14.2866 10.409 15.2306 9.97245 15.6113C9.67931 15.8654 9.41486 16.0893 9.2189 16.2645C7.71098 17.6187 5.90035 18.8773 4.6784 20.5087C2.92593 22.853 3.99573 24.4231 5.0496 25.7271C8.19131 29.5929 14.2827 32.6979 18.0338 36.9278C19.2466 38.1982 20.0536 39.8011 20.3519 41.532C20.5335 43.0086 20.3434 44.5071 19.799 45.8916C20.0587 45.9291 20.316 45.9585 20.5789 45.9872C20.7876 45.5564 20.9686 45.1126 21.1205 44.6585C21.7874 42.2903 21.5202 39.7565 20.3741 37.5794C18.8784 34.8748 16.9681 32.4214 14.7129 30.3082C12.2005 27.8388 10.221 26.2305 8.41994 23.8336C7.54129 22.7841 7.07442 21.4509 7.10639 20.0825C7.25535 18.8016 9.01339 17.1208 9.94857 16.3067C10.46 15.8591 11.0351 15.3309 11.6134 14.7502M9.97483 15.6105C9.68169 15.8646 9.41724 16.0885 9.22128 16.2637C7.71336 17.6179 5.90273 18.8765 4.68078 20.5079C2.92831 22.8522 3.99811 24.4223 5.05199 25.7263C8.19369 29.5921 14.2851 32.6971 18.0362 36.927C19.249 38.1974 20.056 39.8003 20.3543 41.5312C20.5359 43.0078 20.3458 44.5063 19.8014 45.8908C20.0611 45.9283 20.3184 45.9577 20.5813 45.9864C20.79 45.5556 20.9709 45.1117 21.1229 44.6577C21.7897 42.2895 21.5226 39.7557 20.3766 37.5786C18.8808 34.874 16.9706 32.4206 14.7153 30.3074C12.2029 27.838 10.2234 26.2297 8.42232 23.8328C7.54368 22.7834 7.0768 21.4501 7.10877 20.0817C7.25773 18.8008 9.01578 17.1201 9.95096 16.306C10.4624 15.8583 11.0375 15.3301 11.6158 14.7494M6.19906 7.20505C5.99912 7.41614 5.8008 7.63281 5.60882 7.85426C6.48506 8.41187 7.47357 8.99099 8.42947 9.62347C9.50485 10.3324 10.8017 10.9952 10.1023 12.3502C8.29408 15.879 1.0213 16.0941 0.110814 19.8659L0.106828 19.873C0.0733715 20.1232 0.0447063 20.3709 0.0192159 20.621C0.0158672 21.116 0.0900518 21.6084 0.239072 22.0803C0.912976 24.3219 2.80005 26.158 4.42587 27.7472C4.43171 27.7546 4.4387 27.7611 4.44658 27.7663C6.52109 29.7225 8.71569 31.5473 11.0176 33.23C13.8598 35.388 17.3559 37.6176 18.3397 41.2261C18.6997 42.6789 18.5967 44.2079 18.045 45.5993C18.4258 45.6789 18.8121 45.7586 19.1968 45.816C19.8201 44.391 19.9412 42.7966 19.5401 41.2938C17.7693 35.7918 11.059 32.6557 6.93034 29.0878C6.28033 28.5223 5.58652 27.9193 4.92217 27.2716C3.39347 25.9403 2.26148 24.2132 1.65063 22.2803C0.978323 19.5632 3.80139 18.6726 5.7769 17.5805C7.20045 16.858 8.55957 16.0151 9.83942 15.0609C10.8158 14.3703 11.4964 13.3374 11.7456 12.1677C12.0555 10.3802 7.92923 8.20317 6.18233 7.21939M4.58918 9.09933C3.93626 9.95075 3.34605 10.8484 2.82318 11.7854C3.14324 12.0189 3.38845 12.3405 3.52894 12.711C3.83562 13.6669 2.67021 14.1711 1.52792 14.4898C1.31922 15.0044 1.12964 15.5253 0.965541 16.0574C2.3707 15.3652 3.8906 14.9342 5.4017 14.3368C6.47071 13.9114 8.98628 13.2129 9.00779 11.7949C9.0285 10.4758 6.43249 9.82182 4.59001 9.09933M0.0431365 25.7908C0.582749 30.3797 2.49541 34.6987 5.53074 38.1824C5.63707 38.277 5.73174 38.3839 5.81273 38.501C6.27953 39.0203 6.77262 39.5182 7.28721 39.9922C9.14005 41.5559 13.3061 39.9285 15.3876 41.3002C15.9868 41.7524 16.4382 42.3723 16.6848 43.0813C16.9314 43.7903 16.962 44.5566 16.7728 45.283C17.0325 45.3579 17.2898 45.4248 17.5495 45.4862C18.3708 42.6304 17.7494 39.7508 14.5671 36.9771C11.6859 34.4663 8.34426 33.1448 5.03687 30.7376C3.11725 29.3678 1.43079 27.6977 0.04231 25.7916M10.5093 42.4871C12.2825 43.6253 14.2045 44.5129 16.2208 45.1245C16.9951 42.0489 13.8805 43.4932 10.5093 42.4871ZM28.5853 45.4177C29.7733 45.1208 30.9349 44.7267 32.0584 44.2395C30.6512 39.6691 31.1094 34.7276 33.3329 30.4938C34.2625 28.7708 33.0246 27.8882 34.0235 26.2194C35.2144 24.2223 38.0606 23.9093 39.0475 20.5637C40.1791 16.3189 40.4932 11.8977 39.9731 7.53564C38.9784 6.44471 37.8822 5.45087 36.6992 4.56758C36.2021 7.29984 33.6603 9.90466 30.4262 11.4229C30.3321 11.4657 30.2411 11.515 30.1538 11.5703C27.4143 13.2559 36.9326 15.7786 35.5816 20.8839C35.1443 22.4427 34.5149 23.9411 33.7081 25.3447C32.4168 27.6874 30.8523 29.8852 29.7443 32.3602C28.0082 36.4864 27.6023 41.0514 28.5829 45.4193M31.9803 40.7553C32.1201 41.8382 32.3749 42.9031 32.7402 43.9321C33.9051 43.3845 35.0214 42.7391 36.0771 42.0028C35.463 40.5082 35.064 38.9342 34.8918 37.3276C34.5617 34.3481 35.2178 31.3424 36.7597 28.7716C37.7507 27.1784 39.1224 25.798 40.1659 24.2231C41.2651 22.5378 42.1735 20.7355 42.8743 18.8494C43.4726 17.2753 43.8908 15.6386 44.1209 13.9704C43.3027 12.0723 42.2342 10.2921 40.9442 8.67714C41.8378 13.4785 41.2399 18.4383 39.2308 22.8897C37.6989 26.2815 34.8894 28.7724 33.2485 32.0814C31.9982 34.7902 31.557 37.8025 31.9779 40.7561M36.8474 41.4428C38.0344 40.544 39.1314 39.5321 40.1229 38.4213C38.8221 36.5382 37.4878 34.162 37.7411 31.754C37.9705 29.5801 39.5828 30.767 40.886 31.2107C41.7224 31.4967 42.3199 31.6775 42.8145 30.8507C42.9473 30.6 43.0028 30.3156 42.9739 30.0334C42.938 29.3961 42.6552 28.6856 42.6321 28.1519C42.6003 27.4692 44.0787 26.3699 45.9212 24.6844C45.9587 24.1483 45.9785 23.609 45.9785 23.0625C45.9804 20.9123 45.6815 18.7724 45.0904 16.705C44.1045 19.2515 42.9438 21.7268 41.6165 24.1132C41.3884 24.5108 41.2472 24.9522 41.2021 25.4083C41.1571 25.8644 41.2093 26.3249 41.3552 26.7594C41.54 27.4477 41.9845 28.2522 41.2755 28.8305C40.941 29.1046 40.0433 28.6481 39.6983 28.5334C37.2847 27.7089 36.2436 31.1096 35.8421 32.9234C35.3275 35.2223 36.1161 39.2649 36.8482 41.4467M41.0493 37.3236C42.0812 36.0113 42.9687 34.5916 43.6963 33.0891C44.4813 31.4651 45.0709 29.7537 45.4528 27.9909C42.7763 27.7647 43.302 28.8313 43.3419 30.031C43.3697 30.2977 43.3426 30.5674 43.2623 30.8233C43.182 31.0792 43.0503 31.3159 42.8751 31.519C42.0498 32.4374 40.0074 31.519 39.5757 32.5792C39.2029 33.5049 39.9644 35.4071 41.0493 37.3236ZM6.17995 7.22576C5.98001 7.43685 5.78164 7.65353 5.58967 7.87497C6.4659 8.43258 7.45447 9.0117 8.41036 9.64418C9.48574 10.3531 10.7826 11.0159 10.0832 12.3709C8.27497 15.8997 1.0022 16.1148 0.0917071 19.8866L0.0877203 19.8937C0.0542641 20.1439 0.025599 20.3916 0.000108501 20.6417C-0.00324019 21.1367 0.0709445 21.6291 0.219965 22.1011C0.893869 24.3426 2.78095 26.1787 4.40676 27.7679C4.4126 27.7753 4.41959 27.7818 4.42747 27.787C6.50876 29.7367 8.70974 31.5546 11.0176 33.23C13.8598 35.388 17.3559 37.6176 18.3397 41.2261C18.6997 42.6789 18.5967 44.2079 18.045 45.5993C18.4258 45.6789 18.8121 45.7586 19.1968 45.816C19.8201 44.391 19.9412 42.7966 19.5401 41.2938C17.7693 35.7918 11.059 32.6557 6.93034 29.0878C6.28033 28.5223 5.58652 27.9193 4.92217 27.2716C3.39347 25.9403 2.26148 24.2132 1.65063 22.2803C0.978323 19.5632 3.80139 18.6726 5.7769 17.5805C7.20045 16.858 8.55957 16.0151 9.83942 15.0609C10.8158 14.3703 11.4964 13.3374 11.7456 12.1677C12.0555 10.3802 7.92923 8.20317 6.18233 7.21939M4.58918 9.09933C3.93626 9.95075 3.34605 10.8484 2.82318 11.7854C3.14324 12.0189 3.38845 12.3405 3.52894 12.711C3.83562 13.6669 2.67021 14.1711 1.52792 14.4898C1.31922 15.0044 1.12964 15.5253 0.965541 16.0574C2.3707 15.3652 3.8906 14.9342 5.4017 14.3368C6.47071 13.9114 8.98628 13.2129 9.00779 11.7949C9.0285 10.4758 6.43249 9.82182 4.59001 9.09933M0.0431365 25.7908C0.582749 30.3797 2.49541 34.6987 5.53074 38.1824C5.63707 38.277 5.73174 38.3839 5.81273 38.501C6.27953 39.0203 6.77262 39.5182 7.28721 39.9922C9.14005 41.5559 13.3061 39.9285 15.3876 41.3002C15.9868 41.7524 16.4382 42.3723 16.6848 43.0813C16.9314 43.7903 16.962 44.5566 16.7728 45.283C17.0325 45.3579 17.2898 45.4248 17.5495 45.4862C18.3708 42.6304 17.7494 39.7508 14.5671 36.9771C11.6859 34.4663 8.34426 33.1448 5.03687 30.7376C3.11725 29.3678 1.43079 27.6977 0.04231 25.7916M10.5093 42.4871C12.2825 43.6253 14.2045 44.5129 16.2208 45.1245C16.9951 42.0489 13.8805 43.4932 10.5093 42.4871ZM28.5853 45.4177C29.7733 45.1208 30.9349 44.7267 32.0584 44.2395C30.6512 39.6691 31.1094 34.7276 33.3329 30.4938C34.2625 28.7708 33.0246 27.8882 34.0235 26.2194C35.2144 24.2223 38.0606 23.9093 39.0475 20.5637C40.1791 16.3189 40.4932 11.8977 39.9731 7.53564C38.9784 6.44471 37.8822 5.45087 36.6992 4.56758C36.2021 7.29984 33.6603 9.90466 30.4262 11.4229C30.3321 11.4657 30.2411 11.515 30.1538 11.5703C27.4143 13.2559 36.9326 15.7786 35.5816 20.8839C35.1443 22.4427 34.5149 23.9411 33.7081 25.3447C32.4168 27.6874 30.8523 29.8852 29.7443 32.3602C28.0082 36.4864 27.6023 41.0514 28.5829 45.4193M31.9803 40.7553C32.1201 41.8382 32.3749 42.9031 32.7402 43.9321C33.9051 43.3845 35.0214 42.7391 36.0771 42.0028C35.463 40.5082 35.064 38.9342 34.8918 37.3276C34.5617 34.3481 35.2178 31.3424 36.7597 28.7716C37.7507 27.1784 39.1224 25.798 40.1659 24.2231C41.2651 22.5378 42.1735 20.7355 42.8743 18.8494C43.4726 17.2753 43.8908 15.6386 44.1209 13.9704C43.3027 12.0723 42.2342 10.2921 40.9442 8.67714C41.8378 13.4785 41.2399 18.4383 39.2308 22.8897C37.6989 26.2815 34.8894 28.7724 33.2485 32.0814C31.9982 34.7902 31.557 37.8025 31.9779 40.7561M36.8474 41.4428C38.0344 40.544 39.1314 39.5321 40.1229 38.4213C38.8221 36.5382 37.4878 34.162 37.7411 31.754C37.9705 29.5801 39.5828 30.767 40.886 31.2107C41.7224 31.4967 42.3199 31.6775 42.8145 30.8507C42.9473 30.6 43.0028 30.3156 42.9739 30.0334C42.938 29.3961 42.6552 28.6856 42.6321 28.1519C42.6003 27.4692 44.0787 26.3699 45.9212 24.6844C45.9587 24.1483 45.9785 23.609 45.9785 23.0625C45.9804 20.9123 45.6815 18.7724 45.0904 16.705C44.1045 19.2515 42.9438 21.7268 41.6165 24.1132C41.3884 24.5108 41.2472 24.9522 41.2021 25.4083C41.1571 25.8644 41.2093 26.3249 41.3552 26.7594C41.54 27.4477 41.9845 28.2522 41.2755 28.8305C40.941 29.1046 40.0433 28.6481 39.6983 28.5334C37.2847 27.7089 36.2436 31.1096 35.8421 32.9234C35.3275 35.2223 36.1161 39.2649 36.8482 41.4467M41.0493 37.3236C42.0812 36.0113 42.9687 34.5916 43.6963 33.0891C44.4813 31.4651 45.0709 29.7537 45.4528 27.9909C42.7763 27.7647 43.302 28.8313 43.3419 30.031C43.3697 30.2977 43.3426 30.5674 43.2623 30.8233C43.182 31.0792 43.0503 31.3159 42.8751 31.519C42.0498 32.4374 40.0074 31.519 39.5757 32.5792C39.2029 33.5049 39.9644 35.4071 41.0493 37.3236Z" fill="white"/>
</svg>
